<svg width="790" height="442" viewBox="0 0 790 442" fill="none" xmlns="http://www.w3.org/2000/svg">
<path d="M785.371 381.934C787.652 381.934 788.97 379.913 788.97 376.745C788.97 373.599 787.646 371.578 785.371 371.578C783.096 371.578 781.758 373.613 781.758 376.752C781.758 379.92 783.082 381.934 785.371 381.934ZM785.371 380.843C783.836 380.843 782.987 379.246 782.987 376.745C782.987 374.3 783.857 372.675 785.371 372.675C786.885 372.675 787.741 374.287 787.741 376.752C787.741 379.253 786.899 380.843 785.371 380.843Z" fill="#434A50"/>
<path d="M753.943 316.647H755.137C755.137 315.521 756.055 314.674 757.276 314.674C758.407 314.674 759.134 315.459 759.134 316.445C759.134 317.279 758.826 317.82 757.489 319.23L754.005 322.912V323.773H760.533V322.662H755.699V322.634L758.051 320.189C759.868 318.3 760.369 317.473 760.369 316.369C760.369 314.848 759.107 313.583 757.276 313.583C755.37 313.583 753.943 314.889 753.943 316.647Z" fill="#434A50"/>
<path d="M768.302 323.94C770.606 323.94 771.937 321.918 771.937 318.751C771.937 315.605 770.599 313.583 768.302 313.583C766.005 313.583 764.654 315.619 764.654 318.758C764.654 321.925 765.991 323.94 768.302 323.94ZM768.302 322.849C766.753 322.849 765.895 321.252 765.895 318.751C765.895 316.306 766.773 314.681 768.302 314.681C769.831 314.681 770.695 316.292 770.695 318.758C770.695 321.259 769.845 322.849 768.302 322.849Z" fill="#434A50"/>
<path d="M776.819 323.94C779.123 323.94 780.453 321.918 780.453 318.751C780.453 315.605 779.116 313.583 776.819 313.583C774.522 313.583 773.171 315.619 773.171 318.758C773.171 321.925 774.508 323.94 776.819 323.94ZM776.819 322.849C775.269 322.849 774.412 321.252 774.412 318.751C774.412 316.306 775.29 314.681 776.819 314.681C778.348 314.681 779.212 316.292 779.212 318.758C779.212 321.259 778.362 322.849 776.819 322.849Z" fill="#434A50"/>
<path d="M785.335 323.94C787.639 323.94 788.97 321.918 788.97 318.751C788.97 315.605 787.633 313.583 785.335 313.583C783.038 313.583 781.687 315.619 781.687 318.758C781.687 321.925 783.025 323.94 785.335 323.94ZM785.335 322.849C783.786 322.849 782.929 321.252 782.929 318.751C782.929 316.306 783.806 314.681 785.335 314.681C786.865 314.681 787.729 316.292 787.729 318.758C787.729 321.259 786.878 322.849 785.335 322.849Z" fill="#434A50"/>
<path d="M758.812 266.814H759.98V264.73H761.35V263.632H759.98V256.791H758.194C755.904 260.187 754.769 262.014 753.943 263.598V264.73H758.812V266.814ZM755.139 263.605C755.904 262.215 756.958 260.541 758.792 257.833H758.812V263.632H755.139V263.605Z" fill="#434A50"/>
<path d="M768.73 266.98C770.986 266.98 772.289 264.959 772.289 261.792C772.289 258.645 770.98 256.624 768.73 256.624C766.481 256.624 765.158 258.659 765.158 261.799C765.158 264.966 766.467 266.98 768.73 266.98ZM768.73 265.89C767.213 265.89 766.373 264.292 766.373 261.792C766.373 259.347 767.233 257.721 768.73 257.721C770.228 257.721 771.074 259.333 771.074 261.799C771.074 264.299 770.241 265.89 768.73 265.89Z" fill="#434A50"/>
<path d="M777.07 266.98C779.327 266.98 780.629 264.959 780.629 261.792C780.629 258.645 779.32 256.624 777.07 256.624C774.821 256.624 773.498 258.659 773.498 261.799C773.498 264.966 774.807 266.98 777.07 266.98ZM777.07 265.89C775.553 265.89 774.713 264.292 774.713 261.792C774.713 259.347 775.573 257.721 777.07 257.721C778.568 257.721 779.414 259.333 779.414 261.799C779.414 264.299 778.581 265.89 777.07 265.89Z" fill="#434A50"/>
<path d="M785.411 266.98C787.667 266.98 788.97 264.959 788.97 261.792C788.97 258.645 787.66 256.624 785.411 256.624C783.161 256.624 781.838 258.659 781.838 261.799C781.838 264.966 783.148 266.98 785.411 266.98ZM785.411 265.89C783.893 265.89 783.054 264.292 783.054 261.792C783.054 259.347 783.913 257.721 785.411 257.721C786.908 257.721 787.754 259.333 787.754 261.799C787.754 264.299 786.922 265.89 785.411 265.89Z" fill="#434A50"/>
<path d="M757.641 207.95C759.638 207.95 761.089 206.507 761.089 204.53C761.089 202.63 759.712 201.222 757.857 201.222C756.534 201.222 755.536 201.943 755.138 202.845H755.117C755.158 200.181 756.082 198.697 757.708 198.697C758.707 198.697 759.436 199.217 759.719 200.119H760.954C760.65 198.586 759.375 197.594 757.722 197.594C755.34 197.594 753.943 199.571 753.943 202.942C753.943 206.667 755.846 207.95 757.641 207.95ZM757.628 206.84C756.379 206.84 755.408 205.82 755.408 204.537C755.408 203.261 756.359 202.318 757.648 202.318C758.937 202.318 759.854 203.261 759.854 204.572C759.854 205.834 758.869 206.84 757.628 206.84Z" fill="#434A50"/>
<path d="M768.633 207.943C770.9 207.943 772.209 205.924 772.209 202.761C772.209 199.619 770.893 197.601 768.633 197.601C766.372 197.601 765.043 199.633 765.043 202.768C765.043 205.931 766.359 207.943 768.633 207.943ZM768.633 206.854C767.108 206.854 766.264 205.259 766.264 202.761C766.264 200.32 767.128 198.697 768.633 198.697C770.137 198.697 770.988 200.306 770.988 202.768C770.988 205.266 770.151 206.854 768.633 206.854Z" fill="#434A50"/>
<path d="M777.013 207.943C779.28 207.943 780.589 205.924 780.589 202.761C780.589 199.619 779.274 197.601 777.013 197.601C774.753 197.601 773.423 199.633 773.423 202.768C773.423 205.931 774.739 207.943 777.013 207.943ZM777.013 206.854C775.488 206.854 774.645 205.259 774.645 202.761C774.645 200.32 775.508 198.697 777.013 198.697C778.518 198.697 779.368 200.306 779.368 202.768C779.368 205.266 778.531 206.854 777.013 206.854Z" fill="#434A50"/>
<path d="M785.394 207.943C787.661 207.943 788.97 205.924 788.97 202.761C788.97 199.619 787.654 197.601 785.394 197.601C783.133 197.601 781.804 199.633 781.804 202.768C781.804 205.931 783.12 207.943 785.394 207.943ZM785.394 206.854C783.869 206.854 783.025 205.259 783.025 202.761C783.025 200.32 783.889 198.697 785.394 198.697C786.898 198.697 787.748 200.306 787.748 202.768C787.748 205.266 786.912 206.854 785.394 206.854Z" fill="#434A50"/>
<path d="M757.47 149.955C759.534 149.955 761.004 148.761 761.004 147.08C761.004 145.836 760.168 144.808 758.907 144.503V144.475C759.986 144.121 760.64 143.28 760.64 142.239C760.64 140.71 759.311 139.599 757.47 139.599C755.643 139.599 754.294 140.717 754.294 142.232C754.294 143.287 754.962 144.135 756.034 144.475V144.503C754.78 144.802 753.943 145.83 753.943 147.08C753.943 148.754 755.413 149.955 757.47 149.955ZM757.47 148.865C756.135 148.865 755.177 148.08 755.177 146.989C755.177 145.892 756.135 145.107 757.47 145.107C758.812 145.107 759.763 145.885 759.763 146.989C759.763 148.08 758.812 148.865 757.47 148.865ZM757.47 144.01C756.31 144.01 755.501 143.322 755.501 142.35C755.501 141.37 756.31 140.676 757.47 140.676C758.63 140.676 759.439 141.363 759.439 142.35C759.439 143.322 758.623 144.01 757.47 144.01Z" fill="#434A50"/>
<path d="M768.644 149.955C770.91 149.955 772.219 147.934 772.219 144.767C772.219 141.62 770.904 139.599 768.644 139.599C766.385 139.599 765.057 141.634 765.057 144.774C765.057 147.941 766.372 149.955 768.644 149.955ZM768.644 148.865C767.12 148.865 766.277 147.267 766.277 144.767C766.277 142.322 767.141 140.697 768.644 140.697C770.148 140.697 770.998 142.308 770.998 144.774C770.998 147.274 770.162 148.865 768.644 148.865Z" fill="#434A50"/>
<path d="M777.02 149.955C779.286 149.955 780.594 147.934 780.594 144.767C780.594 141.62 779.279 139.599 777.02 139.599C774.761 139.599 773.432 141.634 773.432 144.774C773.432 147.941 774.747 149.955 777.02 149.955ZM777.02 148.865C775.496 148.865 774.653 147.267 774.653 144.767C774.653 142.322 775.516 140.697 777.02 140.697C778.524 140.697 779.374 142.308 779.374 144.774C779.374 147.274 778.537 148.865 777.02 148.865Z" fill="#434A50"/>
<path d="M785.396 149.955C787.661 149.955 788.97 147.934 788.97 144.767C788.97 141.62 787.655 139.599 785.396 139.599C783.136 139.599 781.808 141.634 781.808 144.774C781.808 147.941 783.123 149.955 785.396 149.955ZM785.396 148.865C783.872 148.865 783.029 147.267 783.029 144.767C783.029 142.322 783.892 140.697 785.396 140.697C786.899 140.697 787.749 142.308 787.749 144.774C787.749 147.274 786.913 148.865 785.396 148.865Z" fill="#434A50"/>
<path d="M750.367 91.794H751.541V81.7712H750.353L747.762 83.6882V84.9454L750.34 83.0978H750.367V91.794Z" fill="#434A50"/>
<path d="M757.418 91.9607C759.685 91.9607 760.994 89.9395 760.994 86.7722C760.994 83.6257 759.678 81.6045 757.418 81.6045C755.158 81.6045 753.828 83.6396 753.828 86.7791C753.828 89.9464 755.144 91.9607 757.418 91.9607ZM757.418 90.8702C755.893 90.8702 755.05 89.2727 755.05 86.7722C755.05 84.3272 755.913 82.7019 757.418 82.7019C758.923 82.7019 759.773 84.3134 759.773 86.7791C759.773 89.2796 758.936 90.8702 757.418 90.8702Z" fill="#434A50"/>
<path d="M768.632 91.9607C770.9 91.9607 772.209 89.9395 772.209 86.7722C772.209 83.6257 770.893 81.6045 768.632 81.6045C766.372 81.6045 765.043 83.6396 765.043 86.7791C765.043 89.9464 766.359 91.9607 768.632 91.9607ZM768.632 90.8702C767.108 90.8702 766.264 89.2727 766.264 86.7722C766.264 84.3272 767.128 82.7019 768.632 82.7019C770.137 82.7019 770.987 84.3134 770.987 86.7791C770.987 89.2796 770.151 90.8702 768.632 90.8702Z" fill="#434A50"/>
<path d="M777.013 91.9607C779.28 91.9607 780.589 89.9395 780.589 86.7722C780.589 83.6257 779.273 81.6045 777.013 81.6045C774.753 81.6045 773.423 83.6396 773.423 86.7791C773.423 89.9464 774.739 91.9607 777.013 91.9607ZM777.013 90.8702C775.488 90.8702 774.645 89.2727 774.645 86.7722C774.645 84.3272 775.508 82.7019 777.013 82.7019C778.518 82.7019 779.368 84.3134 779.368 86.7791C779.368 89.2796 778.531 90.8702 777.013 90.8702Z" fill="#434A50"/>
<path d="M785.393 91.9607C787.661 91.9607 788.97 89.9395 788.97 86.7722C788.97 83.6257 787.654 81.6045 785.393 81.6045C783.133 81.6045 781.804 83.6396 781.804 86.7791C781.804 89.9464 783.12 91.9607 785.393 91.9607ZM785.393 90.8702C783.869 90.8702 783.025 89.2727 783.025 86.7722C783.025 84.3272 783.889 82.7019 785.393 82.7019C786.898 82.7019 787.748 84.3134 787.748 86.7791C787.748 89.2796 786.912 90.8702 785.393 90.8702Z" fill="#434A50"/>
<path d="M7.05762 388.147H790V389.153H7.05762V388.147Z" fill="#EDEDED"/>
<path d="M7.05762 329.118H790V330.123H7.05762V329.118Z" fill="#EDEDED"/>
<path d="M7.05762 271.123H790V272.128H7.05762V271.123Z" fill="#EDEDED"/>
<path d="M7.05762 213.128H790V214.133H7.05762V213.128Z" fill="#EDEDED"/>
<path d="M7.05762 155.133H790V156.139H7.05762V155.133Z" fill="#EDEDED"/>
<path d="M7.05762 97.1387H790V98.1439H7.05762V97.1387Z" fill="#EDEDED"/>
<path d="M7.05762 39.144H790V40.1493H7.05762V39.144Z" fill="#EDEDED"/>
<path d="M28.6914 321.868H48.265V388.148H28.6914V321.868Z" fill="#F5B65A"/>
<path d="M51.3555 293.906H71.9592V388.147H51.3555V293.906Z" fill="#81AE7C"/>
<path d="M51.3555 298.049H71.9592V312.548H51.3555V298.049Z" fill="white"/>
<path fill-rule="evenodd" clip-rule="evenodd" d="M70.7472 299.258H52.5675V311.34H70.7472V299.258ZM51.3555 298.049V312.548H71.9592V298.049H51.3555Z" fill="#C9C9C9"/>
<path d="M28.6914 321.868H48.265V335.331H28.6914V321.868Z" fill="#E18565"/>
<path d="M7.94001 429.81L5.73327 426.172L8.28505 424.378L11.9017 429.579L8.66572 431.853L8.63986 431.816C8.69013 431.185 8.42706 430.609 7.94001 429.81ZM8.43579 433.135L13.3174 429.704L14.2386 431.029L15.0106 430.486L13.5659 428.409L12.7338 428.994L8.59356 423.041L4.46542 425.942L7.14583 430.341C7.70583 431.255 7.93924 431.976 7.63484 432.578L7.1402 432.925L8.58491 435.002L9.35691 434.46L8.43579 433.135Z" fill="black"/>
<path d="M13.9317 422.997C14.6898 422.465 15.5945 422.687 16.1753 423.482L13.5635 425.318C13.0552 424.478 13.1782 423.527 13.9317 422.997ZM17.162 424.941C17.3447 425.49 17.1128 426.117 16.5026 426.546C15.6381 427.153 14.6739 426.925 14.0307 426L13.9984 425.953L17.447 423.529L17.2337 423.223C16.2156 421.759 14.7565 421.373 13.4575 422.286C12.1308 423.218 11.988 424.834 13.0319 426.335C14.0888 427.855 15.5946 428.229 16.9721 427.26C18.0215 426.523 18.402 425.328 17.9525 424.385L17.162 424.941Z" fill="black"/>
<path d="M19.7471 421.394L20.3944 417.535L19.4005 418.234L18.844 421.807L18.807 421.833L17.3202 419.696L16.5159 420.261L19.8772 425.094L20.6815 424.529L19.0655 422.205L19.1025 422.179L22.7849 423.05L23.8204 422.323L19.7471 421.394Z" fill="black"/>
<path d="M25.161 421.45C25.4568 421.242 25.5264 420.847 25.3195 420.549C25.1127 420.252 24.7199 420.182 24.4241 420.39C24.1282 420.598 24.0587 420.993 24.2655 421.29C24.4724 421.588 24.8651 421.658 25.161 421.45Z" fill="black"/>
<path d="M29.7266 414.684L29.203 413.932L26.1705 416.063L26.6941 416.816L29.7266 414.684Z" fill="black"/>
<path d="M35.9169 408.86L34.4468 409.893C33.4945 410.563 32.6194 410.472 32.0344 409.631C31.4526 408.794 31.6671 407.945 32.624 407.272L34.094 406.239L35.9169 408.86ZM35.0999 410.555L36.4405 409.613L38.2342 412.192L39.0663 411.607L34.4025 404.901L31.8831 406.672C30.6304 407.553 30.3356 409.019 31.1792 410.232C31.8741 411.231 33.0185 411.541 34.1134 411.096L34.0645 415.123L35.0538 414.427L35.0999 410.555Z" fill="black"/>
<path d="M43.4857 408.501L44.2901 407.936L40.9288 403.103L40.1244 403.668L41.5109 405.662L39.158 407.315L37.7714 405.322L36.9671 405.887L40.3283 410.72L41.1327 410.155L39.6201 407.98L41.9731 406.326L43.4857 408.501Z" fill="black"/>
<path d="M47.4937 405.684C48.5153 404.966 48.7723 403.99 48.1776 403.135C47.7672 402.545 47.069 402.392 46.4053 402.734L46.3794 402.697C46.7585 402.292 46.7853 401.588 46.4395 401.091C45.8997 400.315 45.0199 400.227 44.1185 400.861L42.0614 402.307L45.4227 407.14L47.4937 405.684ZM43.3214 402.397L44.454 401.601C44.9579 401.246 45.3987 401.296 45.7025 401.733C46.029 402.203 45.8961 402.635 45.2905 403.061L44.2781 403.772L43.3214 402.397ZM44.7306 404.423L45.8077 403.666C46.5104 403.172 47.0159 403.176 47.3649 403.678C47.7043 404.166 47.5742 404.652 46.9917 405.061L45.7713 405.919L44.7306 404.423Z" fill="black"/>
<path d="M50.7342 403.476C51.03 403.268 51.0996 402.873 50.8927 402.576C50.6859 402.278 50.2931 402.208 49.9973 402.416C49.7014 402.624 49.6319 403.019 49.8387 403.316C50.0456 403.614 50.4383 403.684 50.7342 403.476Z" fill="black"/>
<path d="M106.986 321.868H126.56V388.148H106.986V321.868Z" fill="#F5B65A"/>
<path d="M130.681 295.978H150.255V388.148H130.681V295.978Z" fill="#81AE7C"/>
<path d="M130.681 295.978H150.255V300.121H130.681V295.978Z" fill="#253645"/>
<path d="M51.3555 293.906H71.9592V298.048H51.3555V293.906Z" fill="#253645"/>
<path d="M106.986 207.95H126.56V335.331H106.986V207.95Z" fill="#E18565"/>
<path d="M82.8474 431.351L81.3774 432.384C80.4251 433.053 79.5499 432.962 78.9649 432.121C78.3832 431.285 78.5976 430.435 79.5545 429.763L81.0246 428.73L82.8474 431.351ZM82.0304 433.046L83.371 432.103L85.1648 434.683L85.9969 434.098L81.3331 427.392L78.8137 429.163C77.5609 430.043 77.2662 431.51 78.1097 432.722C78.8046 433.722 79.949 434.031 81.044 433.587L80.995 437.613L81.9843 436.918L82.0304 433.046Z" fill="black"/>
<path d="M90.4163 430.992L91.2206 430.426L87.8593 425.593L87.055 426.159L88.4415 428.152L86.0885 429.806L84.702 427.812L83.8976 428.378L87.2589 433.211L88.0633 432.645L86.5507 430.471L88.9037 428.817L90.4163 430.992Z" fill="black"/>
<path d="M94.4242 428.175C95.4458 427.457 95.7029 426.48 95.1082 425.625C94.6977 425.035 93.9996 424.882 93.3358 425.224L93.3099 425.187C93.6891 424.782 93.7158 424.079 93.37 423.581C92.8303 422.805 91.9505 422.718 91.049 423.351L88.9919 424.797L92.3532 429.63L94.4242 428.175ZM90.252 424.887L91.3846 424.091C91.8885 423.737 92.3293 423.787 92.6331 424.224C92.9595 424.693 92.8266 425.126 92.2211 425.551L91.2087 426.263L90.252 424.887ZM91.6611 426.913L92.7382 426.156C93.4409 425.662 93.9464 425.667 94.2955 426.169C94.6349 426.657 94.5047 427.143 93.9223 427.552L92.7018 428.41L91.6611 426.913Z" fill="black"/>
<path d="M97.6647 425.966C97.9606 425.758 98.0301 425.364 97.8233 425.066C97.6164 424.769 97.2237 424.699 96.9278 424.907C96.632 425.115 96.5624 425.51 96.7693 425.807C96.9761 426.104 97.3689 426.174 97.6647 425.966Z" fill="black"/>
<path d="M102.23 419.201L101.707 418.448L98.6742 420.58L99.1978 421.333L102.23 419.201Z" fill="black"/>
<path d="M108.713 416.112C107.38 416.987 106.039 416.78 105.199 415.572C104.368 414.378 104.636 413.041 105.904 412.074L108.713 416.112ZM110.236 412.039C111.067 413.233 110.799 414.57 109.535 415.534L106.727 411.495C108.055 410.624 109.399 410.835 110.236 412.039ZM109.233 416.86L109.721 417.562L110.544 416.984L110.056 416.282C111.828 414.961 112.222 413.092 111.077 411.447C109.927 409.793 108.043 409.519 106.206 410.747L105.751 410.092L104.928 410.67L105.384 411.326C103.607 412.65 103.213 414.518 104.357 416.164C105.508 417.818 107.396 418.089 109.233 416.86Z" fill="black"/>
<path d="M113.386 408.572C114.144 408.039 115.049 408.262 115.63 409.057L113.018 410.893C112.51 410.053 112.633 409.102 113.386 408.572ZM116.617 410.515C116.799 411.065 116.567 411.692 115.957 412.12C115.093 412.728 114.128 412.499 113.485 411.575L113.453 411.528L116.902 409.104L116.688 408.798C115.67 407.334 114.211 406.948 112.912 407.861C111.585 408.793 111.443 410.409 112.487 411.91C113.543 413.429 115.049 413.803 116.427 412.835C117.476 412.098 117.857 410.903 117.407 409.96L116.617 410.515Z" fill="black"/>
<path d="M121.403 409.213C122.424 408.495 122.681 407.519 122.087 406.664C121.676 406.074 120.978 405.921 120.314 406.263L120.288 406.226C120.668 405.821 120.694 405.117 120.349 404.62C119.809 403.844 118.929 403.756 118.028 404.39L115.97 405.836L119.332 410.669L121.403 409.213ZM117.231 405.926L118.363 405.13C118.867 404.776 119.308 404.826 119.612 405.262C119.938 405.732 119.805 406.164 119.2 406.59L118.187 407.301L117.231 405.926ZM118.64 407.952L119.717 407.195C120.419 406.701 120.925 406.705 121.274 407.207C121.613 407.695 121.483 408.181 120.901 408.591L119.68 409.448L118.64 407.952Z" fill="black"/>
<path d="M122.893 400.846C122.195 401.337 121.884 402.088 121.966 402.839L121.948 402.852L121.379 402.034L120.616 402.571L125.099 409.016L125.904 408.451L124.236 406.053L124.254 406.04C124.909 406.368 125.7 406.318 126.389 405.833C127.6 404.982 127.742 403.415 126.689 401.9C125.635 400.385 124.118 399.985 122.893 400.846ZM125.719 405.246C124.896 405.824 123.847 405.503 123.097 404.425C122.35 403.351 122.407 402.246 123.23 401.668C124.085 401.067 125.106 401.387 125.866 402.479C126.629 403.576 126.574 404.645 125.719 405.246Z" fill="black"/>
<path d="M129.664 403.476C129.959 403.269 130.029 402.874 129.822 402.576C129.615 402.279 129.223 402.209 128.927 402.417C128.631 402.625 128.561 403.02 128.768 403.317C128.975 403.614 129.368 403.684 129.664 403.476Z" fill="black"/>
<path d="M184.25 321.868H203.824V388.148H184.25V321.868Z" fill="#F5B65A"/>
<path d="M207.944 295.978H227.518V388.148H207.944V295.978Z" fill="#81AE7C"/>
<path d="M207.944 295.978H227.518V300.121H207.944V295.978Z" fill="#253645"/>
<path d="M184.25 207.95H203.824V335.331H184.25V207.95Z" fill="#E18565"/>
<path d="M161.304 431.351L159.834 432.384C158.882 433.053 158.007 432.962 157.422 432.121C156.84 431.285 157.055 430.435 158.012 429.763L159.482 428.73L161.304 431.351ZM160.487 433.046L161.828 432.103L163.622 434.683L164.454 434.098L159.79 427.392L157.271 429.163C156.018 430.043 155.723 431.51 156.567 432.722C157.262 433.722 158.406 434.031 159.501 433.587L159.452 437.613L160.441 436.918L160.487 433.046Z" fill="black"/>
<path d="M168.873 430.992L169.678 430.426L166.316 425.593L165.512 426.159L166.899 428.152L164.546 429.806L163.159 427.812L162.355 428.378L165.716 433.211L166.52 432.645L165.008 430.471L167.361 428.817L168.873 430.992Z" fill="black"/>
<path d="M172.881 428.175C173.903 427.457 174.16 426.48 173.565 425.625C173.155 425.035 172.457 424.882 171.793 425.224L171.767 425.187C172.146 424.782 172.173 424.079 171.827 423.581C171.287 422.805 170.408 422.718 169.506 423.351L167.449 424.797L170.81 429.63L172.881 428.175ZM168.709 424.887L169.842 424.091C170.345 423.737 170.786 423.787 171.09 424.224C171.417 424.693 171.284 425.126 170.678 425.551L169.666 426.263L168.709 424.887ZM170.118 426.913L171.195 426.156C171.898 425.662 172.403 425.667 172.753 426.169C173.092 426.657 172.962 427.143 172.379 427.552L171.159 428.41L170.118 426.913Z" fill="black"/>
<path d="M176.122 425.966C176.418 425.758 176.487 425.364 176.28 425.066C176.073 424.769 175.681 424.699 175.385 424.907C175.089 425.115 175.019 425.51 175.226 425.807C175.433 426.104 175.826 426.174 176.122 425.966Z" fill="black"/>
<path d="M180.687 419.201L180.164 418.448L177.131 420.58L177.655 421.333L180.687 419.201Z" fill="black"/>
<path d="M187.17 416.112C185.837 416.987 184.496 416.78 183.656 415.572C182.825 414.378 183.093 413.041 184.361 412.074L187.17 416.112ZM188.693 412.039C189.524 413.233 189.256 414.57 187.992 415.534L185.184 411.495C186.512 410.624 187.856 410.835 188.693 412.039ZM187.69 416.86L188.178 417.562L189.001 416.984L188.513 416.282C190.285 414.961 190.679 413.092 189.534 411.447C188.384 409.793 186.5 409.519 184.663 410.747L184.208 410.092L183.385 410.67L183.841 411.326C182.064 412.65 181.67 414.518 182.814 416.164C183.965 417.818 185.853 418.089 187.69 416.86Z" fill="black"/>
<path d="M191.843 408.572C192.601 408.039 193.506 408.262 194.087 409.057L191.475 410.893C190.967 410.053 191.09 409.102 191.843 408.572ZM195.074 410.515C195.256 411.065 195.024 411.692 194.414 412.12C193.55 412.728 192.585 412.499 191.942 411.575L191.91 411.528L195.359 409.104L195.145 408.798C194.127 407.334 192.668 406.948 191.369 407.861C190.042 408.793 189.9 410.409 190.944 411.91C192 413.429 193.506 413.803 194.884 412.835C195.933 412.098 196.314 410.903 195.864 409.96L195.074 410.515Z" fill="black"/>
<path d="M199.86 409.213C200.881 408.495 201.138 407.519 200.544 406.664C200.133 406.074 199.435 405.921 198.771 406.263L198.746 406.226C199.125 405.821 199.151 405.117 198.806 404.62C198.266 403.844 197.386 403.756 196.485 404.39L194.427 405.836L197.789 410.669L199.86 409.213ZM195.688 405.926L196.82 405.13C197.324 404.776 197.765 404.826 198.069 405.262C198.395 405.732 198.262 406.164 197.657 406.59L196.644 407.301L195.688 405.926ZM197.097 407.952L198.174 407.195C198.876 406.701 199.382 406.705 199.731 407.207C200.07 407.695 199.94 408.181 199.358 408.591L198.137 409.448L197.097 407.952Z" fill="black"/>
<path d="M201.35 400.846C200.652 401.337 200.341 402.088 200.423 402.839L200.405 402.852L199.836 402.034L199.073 402.571L203.556 409.016L204.361 408.451L202.693 406.053L202.711 406.04C203.366 406.368 204.157 406.318 204.846 405.833C206.057 404.982 206.199 403.415 205.146 401.9C204.092 400.385 202.575 399.985 201.35 400.846ZM204.176 405.246C203.353 405.824 202.304 405.503 201.554 404.425C200.807 403.351 200.864 402.246 201.687 401.668C202.542 401.067 203.563 401.387 204.323 402.479C205.086 403.576 205.031 404.645 204.176 405.246Z" fill="black"/>
<path d="M208.121 403.476C208.417 403.269 208.486 402.874 208.279 402.576C208.072 402.279 207.68 402.209 207.384 402.417C207.088 402.625 207.018 403.02 207.225 403.317C207.432 403.614 207.825 403.684 208.121 403.476Z" fill="black"/>
<path d="M266.665 321.868H286.239V388.148H266.665V321.868Z" fill="#F5B65A"/>
<path d="M289.329 287.692H309.932V388.148H289.329V287.692Z" fill="#81AE7C"/>
<path d="M289.329 287.692H309.932V292.87H289.329V287.692Z" fill="#253645"/>
<path d="M266.665 306.333H286.239V335.331H266.665V306.333Z" fill="#E18565"/>
<path d="M239.529 436.958C238.196 437.832 236.855 437.626 236.015 436.418C235.184 435.224 235.452 433.887 236.72 432.919L239.529 436.958ZM241.052 432.884C241.883 434.079 241.615 435.415 240.352 436.379L237.543 432.341C238.871 431.47 240.215 431.681 241.052 432.884ZM240.049 437.706L240.537 438.408L241.36 437.829L240.872 437.128C242.644 435.806 243.038 433.938 241.894 432.293C240.743 430.639 238.859 430.364 237.023 431.593L236.567 430.938L235.744 431.516L236.2 432.171C234.423 433.496 234.03 435.364 235.174 437.009C236.324 438.664 238.213 438.935 240.049 437.706Z" fill="black"/>
<path d="M244.203 429.418C244.961 428.885 245.865 429.107 246.446 429.903L243.834 431.738C243.326 430.899 243.449 429.948 244.203 429.418ZM247.433 431.361C247.616 431.911 247.384 432.537 246.774 432.966C245.909 433.574 244.945 433.345 244.302 432.42L244.269 432.374L247.718 429.95L247.505 429.643C246.487 428.179 245.028 427.793 243.729 428.706C242.402 429.639 242.259 431.254 243.303 432.756C244.36 434.275 245.866 434.649 247.243 433.681C248.293 432.943 248.673 431.749 248.223 430.805L247.433 431.361Z" fill="black"/>
<path d="M252.219 430.059C253.241 429.341 253.498 428.365 252.903 427.51C252.493 426.919 251.795 426.767 251.131 427.109L251.105 427.071C251.484 426.667 251.511 425.963 251.165 425.466C250.625 424.689 249.745 424.602 248.844 425.236L246.787 426.681L250.148 431.515L252.219 430.059ZM248.047 426.771L249.18 425.975C249.683 425.621 250.124 425.671 250.428 426.108C250.754 426.577 250.622 427.01 250.016 427.435L249.004 428.147L248.047 426.771ZM249.456 428.798L250.533 428.041C251.236 427.547 251.741 427.551 252.09 428.053C252.43 428.541 252.3 429.027 251.717 429.436L250.497 430.294L249.456 428.798Z" fill="black"/>
<path d="M253.709 421.692C253.011 422.182 252.701 422.933 252.783 423.685L252.764 423.698L252.196 422.88L251.433 423.416L255.916 429.862L256.72 429.296L255.052 426.899L255.071 426.886C255.726 427.214 256.516 427.163 257.205 426.679C258.416 425.828 258.559 424.261 257.505 422.746C256.451 421.231 254.934 420.831 253.709 421.692ZM256.535 426.092C255.712 426.67 254.663 426.349 253.913 425.271C253.167 424.197 253.224 423.092 254.046 422.513C254.902 421.912 255.923 422.232 256.682 423.324C257.445 424.421 257.39 425.49 256.535 426.092Z" fill="black"/>
<path d="M260.48 424.322C260.776 424.114 260.845 423.719 260.639 423.422C260.432 423.125 260.039 423.055 259.743 423.263C259.447 423.47 259.378 423.865 259.585 424.163C259.791 424.46 260.184 424.53 260.48 424.322Z" fill="black"/>
<path d="M265.046 417.557L264.522 416.804L261.49 418.936L262.013 419.688L265.046 417.557Z" fill="black"/>
<path d="M276.396 413.066L271.733 406.361L270.766 407.04L272.388 414.299L272.351 414.325L266.125 410.302L265.159 410.981L269.823 417.687L270.599 417.141L267.005 411.973L267.038 411.95L272.758 415.623L273.461 415.13L271.993 408.467L272.026 408.445L275.62 413.612L276.396 413.066Z" fill="black"/>
<path d="M278.824 410.461C278.246 410.867 277.652 410.835 277.332 410.375C277.015 409.919 277.185 409.371 277.803 408.874L279.033 407.892L279.308 408.287C279.793 408.984 279.582 409.928 278.824 410.461ZM279.122 411.275C279.769 410.82 280.127 410.029 280.029 409.275L280.048 409.262L280.626 410.094L281.389 409.557L279.065 406.216C278.396 405.254 277.258 405.141 276.13 405.934C274.992 406.733 274.726 407.875 275.253 408.75L276.029 408.204C275.801 407.659 275.986 407.093 276.606 406.658C277.271 406.19 277.905 406.27 278.316 406.86L278.597 407.265L277.274 408.312C276.21 409.157 275.939 410.122 276.514 410.95C277.118 411.819 278.165 411.948 279.122 411.275Z" fill="black"/>
<path d="M281.418 402.217C280.72 402.708 280.409 403.459 280.492 404.21L280.473 404.223L279.904 403.405L279.142 403.941L283.624 410.387L284.429 409.822L282.761 407.424L282.78 407.411C283.435 407.739 284.225 407.688 284.914 407.204C286.125 406.353 286.268 404.786 285.214 403.271C284.16 401.756 282.643 401.356 281.418 402.217ZM284.244 406.617C283.421 407.195 282.372 406.874 281.622 405.796C280.875 404.722 280.932 403.617 281.755 403.038C282.611 402.437 283.632 402.758 284.391 403.85C285.154 404.946 285.099 406.016 284.244 406.617Z" fill="black"/>
<path d="M287.768 397.879L283.866 400.621L284.328 401.285L285.877 400.197L288.776 404.365L289.58 403.8L286.681 399.632L288.23 398.543L287.768 397.879Z" fill="black"/>
<path d="M343.929 321.868H363.503V388.148H343.929V321.868Z" fill="#F5B65A"/>
<path d="M367.624 250.41H387.197V388.148H367.624V250.41Z" fill="#81AE7C"/>
<path d="M367.624 287.692H387.197V292.87H367.624V287.692Z" fill="#253645"/>
<path d="M343.929 299.084H363.503V332.224H343.929V299.084Z" fill="#E18565"/>
<path d="M326.272 431.677L321.608 424.971L320.642 425.65L322.264 432.909L322.227 432.935L316.001 428.912L315.035 429.591L319.698 436.297L320.475 435.751L316.881 430.583L316.913 430.56L322.634 434.234L323.337 433.74L321.869 427.077L321.901 427.055L325.495 432.222L326.272 431.677Z" fill="black"/>
<path d="M328.7 429.071C328.122 429.477 327.528 429.445 327.208 428.985C326.891 428.529 327.061 427.981 327.679 427.484L328.909 426.502L329.184 426.897C329.668 427.594 329.458 428.538 328.7 429.071ZM328.998 429.885C329.645 429.431 330.003 428.639 329.905 427.885L329.923 427.872L330.502 428.704L331.265 428.168L328.941 424.826C328.272 423.864 327.133 423.751 326.005 424.544C324.868 425.343 324.602 426.485 325.129 427.36L325.905 426.815C325.677 426.269 325.862 425.703 326.481 425.268C327.147 424.8 327.781 424.88 328.191 425.471L328.473 425.875L327.15 426.922C326.086 427.767 325.814 428.733 326.39 429.56C326.994 430.429 328.041 430.558 328.998 429.885Z" fill="black"/>
<path d="M331.294 420.827C330.596 421.318 330.285 422.069 330.368 422.82L330.349 422.833L329.78 422.015L329.017 422.551L333.5 428.997L334.305 428.432L332.637 426.034L332.655 426.021C333.31 426.349 334.101 426.299 334.79 425.814C336.001 424.963 336.143 423.396 335.09 421.881C334.036 420.366 332.519 419.966 331.294 420.827ZM334.12 425.227C333.297 425.805 332.248 425.484 331.498 424.406C330.751 423.332 330.808 422.227 331.631 421.649C332.486 421.047 333.507 421.368 334.267 422.46C335.03 423.556 334.975 424.626 334.12 425.227Z" fill="black"/>
<path d="M337.644 416.489L333.742 419.231L334.204 419.895L335.753 418.807L338.652 422.976L339.456 422.41L336.557 418.242L338.106 417.153L337.644 416.489Z" fill="black"/>
<path d="M345.043 414.996L344.52 414.243L341.487 416.375L342.011 417.128L345.043 414.996Z" fill="black"/>
<path d="M354.157 412.078L355.03 411.464L347.907 406.487L347.084 407.065L349.289 415.5L350.163 414.885L349.498 412.495L352.152 410.63L354.157 412.078ZM348.19 407.803L348.218 407.784L351.412 410.091L349.249 411.612L348.19 407.803Z" fill="black"/>
<path d="M358.867 408.767L359.676 408.199L356.315 403.366L352.395 406.121L355.756 410.954L356.56 410.389L353.661 406.22L355.968 404.599L358.867 408.767Z" fill="black"/>
<path d="M359.724 400.845C359.026 401.336 358.715 402.087 358.798 402.839L358.779 402.852L358.21 402.034L357.448 402.57L361.93 409.015L362.735 408.45L361.067 406.052L361.085 406.039C361.741 406.368 362.531 406.317 363.22 405.833C364.431 404.982 364.573 403.415 363.52 401.9C362.466 400.385 360.949 399.984 359.724 400.845ZM362.55 405.245C361.727 405.824 360.678 405.502 359.928 404.424C359.181 403.351 359.238 402.245 360.061 401.667C360.916 401.066 361.937 401.386 362.697 402.478C363.46 403.575 363.405 404.644 362.55 405.245Z" fill="black"/>
<path d="M366.495 403.476C366.791 403.268 366.86 402.873 366.653 402.576C366.447 402.278 366.054 402.208 365.758 402.416C365.462 402.624 365.393 403.019 365.599 403.316C365.806 403.614 366.199 403.684 366.495 403.476Z" fill="black"/>
<path d="M417.073 321.868H436.647V388.148H417.073V321.868Z" fill="#F5B65A"/>
<path d="M439.737 293.906H459.311V389.183H439.737V293.906Z" fill="white"/>
<path fill-rule="evenodd" clip-rule="evenodd" d="M458.159 295.068H440.889V388.021H458.159V295.068ZM439.737 293.906V389.183H459.311V293.906H439.737Z" fill="#C9C9C9"/>
<path d="M439.737 288.728H459.311V293.906H439.737V288.728Z" fill="#253645"/>
<path d="M417.073 319.797H436.647V332.225H417.073V319.797Z" fill="#E18565"/>
<path d="M401.471 429.962L402.344 429.348L395.221 424.371L394.398 424.949L396.603 433.383L397.477 432.769L396.812 430.379L399.465 428.514L401.471 429.962ZM395.504 425.687L395.531 425.668L398.726 427.975L396.562 429.496L395.504 425.687Z" fill="black"/>
<path d="M406.181 426.651L406.99 426.083L403.629 421.25L399.709 424.005L403.07 428.838L403.874 428.272L400.975 424.104L403.282 422.483L406.181 426.651Z" fill="black"/>
<path d="M407.038 418.729C406.34 419.22 406.029 419.971 406.112 420.722L406.093 420.735L405.524 419.917L404.761 420.454L409.244 426.899L410.049 426.334L408.381 423.936L408.399 423.923C409.054 424.251 409.845 424.201 410.534 423.717C411.745 422.865 411.887 421.298 410.834 419.783C409.78 418.269 408.263 417.868 407.038 418.729ZM409.864 423.129C409.041 423.707 407.992 423.386 407.242 422.308C406.495 421.235 406.552 420.129 407.375 419.551C408.23 418.95 409.251 419.27 410.011 420.362C410.774 421.459 410.719 422.528 409.864 423.129Z" fill="black"/>
<path d="M413.809 421.36C414.105 421.152 414.174 420.757 413.967 420.459C413.76 420.162 413.368 420.092 413.072 420.3C412.776 420.508 412.706 420.903 412.913 421.2C413.12 421.498 413.513 421.567 413.809 421.36Z" fill="black"/>
<path d="M418.374 414.594L417.851 413.842L414.818 415.973L415.342 416.726L418.374 414.594Z" fill="black"/>
<path d="M429.725 410.104L425.061 403.398L424.095 404.077L425.717 411.337L425.68 411.363L419.454 407.339L418.488 408.018L423.151 414.724L423.928 414.178L420.334 409.01L420.366 408.988L426.087 412.661L426.79 412.167L425.322 405.505L425.354 405.482L428.948 410.65L429.725 410.104Z" fill="black"/>
<path d="M432.152 407.498C431.575 407.904 430.981 407.872 430.661 407.412C430.344 406.957 430.514 406.408 431.132 405.912L432.362 404.93L432.637 405.325C433.121 406.022 432.911 406.965 432.152 407.498ZM432.451 408.313C433.098 407.858 433.456 407.067 433.358 406.312L433.376 406.299L433.955 407.131L434.718 406.595L432.394 403.254C431.725 402.292 430.586 402.178 429.458 402.971C428.321 403.771 428.055 404.912 428.581 405.788L429.358 405.242C429.13 404.696 429.315 404.131 429.934 403.695C430.6 403.227 431.234 403.308 431.644 403.898L431.926 404.302L430.603 405.349C429.539 406.194 429.267 407.16 429.843 407.987C430.447 408.856 431.494 408.985 432.451 408.313Z" fill="black"/>
<path d="M436.622 405.256L436.518 399.981L436.555 399.955L439.054 403.547L439.858 402.982L436.497 398.149L435.702 398.708L435.805 403.983L435.768 404.009L433.27 400.417L432.466 400.982L435.827 405.815L436.622 405.256ZM431.552 398.511C432.147 399.366 433.16 399.526 434.043 398.905C434.926 398.285 435.124 397.273 434.529 396.418L433.938 396.834C434.313 397.373 434.26 398.04 433.71 398.426C433.16 398.813 432.519 398.634 432.144 398.095L431.552 398.511Z" fill="black"/>
<path d="M494.336 321.868H513.91V388.148H494.336V321.868Z" fill="#F5B65A"/>
<path d="M517 293.906H536.574V389.183H517V293.906Z" fill="#81AE7C"/>
<path d="M517 288.728H536.574V293.906H517V288.728Z" fill="#253645"/>
<path d="M494.336 191.38H513.91V332.224H494.336V191.38Z" fill="#E18565"/>
<path d="M476.114 431.898L471.451 425.192L470.484 425.871L472.106 433.131L472.069 433.157L465.843 429.133L464.877 429.812L469.541 436.518L470.317 435.972L466.723 430.805L466.756 430.782L472.476 434.455L473.179 433.961L471.711 427.299L471.744 427.276L475.338 432.444L476.114 431.898Z" fill="black"/>
<path d="M478.542 429.292C477.964 429.698 477.37 429.666 477.05 429.206C476.734 428.751 476.903 428.203 477.521 427.706L478.751 426.724L479.026 427.119C479.511 427.816 479.3 428.759 478.542 429.292ZM478.84 430.107C479.487 429.652 479.845 428.861 479.747 428.106L479.766 428.093L480.344 428.925L481.107 428.389L478.783 425.048C478.114 424.086 476.976 423.973 475.848 424.765C474.71 425.565 474.445 426.706 474.971 427.582L475.747 427.036C475.52 426.49 475.704 425.925 476.324 425.489C476.989 425.021 477.623 425.102 478.034 425.692L478.315 426.096L476.992 427.143C475.928 427.988 475.657 428.954 476.232 429.781C476.836 430.65 477.883 430.779 478.84 430.107Z" fill="black"/>
<path d="M483.012 427.05L482.908 421.775L482.945 421.749L485.443 425.341L486.248 424.776L482.886 419.943L482.091 420.502L482.195 425.777L482.158 425.803L479.66 422.211L478.855 422.776L482.216 427.609L483.012 427.05ZM477.942 420.305C478.536 421.16 479.549 421.32 480.432 420.699C481.315 420.079 481.513 419.067 480.919 418.212L480.327 418.628C480.702 419.167 480.649 419.834 480.099 420.22C479.549 420.607 478.908 420.428 478.533 419.889L477.942 420.305Z" fill="black"/>
<path d="M490.67 418.181L490.146 417.428L487.114 419.559L487.637 420.312L490.67 418.181Z" fill="black"/>
<path d="M499.949 415.146L500.772 414.567L496.109 407.862L495.286 408.44L495.403 416.328L495.329 416.38L491.606 411.026L490.783 411.604L495.447 418.31L496.27 417.732L496.165 409.863L496.239 409.811L499.949 415.146Z" fill="black"/>
<path d="M505.879 411.103C507.228 410.154 507.401 408.622 506.322 407.069C505.239 405.513 503.751 405.154 502.401 406.103C501.18 406.961 500.925 408.295 501.687 409.697L500.859 410.279L499.473 408.285L498.668 408.851L502.03 413.684L502.834 413.118L501.321 410.943L502.13 410.375C503.198 411.721 504.603 412 505.879 411.103ZM505.381 410.387C504.512 410.998 503.569 410.692 502.781 409.558C501.989 408.42 502.03 407.429 502.899 406.818C503.768 406.208 504.707 406.509 505.499 407.648C506.287 408.782 506.25 409.777 505.381 410.387Z" fill="black"/>
<path d="M512.056 406.637L512.861 406.071L509.5 401.238L508.695 401.803L510.082 403.797L507.729 405.451L506.342 403.457L505.538 404.023L508.899 408.856L509.704 408.29L508.191 406.115L510.544 404.462L512.056 406.637Z" fill="black"/>
<path d="M513.859 401.46C514.479 401.025 515.154 401.125 515.568 401.72C515.978 402.31 515.847 402.983 515.223 403.421L514.336 404.045L512.972 402.084L513.859 401.46ZM513.993 405.275L515.699 404.076C516.799 403.303 517.064 402.169 516.363 401.161C515.661 400.152 514.511 400.013 513.411 400.786L512.51 401.42L511.437 399.877L510.632 400.442L513.993 405.275Z" fill="black"/>
<path d="M576.751 321.868H596.325V388.148H576.751V321.868Z" fill="#F5B65A"/>
<path d="M599.415 288.728H618.989V389.183H599.415V288.728Z" fill="#81AE7C"/>
<path d="M599.415 284.586H618.989V288.728H599.415V284.586Z" fill="#253645"/>
<path d="M576.751 254.553H596.325V332.224H576.751V254.553Z" fill="#E18565"/>
<path d="M551.347 436.745L552.17 436.167L547.506 429.461L546.683 430.04L546.801 437.927L546.727 437.979L543.004 432.626L542.181 433.204L546.844 439.91L547.667 439.332L547.563 431.462L547.637 431.41L551.347 436.745Z" fill="black"/>
<path d="M557.276 432.703C558.626 431.754 558.799 430.221 557.719 428.669C556.637 427.112 555.148 426.754 553.799 427.702C552.578 428.56 552.323 429.895 553.084 431.297L552.257 431.879L550.87 429.885L550.066 430.45L553.427 435.283L554.232 434.718L552.719 432.543L553.528 431.975C554.595 433.321 556 433.599 557.276 432.703ZM556.778 431.987C555.909 432.598 554.967 432.292 554.178 431.158C553.386 430.019 553.427 429.029 554.296 428.418C555.165 427.807 556.105 428.109 556.896 429.247C557.685 430.381 557.647 431.376 556.778 431.987Z" fill="black"/>
<path d="M563.454 428.236L564.258 427.671L560.897 422.838L560.093 423.403L561.479 425.397L559.126 427.05L557.74 425.057L556.935 425.622L560.297 430.455L561.101 429.89L559.589 427.715L561.942 426.061L563.454 428.236Z" fill="black"/>
<path d="M565.257 423.06C565.876 422.625 566.551 422.724 566.965 423.319C567.376 423.909 567.245 424.582 566.621 425.021L565.733 425.645L564.369 423.684L565.257 423.06ZM565.391 426.875L567.097 425.676C568.197 424.903 568.462 423.769 567.76 422.76C567.059 421.752 565.909 421.612 564.809 422.386L563.907 423.019L562.834 421.476L562.03 422.042L565.391 426.875Z" fill="black"/>
<path d="M573.077 417.986L572.553 417.233L569.521 419.364L570.044 420.117L573.077 417.986Z" fill="black"/>
<path d="M582.357 414.951L583.179 414.372L578.516 407.667L577.693 408.245L577.81 416.133L577.736 416.185L574.013 410.831L573.19 411.409L577.854 418.115L578.677 417.537L578.572 409.668L578.646 409.616L582.357 414.951Z" fill="black"/>
<path d="M588.286 410.908C589.636 409.959 589.808 408.427 588.729 406.874C587.646 405.318 586.158 404.959 584.808 405.908C583.588 406.766 583.332 408.1 584.094 409.502L583.267 410.084L581.88 408.09L581.076 408.656L584.437 413.489L585.241 412.923L583.729 410.748L584.538 410.18C585.605 411.526 587.01 411.805 588.286 410.908ZM587.788 410.192C586.919 410.803 585.976 410.497 585.188 409.363C584.396 408.225 584.437 407.234 585.306 406.623C586.175 406.013 587.114 406.314 587.906 407.453C588.695 408.587 588.657 409.582 587.788 410.192Z" fill="black"/>
<path d="M590.932 405.748L589.665 403.608L591.283 402.471L594.182 406.64L594.986 406.074L591.625 401.241L588.477 403.454L590.157 406.265C590.714 407.195 590.925 407.884 590.448 408.219C590.333 408.3 590.229 408.339 590.178 408.354L590.685 409.083C590.757 409.068 590.869 409.031 591.007 408.933C592.02 408.222 591.763 407.15 590.932 405.748Z" fill="black"/>
<path d="M595.989 401.46C596.609 401.025 597.284 401.125 597.697 401.72C598.108 402.31 597.977 402.983 597.353 403.421L596.465 404.045L595.102 402.084L595.989 401.46ZM596.123 405.275L597.829 404.076C598.929 403.303 599.194 402.169 598.492 401.161C597.791 400.152 596.641 400.013 595.541 400.786L594.639 401.42L593.566 399.877L592.762 400.442L596.123 405.275Z" fill="black"/>
<path d="M652.985 316.689H672.559V388.147H652.985V316.689Z" fill="#F5B65A"/>
<path d="M676 0H695V388.035H676V0Z" fill="#81AE7C"/>
<path d="M676 383.009H695V388.036H676V383.009Z" fill="#253645"/>
<path d="M652.985 299.084H672.559V316.69H652.985V299.084Z" fill="#E18565"/>
<path d="M634.249 432.145L635.072 431.566L630.408 424.861L629.586 425.439L629.703 433.327L629.629 433.379L625.906 428.025L625.083 428.604L629.747 435.309L630.57 434.731L630.465 426.862L630.539 426.81L634.249 432.145Z" fill="black"/>
<path d="M640.178 428.102C641.528 427.153 641.701 425.621 640.622 424.068C639.539 422.512 638.051 422.153 636.701 423.102C635.48 423.96 635.225 425.294 635.987 426.696L635.159 427.278L633.773 425.284L632.968 425.85L636.33 430.683L637.134 430.117L635.621 427.943L636.43 427.374C637.498 428.72 638.903 428.999 640.178 428.102ZM639.681 427.386C638.812 427.997 637.869 427.691 637.081 426.557C636.289 425.419 636.329 424.428 637.199 423.817C638.068 423.207 639.007 423.508 639.799 424.647C640.587 425.781 640.55 426.776 639.681 427.386Z" fill="black"/>
<path d="M642.825 422.942L641.557 420.802L643.175 419.665L646.074 423.834L646.879 423.268L643.518 418.435L640.369 420.648L642.049 423.459C642.607 424.389 642.817 425.078 642.341 425.413C642.226 425.494 642.122 425.533 642.07 425.548L642.578 426.277C642.649 426.262 642.761 426.225 642.9 426.127C643.912 425.416 643.656 424.344 642.825 422.942Z" fill="black"/>
<path d="M647.882 418.654C648.501 418.219 649.176 418.319 649.59 418.914C650.001 419.504 649.87 420.177 649.246 420.615L648.358 421.239L646.994 419.278L647.882 418.654ZM648.016 422.469L649.722 421.27C650.822 420.497 651.087 419.363 650.385 418.355C649.684 417.346 648.534 417.207 647.434 417.98L646.532 418.614L645.459 417.071L644.655 417.636L648.016 422.469Z" fill="black"/>
<path d="M655.702 413.58L655.178 412.827L652.146 414.959L652.669 415.711L655.702 413.58Z" fill="black"/>
<path d="M664.815 410.662L665.689 410.048L658.566 405.071L657.743 405.649L659.947 414.083L660.821 413.469L660.157 411.079L662.81 409.214L664.815 410.662ZM658.848 406.387L658.876 406.368L662.071 408.675L659.907 410.196L658.848 406.387Z" fill="black"/>
<path d="M668.486 408.082C669.507 407.364 669.764 406.388 669.17 405.533C668.759 404.943 668.061 404.79 667.397 405.132L667.371 405.095C667.751 404.69 667.777 403.986 667.431 403.489C666.892 402.713 666.012 402.625 665.111 403.259L663.053 404.705L666.415 409.538L668.486 408.082ZM664.313 404.795L665.446 403.999C665.95 403.645 666.391 403.695 666.695 404.131C667.021 404.601 666.888 405.033 666.283 405.459L665.27 406.17L664.313 404.795ZM665.723 406.821L666.8 406.064C667.502 405.57 668.008 405.575 668.357 406.076C668.696 406.564 668.566 407.05 667.984 407.46L666.763 408.317L665.723 406.821Z" fill="black"/>
<path d="M671.249 399.934L670.787 399.269L667.695 401.443L671.056 406.276L671.86 405.711L668.961 401.542L671.249 399.934Z" fill="black"/>
<path d="M675.138 403.476C675.434 403.268 675.503 402.873 675.296 402.576C675.09 402.279 674.697 402.209 674.401 402.417C674.105 402.625 674.036 403.019 674.242 403.317C674.449 403.614 674.842 403.684 675.138 403.476Z" fill="black"/>
<path fill-rule="evenodd" clip-rule="evenodd" d="M790 0H0V442H790V0ZM310 286H289V386H310V286Z" fill="white" fill-opacity="0.74"/>
<g filter="url(#filter0_d)">
<rect x="310" y="197" width="382" height="89" rx="1" fill="white"/>
</g>
<path d="M353.405 233.725C352.445 234.695 351.22 235.18 349.73 235.18C348.24 235.18 347.015 234.695 346.055 233.725C345.095 232.745 344.615 231.505 344.615 230.005C344.615 228.505 345.095 227.27 346.055 226.3C347.015 225.32 348.24 224.83 349.73 224.83C351.22 224.83 352.445 225.32 353.405 226.3C354.365 227.27 354.845 228.505 354.845 230.005C354.845 231.505 354.365 232.745 353.405 233.725ZM349.73 233.62C350.72 233.62 351.52 233.28 352.13 232.6C352.74 231.91 353.045 231.045 353.045 230.005C353.045 228.955 352.74 228.09 352.13 227.41C351.52 226.73 350.72 226.39 349.73 226.39C348.73 226.39 347.925 226.73 347.315 227.41C346.715 228.09 346.415 228.955 346.415 230.005C346.415 231.055 346.715 231.92 347.315 232.6C347.925 233.28 348.73 233.62 349.73 233.62ZM359.385 235H357.81V229.135H355.74V227.755H361.47V229.135H359.385V235ZM370.874 235H369.299V229.96L367.139 235H366.509L364.334 229.96V235H362.759V227.755H364.814L366.824 232.435L368.804 227.755H370.874V235ZM376.256 235.18C375.156 235.18 374.246 234.83 373.526 234.13C372.816 233.42 372.461 232.5 372.461 231.37C372.461 230.31 372.806 229.415 373.496 228.685C374.196 227.945 375.076 227.575 376.136 227.575C377.206 227.575 378.066 227.945 378.716 228.685C379.376 229.425 379.706 230.37 379.706 231.52V231.895H374.111C374.171 232.465 374.406 232.94 374.816 233.32C375.226 233.7 375.761 233.89 376.421 233.89C376.791 233.89 377.161 233.82 377.531 233.68C377.911 233.54 378.226 233.345 378.476 233.095L379.196 234.13C378.466 234.83 377.486 235.18 376.256 235.18ZM378.176 230.785C378.156 230.285 377.971 229.84 377.621 229.45C377.281 229.06 376.786 228.865 376.136 228.865C375.516 228.865 375.031 229.06 374.681 229.45C374.331 229.83 374.136 230.275 374.096 230.785H378.176ZM384.155 235H382.58V229.135H380.51V227.755H386.24V229.135H384.155V235ZM394.31 235H392.33L390.11 232.015L389.105 233.05V235H387.53V227.755H389.105V231.25L392.3 227.755H394.25L391.235 231.04L394.31 235ZM401.425 235H399.85V234.22C399.29 234.86 398.51 235.18 397.51 235.18C396.85 235.18 396.265 234.97 395.755 234.55C395.245 234.12 394.99 233.53 394.99 232.78C394.99 232.01 395.24 231.425 395.74 231.025C396.25 230.625 396.84 230.425 397.51 230.425C398.54 230.425 399.32 230.735 399.85 231.355V230.275C399.85 229.855 399.695 229.525 399.385 229.285C399.075 229.045 398.665 228.925 398.155 228.925C397.345 228.925 396.63 229.23 396.01 229.84L395.365 228.745C396.185 227.965 397.2 227.575 398.41 227.575C399.3 227.575 400.025 227.785 400.585 228.205C401.145 228.625 401.425 229.29 401.425 230.2V235ZM398.125 234.1C398.915 234.1 399.49 233.85 399.85 233.35V232.255C399.49 231.755 398.915 231.505 398.125 231.505C397.675 231.505 397.305 231.625 397.015 231.865C396.725 232.105 396.58 232.42 396.58 232.81C396.58 233.2 396.725 233.515 397.015 233.755C397.305 233.985 397.675 234.1 398.125 234.1Z" fill="#434A50"/>
<path d="M407.439 235V227.755H408.564V230.77H412.344V227.755H413.469V235H412.344V231.76H408.564V235H407.439ZM420.246 235V234.175C419.636 234.845 418.836 235.18 417.846 235.18C417.536 235.18 417.231 235.13 416.931 235.03C416.631 234.93 416.361 234.78 416.121 234.58C415.881 234.37 415.686 234.115 415.536 233.815C415.386 233.515 415.311 233.17 415.311 232.78C415.311 232.38 415.386 232.03 415.536 231.73C415.686 231.43 415.881 231.18 416.121 230.98C416.361 230.78 416.631 230.635 416.931 230.545C417.231 230.445 417.536 230.395 417.846 230.395C418.346 230.395 418.796 230.475 419.196 230.635C419.606 230.795 419.956 231.045 420.246 231.385V230.08C420.246 229.59 420.071 229.215 419.721 228.955C419.381 228.685 418.946 228.55 418.416 228.55C417.566 228.55 416.826 228.885 416.196 229.555L415.671 228.775C416.441 227.975 417.406 227.575 418.566 227.575C418.946 227.575 419.306 227.62 419.646 227.71C419.986 227.8 420.281 227.945 420.531 228.145C420.791 228.335 420.996 228.585 421.146 228.895C421.296 229.205 421.371 229.58 421.371 230.02V235H420.246ZM418.251 234.37C418.651 234.37 419.026 234.295 419.376 234.145C419.736 233.995 420.026 233.77 420.246 233.47V232.105C420.026 231.805 419.736 231.58 419.376 231.43C419.026 231.28 418.651 231.205 418.251 231.205C417.721 231.205 417.291 231.355 416.961 231.655C416.631 231.945 416.466 232.325 416.466 232.795C416.466 233.255 416.631 233.635 416.961 233.935C417.291 234.225 417.721 234.37 418.251 234.37ZM430.658 235.18C430.108 235.18 429.608 235.08 429.158 234.88C428.718 234.68 428.343 234.41 428.033 234.07C427.723 233.72 427.483 233.315 427.313 232.855C427.153 232.395 427.073 231.9 427.073 231.37C427.073 230.85 427.153 230.36 427.313 229.9C427.483 229.43 427.723 229.025 428.033 228.685C428.343 228.345 428.718 228.075 429.158 227.875C429.608 227.675 430.108 227.575 430.658 227.575C431.208 227.575 431.703 227.675 432.143 227.875C432.593 228.075 432.973 228.345 433.283 228.685C433.593 229.025 433.828 229.43 433.988 229.9C434.158 230.36 434.243 230.85 434.243 231.37C434.243 231.9 434.158 232.395 433.988 232.855C433.828 233.315 433.593 233.72 433.283 234.07C432.973 234.41 432.593 234.68 432.143 234.88C431.703 235.08 431.208 235.18 430.658 235.18ZM430.658 234.175C431.048 234.175 431.388 234.1 431.678 233.95C431.978 233.79 432.228 233.585 432.428 233.335C432.638 233.075 432.793 232.775 432.893 232.435C433.003 232.095 433.058 231.74 433.058 231.37C433.058 231 433.003 230.65 432.893 230.32C432.793 229.98 432.638 229.685 432.428 229.435C432.228 229.175 431.978 228.97 431.678 228.82C431.388 228.66 431.048 228.58 430.658 228.58C430.268 228.58 429.923 228.66 429.623 228.82C429.323 228.97 429.068 229.175 428.858 229.435C428.658 229.685 428.503 229.98 428.393 230.32C428.293 230.65 428.243 231 428.243 231.37C428.243 231.74 428.293 232.095 428.393 232.435C428.503 232.775 428.658 233.075 428.858 233.335C429.068 233.585 429.323 233.79 429.623 233.95C429.923 234.1 430.268 234.175 430.658 234.175ZM435.222 234.07C435.392 234.04 435.542 233.98 435.672 233.89C435.812 233.8 435.937 233.655 436.047 233.455C436.167 233.255 436.272 232.985 436.362 232.645C436.452 232.305 436.532 231.865 436.602 231.325L437.067 227.755H442.107V234.01H442.947V236.845H441.822V235H436.347V236.845H435.222V234.07ZM437.727 231.46C437.637 232.15 437.502 232.695 437.322 233.095C437.152 233.495 436.937 233.8 436.677 234.01H440.982V228.745H438.057L437.727 231.46ZM444.485 235V227.755H445.61V230.77H449.39V227.755H450.515V235H449.39V231.76H445.61V235H444.485ZM455.927 235.18C455.377 235.18 454.877 235.08 454.427 234.88C453.987 234.68 453.612 234.41 453.302 234.07C452.992 233.72 452.752 233.315 452.582 232.855C452.422 232.395 452.342 231.9 452.342 231.37C452.342 230.85 452.422 230.36 452.582 229.9C452.752 229.43 452.992 229.025 453.302 228.685C453.612 228.345 453.987 228.075 454.427 227.875C454.877 227.675 455.377 227.575 455.927 227.575C456.477 227.575 456.972 227.675 457.412 227.875C457.862 228.075 458.242 228.345 458.552 228.685C458.862 229.025 459.097 229.43 459.257 229.9C459.427 230.36 459.512 230.85 459.512 231.37C459.512 231.9 459.427 232.395 459.257 232.855C459.097 233.315 458.862 233.72 458.552 234.07C458.242 234.41 457.862 234.68 457.412 234.88C456.972 235.08 456.477 235.18 455.927 235.18ZM455.927 234.175C456.317 234.175 456.657 234.1 456.947 233.95C457.247 233.79 457.497 233.585 457.697 233.335C457.907 233.075 458.062 232.775 458.162 232.435C458.272 232.095 458.327 231.74 458.327 231.37C458.327 231 458.272 230.65 458.162 230.32C458.062 229.98 457.907 229.685 457.697 229.435C457.497 229.175 457.247 228.97 456.947 228.82C456.657 228.66 456.317 228.58 455.927 228.58C455.537 228.58 455.192 228.66 454.892 228.82C454.592 228.97 454.337 229.175 454.127 229.435C453.927 229.685 453.772 229.98 453.662 230.32C453.562 230.65 453.512 231 453.512 231.37C453.512 231.74 453.562 232.095 453.662 232.435C453.772 232.775 453.927 233.075 454.127 233.335C454.337 233.585 454.592 233.79 454.892 233.95C455.192 234.1 455.537 234.175 455.927 234.175ZM461.346 235V227.755H462.471V233.29L466.266 227.755H467.376V235H466.251V229.36L462.426 235H461.346ZM466.986 225.61C466.686 226.02 466.306 226.345 465.846 226.585C465.396 226.815 464.901 226.93 464.361 226.93C463.821 226.93 463.321 226.815 462.861 226.585C462.411 226.345 462.031 226.02 461.721 225.61L462.276 225.13C462.516 225.46 462.811 225.725 463.161 225.925C463.511 226.115 463.911 226.21 464.361 226.21C464.801 226.21 465.196 226.115 465.546 225.925C465.906 225.735 466.201 225.47 466.431 225.13L466.986 225.61ZM472.634 234.25C472.974 234.25 473.254 234.03 473.474 233.59C473.694 233.15 473.874 232.395 474.014 231.325L474.479 227.755H479.519V235H478.394V228.745H475.469L475.139 231.46C475.059 232.14 474.949 232.715 474.809 233.185C474.669 233.655 474.494 234.04 474.284 234.34C474.084 234.63 473.844 234.845 473.564 234.985C473.294 235.115 472.984 235.18 472.634 235.18V234.25ZM481.766 235V227.755H482.891V233.29L486.686 227.755H487.796V235H486.671V229.36L482.846 235H481.766ZM490.042 235V227.755H491.167V230.77H494.947V227.755H496.072V235H494.947V231.76H491.167V235H490.042ZM498.318 235V227.755H499.443V233.29L503.238 227.755H504.348V235H503.223V229.36L499.398 235H498.318ZM506.595 235V227.755H507.72V233.29L511.515 227.755H512.625V235H511.5V229.36L507.675 235H506.595ZM521.933 235.18C521.393 235.18 520.898 235.085 520.448 234.895C520.008 234.695 519.628 234.425 519.308 234.085C518.998 233.745 518.753 233.345 518.573 232.885C518.403 232.415 518.318 231.91 518.318 231.37C518.318 230.83 518.403 230.33 518.573 229.87C518.753 229.41 518.998 229.01 519.308 228.67C519.628 228.33 520.008 228.065 520.448 227.875C520.898 227.675 521.393 227.575 521.933 227.575C522.593 227.575 523.128 227.695 523.538 227.935C523.958 228.175 524.308 228.475 524.588 228.835L523.838 229.525C523.598 229.195 523.323 228.955 523.013 228.805C522.713 228.655 522.373 228.58 521.993 228.58C521.603 228.58 521.253 228.65 520.943 228.79C520.643 228.93 520.383 229.125 520.163 229.375C519.943 229.625 519.773 229.92 519.653 230.26C519.543 230.6 519.488 230.97 519.488 231.37C519.488 231.77 519.543 232.145 519.653 232.495C519.773 232.835 519.943 233.13 520.163 233.38C520.383 233.63 520.643 233.825 520.943 233.965C521.253 234.105 521.603 234.175 521.993 234.175C522.753 234.175 523.368 233.86 523.838 233.23L524.588 233.92C524.308 234.28 523.958 234.58 523.538 234.82C523.128 235.06 522.593 235.18 521.933 235.18ZM344.45 255.865V254.875H352.445V255.865H344.45ZM357.884 259V251.755H361.874C362.514 251.755 363.014 251.93 363.374 252.28C363.734 252.62 363.914 253.065 363.914 253.615C363.914 254.055 363.794 254.415 363.554 254.695C363.324 254.975 363.054 255.165 362.744 255.265C362.924 255.315 363.094 255.395 363.254 255.505C363.414 255.615 363.554 255.75 363.674 255.91C363.794 256.07 363.889 256.245 363.959 256.435C364.029 256.625 364.064 256.825 364.064 257.035C364.064 257.625 363.879 258.1 363.509 258.46C363.139 258.82 362.619 259 361.949 259H357.884ZM361.724 258.01C362.084 258.01 362.369 257.915 362.579 257.725C362.789 257.525 362.894 257.25 362.894 256.9C362.894 256.61 362.794 256.35 362.594 256.12C362.394 255.89 362.104 255.775 361.724 255.775H359.009V258.01H361.724ZM361.679 254.785C362.029 254.785 362.294 254.69 362.474 254.5C362.664 254.31 362.759 254.07 362.759 253.78C362.759 253.46 362.664 253.21 362.474 253.03C362.294 252.84 362.029 252.745 361.679 252.745H359.009V254.785H361.679ZM366.189 259V251.755H367.314V254.77H371.094V251.755H372.219V259H371.094V255.76H367.314V259H366.189ZM377.736 259.18C377.196 259.18 376.701 259.09 376.251 258.91C375.801 258.72 375.411 258.46 375.081 258.13C374.761 257.79 374.506 257.39 374.316 256.93C374.136 256.46 374.046 255.94 374.046 255.37C374.046 254.85 374.136 254.36 374.316 253.9C374.496 253.43 374.741 253.025 375.051 252.685C375.371 252.345 375.746 252.075 376.176 251.875C376.616 251.675 377.096 251.575 377.616 251.575C378.166 251.575 378.656 251.675 379.086 251.875C379.516 252.075 379.881 252.35 380.181 252.7C380.481 253.05 380.706 253.465 380.856 253.945C381.016 254.415 381.096 254.92 381.096 255.46V255.745H375.231C375.251 256.085 375.326 256.41 375.456 256.72C375.586 257.02 375.761 257.285 375.981 257.515C376.211 257.735 376.481 257.915 376.791 258.055C377.101 258.185 377.451 258.25 377.841 258.25C378.261 258.25 378.666 258.17 379.056 258.01C379.446 257.85 379.786 257.625 380.076 257.335L380.616 258.07C380.256 258.43 379.836 258.705 379.356 258.895C378.876 259.085 378.336 259.18 377.736 259.18ZM379.986 254.92C379.986 254.65 379.936 254.375 379.836 254.095C379.746 253.805 379.601 253.545 379.401 253.315C379.211 253.075 378.966 252.88 378.666 252.73C378.366 252.58 378.011 252.505 377.601 252.505C377.211 252.505 376.871 252.58 376.581 252.73C376.291 252.88 376.046 253.07 375.846 253.3C375.656 253.53 375.506 253.79 375.396 254.08C375.296 254.36 375.241 254.64 375.231 254.92H379.986ZM386.113 259.18C385.573 259.18 385.078 259.085 384.628 258.895C384.188 258.695 383.808 258.425 383.488 258.085C383.178 257.745 382.933 257.345 382.753 256.885C382.583 256.415 382.498 255.91 382.498 255.37C382.498 254.83 382.583 254.33 382.753 253.87C382.933 253.41 383.178 253.01 383.488 252.67C383.808 252.33 384.188 252.065 384.628 251.875C385.078 251.675 385.573 251.575 386.113 251.575C386.773 251.575 387.308 251.695 387.718 251.935C388.138 252.175 388.488 252.475 388.768 252.835L388.018 253.525C387.778 253.195 387.503 252.955 387.193 252.805C386.893 252.655 386.553 252.58 386.173 252.58C385.783 252.58 385.433 252.65 385.123 252.79C384.823 252.93 384.563 253.125 384.343 253.375C384.123 253.625 383.953 253.92 383.833 254.26C383.723 254.6 383.668 254.97 383.668 255.37C383.668 255.77 383.723 256.145 383.833 256.495C383.953 256.835 384.123 257.13 384.343 257.38C384.563 257.63 384.823 257.825 385.123 257.965C385.433 258.105 385.783 258.175 386.173 258.175C386.933 258.175 387.548 257.86 388.018 257.23L388.768 257.92C388.488 258.28 388.138 258.58 387.718 258.82C387.308 259.06 386.773 259.18 386.113 259.18ZM393.615 259.18C393.075 259.18 392.58 259.09 392.13 258.91C391.68 258.72 391.29 258.46 390.96 258.13C390.64 257.79 390.385 257.39 390.195 256.93C390.015 256.46 389.925 255.94 389.925 255.37C389.925 254.85 390.015 254.36 390.195 253.9C390.375 253.43 390.62 253.025 390.93 252.685C391.25 252.345 391.625 252.075 392.055 251.875C392.495 251.675 392.975 251.575 393.495 251.575C394.045 251.575 394.535 251.675 394.965 251.875C395.395 252.075 395.76 252.35 396.06 252.7C396.36 253.05 396.585 253.465 396.735 253.945C396.895 254.415 396.975 254.92 396.975 255.46V255.745H391.11C391.13 256.085 391.205 256.41 391.335 256.72C391.465 257.02 391.64 257.285 391.86 257.515C392.09 257.735 392.36 257.915 392.67 258.055C392.98 258.185 393.33 258.25 393.72 258.25C394.14 258.25 394.545 258.17 394.935 258.01C395.325 257.85 395.665 257.625 395.955 257.335L396.495 258.07C396.135 258.43 395.715 258.705 395.235 258.895C394.755 259.085 394.215 259.18 393.615 259.18ZM395.865 254.92C395.865 254.65 395.815 254.375 395.715 254.095C395.625 253.805 395.48 253.545 395.28 253.315C395.09 253.075 394.845 252.88 394.545 252.73C394.245 252.58 393.89 252.505 393.48 252.505C393.09 252.505 392.75 252.58 392.46 252.73C392.17 252.88 391.925 253.07 391.725 253.3C391.535 253.53 391.385 253.79 391.275 254.08C391.175 254.36 391.12 254.64 391.11 254.92H395.865ZM398.797 259V251.755H399.922V254.77H403.702V251.755H404.827V259H403.702V255.76H399.922V259H398.797ZM412.26 259V252.745H410.16V251.755H415.5V252.745H413.385V259H412.26ZM420.141 259.18C419.591 259.18 419.091 259.08 418.641 258.88C418.201 258.68 417.826 258.41 417.516 258.07C417.206 257.72 416.966 257.315 416.796 256.855C416.636 256.395 416.556 255.9 416.556 255.37C416.556 254.85 416.636 254.36 416.796 253.9C416.966 253.43 417.206 253.025 417.516 252.685C417.826 252.345 418.201 252.075 418.641 251.875C419.091 251.675 419.591 251.575 420.141 251.575C420.691 251.575 421.186 251.675 421.626 251.875C422.076 252.075 422.456 252.345 422.766 252.685C423.076 253.025 423.311 253.43 423.471 253.9C423.641 254.36 423.726 254.85 423.726 255.37C423.726 255.9 423.641 256.395 423.471 256.855C423.311 257.315 423.076 257.72 422.766 258.07C422.456 258.41 422.076 258.68 421.626 258.88C421.186 259.08 420.691 259.18 420.141 259.18ZM420.141 258.175C420.531 258.175 420.871 258.1 421.161 257.95C421.461 257.79 421.711 257.585 421.911 257.335C422.121 257.075 422.276 256.775 422.376 256.435C422.486 256.095 422.541 255.74 422.541 255.37C422.541 255 422.486 254.65 422.376 254.32C422.276 253.98 422.121 253.685 421.911 253.435C421.711 253.175 421.461 252.97 421.161 252.82C420.871 252.66 420.531 252.58 420.141 252.58C419.751 252.58 419.406 252.66 419.106 252.82C418.806 252.97 418.551 253.175 418.341 253.435C418.141 253.685 417.986 253.98 417.876 254.32C417.776 254.65 417.726 255 417.726 255.37C417.726 255.74 417.776 256.095 417.876 256.435C417.986 256.775 418.141 257.075 418.341 257.335C418.551 257.585 418.806 257.79 419.106 257.95C419.406 258.1 419.751 258.175 420.141 258.175ZM424.705 258.25C425.045 258.25 425.325 258.03 425.545 257.59C425.765 257.15 425.945 256.395 426.085 255.325L426.55 251.755H431.59V259H430.465V252.745H427.54L427.21 255.46C427.13 256.14 427.02 256.715 426.88 257.185C426.74 257.655 426.565 258.04 426.355 258.34C426.155 258.63 425.915 258.845 425.635 258.985C425.365 259.115 425.055 259.18 424.705 259.18V258.25ZM434.961 251.755V254.56H437.676C438.046 254.56 438.371 254.62 438.651 254.74C438.941 254.86 439.181 255.025 439.371 255.235C439.571 255.435 439.716 255.67 439.806 255.94C439.906 256.2 439.956 256.48 439.956 256.78C439.956 257.08 439.906 257.365 439.806 257.635C439.706 257.905 439.561 258.14 439.371 258.34C439.181 258.54 438.941 258.7 438.651 258.82C438.371 258.94 438.046 259 437.676 259H433.836V251.755H434.961ZM434.961 255.55V258.01H437.556C437.966 258.01 438.276 257.895 438.486 257.665C438.696 257.435 438.801 257.14 438.801 256.78C438.801 256.43 438.696 256.14 438.486 255.91C438.286 255.67 437.976 255.55 437.556 255.55H434.961ZM446.608 259L443.998 255.745L442.798 256.93V259H441.673V251.755H442.798V255.61L446.608 251.755H448.033L444.823 255.04L448.048 259H446.608ZM452.499 259.18C451.949 259.18 451.449 259.08 450.999 258.88C450.559 258.68 450.184 258.41 449.874 258.07C449.564 257.72 449.324 257.315 449.154 256.855C448.994 256.395 448.914 255.9 448.914 255.37C448.914 254.85 448.994 254.36 449.154 253.9C449.324 253.43 449.564 253.025 449.874 252.685C450.184 252.345 450.559 252.075 450.999 251.875C451.449 251.675 451.949 251.575 452.499 251.575C453.049 251.575 453.544 251.675 453.984 251.875C454.434 252.075 454.814 252.345 455.124 252.685C455.434 253.025 455.669 253.43 455.829 253.9C455.999 254.36 456.084 254.85 456.084 255.37C456.084 255.9 455.999 256.395 455.829 256.855C455.669 257.315 455.434 257.72 455.124 258.07C454.814 258.41 454.434 258.68 453.984 258.88C453.544 259.08 453.049 259.18 452.499 259.18ZM452.499 258.175C452.889 258.175 453.229 258.1 453.519 257.95C453.819 257.79 454.069 257.585 454.269 257.335C454.479 257.075 454.634 256.775 454.734 256.435C454.844 256.095 454.899 255.74 454.899 255.37C454.899 255 454.844 254.65 454.734 254.32C454.634 253.98 454.479 253.685 454.269 253.435C454.069 253.175 453.819 252.97 453.519 252.82C453.229 252.66 452.889 252.58 452.499 252.58C452.109 252.58 451.764 252.66 451.464 252.82C451.164 252.97 450.909 253.175 450.699 253.435C450.499 253.685 450.344 253.98 450.234 254.32C450.134 254.65 450.084 255 450.084 255.37C450.084 255.74 450.134 256.095 450.234 256.435C450.344 256.775 450.499 257.075 450.699 257.335C450.909 257.585 451.164 257.79 451.464 257.95C451.764 258.1 452.109 258.175 452.499 258.175ZM468.055 259V253.315L465.7 259H465.28L462.91 253.315V259H461.785V251.755H463.27L465.49 257.125L467.68 251.755H469.18V259H468.055ZM471.424 259V251.755H472.549V257.29L476.344 251.755H477.454V259H476.329V253.36L472.504 259H471.424ZM479.7 259V251.755H480.825V254.77H484.605V251.755H485.73V259H484.605V255.76H480.825V259H479.7ZM487.977 259V251.755H489.102V257.29L492.897 251.755H494.007V259H492.882V253.36L489.057 259H487.977ZM502.523 259V253.315L500.168 259H499.748L497.378 253.315V259H496.253V251.755H497.738L499.958 257.125L502.148 251.755H503.648V259H502.523ZM510.422 259V258.175C509.812 258.845 509.012 259.18 508.022 259.18C507.712 259.18 507.407 259.13 507.107 259.03C506.807 258.93 506.537 258.78 506.297 258.58C506.057 258.37 505.862 258.115 505.712 257.815C505.562 257.515 505.487 257.17 505.487 256.78C505.487 256.38 505.562 256.03 505.712 255.73C505.862 255.43 506.057 255.18 506.297 254.98C506.537 254.78 506.807 254.635 507.107 254.545C507.407 254.445 507.712 254.395 508.022 254.395C508.522 254.395 508.972 254.475 509.372 254.635C509.782 254.795 510.132 255.045 510.422 255.385V254.08C510.422 253.59 510.247 253.215 509.897 252.955C509.557 252.685 509.122 252.55 508.592 252.55C507.742 252.55 507.002 252.885 506.372 253.555L505.847 252.775C506.617 251.975 507.582 251.575 508.742 251.575C509.122 251.575 509.482 251.62 509.822 251.71C510.162 251.8 510.457 251.945 510.707 252.145C510.967 252.335 511.172 252.585 511.322 252.895C511.472 253.205 511.547 253.58 511.547 254.02V259H510.422ZM508.427 258.37C508.827 258.37 509.202 258.295 509.552 258.145C509.912 257.995 510.202 257.77 510.422 257.47V256.105C510.202 255.805 509.912 255.58 509.552 255.43C509.202 255.28 508.827 255.205 508.427 255.205C507.897 255.205 507.467 255.355 507.137 255.655C506.807 255.945 506.642 256.325 506.642 256.795C506.642 257.255 506.807 257.635 507.137 257.935C507.467 258.225 507.897 258.37 508.427 258.37ZM512.947 258.25C513.287 258.25 513.567 258.03 513.787 257.59C514.007 257.15 514.187 256.395 514.327 255.325L514.792 251.755H519.832V259H518.707V252.745H515.782L515.452 255.46C515.372 256.14 515.262 256.715 515.122 257.185C514.982 257.655 514.807 258.04 514.597 258.34C514.397 258.63 514.157 258.845 513.877 258.985C513.607 259.115 513.297 259.18 512.947 259.18V258.25ZM523.203 251.755V254.56H525.918C526.288 254.56 526.613 254.62 526.893 254.74C527.183 254.86 527.423 255.025 527.613 255.235C527.813 255.435 527.958 255.67 528.048 255.94C528.148 256.2 528.198 256.48 528.198 256.78C528.198 257.08 528.148 257.365 528.048 257.635C527.948 257.905 527.803 258.14 527.613 258.34C527.423 258.54 527.183 258.7 526.893 258.82C526.613 258.94 526.288 259 525.918 259H522.078V251.755H523.203ZM523.203 255.55V258.01H525.798C526.208 258.01 526.518 257.895 526.728 257.665C526.938 257.435 527.043 257.14 527.043 256.78C527.043 256.43 526.938 256.14 526.728 255.91C526.528 255.67 526.218 255.55 525.798 255.55H523.203ZM529.915 259V251.755H531.04V254.77H534.82V251.755H535.945V259H534.82V255.76H531.04V259H529.915ZM539.316 251.755V254.56H542.031C542.401 254.56 542.726 254.62 543.006 254.74C543.296 254.86 543.536 255.025 543.726 255.235C543.926 255.435 544.071 255.67 544.161 255.94C544.261 256.2 544.311 256.48 544.311 256.78C544.311 257.08 544.261 257.365 544.161 257.635C544.061 257.905 543.916 258.14 543.726 258.34C543.536 258.54 543.296 258.7 543.006 258.82C542.726 258.94 542.401 259 542.031 259H538.191V251.755H539.316ZM539.316 255.55V258.01H541.911C542.321 258.01 542.631 257.895 542.841 257.665C543.051 257.435 543.156 257.14 543.156 256.78C543.156 256.43 543.051 256.14 542.841 255.91C542.641 255.67 542.331 255.55 541.911 255.55H539.316ZM545.496 259V251.755H546.621V259H545.496ZM548.87 259V251.755H549.995V257.29L553.79 251.755H554.9V259H553.775V253.36L549.95 259H548.87ZM554.51 249.61C554.21 250.02 553.83 250.345 553.37 250.585C552.92 250.815 552.425 250.93 551.885 250.93C551.345 250.93 550.845 250.815 550.385 250.585C549.935 250.345 549.555 250.02 549.245 249.61L549.8 249.13C550.04 249.46 550.335 249.725 550.685 249.925C551.035 250.115 551.435 250.21 551.885 250.21C552.325 250.21 552.72 250.115 553.07 249.925C553.43 249.735 553.725 249.47 553.955 249.13L554.51 249.61ZM565.919 259V252.745H562.139V259H561.014V251.755H567.044V259H565.919ZM568.435 258.25C568.775 258.25 569.055 258.03 569.275 257.59C569.495 257.15 569.675 256.395 569.815 255.325L570.28 251.755H575.32V259H574.195V252.745H571.27L570.94 255.46C570.86 256.14 570.75 256.715 570.61 257.185C570.47 257.655 570.295 258.04 570.085 258.34C569.885 258.63 569.645 258.845 569.365 258.985C569.095 259.115 568.785 259.18 568.435 259.18V258.25ZM582.096 259V258.175C581.486 258.845 580.686 259.18 579.696 259.18C579.386 259.18 579.081 259.13 578.781 259.03C578.481 258.93 578.211 258.78 577.971 258.58C577.731 258.37 577.536 258.115 577.386 257.815C577.236 257.515 577.161 257.17 577.161 256.78C577.161 256.38 577.236 256.03 577.386 255.73C577.536 255.43 577.731 255.18 577.971 254.98C578.211 254.78 578.481 254.635 578.781 254.545C579.081 254.445 579.386 254.395 579.696 254.395C580.196 254.395 580.646 254.475 581.046 254.635C581.456 254.795 581.806 255.045 582.096 255.385V254.08C582.096 253.59 581.921 253.215 581.571 252.955C581.231 252.685 580.796 252.55 580.266 252.55C579.416 252.55 578.676 252.885 578.046 253.555L577.521 252.775C578.291 251.975 579.256 251.575 580.416 251.575C580.796 251.575 581.156 251.62 581.496 251.71C581.836 251.8 582.131 251.945 582.381 252.145C582.641 252.335 582.846 252.585 582.996 252.895C583.146 253.205 583.221 253.58 583.221 254.02V259H582.096ZM580.101 258.37C580.501 258.37 580.876 258.295 581.226 258.145C581.586 257.995 581.876 257.77 582.096 257.47V256.105C581.876 255.805 581.586 255.58 581.226 255.43C580.876 255.28 580.501 255.205 580.101 255.205C579.571 255.205 579.141 255.355 578.811 255.655C578.481 255.945 578.316 256.325 578.316 256.795C578.316 257.255 578.481 257.635 578.811 257.935C579.141 258.225 579.571 258.37 580.101 258.37ZM586.797 259V252.745H584.697V251.755H590.037V252.745H587.922V259H586.797ZM594.782 259.18C594.242 259.18 593.747 259.09 593.297 258.91C592.847 258.72 592.457 258.46 592.127 258.13C591.807 257.79 591.552 257.39 591.362 256.93C591.182 256.46 591.092 255.94 591.092 255.37C591.092 254.85 591.182 254.36 591.362 253.9C591.542 253.43 591.787 253.025 592.097 252.685C592.417 252.345 592.792 252.075 593.222 251.875C593.662 251.675 594.142 251.575 594.662 251.575C595.212 251.575 595.702 251.675 596.132 251.875C596.562 252.075 596.927 252.35 597.227 252.7C597.527 253.05 597.752 253.465 597.902 253.945C598.062 254.415 598.142 254.92 598.142 255.46V255.745H592.277C592.297 256.085 592.372 256.41 592.502 256.72C592.632 257.02 592.807 257.285 593.027 257.515C593.257 257.735 593.527 257.915 593.837 258.055C594.147 258.185 594.497 258.25 594.887 258.25C595.307 258.25 595.712 258.17 596.102 258.01C596.492 257.85 596.832 257.625 597.122 257.335L597.662 258.07C597.302 258.43 596.882 258.705 596.402 258.895C595.922 259.085 595.382 259.18 594.782 259.18ZM597.032 254.92C597.032 254.65 596.982 254.375 596.882 254.095C596.792 253.805 596.647 253.545 596.447 253.315C596.257 253.075 596.012 252.88 595.712 252.73C595.412 252.58 595.057 252.505 594.647 252.505C594.257 252.505 593.917 252.58 593.627 252.73C593.337 252.88 593.092 253.07 592.892 253.3C592.702 253.53 592.552 253.79 592.442 254.08C592.342 254.36 592.287 254.64 592.277 254.92H597.032ZM599.049 259L602.274 255.04L599.064 251.755H600.489L603.609 254.95V251.755H604.734V254.935L607.854 251.755H609.279L606.054 255.04L609.294 259H607.854L605.244 255.745L604.734 256.255V259H603.609V256.255L603.099 255.745L600.489 259H599.049Z" fill="#383C44"/>
<path d="M532.537 235.18C531.117 235.18 530.007 234.79 529.207 234.01L529.942 233.005C530.602 233.595 531.467 233.89 532.537 233.89C533.087 233.89 533.517 233.805 533.827 233.635C534.147 233.455 534.307 233.215 534.307 232.915C534.307 232.285 533.672 231.97 532.402 231.97H530.857V230.71H532.402C532.952 230.71 533.382 230.63 533.692 230.47C534.012 230.31 534.172 230.075 534.172 229.765C534.172 229.505 534.007 229.29 533.677 229.12C533.347 228.95 532.932 228.865 532.432 228.865C531.462 228.865 530.687 229.155 530.107 229.735L529.327 228.775C530.097 227.985 531.107 227.59 532.357 227.59C533.427 227.58 534.267 227.755 534.877 228.115C535.497 228.465 535.807 228.945 535.807 229.555C535.807 230.015 535.612 230.405 535.222 230.725C534.842 231.035 534.397 231.225 533.887 231.295C534.397 231.335 534.867 231.505 535.297 231.805C535.737 232.105 535.957 232.515 535.957 233.035C535.957 233.665 535.647 234.18 535.027 234.58C534.417 234.98 533.587 235.18 532.537 235.18ZM540.889 235.18C539.789 235.18 538.879 234.83 538.159 234.13C537.449 233.42 537.094 232.5 537.094 231.37C537.094 230.31 537.439 229.415 538.129 228.685C538.829 227.945 539.709 227.575 540.769 227.575C541.839 227.575 542.699 227.945 543.349 228.685C544.009 229.425 544.339 230.37 544.339 231.52V231.895H538.744C538.804 232.465 539.039 232.94 539.449 233.32C539.859 233.7 540.394 233.89 541.054 233.89C541.424 233.89 541.794 233.82 542.164 233.68C542.544 233.54 542.859 233.345 543.109 233.095L543.829 234.13C543.099 234.83 542.119 235.18 540.889 235.18ZM542.809 230.785C542.789 230.285 542.604 229.84 542.254 229.45C541.914 229.06 541.419 228.865 540.769 228.865C540.149 228.865 539.664 229.06 539.314 229.45C538.964 229.83 538.769 230.275 538.729 230.785H542.809ZM545.144 235.18V233.89C545.454 233.89 545.699 233.69 545.879 233.29C546.069 232.89 546.224 232.22 546.344 231.28L546.779 227.755H552.374V235H550.799V229.135H548.174L547.919 231.46C547.779 232.76 547.484 233.705 547.034 234.295C546.584 234.885 545.954 235.18 545.144 235.18ZM557.764 235.18C556.664 235.18 555.754 234.83 555.034 234.13C554.324 233.42 553.969 232.5 553.969 231.37C553.969 230.31 554.314 229.415 555.004 228.685C555.704 227.945 556.584 227.575 557.644 227.575C558.714 227.575 559.574 227.945 560.224 228.685C560.884 229.425 561.214 230.37 561.214 231.52V231.895H555.619C555.679 232.465 555.914 232.94 556.324 233.32C556.734 233.7 557.269 233.89 557.929 233.89C558.299 233.89 558.669 233.82 559.039 233.68C559.419 233.54 559.734 233.345 559.984 233.095L560.704 234.13C559.974 234.83 558.994 235.18 557.764 235.18ZM559.684 230.785C559.664 230.285 559.479 229.84 559.129 229.45C558.789 229.06 558.294 228.865 557.644 228.865C557.024 228.865 556.539 229.06 556.189 229.45C555.839 229.83 555.644 230.275 555.604 230.785H559.684ZM564.344 235H562.769V227.755H564.344V230.605H567.674V227.755H569.249V235H567.674V231.985H564.344V235ZM571.294 227.755H572.869V230.38H575.434C576.204 230.38 576.794 230.6 577.204 231.04C577.624 231.48 577.834 232.03 577.834 232.69C577.834 233.34 577.619 233.89 577.189 234.34C576.769 234.78 576.184 235 575.434 235H571.294V227.755ZM575.239 231.76H572.869V233.62H575.239C575.549 233.62 575.789 233.535 575.959 233.365C576.139 233.195 576.229 232.97 576.229 232.69C576.229 232.41 576.139 232.185 575.959 232.015C575.789 231.845 575.549 231.76 575.239 231.76ZM580.504 235H578.929V227.755H580.504V235ZM590.659 235H589.084V229.96L586.924 235H586.294L584.119 229.96V235H582.544V227.755H584.599L586.609 232.435L588.589 227.755H590.659V235Z" fill="#81AE7C"/>
<path d="M599.848 235.18C599.308 235.18 598.813 235.085 598.363 234.895C597.923 234.695 597.543 234.425 597.223 234.085C596.913 233.745 596.668 233.345 596.488 232.885C596.318 232.415 596.233 231.91 596.233 231.37C596.233 230.83 596.318 230.33 596.488 229.87C596.668 229.41 596.913 229.01 597.223 228.67C597.543 228.33 597.923 228.065 598.363 227.875C598.813 227.675 599.308 227.575 599.848 227.575C600.508 227.575 601.043 227.695 601.453 227.935C601.873 228.175 602.223 228.475 602.503 228.835L601.753 229.525C601.513 229.195 601.238 228.955 600.928 228.805C600.628 228.655 600.288 228.58 599.908 228.58C599.518 228.58 599.168 228.65 598.858 228.79C598.558 228.93 598.298 229.125 598.078 229.375C597.858 229.625 597.688 229.92 597.568 230.26C597.458 230.6 597.403 230.97 597.403 231.37C597.403 231.77 597.458 232.145 597.568 232.495C597.688 232.835 597.858 233.13 598.078 233.38C598.298 233.63 598.558 233.825 598.858 233.965C599.168 234.105 599.518 234.175 599.908 234.175C600.668 234.175 601.283 233.86 601.753 233.23L602.503 233.92C602.223 234.28 601.873 234.58 601.453 234.82C601.043 235.06 600.508 235.18 599.848 235.18ZM605.4 235V228.745H603.3V227.755H608.64V228.745H606.525V235H605.4ZM613.28 235.18C612.73 235.18 612.23 235.08 611.78 234.88C611.34 234.68 610.965 234.41 610.655 234.07C610.345 233.72 610.105 233.315 609.935 232.855C609.775 232.395 609.695 231.9 609.695 231.37C609.695 230.85 609.775 230.36 609.935 229.9C610.105 229.43 610.345 229.025 610.655 228.685C610.965 228.345 611.34 228.075 611.78 227.875C612.23 227.675 612.73 227.575 613.28 227.575C613.83 227.575 614.325 227.675 614.765 227.875C615.215 228.075 615.595 228.345 615.905 228.685C616.215 229.025 616.45 229.43 616.61 229.9C616.78 230.36 616.865 230.85 616.865 231.37C616.865 231.9 616.78 232.395 616.61 232.855C616.45 233.315 616.215 233.72 615.905 234.07C615.595 234.41 615.215 234.68 614.765 234.88C614.325 235.08 613.83 235.18 613.28 235.18ZM613.28 234.175C613.67 234.175 614.01 234.1 614.3 233.95C614.6 233.79 614.85 233.585 615.05 233.335C615.26 233.075 615.415 232.775 615.515 232.435C615.625 232.095 615.68 231.74 615.68 231.37C615.68 231 615.625 230.65 615.515 230.32C615.415 229.98 615.26 229.685 615.05 229.435C614.85 229.175 614.6 228.97 614.3 228.82C614.01 228.66 613.67 228.58 613.28 228.58C612.89 228.58 612.545 228.66 612.245 228.82C611.945 228.97 611.69 229.175 611.48 229.435C611.28 229.685 611.125 229.98 611.015 230.32C610.915 230.65 610.865 231 610.865 231.37C610.865 231.74 610.915 232.095 611.015 232.435C611.125 232.775 611.28 233.075 611.48 233.335C611.69 233.585 611.945 233.79 612.245 233.95C612.545 234.1 612.89 234.175 613.28 234.175ZM617.844 234.25C618.184 234.25 618.464 234.03 618.684 233.59C618.904 233.15 619.084 232.395 619.224 231.325L619.689 227.755H624.729V235H623.604V228.745H620.679L620.349 231.46C620.269 232.14 620.159 232.715 620.019 233.185C619.879 233.655 619.704 234.04 619.494 234.34C619.294 234.63 619.054 234.845 618.774 234.985C618.504 235.115 618.194 235.18 617.844 235.18V234.25ZM630.141 234.175C630.531 234.175 630.871 234.1 631.161 233.95C631.461 233.79 631.711 233.585 631.911 233.335C632.121 233.075 632.276 232.775 632.376 232.435C632.486 232.095 632.541 231.735 632.541 231.355C632.541 230.995 632.486 230.65 632.376 230.32C632.276 229.98 632.121 229.685 631.911 229.435C631.711 229.175 631.461 228.97 631.161 228.82C630.871 228.66 630.531 228.58 630.141 228.58C629.751 228.58 629.406 228.66 629.106 228.82C628.806 228.97 628.551 229.175 628.341 229.435C628.141 229.685 627.986 229.98 627.876 230.32C627.776 230.65 627.726 230.995 627.726 231.355C627.726 231.735 627.776 232.095 627.876 232.435C627.986 232.775 628.141 233.075 628.341 233.335C628.551 233.585 628.806 233.79 629.106 233.95C629.406 234.1 629.751 234.175 630.141 234.175ZM630.141 235.18C629.581 235.18 629.081 235.08 628.641 234.88C628.201 234.67 627.826 234.38 627.516 234.01C627.206 233.64 626.966 233.205 626.796 232.705C626.636 232.195 626.556 231.64 626.556 231.04C626.556 230.16 626.636 229.405 626.796 228.775C626.956 228.135 627.191 227.605 627.501 227.185C627.821 226.765 628.216 226.44 628.686 226.21C629.166 225.97 629.721 225.81 630.351 225.73C630.751 225.67 631.081 225.615 631.341 225.565C631.601 225.505 631.806 225.445 631.956 225.385C632.116 225.325 632.226 225.265 632.286 225.205C632.356 225.145 632.391 225.075 632.391 224.995H633.486C633.486 225.295 633.396 225.545 633.216 225.745C633.036 225.935 632.806 226.09 632.526 226.21C632.246 226.33 631.936 226.425 631.596 226.495C631.266 226.565 630.946 226.62 630.636 226.66C630.096 226.74 629.646 226.855 629.286 227.005C628.926 227.155 628.631 227.335 628.401 227.545C628.171 227.755 627.991 227.995 627.861 228.265C627.741 228.525 627.651 228.81 627.591 229.12C627.721 228.91 627.876 228.715 628.056 228.535C628.236 228.345 628.441 228.18 628.671 228.04C628.901 227.9 629.151 227.79 629.421 227.71C629.701 227.62 630.001 227.575 630.321 227.575C630.831 227.575 631.296 227.675 631.716 227.875C632.136 228.075 632.491 228.35 632.781 228.7C633.081 229.04 633.311 229.44 633.471 229.9C633.631 230.36 633.711 230.845 633.711 231.355C633.711 231.875 633.631 232.37 633.471 232.84C633.311 233.3 633.076 233.705 632.766 234.055C632.456 234.395 632.081 234.67 631.641 234.88C631.201 235.08 630.701 235.18 630.141 235.18ZM635.633 235V227.755H636.758V233.29L640.553 227.755H641.663V235H640.538V229.36L636.713 235H635.633ZM648.844 235L646.234 231.745L645.034 232.93V235H643.909V227.755H645.034V231.61L648.844 227.755H650.269L647.059 231.04L650.284 235H648.844ZM654.735 235.18C654.185 235.18 653.685 235.08 653.235 234.88C652.795 234.68 652.42 234.41 652.11 234.07C651.8 233.72 651.56 233.315 651.39 232.855C651.23 232.395 651.15 231.9 651.15 231.37C651.15 230.85 651.23 230.36 651.39 229.9C651.56 229.43 651.8 229.025 652.11 228.685C652.42 228.345 652.795 228.075 653.235 227.875C653.685 227.675 654.185 227.575 654.735 227.575C655.285 227.575 655.78 227.675 656.22 227.875C656.67 228.075 657.05 228.345 657.36 228.685C657.67 229.025 657.905 229.43 658.065 229.9C658.235 230.36 658.32 230.85 658.32 231.37C658.32 231.9 658.235 232.395 658.065 232.855C657.905 233.315 657.67 233.72 657.36 234.07C657.05 234.41 656.67 234.68 656.22 234.88C655.78 235.08 655.285 235.18 654.735 235.18ZM654.735 234.175C655.125 234.175 655.465 234.1 655.755 233.95C656.055 233.79 656.305 233.585 656.505 233.335C656.715 233.075 656.87 232.775 656.97 232.435C657.08 232.095 657.135 231.74 657.135 231.37C657.135 231 657.08 230.65 656.97 230.32C656.87 229.98 656.715 229.685 656.505 229.435C656.305 229.175 656.055 228.97 655.755 228.82C655.465 228.66 655.125 228.58 654.735 228.58C654.345 228.58 654 228.66 653.7 228.82C653.4 228.97 653.145 229.175 652.935 229.435C652.735 229.685 652.58 229.98 652.47 230.32C652.37 230.65 652.32 231 652.32 231.37C652.32 231.74 652.37 232.095 652.47 232.435C652.58 232.775 652.735 233.075 652.935 233.335C653.145 233.585 653.4 233.79 653.7 233.95C654 234.1 654.345 234.175 654.735 234.175ZM666.424 235V229.315L664.069 235H663.649L661.279 229.315V235H660.154V227.755H661.639L663.859 233.125L666.049 227.755H667.549V235H666.424Z" fill="#232323"/>
<defs>
<filter id="filter0_d" x="283" y="197" width="436" height="145" filterUnits="userSpaceOnUse" color-interpolation-filters="sRGB">
<feFlood flood-opacity="0" result="BackgroundImageFix"/>
<feColorMatrix in="SourceAlpha" type="matrix" values="0 0 0 0 0 0 0 0 0 0 0 0 0 0 0 0 0 0 127 0"/>
<feMorphology radius="21" operator="erode" in="SourceAlpha" result="effect1_dropShadow"/>
<feOffset dy="29"/>
<feGaussianBlur stdDeviation="24"/>
<feColorMatrix type="matrix" values="0 0 0 0 0 0 0 0 0 0 0 0 0 0 0 0 0 0 0.31 0"/>
<feBlend mode="normal" in2="BackgroundImageFix" result="effect1_dropShadow"/>
<feBlend mode="normal" in="SourceGraphic" in2="effect1_dropShadow" result="shape"/>
</filter>
</defs>
</svg>
