<svg width="790" height="442" viewBox="0 0 790 442" fill="none" xmlns="http://www.w3.org/2000/svg">
<path d="M785.371 381.934C787.652 381.934 788.97 379.913 788.97 376.745C788.97 373.599 787.646 371.578 785.371 371.578C783.096 371.578 781.758 373.613 781.758 376.752C781.758 379.92 783.082 381.934 785.371 381.934ZM785.371 380.843C783.836 380.843 782.987 379.246 782.987 376.745C782.987 374.3 783.857 372.675 785.371 372.675C786.885 372.675 787.741 374.287 787.741 376.752C787.741 379.253 786.899 380.843 785.371 380.843Z" fill="#434A50"/>
<path d="M753.943 316.647H755.137C755.137 315.521 756.055 314.674 757.276 314.674C758.407 314.674 759.134 315.459 759.134 316.445C759.134 317.279 758.826 317.82 757.489 319.23L754.005 322.912V323.773H760.533V322.662H755.699V322.634L758.051 320.189C759.868 318.3 760.369 317.473 760.369 316.369C760.369 314.848 759.107 313.583 757.276 313.583C755.37 313.583 753.943 314.889 753.943 316.647Z" fill="#434A50"/>
<path d="M768.302 323.94C770.606 323.94 771.937 321.918 771.937 318.751C771.937 315.605 770.599 313.583 768.302 313.583C766.005 313.583 764.654 315.619 764.654 318.758C764.654 321.925 765.991 323.94 768.302 323.94ZM768.302 322.849C766.753 322.849 765.895 321.252 765.895 318.751C765.895 316.306 766.773 314.681 768.302 314.681C769.831 314.681 770.695 316.292 770.695 318.758C770.695 321.259 769.845 322.849 768.302 322.849Z" fill="#434A50"/>
<path d="M776.819 323.94C779.123 323.94 780.453 321.918 780.453 318.751C780.453 315.605 779.116 313.583 776.819 313.583C774.522 313.583 773.171 315.619 773.171 318.758C773.171 321.925 774.508 323.94 776.819 323.94ZM776.819 322.849C775.269 322.849 774.412 321.252 774.412 318.751C774.412 316.306 775.29 314.681 776.819 314.681C778.348 314.681 779.212 316.292 779.212 318.758C779.212 321.259 778.362 322.849 776.819 322.849Z" fill="#434A50"/>
<path d="M785.335 323.94C787.639 323.94 788.97 321.918 788.97 318.751C788.97 315.605 787.633 313.583 785.335 313.583C783.038 313.583 781.687 315.619 781.687 318.758C781.687 321.925 783.025 323.94 785.335 323.94ZM785.335 322.849C783.786 322.849 782.929 321.252 782.929 318.751C782.929 316.306 783.806 314.681 785.335 314.681C786.865 314.681 787.729 316.292 787.729 318.758C787.729 321.259 786.878 322.849 785.335 322.849Z" fill="#434A50"/>
<path d="M758.812 266.814H759.98V264.73H761.35V263.632H759.98V256.791H758.194C755.904 260.187 754.769 262.014 753.943 263.598V264.73H758.812V266.814ZM755.139 263.605C755.904 262.215 756.958 260.541 758.792 257.833H758.812V263.632H755.139V263.605Z" fill="#434A50"/>
<path d="M768.73 266.98C770.986 266.98 772.289 264.959 772.289 261.792C772.289 258.645 770.98 256.624 768.73 256.624C766.481 256.624 765.158 258.659 765.158 261.799C765.158 264.966 766.467 266.98 768.73 266.98ZM768.73 265.89C767.213 265.89 766.373 264.292 766.373 261.792C766.373 259.347 767.233 257.721 768.73 257.721C770.228 257.721 771.074 259.333 771.074 261.799C771.074 264.299 770.241 265.89 768.73 265.89Z" fill="#434A50"/>
<path d="M777.07 266.98C779.327 266.98 780.629 264.959 780.629 261.792C780.629 258.645 779.32 256.624 777.07 256.624C774.821 256.624 773.498 258.659 773.498 261.799C773.498 264.966 774.807 266.98 777.07 266.98ZM777.07 265.89C775.553 265.89 774.713 264.292 774.713 261.792C774.713 259.347 775.573 257.721 777.07 257.721C778.568 257.721 779.414 259.333 779.414 261.799C779.414 264.299 778.581 265.89 777.07 265.89Z" fill="#434A50"/>
<path d="M785.411 266.98C787.667 266.98 788.97 264.959 788.97 261.792C788.97 258.645 787.66 256.624 785.411 256.624C783.161 256.624 781.838 258.659 781.838 261.799C781.838 264.966 783.148 266.98 785.411 266.98ZM785.411 265.89C783.893 265.89 783.054 264.292 783.054 261.792C783.054 259.347 783.913 257.721 785.411 257.721C786.908 257.721 787.754 259.333 787.754 261.799C787.754 264.299 786.922 265.89 785.411 265.89Z" fill="#434A50"/>
<path d="M757.641 207.95C759.638 207.95 761.089 206.507 761.089 204.53C761.089 202.63 759.712 201.222 757.857 201.222C756.534 201.222 755.536 201.943 755.138 202.845H755.117C755.158 200.181 756.082 198.697 757.708 198.697C758.707 198.697 759.436 199.217 759.719 200.119H760.954C760.65 198.586 759.375 197.594 757.722 197.594C755.34 197.594 753.943 199.571 753.943 202.942C753.943 206.667 755.846 207.95 757.641 207.95ZM757.628 206.84C756.379 206.84 755.408 205.82 755.408 204.537C755.408 203.261 756.359 202.318 757.648 202.318C758.937 202.318 759.854 203.261 759.854 204.572C759.854 205.834 758.869 206.84 757.628 206.84Z" fill="#434A50"/>
<path d="M768.633 207.943C770.9 207.943 772.209 205.924 772.209 202.761C772.209 199.619 770.893 197.601 768.633 197.601C766.372 197.601 765.043 199.633 765.043 202.768C765.043 205.931 766.359 207.943 768.633 207.943ZM768.633 206.854C767.108 206.854 766.264 205.259 766.264 202.761C766.264 200.32 767.128 198.697 768.633 198.697C770.137 198.697 770.988 200.306 770.988 202.768C770.988 205.266 770.151 206.854 768.633 206.854Z" fill="#434A50"/>
<path d="M777.013 207.943C779.28 207.943 780.589 205.924 780.589 202.761C780.589 199.619 779.274 197.601 777.013 197.601C774.753 197.601 773.423 199.633 773.423 202.768C773.423 205.931 774.739 207.943 777.013 207.943ZM777.013 206.854C775.488 206.854 774.645 205.259 774.645 202.761C774.645 200.32 775.508 198.697 777.013 198.697C778.518 198.697 779.368 200.306 779.368 202.768C779.368 205.266 778.531 206.854 777.013 206.854Z" fill="#434A50"/>
<path d="M785.394 207.943C787.661 207.943 788.97 205.924 788.97 202.761C788.97 199.619 787.654 197.601 785.394 197.601C783.133 197.601 781.804 199.633 781.804 202.768C781.804 205.931 783.12 207.943 785.394 207.943ZM785.394 206.854C783.869 206.854 783.025 205.259 783.025 202.761C783.025 200.32 783.889 198.697 785.394 198.697C786.898 198.697 787.748 200.306 787.748 202.768C787.748 205.266 786.912 206.854 785.394 206.854Z" fill="#434A50"/>
<path d="M757.47 149.955C759.534 149.955 761.004 148.761 761.004 147.08C761.004 145.836 760.168 144.808 758.907 144.503V144.475C759.986 144.121 760.64 143.28 760.64 142.239C760.64 140.71 759.311 139.599 757.47 139.599C755.643 139.599 754.294 140.717 754.294 142.232C754.294 143.287 754.962 144.135 756.034 144.475V144.503C754.78 144.802 753.943 145.83 753.943 147.08C753.943 148.754 755.413 149.955 757.47 149.955ZM757.47 148.865C756.135 148.865 755.177 148.08 755.177 146.989C755.177 145.892 756.135 145.107 757.47 145.107C758.812 145.107 759.763 145.885 759.763 146.989C759.763 148.08 758.812 148.865 757.47 148.865ZM757.47 144.01C756.31 144.01 755.501 143.322 755.501 142.35C755.501 141.37 756.31 140.676 757.47 140.676C758.63 140.676 759.439 141.363 759.439 142.35C759.439 143.322 758.623 144.01 757.47 144.01Z" fill="#434A50"/>
<path d="M768.644 149.955C770.91 149.955 772.219 147.934 772.219 144.767C772.219 141.62 770.904 139.599 768.644 139.599C766.385 139.599 765.057 141.634 765.057 144.774C765.057 147.941 766.372 149.955 768.644 149.955ZM768.644 148.865C767.12 148.865 766.277 147.267 766.277 144.767C766.277 142.322 767.141 140.697 768.644 140.697C770.148 140.697 770.998 142.308 770.998 144.774C770.998 147.274 770.162 148.865 768.644 148.865Z" fill="#434A50"/>
<path d="M777.02 149.955C779.286 149.955 780.594 147.934 780.594 144.767C780.594 141.62 779.279 139.599 777.02 139.599C774.761 139.599 773.432 141.634 773.432 144.774C773.432 147.941 774.747 149.955 777.02 149.955ZM777.02 148.865C775.496 148.865 774.653 147.267 774.653 144.767C774.653 142.322 775.516 140.697 777.02 140.697C778.524 140.697 779.374 142.308 779.374 144.774C779.374 147.274 778.537 148.865 777.02 148.865Z" fill="#434A50"/>
<path d="M785.396 149.955C787.661 149.955 788.97 147.934 788.97 144.767C788.97 141.62 787.655 139.599 785.396 139.599C783.136 139.599 781.808 141.634 781.808 144.774C781.808 147.941 783.123 149.955 785.396 149.955ZM785.396 148.865C783.872 148.865 783.029 147.267 783.029 144.767C783.029 142.322 783.892 140.697 785.396 140.697C786.899 140.697 787.749 142.308 787.749 144.774C787.749 147.274 786.913 148.865 785.396 148.865Z" fill="#434A50"/>
<path d="M750.367 91.794H751.541V81.7712H750.353L747.762 83.6882V84.9454L750.34 83.0978H750.367V91.794Z" fill="#434A50"/>
<path d="M757.418 91.9607C759.685 91.9607 760.994 89.9395 760.994 86.7722C760.994 83.6257 759.678 81.6045 757.418 81.6045C755.158 81.6045 753.828 83.6396 753.828 86.7791C753.828 89.9464 755.144 91.9607 757.418 91.9607ZM757.418 90.8702C755.893 90.8702 755.05 89.2727 755.05 86.7722C755.05 84.3272 755.913 82.7019 757.418 82.7019C758.923 82.7019 759.773 84.3134 759.773 86.7791C759.773 89.2796 758.936 90.8702 757.418 90.8702Z" fill="#434A50"/>
<path d="M768.632 91.9607C770.9 91.9607 772.209 89.9395 772.209 86.7722C772.209 83.6257 770.893 81.6045 768.632 81.6045C766.372 81.6045 765.043 83.6396 765.043 86.7791C765.043 89.9464 766.359 91.9607 768.632 91.9607ZM768.632 90.8702C767.108 90.8702 766.264 89.2727 766.264 86.7722C766.264 84.3272 767.128 82.7019 768.632 82.7019C770.137 82.7019 770.987 84.3134 770.987 86.7791C770.987 89.2796 770.151 90.8702 768.632 90.8702Z" fill="#434A50"/>
<path d="M777.013 91.9607C779.28 91.9607 780.589 89.9395 780.589 86.7722C780.589 83.6257 779.273 81.6045 777.013 81.6045C774.753 81.6045 773.423 83.6396 773.423 86.7791C773.423 89.9464 774.739 91.9607 777.013 91.9607ZM777.013 90.8702C775.488 90.8702 774.645 89.2727 774.645 86.7722C774.645 84.3272 775.508 82.7019 777.013 82.7019C778.518 82.7019 779.368 84.3134 779.368 86.7791C779.368 89.2796 778.531 90.8702 777.013 90.8702Z" fill="#434A50"/>
<path d="M785.393 91.9607C787.661 91.9607 788.97 89.9395 788.97 86.7722C788.97 83.6257 787.654 81.6045 785.393 81.6045C783.133 81.6045 781.804 83.6396 781.804 86.7791C781.804 89.9464 783.12 91.9607 785.393 91.9607ZM785.393 90.8702C783.869 90.8702 783.025 89.2727 783.025 86.7722C783.025 84.3272 783.889 82.7019 785.393 82.7019C786.898 82.7019 787.748 84.3134 787.748 86.7791C787.748 89.2796 786.912 90.8702 785.393 90.8702Z" fill="#434A50"/>
<path d="M7.05762 388.147H790V389.153H7.05762V388.147Z" fill="#EDEDED"/>
<path d="M7.05762 329.118H790V330.123H7.05762V329.118Z" fill="#EDEDED"/>
<path d="M7.05762 271.123H790V272.128H7.05762V271.123Z" fill="#EDEDED"/>
<path d="M7.05762 213.128H790V214.133H7.05762V213.128Z" fill="#EDEDED"/>
<path d="M7.05762 155.133H790V156.139H7.05762V155.133Z" fill="#EDEDED"/>
<path d="M7.05762 97.1387H790V98.1439H7.05762V97.1387Z" fill="#EDEDED"/>
<path d="M7.05762 39.144H790V40.1493H7.05762V39.144Z" fill="#EDEDED"/>
<path d="M28.6914 321.868H48.265V388.148H28.6914V321.868Z" fill="#F5B65A"/>
<path d="M51.3555 293.906H71.9592V388.147H51.3555V293.906Z" fill="#81AE7C"/>
<path d="M51.3555 298.049H71.9592V312.548H51.3555V298.049Z" fill="white"/>
<path fill-rule="evenodd" clip-rule="evenodd" d="M70.7472 299.258H52.5675V311.34H70.7472V299.258ZM51.3555 298.049V312.548H71.9592V298.049H51.3555Z" fill="#C9C9C9"/>
<path d="M28.6914 321.868H48.265V335.331H28.6914V321.868Z" fill="#E18565"/>
<path d="M7.94001 429.81L5.73327 426.172L8.28505 424.378L11.9017 429.579L8.66572 431.853L8.63986 431.816C8.69013 431.185 8.42706 430.609 7.94001 429.81ZM8.43579 433.135L13.3174 429.704L14.2386 431.029L15.0106 430.486L13.5659 428.409L12.7338 428.994L8.59356 423.041L4.46542 425.942L7.14583 430.341C7.70583 431.255 7.93924 431.976 7.63484 432.578L7.1402 432.925L8.58491 435.002L9.35691 434.46L8.43579 433.135Z" fill="black"/>
<path d="M13.9317 422.997C14.6898 422.465 15.5945 422.687 16.1753 423.482L13.5635 425.318C13.0552 424.478 13.1782 423.527 13.9317 422.997ZM17.162 424.941C17.3447 425.49 17.1128 426.117 16.5026 426.546C15.6381 427.153 14.6739 426.925 14.0307 426L13.9984 425.953L17.447 423.529L17.2337 423.223C16.2156 421.759 14.7565 421.373 13.4575 422.286C12.1308 423.218 11.988 424.834 13.0319 426.335C14.0888 427.855 15.5946 428.229 16.9721 427.26C18.0215 426.523 18.402 425.328 17.9525 424.385L17.162 424.941Z" fill="black"/>
<path d="M19.7471 421.394L20.3944 417.535L19.4005 418.234L18.844 421.807L18.807 421.833L17.3202 419.696L16.5159 420.261L19.8772 425.094L20.6815 424.529L19.0655 422.205L19.1025 422.179L22.7849 423.05L23.8204 422.323L19.7471 421.394Z" fill="black"/>
<path d="M25.161 421.45C25.4568 421.242 25.5264 420.847 25.3195 420.549C25.1127 420.252 24.7199 420.182 24.4241 420.39C24.1282 420.598 24.0587 420.993 24.2655 421.29C24.4724 421.588 24.8651 421.658 25.161 421.45Z" fill="black"/>
<path d="M29.7266 414.684L29.203 413.932L26.1705 416.063L26.6941 416.816L29.7266 414.684Z" fill="black"/>
<path d="M35.9169 408.86L34.4468 409.893C33.4945 410.563 32.6194 410.472 32.0344 409.631C31.4526 408.794 31.6671 407.945 32.624 407.272L34.094 406.239L35.9169 408.86ZM35.0999 410.555L36.4405 409.613L38.2342 412.192L39.0663 411.607L34.4025 404.901L31.8831 406.672C30.6304 407.553 30.3356 409.019 31.1792 410.232C31.8741 411.231 33.0185 411.541 34.1134 411.096L34.0645 415.123L35.0538 414.427L35.0999 410.555Z" fill="black"/>
<path d="M43.4857 408.501L44.2901 407.936L40.9288 403.103L40.1244 403.668L41.5109 405.662L39.158 407.315L37.7714 405.322L36.9671 405.887L40.3283 410.72L41.1327 410.155L39.6201 407.98L41.9731 406.326L43.4857 408.501Z" fill="black"/>
<path d="M47.4937 405.684C48.5153 404.966 48.7723 403.99 48.1776 403.135C47.7672 402.545 47.069 402.392 46.4053 402.734L46.3794 402.697C46.7585 402.292 46.7853 401.588 46.4395 401.091C45.8997 400.315 45.0199 400.227 44.1185 400.861L42.0614 402.307L45.4226 407.14L47.4937 405.684ZM43.3214 402.397L44.454 401.601C44.9579 401.246 45.3987 401.296 45.7025 401.733C46.029 402.203 45.8961 402.635 45.2905 403.061L44.2781 403.772L43.3214 402.397ZM44.7306 404.423L45.8077 403.666C46.5104 403.172 47.0159 403.176 47.3649 403.678C47.7043 404.166 47.5742 404.652 46.9917 405.061L45.7713 405.919L44.7306 404.423Z" fill="black"/>
<path d="M50.7342 403.476C51.03 403.268 51.0996 402.873 50.8927 402.576C50.6859 402.278 50.2931 402.208 49.9973 402.416C49.7014 402.624 49.6319 403.019 49.8387 403.316C50.0456 403.614 50.4383 403.684 50.7342 403.476Z" fill="black"/>
<path d="M106.986 321.868H126.56V388.148H106.986V321.868Z" fill="#F5B65A"/>
<path d="M130.681 295.978H150.255V388.148H130.681V295.978Z" fill="#81AE7C"/>
<path d="M130.681 295.978H150.255V300.121H130.681V295.978Z" fill="#253645"/>
<path d="M51.3555 293.906H71.9592V298.048H51.3555V293.906Z" fill="#253645"/>
<path d="M106.986 207.95H126.56V335.331H106.986V207.95Z" fill="#E18565"/>
<path d="M82.8474 431.351L81.3774 432.384C80.4251 433.053 79.5499 432.962 78.9649 432.121C78.3832 431.285 78.5976 430.435 79.5545 429.763L81.0246 428.73L82.8474 431.351ZM82.0304 433.046L83.371 432.103L85.1648 434.683L85.9969 434.098L81.3331 427.392L78.8137 429.163C77.5609 430.043 77.2662 431.51 78.1097 432.722C78.8046 433.722 79.949 434.031 81.044 433.587L80.995 437.613L81.9843 436.918L82.0304 433.046Z" fill="black"/>
<path d="M90.4163 430.992L91.2206 430.426L87.8593 425.593L87.055 426.159L88.4415 428.152L86.0885 429.806L84.702 427.812L83.8976 428.378L87.2589 433.211L88.0633 432.645L86.5507 430.471L88.9037 428.817L90.4163 430.992Z" fill="black"/>
<path d="M94.4242 428.175C95.4458 427.457 95.7029 426.48 95.1082 425.625C94.6977 425.035 93.9996 424.882 93.3358 425.224L93.3099 425.187C93.6891 424.782 93.7158 424.079 93.37 423.581C92.8303 422.805 91.9505 422.718 91.049 423.351L88.9919 424.797L92.3532 429.63L94.4242 428.175ZM90.252 424.887L91.3846 424.091C91.8885 423.737 92.3293 423.787 92.6331 424.224C92.9595 424.693 92.8266 425.126 92.2211 425.551L91.2087 426.263L90.252 424.887ZM91.6611 426.913L92.7383 426.156C93.4409 425.662 93.9464 425.667 94.2955 426.169C94.6349 426.657 94.5047 427.143 93.9223 427.552L92.7018 428.41L91.6611 426.913Z" fill="black"/>
<path d="M97.6647 425.966C97.9606 425.758 98.0301 425.364 97.8233 425.066C97.6164 424.769 97.2237 424.699 96.9278 424.907C96.632 425.115 96.5624 425.51 96.7693 425.807C96.9761 426.104 97.3689 426.174 97.6647 425.966Z" fill="black"/>
<path d="M102.23 419.201L101.707 418.448L98.6742 420.58L99.1978 421.333L102.23 419.201Z" fill="black"/>
<path d="M108.713 416.112C107.38 416.987 106.039 416.78 105.199 415.572C104.368 414.378 104.636 413.041 105.904 412.074L108.713 416.112ZM110.236 412.039C111.067 413.233 110.799 414.57 109.535 415.534L106.727 411.495C108.055 410.624 109.399 410.835 110.236 412.039ZM109.233 416.86L109.721 417.562L110.544 416.984L110.056 416.282C111.828 414.961 112.222 413.092 111.077 411.447C109.927 409.793 108.043 409.519 106.206 410.747L105.751 410.092L104.928 410.67L105.384 411.326C103.607 412.65 103.213 414.518 104.357 416.164C105.508 417.818 107.396 418.089 109.233 416.86Z" fill="black"/>
<path d="M113.386 408.572C114.144 408.039 115.049 408.262 115.63 409.057L113.018 410.893C112.51 410.053 112.633 409.102 113.386 408.572ZM116.617 410.515C116.799 411.065 116.567 411.692 115.957 412.12C115.093 412.728 114.128 412.499 113.485 411.575L113.453 411.528L116.902 409.104L116.688 408.798C115.67 407.334 114.211 406.948 112.912 407.861C111.585 408.793 111.443 410.409 112.487 411.91C113.543 413.429 115.049 413.803 116.427 412.835C117.476 412.098 117.857 410.903 117.407 409.96L116.617 410.515Z" fill="black"/>
<path d="M121.403 409.213C122.424 408.495 122.681 407.519 122.087 406.664C121.676 406.074 120.978 405.921 120.314 406.263L120.288 406.226C120.668 405.821 120.694 405.117 120.349 404.62C119.809 403.844 118.929 403.756 118.028 404.39L115.97 405.836L119.332 410.669L121.403 409.213ZM117.231 405.926L118.363 405.13C118.867 404.776 119.308 404.826 119.612 405.262C119.938 405.732 119.805 406.164 119.2 406.59L118.187 407.301L117.231 405.926ZM118.64 407.952L119.717 407.195C120.419 406.701 120.925 406.705 121.274 407.207C121.613 407.695 121.483 408.181 120.901 408.591L119.68 409.448L118.64 407.952Z" fill="black"/>
<path d="M122.893 400.846C122.195 401.337 121.884 402.088 121.966 402.839L121.948 402.852L121.379 402.034L120.616 402.571L125.099 409.016L125.904 408.451L124.236 406.053L124.254 406.04C124.909 406.368 125.7 406.318 126.389 405.833C127.6 404.982 127.742 403.415 126.689 401.9C125.635 400.385 124.118 399.985 122.893 400.846ZM125.719 405.246C124.896 405.824 123.847 405.503 123.097 404.425C122.35 403.351 122.407 402.246 123.23 401.668C124.085 401.067 125.106 401.387 125.866 402.479C126.629 403.576 126.574 404.645 125.719 405.246Z" fill="black"/>
<path d="M129.664 403.476C129.959 403.269 130.029 402.874 129.822 402.576C129.615 402.279 129.223 402.209 128.927 402.417C128.631 402.625 128.561 403.02 128.768 403.317C128.975 403.614 129.368 403.684 129.664 403.476Z" fill="black"/>
<path d="M184.25 321.868H203.824V388.148H184.25V321.868Z" fill="#F5B65A"/>
<path d="M207.944 295.978H227.518V388.148H207.944V295.978Z" fill="#81AE7C"/>
<path d="M207.944 295.978H227.518V300.121H207.944V295.978Z" fill="#253645"/>
<path d="M184.25 207.95H203.824V335.331H184.25V207.95Z" fill="#E18565"/>
<path d="M161.304 431.351L159.834 432.384C158.882 433.053 158.007 432.962 157.422 432.121C156.84 431.285 157.055 430.435 158.012 429.763L159.482 428.73L161.304 431.351ZM160.487 433.046L161.828 432.103L163.622 434.683L164.454 434.098L159.79 427.392L157.271 429.163C156.018 430.043 155.723 431.51 156.567 432.722C157.262 433.722 158.406 434.031 159.501 433.587L159.452 437.613L160.441 436.918L160.487 433.046Z" fill="black"/>
<path d="M168.873 430.992L169.678 430.426L166.316 425.593L165.512 426.159L166.899 428.152L164.546 429.806L163.159 427.812L162.355 428.378L165.716 433.211L166.52 432.645L165.008 430.471L167.361 428.817L168.873 430.992Z" fill="black"/>
<path d="M172.881 428.175C173.903 427.457 174.16 426.48 173.565 425.625C173.155 425.035 172.457 424.882 171.793 425.224L171.767 425.187C172.146 424.782 172.173 424.079 171.827 423.581C171.287 422.805 170.408 422.718 169.506 423.351L167.449 424.797L170.81 429.63L172.881 428.175ZM168.709 424.887L169.842 424.091C170.345 423.737 170.786 423.787 171.09 424.224C171.417 424.693 171.284 425.126 170.678 425.551L169.666 426.263L168.709 424.887ZM170.118 426.913L171.195 426.156C171.898 425.662 172.403 425.667 172.753 426.169C173.092 426.657 172.962 427.143 172.379 427.552L171.159 428.41L170.118 426.913Z" fill="black"/>
<path d="M176.122 425.966C176.418 425.758 176.487 425.364 176.28 425.066C176.073 424.769 175.681 424.699 175.385 424.907C175.089 425.115 175.019 425.51 175.226 425.807C175.433 426.104 175.826 426.174 176.122 425.966Z" fill="black"/>
<path d="M180.687 419.201L180.164 418.448L177.131 420.58L177.655 421.333L180.687 419.201Z" fill="black"/>
<path d="M187.17 416.112C185.837 416.987 184.496 416.78 183.656 415.572C182.825 414.378 183.093 413.041 184.361 412.074L187.17 416.112ZM188.693 412.039C189.524 413.233 189.256 414.57 187.992 415.534L185.184 411.495C186.512 410.624 187.856 410.835 188.693 412.039ZM187.69 416.86L188.178 417.562L189.001 416.984L188.513 416.282C190.285 414.961 190.679 413.092 189.534 411.447C188.384 409.793 186.5 409.519 184.663 410.747L184.208 410.092L183.385 410.67L183.841 411.326C182.064 412.65 181.67 414.518 182.814 416.164C183.965 417.818 185.853 418.089 187.69 416.86Z" fill="black"/>
<path d="M191.843 408.572C192.601 408.039 193.506 408.262 194.087 409.057L191.475 410.893C190.967 410.053 191.09 409.102 191.843 408.572ZM195.074 410.515C195.256 411.065 195.024 411.692 194.414 412.12C193.55 412.728 192.585 412.499 191.942 411.575L191.91 411.528L195.359 409.104L195.145 408.798C194.127 407.334 192.668 406.948 191.369 407.861C190.042 408.793 189.9 410.409 190.944 411.91C192 413.429 193.506 413.803 194.884 412.835C195.933 412.098 196.314 410.903 195.864 409.96L195.074 410.515Z" fill="black"/>
<path d="M199.86 409.213C200.881 408.495 201.138 407.519 200.544 406.664C200.133 406.074 199.435 405.921 198.771 406.263L198.746 406.226C199.125 405.821 199.151 405.117 198.806 404.62C198.266 403.844 197.386 403.756 196.485 404.39L194.427 405.836L197.789 410.669L199.86 409.213ZM195.688 405.926L196.82 405.13C197.324 404.776 197.765 404.826 198.069 405.262C198.395 405.732 198.262 406.164 197.657 406.59L196.644 407.301L195.688 405.926ZM197.097 407.952L198.174 407.195C198.876 406.701 199.382 406.705 199.731 407.207C200.07 407.695 199.94 408.181 199.358 408.591L198.137 409.448L197.097 407.952Z" fill="black"/>
<path d="M201.35 400.846C200.652 401.337 200.341 402.088 200.423 402.839L200.405 402.852L199.836 402.034L199.073 402.571L203.556 409.016L204.361 408.451L202.693 406.053L202.711 406.04C203.366 406.368 204.157 406.318 204.846 405.833C206.057 404.982 206.199 403.415 205.146 401.9C204.092 400.385 202.575 399.985 201.35 400.846ZM204.176 405.246C203.353 405.824 202.304 405.503 201.554 404.425C200.807 403.351 200.864 402.246 201.687 401.668C202.542 401.067 203.563 401.387 204.323 402.479C205.086 403.576 205.031 404.645 204.176 405.246Z" fill="black"/>
<path d="M208.121 403.476C208.417 403.269 208.486 402.874 208.279 402.576C208.072 402.279 207.68 402.209 207.384 402.417C207.088 402.625 207.018 403.02 207.225 403.317C207.432 403.614 207.825 403.684 208.121 403.476Z" fill="black"/>
<path d="M266.665 321.868H286.239V388.148H266.665V321.868Z" fill="#F5B65A"/>
<path d="M289.329 287.692H309.932V388.148H289.329V287.692Z" fill="#81AE7C"/>
<path d="M289.329 287.692H309.932V292.87H289.329V287.692Z" fill="#253645"/>
<path d="M266.665 306.333H286.239V335.331H266.665V306.333Z" fill="#E18565"/>
<path d="M239.529 436.958C238.196 437.832 236.855 437.626 236.015 436.418C235.184 435.224 235.452 433.887 236.72 432.919L239.529 436.958ZM241.052 432.884C241.883 434.079 241.615 435.415 240.352 436.379L237.543 432.341C238.871 431.47 240.215 431.681 241.052 432.884ZM240.049 437.706L240.537 438.408L241.36 437.829L240.872 437.128C242.644 435.806 243.038 433.938 241.894 432.293C240.743 430.639 238.859 430.364 237.023 431.593L236.567 430.938L235.744 431.516L236.2 432.171C234.423 433.496 234.03 435.364 235.174 437.009C236.324 438.664 238.213 438.935 240.049 437.706Z" fill="black"/>
<path d="M244.203 429.418C244.961 428.885 245.865 429.107 246.446 429.903L243.834 431.738C243.326 430.899 243.449 429.948 244.203 429.418ZM247.433 431.361C247.616 431.911 247.384 432.537 246.774 432.966C245.909 433.574 244.945 433.345 244.302 432.42L244.269 432.374L247.718 429.95L247.505 429.643C246.487 428.179 245.028 427.793 243.729 428.706C242.402 429.639 242.259 431.254 243.303 432.756C244.36 434.275 245.866 434.649 247.243 433.681C248.293 432.943 248.673 431.749 248.223 430.805L247.433 431.361Z" fill="black"/>
<path d="M252.219 430.059C253.241 429.341 253.498 428.365 252.903 427.51C252.493 426.919 251.795 426.767 251.131 427.109L251.105 427.071C251.484 426.667 251.511 425.963 251.165 425.466C250.625 424.689 249.745 424.602 248.844 425.236L246.787 426.681L250.148 431.515L252.219 430.059ZM248.047 426.771L249.18 425.975C249.683 425.621 250.124 425.671 250.428 426.108C250.754 426.577 250.622 427.01 250.016 427.435L249.004 428.147L248.047 426.771ZM249.456 428.798L250.533 428.041C251.236 427.547 251.741 427.551 252.09 428.053C252.43 428.541 252.3 429.027 251.717 429.436L250.497 430.294L249.456 428.798Z" fill="black"/>
<path d="M253.709 421.692C253.011 422.182 252.701 422.933 252.783 423.685L252.764 423.698L252.196 422.88L251.433 423.416L255.916 429.862L256.72 429.296L255.052 426.899L255.071 426.886C255.726 427.214 256.516 427.163 257.205 426.679C258.416 425.828 258.559 424.261 257.505 422.746C256.451 421.231 254.934 420.831 253.709 421.692ZM256.535 426.092C255.712 426.67 254.663 426.349 253.913 425.271C253.167 424.197 253.224 423.092 254.046 422.513C254.902 421.912 255.923 422.232 256.682 423.324C257.445 424.421 257.39 425.49 256.535 426.092Z" fill="black"/>
<path d="M260.48 424.322C260.776 424.114 260.845 423.719 260.639 423.422C260.432 423.125 260.039 423.055 259.743 423.263C259.447 423.47 259.378 423.865 259.585 424.163C259.791 424.46 260.184 424.53 260.48 424.322Z" fill="black"/>
<path d="M265.046 417.557L264.522 416.804L261.49 418.936L262.013 419.688L265.046 417.557Z" fill="black"/>
<path d="M276.396 413.066L271.733 406.361L270.766 407.04L272.388 414.299L272.351 414.325L266.125 410.302L265.159 410.981L269.823 417.687L270.599 417.141L267.005 411.973L267.038 411.95L272.758 415.623L273.461 415.13L271.993 408.467L272.026 408.445L275.62 413.612L276.396 413.066Z" fill="black"/>
<path d="M278.824 410.461C278.246 410.867 277.652 410.835 277.332 410.375C277.015 409.919 277.185 409.371 277.803 408.874L279.033 407.892L279.308 408.287C279.793 408.984 279.582 409.928 278.824 410.461ZM279.122 411.275C279.769 410.82 280.127 410.029 280.029 409.275L280.048 409.262L280.626 410.094L281.389 409.557L279.065 406.216C278.396 405.254 277.258 405.141 276.13 405.934C274.992 406.733 274.726 407.875 275.253 408.75L276.029 408.204C275.801 407.659 275.986 407.093 276.606 406.658C277.271 406.19 277.905 406.27 278.316 406.86L278.597 407.265L277.274 408.312C276.21 409.157 275.939 410.122 276.514 410.95C277.118 411.819 278.165 411.948 279.122 411.275Z" fill="black"/>
<path d="M281.418 402.217C280.72 402.708 280.409 403.459 280.492 404.21L280.473 404.223L279.904 403.405L279.142 403.941L283.624 410.387L284.429 409.822L282.761 407.424L282.78 407.411C283.435 407.739 284.225 407.688 284.914 407.204C286.125 406.353 286.268 404.786 285.214 403.271C284.16 401.756 282.643 401.356 281.418 402.217ZM284.244 406.617C283.421 407.195 282.372 406.874 281.622 405.796C280.875 404.722 280.932 403.617 281.755 403.038C282.611 402.437 283.632 402.758 284.391 403.85C285.154 404.946 285.099 406.016 284.244 406.617Z" fill="black"/>
<path d="M287.768 397.879L283.866 400.621L284.328 401.285L285.877 400.197L288.776 404.365L289.58 403.8L286.681 399.632L288.23 398.543L287.768 397.879Z" fill="black"/>
<path d="M343.929 321.868H363.503V388.148H343.929V321.868Z" fill="#F5B65A"/>
<path d="M367.624 250.41H387.197V388.148H367.624V250.41Z" fill="#81AE7C"/>
<path d="M367.624 287.692H387.197V292.87H367.624V287.692Z" fill="#253645"/>
<path d="M343.929 299.084H363.503V332.224H343.929V299.084Z" fill="#E18565"/>
<path d="M326.272 431.677L321.608 424.971L320.642 425.65L322.264 432.909L322.227 432.935L316.001 428.912L315.035 429.591L319.698 436.297L320.475 435.751L316.881 430.583L316.913 430.56L322.634 434.234L323.337 433.74L321.869 427.077L321.901 427.055L325.495 432.222L326.272 431.677Z" fill="black"/>
<path d="M328.7 429.071C328.122 429.477 327.528 429.445 327.208 428.985C326.891 428.529 327.061 427.981 327.679 427.484L328.909 426.502L329.184 426.897C329.668 427.594 329.458 428.538 328.7 429.071ZM328.998 429.885C329.645 429.431 330.003 428.639 329.905 427.885L329.923 427.872L330.502 428.704L331.265 428.168L328.941 424.826C328.272 423.864 327.133 423.751 326.005 424.544C324.868 425.343 324.602 426.485 325.129 427.36L325.905 426.815C325.677 426.269 325.862 425.703 326.481 425.268C327.147 424.8 327.781 424.88 328.191 425.471L328.473 425.875L327.15 426.922C326.086 427.767 325.814 428.733 326.39 429.56C326.994 430.429 328.041 430.558 328.998 429.885Z" fill="black"/>
<path d="M331.294 420.827C330.596 421.318 330.285 422.069 330.368 422.82L330.349 422.833L329.78 422.015L329.017 422.551L333.5 428.997L334.305 428.432L332.637 426.034L332.655 426.021C333.31 426.349 334.101 426.299 334.79 425.814C336.001 424.963 336.143 423.396 335.09 421.881C334.036 420.366 332.519 419.966 331.294 420.827ZM334.12 425.227C333.297 425.805 332.248 425.484 331.498 424.406C330.751 423.332 330.808 422.227 331.631 421.649C332.486 421.047 333.507 421.368 334.267 422.46C335.03 423.556 334.975 424.626 334.12 425.227Z" fill="black"/>
<path d="M337.644 416.489L333.742 419.231L334.204 419.895L335.753 418.807L338.652 422.976L339.456 422.41L336.557 418.242L338.106 417.153L337.644 416.489Z" fill="black"/>
<path d="M345.043 414.996L344.52 414.243L341.487 416.375L342.011 417.128L345.043 414.996Z" fill="black"/>
<path d="M354.157 412.078L355.03 411.464L347.907 406.487L347.084 407.065L349.289 415.5L350.163 414.885L349.498 412.495L352.152 410.63L354.157 412.078ZM348.19 407.803L348.218 407.784L351.412 410.091L349.249 411.612L348.19 407.803Z" fill="black"/>
<path d="M358.867 408.767L359.676 408.199L356.315 403.366L352.395 406.121L355.756 410.954L356.56 410.389L353.661 406.22L355.968 404.599L358.867 408.767Z" fill="black"/>
<path d="M359.724 400.845C359.026 401.336 358.715 402.087 358.798 402.839L358.779 402.852L358.21 402.034L357.448 402.57L361.93 409.015L362.735 408.45L361.067 406.052L361.085 406.039C361.741 406.368 362.531 406.317 363.22 405.833C364.431 404.982 364.573 403.415 363.52 401.9C362.466 400.385 360.949 399.984 359.724 400.845ZM362.55 405.245C361.727 405.824 360.678 405.502 359.928 404.424C359.181 403.351 359.238 402.245 360.061 401.667C360.916 401.066 361.937 401.386 362.697 402.478C363.46 403.575 363.405 404.644 362.55 405.245Z" fill="black"/>
<path d="M366.495 403.476C366.791 403.268 366.86 402.873 366.653 402.576C366.447 402.278 366.054 402.208 365.758 402.416C365.462 402.624 365.393 403.019 365.599 403.316C365.806 403.614 366.199 403.684 366.495 403.476Z" fill="black"/>
<path d="M417.073 321.868H436.647V388.148H417.073V321.868Z" fill="#F5B65A"/>
<path d="M439.737 293.906H459.311V389.183H439.737V293.906Z" fill="white"/>
<path fill-rule="evenodd" clip-rule="evenodd" d="M458.159 295.068H440.889V388.021H458.159V295.068ZM439.737 293.906V389.183H459.311V293.906H439.737Z" fill="#C9C9C9"/>
<path d="M439.737 288.728H459.311V293.906H439.737V288.728Z" fill="#253645"/>
<path d="M417.073 319.797H436.647V332.225H417.073V319.797Z" fill="#E18565"/>
<path d="M401.471 429.962L402.344 429.348L395.221 424.371L394.398 424.949L396.603 433.383L397.477 432.769L396.812 430.379L399.465 428.514L401.471 429.962ZM395.504 425.687L395.531 425.668L398.726 427.975L396.562 429.496L395.504 425.687Z" fill="black"/>
<path d="M406.181 426.651L406.99 426.083L403.629 421.25L399.709 424.005L403.07 428.838L403.874 428.272L400.975 424.104L403.282 422.483L406.181 426.651Z" fill="black"/>
<path d="M407.038 418.729C406.34 419.22 406.029 419.971 406.112 420.722L406.093 420.735L405.524 419.917L404.761 420.454L409.244 426.899L410.049 426.334L408.381 423.936L408.399 423.923C409.054 424.251 409.845 424.201 410.534 423.717C411.745 422.865 411.887 421.298 410.834 419.784C409.78 418.269 408.263 417.868 407.038 418.729ZM409.864 423.129C409.041 423.707 407.992 423.386 407.242 422.308C406.495 421.235 406.552 420.129 407.375 419.551C408.23 418.95 409.251 419.27 410.011 420.362C410.774 421.459 410.719 422.528 409.864 423.129Z" fill="black"/>
<path d="M413.809 421.36C414.105 421.152 414.174 420.757 413.967 420.459C413.76 420.162 413.368 420.092 413.072 420.3C412.776 420.508 412.706 420.903 412.913 421.2C413.12 421.498 413.513 421.567 413.809 421.36Z" fill="black"/>
<path d="M418.374 414.594L417.851 413.842L414.818 415.973L415.342 416.726L418.374 414.594Z" fill="black"/>
<path d="M429.725 410.104L425.061 403.398L424.095 404.077L425.717 411.337L425.68 411.363L419.454 407.339L418.488 408.018L423.151 414.724L423.928 414.178L420.334 409.01L420.366 408.988L426.087 412.661L426.79 412.167L425.322 405.505L425.354 405.482L428.948 410.65L429.725 410.104Z" fill="black"/>
<path d="M432.152 407.498C431.575 407.904 430.981 407.872 430.661 407.412C430.344 406.957 430.514 406.408 431.132 405.912L432.362 404.93L432.637 405.325C433.121 406.022 432.911 406.965 432.152 407.498ZM432.451 408.313C433.098 407.858 433.456 407.067 433.358 406.312L433.376 406.299L433.955 407.131L434.718 406.595L432.394 403.254C431.725 402.292 430.586 402.179 429.458 402.971C428.321 403.771 428.055 404.912 428.581 405.788L429.358 405.242C429.13 404.696 429.315 404.131 429.934 403.695C430.6 403.227 431.234 403.308 431.644 403.898L431.926 404.302L430.603 405.349C429.539 406.194 429.267 407.16 429.843 407.987C430.447 408.856 431.494 408.985 432.451 408.313Z" fill="black"/>
<path d="M436.622 405.256L436.518 399.981L436.555 399.955L439.054 403.547L439.858 402.982L436.497 398.149L435.702 398.708L435.805 403.983L435.768 404.009L433.27 400.417L432.466 400.982L435.827 405.815L436.622 405.256ZM431.552 398.511C432.147 399.366 433.16 399.526 434.043 398.905C434.926 398.285 435.124 397.273 434.529 396.418L433.938 396.834C434.313 397.373 434.26 398.04 433.71 398.426C433.16 398.813 432.519 398.634 432.144 398.095L431.552 398.511Z" fill="black"/>
<path d="M494.336 321.868H513.91V388.148H494.336V321.868Z" fill="#F5B65A"/>
<path d="M517 293.906H536.574V389.183H517V293.906Z" fill="#81AE7C"/>
<path d="M517 288.728H536.574V293.906H517V288.728Z" fill="#253645"/>
<path d="M494.336 191.38H513.91V332.224H494.336V191.38Z" fill="#E18565"/>
<path d="M476.114 431.898L471.451 425.192L470.484 425.871L472.106 433.131L472.069 433.157L465.843 429.133L464.877 429.812L469.541 436.518L470.317 435.972L466.723 430.805L466.756 430.782L472.476 434.455L473.179 433.961L471.711 427.299L471.744 427.276L475.338 432.444L476.114 431.898Z" fill="black"/>
<path d="M478.542 429.292C477.964 429.698 477.37 429.666 477.05 429.206C476.734 428.751 476.903 428.203 477.521 427.706L478.751 426.724L479.026 427.119C479.511 427.816 479.3 428.759 478.542 429.292ZM478.84 430.107C479.487 429.652 479.845 428.861 479.747 428.106L479.766 428.093L480.344 428.925L481.107 428.389L478.783 425.048C478.114 424.086 476.976 423.973 475.848 424.765C474.71 425.565 474.445 426.706 474.971 427.582L475.747 427.036C475.52 426.49 475.704 425.925 476.324 425.489C476.989 425.021 477.623 425.102 478.034 425.692L478.315 426.096L476.992 427.143C475.928 427.988 475.657 428.954 476.232 429.781C476.836 430.65 477.883 430.779 478.84 430.107Z" fill="black"/>
<path d="M483.012 427.05L482.908 421.775L482.945 421.749L485.443 425.341L486.248 424.776L482.886 419.943L482.091 420.502L482.195 425.777L482.158 425.803L479.66 422.211L478.855 422.776L482.216 427.609L483.012 427.05ZM477.942 420.305C478.536 421.16 479.549 421.32 480.432 420.699C481.315 420.079 481.513 419.067 480.919 418.212L480.327 418.628C480.702 419.167 480.649 419.834 480.099 420.22C479.549 420.607 478.908 420.428 478.533 419.889L477.942 420.305Z" fill="black"/>
<path d="M490.67 418.181L490.146 417.428L487.114 419.559L487.637 420.312L490.67 418.181Z" fill="black"/>
<path d="M499.949 415.146L500.772 414.567L496.109 407.862L495.286 408.44L495.403 416.328L495.329 416.38L491.606 411.026L490.783 411.604L495.447 418.31L496.27 417.732L496.165 409.863L496.239 409.811L499.949 415.146Z" fill="black"/>
<path d="M505.879 411.103C507.228 410.154 507.401 408.622 506.322 407.069C505.239 405.513 503.751 405.154 502.401 406.103C501.18 406.961 500.925 408.295 501.687 409.697L500.859 410.279L499.473 408.285L498.668 408.851L502.03 413.684L502.834 413.118L501.321 410.943L502.13 410.375C503.198 411.721 504.603 412 505.879 411.103ZM505.381 410.387C504.512 410.998 503.569 410.692 502.781 409.558C501.989 408.42 502.03 407.429 502.899 406.818C503.768 406.208 504.707 406.509 505.499 407.648C506.287 408.782 506.25 409.777 505.381 410.387Z" fill="black"/>
<path d="M512.056 406.637L512.861 406.071L509.5 401.238L508.695 401.803L510.082 403.797L507.729 405.451L506.342 403.457L505.538 404.023L508.899 408.856L509.704 408.29L508.191 406.115L510.544 404.462L512.056 406.637Z" fill="black"/>
<path d="M513.859 401.46C514.479 401.025 515.154 401.125 515.568 401.72C515.978 402.31 515.847 402.983 515.223 403.421L514.336 404.045L512.972 402.084L513.859 401.46ZM513.993 405.275L515.699 404.076C516.799 403.303 517.064 402.169 516.363 401.161C515.661 400.152 514.511 400.013 513.411 400.786L512.51 401.42L511.437 399.877L510.632 400.442L513.993 405.275Z" fill="black"/>
<path d="M576.751 321.868H596.325V388.148H576.751V321.868Z" fill="#F5B65A"/>
<path d="M599.415 288.728H618.989V389.183H599.415V288.728Z" fill="#81AE7C"/>
<path d="M599.415 284.586H618.989V288.728H599.415V284.586Z" fill="#253645"/>
<path d="M576.751 254.553H596.325V332.224H576.751V254.553Z" fill="#E18565"/>
<path d="M551.347 436.745L552.17 436.167L547.506 429.461L546.683 430.04L546.801 437.927L546.727 437.979L543.004 432.626L542.181 433.204L546.844 439.91L547.667 439.332L547.563 431.462L547.637 431.41L551.347 436.745Z" fill="black"/>
<path d="M557.276 432.703C558.626 431.754 558.799 430.221 557.719 428.669C556.637 427.112 555.148 426.754 553.799 427.702C552.578 428.56 552.323 429.895 553.084 431.297L552.257 431.879L550.87 429.885L550.066 430.45L553.427 435.283L554.232 434.718L552.719 432.543L553.528 431.975C554.595 433.321 556 433.599 557.276 432.703ZM556.778 431.987C555.909 432.598 554.967 432.292 554.178 431.158C553.386 430.019 553.427 429.029 554.296 428.418C555.165 427.807 556.105 428.109 556.896 429.247C557.685 430.381 557.647 431.376 556.778 431.987Z" fill="black"/>
<path d="M563.454 428.236L564.258 427.671L560.897 422.838L560.093 423.403L561.479 425.397L559.126 427.05L557.74 425.057L556.935 425.622L560.297 430.455L561.101 429.89L559.589 427.715L561.942 426.061L563.454 428.236Z" fill="black"/>
<path d="M565.257 423.06C565.876 422.625 566.551 422.724 566.965 423.319C567.376 423.909 567.245 424.582 566.621 425.021L565.733 425.645L564.369 423.684L565.257 423.06ZM565.391 426.875L567.097 425.676C568.197 424.903 568.462 423.769 567.76 422.76C567.059 421.752 565.909 421.612 564.809 422.386L563.907 423.019L562.834 421.476L562.03 422.042L565.391 426.875Z" fill="black"/>
<path d="M573.077 417.986L572.553 417.233L569.521 419.364L570.044 420.117L573.077 417.986Z" fill="black"/>
<path d="M582.357 414.951L583.179 414.372L578.516 407.667L577.693 408.245L577.81 416.133L577.736 416.185L574.013 410.831L573.19 411.409L577.854 418.115L578.677 417.537L578.572 409.668L578.646 409.616L582.357 414.951Z" fill="black"/>
<path d="M588.286 410.908C589.636 409.959 589.808 408.427 588.729 406.874C587.646 405.318 586.158 404.959 584.808 405.908C583.588 406.766 583.332 408.1 584.094 409.502L583.267 410.084L581.88 408.09L581.076 408.656L584.437 413.489L585.241 412.923L583.729 410.748L584.538 410.18C585.605 411.526 587.01 411.805 588.286 410.908ZM587.788 410.192C586.919 410.803 585.976 410.497 585.188 409.363C584.396 408.225 584.437 407.234 585.306 406.623C586.175 406.013 587.114 406.314 587.906 407.453C588.695 408.587 588.657 409.582 587.788 410.192Z" fill="black"/>
<path d="M590.932 405.748L589.665 403.608L591.283 402.471L594.182 406.64L594.986 406.074L591.625 401.241L588.477 403.454L590.157 406.265C590.714 407.195 590.925 407.884 590.448 408.219C590.333 408.3 590.229 408.339 590.178 408.354L590.685 409.083C590.757 409.068 590.869 409.031 591.007 408.933C592.02 408.222 591.763 407.15 590.932 405.748Z" fill="black"/>
<path d="M595.989 401.46C596.609 401.025 597.284 401.125 597.697 401.72C598.108 402.31 597.977 402.983 597.353 403.421L596.465 404.045L595.102 402.084L595.989 401.46ZM596.123 405.275L597.829 404.076C598.929 403.303 599.194 402.169 598.492 401.161C597.791 400.152 596.641 400.013 595.541 400.786L594.639 401.42L593.566 399.877L592.762 400.442L596.123 405.275Z" fill="black"/>
<path d="M652.985 316.689H672.559V388.147H652.985V316.689Z" fill="#F5B65A"/>
<path d="M676 0H695V388.036H676V0Z" fill="#81AE7C"/>
<path d="M676 383.009H695V388.036H676V383.009Z" fill="#253645"/>
<path d="M652.985 299.084H672.559V316.69H652.985V299.084Z" fill="#E18565"/>
<path d="M634.249 432.145L635.072 431.566L630.408 424.861L629.586 425.439L629.703 433.327L629.629 433.379L625.906 428.025L625.083 428.604L629.747 435.309L630.57 434.731L630.465 426.862L630.539 426.81L634.249 432.145Z" fill="black"/>
<path d="M640.178 428.102C641.528 427.153 641.701 425.621 640.622 424.068C639.539 422.512 638.051 422.153 636.701 423.102C635.48 423.96 635.225 425.294 635.987 426.696L635.159 427.278L633.773 425.284L632.968 425.85L636.33 430.683L637.134 430.117L635.621 427.943L636.43 427.374C637.498 428.72 638.903 428.999 640.178 428.102ZM639.681 427.386C638.812 427.997 637.869 427.691 637.081 426.557C636.289 425.419 636.329 424.428 637.199 423.817C638.068 423.207 639.007 423.508 639.799 424.647C640.587 425.781 640.55 426.776 639.681 427.386Z" fill="black"/>
<path d="M642.825 422.942L641.557 420.802L643.175 419.665L646.074 423.834L646.879 423.268L643.518 418.435L640.369 420.648L642.049 423.459C642.607 424.389 642.817 425.078 642.341 425.413C642.226 425.494 642.122 425.533 642.07 425.548L642.578 426.277C642.649 426.262 642.761 426.225 642.9 426.127C643.912 425.416 643.656 424.344 642.825 422.942Z" fill="black"/>
<path d="M647.882 418.654C648.501 418.219 649.176 418.319 649.59 418.914C650.001 419.504 649.87 420.177 649.246 420.615L648.358 421.239L646.994 419.278L647.882 418.654ZM648.016 422.469L649.722 421.27C650.822 420.497 651.087 419.363 650.385 418.355C649.684 417.346 648.534 417.207 647.434 417.98L646.532 418.614L645.459 417.071L644.655 417.636L648.016 422.469Z" fill="black"/>
<path d="M655.702 413.58L655.178 412.827L652.146 414.959L652.669 415.711L655.702 413.58Z" fill="black"/>
<path d="M664.815 410.662L665.689 410.048L658.566 405.071L657.743 405.649L659.947 414.083L660.821 413.469L660.157 411.079L662.81 409.214L664.815 410.662ZM658.848 406.387L658.876 406.368L662.071 408.675L659.907 410.196L658.848 406.387Z" fill="black"/>
<path d="M668.486 408.082C669.507 407.364 669.764 406.388 669.17 405.533C668.759 404.943 668.061 404.79 667.397 405.132L667.371 405.095C667.751 404.69 667.777 403.986 667.431 403.489C666.892 402.713 666.012 402.625 665.111 403.259L663.053 404.705L666.415 409.538L668.486 408.082ZM664.313 404.795L665.446 403.999C665.95 403.645 666.391 403.695 666.695 404.131C667.021 404.601 666.888 405.033 666.283 405.459L665.27 406.17L664.313 404.795ZM665.723 406.821L666.8 406.064C667.502 405.57 668.008 405.575 668.357 406.076C668.696 406.564 668.566 407.05 667.984 407.46L666.763 408.317L665.723 406.821Z" fill="black"/>
<path d="M671.249 399.934L670.787 399.269L667.695 401.443L671.056 406.276L671.86 405.711L668.961 401.542L671.249 399.934Z" fill="black"/>
<path d="M675.138 403.476C675.434 403.268 675.503 402.873 675.296 402.576C675.09 402.279 674.697 402.209 674.401 402.417C674.105 402.625 674.036 403.019 674.242 403.317C674.449 403.614 674.842 403.684 675.138 403.476Z" fill="black"/>
<path fill-rule="evenodd" clip-rule="evenodd" d="M790 0H0V442H790V0ZM72 292H51V386H72V292Z" fill="white" fill-opacity="0.74"/>
<g filter="url(#filter0_d)">
<rect x="72" y="203" width="351" height="89" rx="1" fill="white"/>
</g>
<path d="M115.405 239.725C114.445 240.695 113.22 241.18 111.73 241.18C110.24 241.18 109.015 240.695 108.055 239.725C107.095 238.745 106.615 237.505 106.615 236.005C106.615 234.505 107.095 233.27 108.055 232.3C109.015 231.32 110.24 230.83 111.73 230.83C113.22 230.83 114.445 231.32 115.405 232.3C116.365 233.27 116.845 234.505 116.845 236.005C116.845 237.505 116.365 238.745 115.405 239.725ZM111.73 239.62C112.72 239.62 113.52 239.28 114.13 238.6C114.74 237.91 115.045 237.045 115.045 236.005C115.045 234.955 114.74 234.09 114.13 233.41C113.52 232.73 112.72 232.39 111.73 232.39C110.73 232.39 109.925 232.73 109.315 233.41C108.715 234.09 108.415 234.955 108.415 236.005C108.415 237.055 108.715 237.92 109.315 238.6C109.925 239.28 110.73 239.62 111.73 239.62ZM121.385 241H119.81V235.135H117.74V233.755H123.47V235.135H121.385V241ZM132.874 241H131.299V235.96L129.139 241H128.509L126.334 235.96V241H124.759V233.755H126.814L128.824 238.435L130.804 233.755H132.874V241ZM138.256 241.18C137.156 241.18 136.246 240.83 135.526 240.13C134.816 239.42 134.461 238.5 134.461 237.37C134.461 236.31 134.806 235.415 135.496 234.685C136.196 233.945 137.076 233.575 138.136 233.575C139.206 233.575 140.066 233.945 140.716 234.685C141.376 235.425 141.706 236.37 141.706 237.52V237.895H136.111C136.171 238.465 136.406 238.94 136.816 239.32C137.226 239.7 137.761 239.89 138.421 239.89C138.791 239.89 139.161 239.82 139.531 239.68C139.911 239.54 140.226 239.345 140.476 239.095L141.196 240.13C140.466 240.83 139.486 241.18 138.256 241.18ZM140.176 236.785C140.156 236.285 139.971 235.84 139.621 235.45C139.281 235.06 138.786 234.865 138.136 234.865C137.516 234.865 137.031 235.06 136.681 235.45C136.331 235.83 136.136 236.275 136.096 236.785H140.176ZM146.155 241H144.58V235.135H142.51V233.755H148.24V235.135H146.155V241ZM156.31 241H154.33L152.11 238.015L151.105 239.05V241H149.53V233.755H151.105V237.25L154.3 233.755H156.25L153.235 237.04L156.31 241ZM163.425 241H161.85V240.22C161.29 240.86 160.51 241.18 159.51 241.18C158.85 241.18 158.265 240.97 157.755 240.55C157.245 240.12 156.99 239.53 156.99 238.78C156.99 238.01 157.24 237.425 157.74 237.025C158.25 236.625 158.84 236.425 159.51 236.425C160.54 236.425 161.32 236.735 161.85 237.355V236.275C161.85 235.855 161.695 235.525 161.385 235.285C161.075 235.045 160.665 234.925 160.155 234.925C159.345 234.925 158.63 235.23 158.01 235.84L157.365 234.745C158.185 233.965 159.2 233.575 160.41 233.575C161.3 233.575 162.025 233.785 162.585 234.205C163.145 234.625 163.425 235.29 163.425 236.2V241ZM160.125 240.1C160.915 240.1 161.49 239.85 161.85 239.35V238.255C161.49 237.755 160.915 237.505 160.125 237.505C159.675 237.505 159.305 237.625 159.015 237.865C158.725 238.105 158.58 238.42 158.58 238.81C158.58 239.2 158.725 239.515 159.015 239.755C159.305 239.985 159.675 240.1 160.125 240.1Z" fill="#434A50"/>
<path d="M173.504 241C174.839 241 175.619 240.205 175.619 239.035C175.619 238.21 175.034 237.445 174.299 237.265C174.914 237.07 175.469 236.485 175.469 235.615C175.469 234.52 174.704 233.755 173.429 233.755H169.439V241H173.504ZM173.279 240.01H170.564V237.775H173.279C174.044 237.775 174.449 238.315 174.449 238.9C174.449 239.59 173.999 240.01 173.279 240.01ZM173.234 236.785H170.564V234.745H173.234C173.924 234.745 174.314 235.15 174.314 235.78C174.314 236.35 173.939 236.785 173.234 236.785ZM177.745 233.755V241H181.585C183.07 241 183.865 239.98 183.865 238.78C183.865 237.595 183.085 236.56 181.585 236.56H178.87V233.755H177.745ZM181.465 237.55C182.29 237.55 182.71 238.075 182.71 238.78C182.71 239.5 182.275 240.01 181.465 240.01H178.87V237.55H181.465ZM186.175 241V233.755H185.05V241H186.175ZM196.794 233.755V240.01H193.734V233.755H192.609V240.01H189.549V233.755H188.424V241H197.919V233.755H196.794ZM203.442 241.18C204.627 241.18 205.602 240.79 206.322 240.07L205.782 239.335C205.212 239.92 204.372 240.25 203.547 240.25C201.987 240.25 201.027 239.11 200.937 237.745H206.802V237.46C206.802 235.285 205.512 233.575 203.322 233.575C201.252 233.575 199.752 235.27 199.752 237.37C199.752 239.635 201.297 241.18 203.442 241.18ZM205.692 236.92H200.937C200.997 235.81 201.762 234.505 203.307 234.505C204.957 234.505 205.677 235.84 205.692 236.92ZM289.01 237.865V236.875H281.015V237.865H289.01ZM301.844 241V233.755H300.344L298.154 239.125L295.934 233.755H294.449V241H295.574V235.315L297.944 241H298.364L300.719 235.315V241H301.844ZM305.168 241L308.993 235.36V241H310.118V233.755H309.008L305.213 239.29V233.755H304.088V241H305.168ZM313.489 241V237.76H317.269V241H318.394V233.755H317.269V236.77H313.489V233.755H312.364V241H313.489ZM321.721 241L325.546 235.36V241H326.671V233.755H325.561L321.766 239.29V233.755H320.641V241H321.721ZM336.312 241V233.755H334.812L332.622 239.125L330.402 233.755H328.917V241H330.042V235.315L332.412 241H332.832L335.187 235.315V241H336.312ZM344.211 241V236.02C344.211 234.265 342.936 233.575 341.406 233.575C340.221 233.575 339.291 233.965 338.511 234.775L339.036 235.555C339.681 234.865 340.386 234.55 341.256 234.55C342.306 234.55 343.086 235.105 343.086 236.08V237.385C342.501 236.71 341.676 236.395 340.686 236.395C339.456 236.395 338.151 237.16 338.151 238.78C338.151 240.355 339.456 241.18 340.686 241.18C341.661 241.18 342.486 240.835 343.086 240.175V241H344.211ZM341.091 240.37C340.041 240.37 339.306 239.71 339.306 238.795C339.306 237.865 340.041 237.205 341.091 237.205C341.886 237.205 342.651 237.505 343.086 238.105V239.47C342.651 240.07 341.886 240.37 341.091 240.37ZM345.611 241.18C347.006 241.18 347.786 240.16 348.116 237.46L348.446 234.745H351.371V241H352.496V233.755H347.456L346.991 237.325C346.706 239.47 346.286 240.25 345.611 240.25V241.18ZM354.742 233.755V241H358.582C360.067 241 360.862 239.98 360.862 238.78C360.862 237.595 360.082 236.56 358.582 236.56H355.867V233.755H354.742ZM358.462 237.55C359.287 237.55 359.707 238.075 359.707 238.78C359.707 239.5 359.272 240.01 358.462 240.01H355.867V237.55H358.462ZM363.704 241V237.76H367.484V241H368.609V233.755H367.484V236.77H363.704V233.755H362.579V241H363.704ZM370.855 233.755V241H374.695C376.18 241 376.975 239.98 376.975 238.78C376.975 237.595 376.195 236.56 374.695 236.56H371.98V233.755H370.855ZM374.575 237.55C375.4 237.55 375.82 238.075 375.82 238.78C375.82 239.5 375.385 240.01 374.575 240.01H371.98V237.55H374.575ZM379.285 241V233.755H378.16V241H379.285ZM382.614 241L386.439 235.36V241H387.564V233.755H386.454L382.659 239.29V233.755H381.534V241H382.614ZM387.174 231.61L386.619 231.13C386.154 231.805 385.419 232.21 384.549 232.21C383.664 232.21 382.944 231.79 382.464 231.13L381.909 231.61C382.524 232.42 383.484 232.93 384.549 232.93C385.629 232.93 386.574 232.42 387.174 231.61ZM113.155 265V257.755H107.125V265H108.25V258.745H112.03V265H113.155ZM114.546 265.18C115.941 265.18 116.721 264.16 117.051 261.46L117.381 258.745H120.306V265H121.431V257.755H116.391L115.926 261.325C115.641 263.47 115.221 264.25 114.546 264.25V265.18ZM129.333 265V260.02C129.333 258.265 128.058 257.575 126.528 257.575C125.343 257.575 124.413 257.965 123.633 258.775L124.158 259.555C124.803 258.865 125.508 258.55 126.378 258.55C127.428 258.55 128.208 259.105 128.208 260.08V261.385C127.623 260.71 126.798 260.395 125.808 260.395C124.578 260.395 123.273 261.16 123.273 262.78C123.273 264.355 124.578 265.18 125.808 265.18C126.783 265.18 127.608 264.835 128.208 264.175V265H129.333ZM126.213 264.37C125.163 264.37 124.428 263.71 124.428 262.795C124.428 261.865 125.163 261.205 126.213 261.205C127.008 261.205 127.773 261.505 128.208 262.105V263.47C127.773 264.07 127.008 264.37 126.213 264.37ZM134.033 265V258.745H136.148V257.755H130.808V258.745H132.908V265H134.033ZM140.893 265.18C142.078 265.18 143.053 264.79 143.773 264.07L143.233 263.335C142.663 263.92 141.823 264.25 140.998 264.25C139.438 264.25 138.478 263.11 138.388 261.745H144.253V261.46C144.253 259.285 142.963 257.575 140.773 257.575C138.703 257.575 137.203 259.27 137.203 261.37C137.203 263.635 138.748 265.18 140.893 265.18ZM143.143 260.92H138.388C138.448 259.81 139.213 258.505 140.758 258.505C142.408 258.505 143.128 259.84 143.143 260.92ZM146.6 265L149.21 261.745L149.72 262.255V265H150.845V262.255L151.355 261.745L153.965 265H155.405L152.165 261.04L155.39 257.755H153.965L150.845 260.935V257.755H149.72V260.95L146.6 257.755H145.175L148.385 261.04L145.16 265H146.6ZM163.771 265.18C165.976 265.18 167.356 263.47 167.356 261.37C167.356 259.27 165.976 257.575 163.771 257.575C161.566 257.575 160.186 259.27 160.186 261.37C160.186 263.47 161.566 265.18 163.771 265.18ZM163.771 264.175C162.226 264.175 161.356 262.855 161.356 261.37C161.356 259.9 162.226 258.58 163.771 258.58C165.316 258.58 166.171 259.9 166.171 261.37C166.171 262.855 165.316 264.175 163.771 264.175ZM175.22 265V257.755H169.19V265H170.315V258.745H174.095V265H175.22ZM176.612 265.18C178.007 265.18 178.787 264.16 179.117 261.46L179.447 258.745H182.372V265H183.497V257.755H178.457L177.992 261.325C177.707 263.47 177.287 264.25 176.612 264.25V265.18ZM191.398 265V260.02C191.398 258.265 190.123 257.575 188.593 257.575C187.408 257.575 186.478 257.965 185.698 258.775L186.223 259.555C186.868 258.865 187.573 258.55 188.443 258.55C189.493 258.55 190.273 259.105 190.273 260.08V261.385C189.688 260.71 188.863 260.395 187.873 260.395C186.643 260.395 185.338 261.16 185.338 262.78C185.338 264.355 186.643 265.18 187.873 265.18C188.848 265.18 189.673 264.835 190.273 264.175V265H191.398ZM188.278 264.37C187.228 264.37 186.493 263.71 186.493 262.795C186.493 261.865 187.228 261.205 188.278 261.205C189.073 261.205 189.838 261.505 190.273 262.105V263.47C189.838 264.07 189.073 264.37 188.278 264.37ZM193.503 257.755V260.14C193.503 261.79 194.298 262.525 196.188 262.525C197.013 262.525 197.853 262.315 198.393 262.045V265H199.518V257.755H198.393V261.13C197.958 261.355 197.223 261.52 196.473 261.52C195.273 261.52 194.628 261.145 194.628 259.795V257.755H193.503ZM205.039 265.18C206.224 265.18 207.199 264.79 207.919 264.07L207.379 263.335C206.809 263.92 205.969 264.25 205.144 264.25C203.584 264.25 202.624 263.11 202.534 261.745H208.399V261.46C208.399 259.285 207.109 257.575 204.919 257.575C202.849 257.575 201.349 259.27 201.349 261.37C201.349 263.635 202.894 265.18 205.039 265.18ZM207.289 260.92H202.534C202.594 259.81 203.359 258.505 204.904 258.505C206.554 258.505 207.274 259.84 207.289 260.92ZM211.346 265V261.76H215.126V265H216.251V257.755H215.126V260.77H211.346V257.755H210.221V265H211.346ZM223.489 265V261.76H227.269V265H228.394V257.755H227.269V260.77H223.489V257.755H222.364V265H223.489ZM233.911 265.18C235.096 265.18 236.071 264.79 236.791 264.07L236.251 263.335C235.681 263.92 234.841 264.25 234.016 264.25C232.456 264.25 231.496 263.11 231.406 261.745H237.271V261.46C237.271 259.285 235.981 257.575 233.791 257.575C231.721 257.575 230.221 259.27 230.221 261.37C230.221 263.635 231.766 265.18 233.911 265.18ZM236.161 260.92H231.406C231.466 259.81 232.231 258.505 233.776 258.505C235.426 258.505 236.146 259.84 236.161 260.92ZM248.99 265V257.755H242.96V265H244.085V258.745H247.865V265H248.99ZM254.401 265.18C256.606 265.18 257.986 263.47 257.986 261.37C257.986 259.27 256.606 257.575 254.401 257.575C252.196 257.575 250.816 259.27 250.816 261.37C250.816 263.47 252.196 265.18 254.401 265.18ZM254.401 264.175C252.856 264.175 251.986 262.855 251.986 261.37C251.986 259.9 252.856 258.58 254.401 258.58C255.946 258.58 256.801 259.9 256.801 261.37C256.801 262.855 255.946 264.175 254.401 264.175ZM258.965 265.18C260.36 265.18 261.14 264.16 261.47 261.46L261.8 258.745H264.725V265H265.85V257.755H260.81L260.345 261.325C260.06 263.47 259.64 264.25 258.965 264.25V265.18ZM269.222 265V261.76H273.002V265H274.127V257.755H273.002V260.77H269.222V257.755H268.097V265H269.222ZM279.538 265.18C281.743 265.18 283.123 263.47 283.123 261.37C283.123 259.27 281.743 257.575 279.538 257.575C277.333 257.575 275.953 259.27 275.953 261.37C275.953 263.47 277.333 265.18 279.538 265.18ZM279.538 264.175C277.993 264.175 277.123 262.855 277.123 261.37C277.123 259.9 277.993 258.58 279.538 258.58C281.083 258.58 281.938 259.9 281.938 261.37C281.938 262.855 281.083 264.175 279.538 264.175ZM288.152 265.18C289.472 265.18 290.252 264.64 290.807 263.92L290.057 263.23C289.577 263.875 288.962 264.175 288.212 264.175C286.667 264.175 285.707 262.975 285.707 261.37C285.707 259.765 286.667 258.58 288.212 258.58C288.962 258.58 289.577 258.865 290.057 259.525L290.807 258.835C290.252 258.115 289.472 257.575 288.152 257.575C285.992 257.575 284.537 259.225 284.537 261.37C284.537 263.53 285.992 265.18 288.152 265.18ZM294.829 265V258.745H296.944V257.755H291.604V258.745H293.704V265H294.829ZM298.419 257.755V265H302.259C303.744 265 304.539 263.98 304.539 262.78C304.539 261.595 303.759 260.56 302.259 260.56H299.544V257.755H298.419ZM302.139 261.55C302.964 261.55 303.384 262.075 303.384 262.78C303.384 263.5 302.949 264.01 302.139 264.01H299.544V261.55H302.139ZM312.331 265.18C314.551 265.18 315.931 263.47 315.931 261.37C315.931 259.27 314.551 257.575 312.331 257.575C310.351 257.575 309.031 258.955 308.791 260.77H307.381V257.755H306.256V265H307.381V261.76H308.776C308.926 263.68 310.276 265.18 312.331 265.18ZM312.331 264.175C310.801 264.175 309.931 262.855 309.931 261.37C309.931 259.9 310.801 258.58 312.331 258.58C313.891 258.58 314.746 259.9 314.746 261.37C314.746 262.855 313.891 264.175 312.331 264.175Z" fill="#383C44"/>
<path d="M214.996 241.18C213.576 241.18 212.466 240.79 211.666 240.01L212.401 239.005C213.061 239.595 213.926 239.89 214.996 239.89C215.546 239.89 215.976 239.805 216.286 239.635C216.606 239.455 216.766 239.215 216.766 238.915C216.766 238.285 216.131 237.97 214.861 237.97H213.316V236.71H214.861C215.411 236.71 215.841 236.63 216.151 236.47C216.471 236.31 216.631 236.075 216.631 235.765C216.631 235.505 216.466 235.29 216.136 235.12C215.806 234.95 215.391 234.865 214.891 234.865C213.921 234.865 213.146 235.155 212.566 235.735L211.786 234.775C212.556 233.985 213.566 233.59 214.816 233.59C215.886 233.58 216.726 233.755 217.336 234.115C217.956 234.465 218.266 234.945 218.266 235.555C218.266 236.015 218.071 236.405 217.681 236.725C217.301 237.035 216.856 237.225 216.346 237.295C216.856 237.335 217.326 237.505 217.756 237.805C218.196 238.105 218.416 238.515 218.416 239.035C218.416 239.665 218.106 240.18 217.486 240.58C216.876 240.98 216.046 241.18 214.996 241.18ZM223.348 241.18C222.248 241.18 221.338 240.83 220.618 240.13C219.908 239.42 219.553 238.5 219.553 237.37C219.553 236.31 219.898 235.415 220.588 234.685C221.288 233.945 222.168 233.575 223.228 233.575C224.298 233.575 225.158 233.945 225.808 234.685C226.468 235.425 226.798 236.37 226.798 237.52V237.895H221.203C221.263 238.465 221.498 238.94 221.908 239.32C222.318 239.7 222.853 239.89 223.513 239.89C223.883 239.89 224.253 239.82 224.623 239.68C225.003 239.54 225.318 239.345 225.568 239.095L226.288 240.13C225.558 240.83 224.578 241.18 223.348 241.18ZM225.268 236.785C225.248 236.285 225.063 235.84 224.713 235.45C224.373 235.06 223.878 234.865 223.228 234.865C222.608 234.865 222.123 235.06 221.773 235.45C221.423 235.83 221.228 236.275 221.188 236.785H225.268ZM227.603 241.18V239.89C227.913 239.89 228.158 239.69 228.338 239.29C228.528 238.89 228.683 238.22 228.803 237.28L229.238 233.755H234.833V241H233.258V235.135H230.633L230.378 237.46C230.238 238.76 229.943 239.705 229.493 240.295C229.043 240.885 228.413 241.18 227.603 241.18ZM240.223 241.18C239.123 241.18 238.213 240.83 237.493 240.13C236.783 239.42 236.428 238.5 236.428 237.37C236.428 236.31 236.773 235.415 237.463 234.685C238.163 233.945 239.043 233.575 240.103 233.575C241.173 233.575 242.033 233.945 242.683 234.685C243.343 235.425 243.673 236.37 243.673 237.52V237.895H238.078C238.138 238.465 238.373 238.94 238.783 239.32C239.193 239.7 239.728 239.89 240.388 239.89C240.758 239.89 241.128 239.82 241.498 239.68C241.878 239.54 242.193 239.345 242.443 239.095L243.163 240.13C242.433 240.83 241.453 241.18 240.223 241.18ZM242.143 236.785C242.123 236.285 241.938 235.84 241.588 235.45C241.248 235.06 240.753 234.865 240.103 234.865C239.483 234.865 238.998 235.06 238.648 235.45C238.298 235.83 238.103 236.275 238.063 236.785H242.143ZM246.803 241H245.228V233.755H246.803V236.605H250.133V233.755H251.708V241H250.133V237.985H246.803V241ZM257.023 241.18C255.903 241.18 255.003 240.815 254.323 240.085C253.643 239.345 253.303 238.44 253.303 237.37C253.303 236.3 253.643 235.4 254.323 234.67C255.003 233.94 255.903 233.575 257.023 233.575C258.153 233.575 259.058 233.94 259.738 234.67C260.418 235.4 260.758 236.3 260.758 237.37C260.758 238.45 260.418 239.355 259.738 240.085C259.058 240.815 258.153 241.18 257.023 241.18ZM257.023 239.785C257.673 239.785 258.183 239.555 258.553 239.095C258.933 238.625 259.123 238.05 259.123 237.37C259.123 236.7 258.933 236.135 258.553 235.675C258.183 235.205 257.673 234.97 257.023 234.97C256.383 234.97 255.873 235.205 255.493 235.675C255.123 236.135 254.938 236.7 254.938 237.37C254.938 238.05 255.123 238.625 255.493 239.095C255.873 239.555 256.383 239.785 257.023 239.785ZM267.842 233.755V235.135H263.927V241H262.352V233.755H267.842ZM272.404 241.18C271.284 241.18 270.384 240.815 269.704 240.085C269.024 239.345 268.684 238.44 268.684 237.37C268.684 236.3 269.024 235.4 269.704 234.67C270.384 233.94 271.284 233.575 272.404 233.575C273.534 233.575 274.439 233.94 275.119 234.67C275.799 235.4 276.139 236.3 276.139 237.37C276.139 238.45 275.799 239.355 275.119 240.085C274.439 240.815 273.534 241.18 272.404 241.18ZM272.404 239.785C273.054 239.785 273.564 239.555 273.934 239.095C274.314 238.625 274.504 238.05 274.504 237.37C274.504 236.7 274.314 236.135 273.934 235.675C273.564 235.205 273.054 234.97 272.404 234.97C271.764 234.97 271.254 235.205 270.874 235.675C270.504 236.135 270.319 236.7 270.319 237.37C270.319 238.05 270.504 238.625 270.874 239.095C271.254 239.555 271.764 239.785 272.404 239.785Z" fill="#81AE7C"/>
<defs>
<filter id="filter0_d" x="45" y="203" width="405" height="145" filterUnits="userSpaceOnUse" color-interpolation-filters="sRGB">
<feFlood flood-opacity="0" result="BackgroundImageFix"/>
<feColorMatrix in="SourceAlpha" type="matrix" values="0 0 0 0 0 0 0 0 0 0 0 0 0 0 0 0 0 0 127 0"/>
<feMorphology radius="21" operator="erode" in="SourceAlpha" result="effect1_dropShadow"/>
<feOffset dy="29"/>
<feGaussianBlur stdDeviation="24"/>
<feColorMatrix type="matrix" values="0 0 0 0 0 0 0 0 0 0 0 0 0 0 0 0 0 0 0.31 0"/>
<feBlend mode="normal" in2="BackgroundImageFix" result="effect1_dropShadow"/>
<feBlend mode="normal" in="SourceGraphic" in2="effect1_dropShadow" result="shape"/>
</filter>
</defs>
</svg>
