<svg width="790" height="442" viewBox="0 0 790 442" fill="none" xmlns="http://www.w3.org/2000/svg">
<path d="M785.371 381.934C787.652 381.934 788.97 379.913 788.97 376.746C788.97 373.599 787.646 371.578 785.371 371.578C783.096 371.578 781.758 373.613 781.758 376.753C781.758 379.92 783.082 381.934 785.371 381.934ZM785.371 380.844C783.836 380.844 782.987 379.246 782.987 376.746C782.987 374.301 783.857 372.676 785.371 372.676C786.885 372.676 787.741 374.287 787.741 376.753C787.741 379.253 786.899 380.844 785.371 380.844Z" fill="#434A50"/>
<path d="M753.943 316.646H755.137C755.137 315.521 756.055 314.673 757.276 314.673C758.407 314.673 759.134 315.458 759.134 316.445C759.134 317.278 758.826 317.82 757.489 319.23L754.005 322.911V323.773H760.533V322.661H755.699V322.633L758.051 320.188C759.868 318.299 760.369 317.473 760.369 316.368C760.369 314.847 759.107 313.583 757.276 313.583C755.37 313.583 753.943 314.889 753.943 316.646Z" fill="#434A50"/>
<path d="M768.302 323.939C770.606 323.939 771.937 321.918 771.937 318.751C771.937 315.604 770.599 313.583 768.302 313.583C766.005 313.583 764.654 315.618 764.654 318.758C764.654 321.925 765.991 323.939 768.302 323.939ZM768.302 322.849C766.753 322.849 765.895 321.251 765.895 318.751C765.895 316.306 766.773 314.68 768.302 314.68C769.831 314.68 770.695 316.292 770.695 318.758C770.695 321.258 769.845 322.849 768.302 322.849Z" fill="#434A50"/>
<path d="M776.819 323.939C779.123 323.939 780.453 321.918 780.453 318.751C780.453 315.604 779.116 313.583 776.819 313.583C774.522 313.583 773.171 315.618 773.171 318.758C773.171 321.925 774.508 323.939 776.819 323.939ZM776.819 322.849C775.269 322.849 774.412 321.251 774.412 318.751C774.412 316.306 775.29 314.68 776.819 314.68C778.348 314.68 779.212 316.292 779.212 318.758C779.212 321.258 778.362 322.849 776.819 322.849Z" fill="#434A50"/>
<path d="M785.335 323.939C787.639 323.939 788.97 321.918 788.97 318.751C788.97 315.604 787.633 313.583 785.335 313.583C783.038 313.583 781.687 315.618 781.687 318.758C781.687 321.925 783.025 323.939 785.335 323.939ZM785.335 322.849C783.786 322.849 782.929 321.251 782.929 318.751C782.929 316.306 783.806 314.68 785.335 314.68C786.865 314.68 787.729 316.292 787.729 318.758C787.729 321.258 786.878 322.849 785.335 322.849Z" fill="#434A50"/>
<path d="M758.812 266.813H759.98V264.729H761.35V263.631H759.98V256.79H758.194C755.904 260.186 754.769 262.013 753.943 263.597V264.729H758.812V266.813ZM755.139 263.604C755.904 262.214 756.958 260.54 758.792 257.832H758.812V263.631H755.139V263.604Z" fill="#434A50"/>
<path d="M768.73 266.979C770.986 266.979 772.289 264.958 772.289 261.791C772.289 258.644 770.98 256.623 768.73 256.623C766.481 256.623 765.158 258.658 765.158 261.798C765.158 264.965 766.467 266.979 768.73 266.979ZM768.73 265.889C767.213 265.889 766.373 264.291 766.373 261.791C766.373 259.346 767.233 257.72 768.73 257.72C770.228 257.72 771.074 259.332 771.074 261.798C771.074 264.298 770.241 265.889 768.73 265.889Z" fill="#434A50"/>
<path d="M777.07 266.979C779.327 266.979 780.629 264.958 780.629 261.791C780.629 258.644 779.32 256.623 777.07 256.623C774.821 256.623 773.498 258.658 773.498 261.798C773.498 264.965 774.807 266.979 777.07 266.979ZM777.07 265.889C775.553 265.889 774.713 264.291 774.713 261.791C774.713 259.346 775.573 257.72 777.07 257.72C778.568 257.72 779.414 259.332 779.414 261.798C779.414 264.298 778.581 265.889 777.07 265.889Z" fill="#434A50"/>
<path d="M785.411 266.979C787.667 266.979 788.97 264.958 788.97 261.791C788.97 258.644 787.66 256.623 785.411 256.623C783.161 256.623 781.838 258.658 781.838 261.798C781.838 264.965 783.148 266.979 785.411 266.979ZM785.411 265.889C783.893 265.889 783.054 264.291 783.054 261.791C783.054 259.346 783.913 257.72 785.411 257.72C786.908 257.72 787.754 259.332 787.754 261.798C787.754 264.298 786.922 265.889 785.411 265.889Z" fill="#434A50"/>
<path d="M757.641 207.949C759.638 207.949 761.089 206.506 761.089 204.529C761.089 202.629 759.712 201.221 757.857 201.221C756.534 201.221 755.536 201.942 755.138 202.844H755.117C755.158 200.18 756.082 198.696 757.708 198.696C758.707 198.696 759.436 199.216 759.719 200.118H760.954C760.65 198.585 759.375 197.593 757.722 197.593C755.34 197.593 753.943 199.57 753.943 202.941C753.943 206.666 755.846 207.949 757.641 207.949ZM757.628 206.839C756.379 206.839 755.408 205.819 755.408 204.536C755.408 203.26 756.359 202.317 757.648 202.317C758.937 202.317 759.854 203.26 759.854 204.571C759.854 205.833 758.869 206.839 757.628 206.839Z" fill="#434A50"/>
<path d="M768.633 207.942C770.9 207.942 772.209 205.924 772.209 202.76C772.209 199.618 770.893 197.6 768.633 197.6C766.372 197.6 765.043 199.632 765.043 202.767C765.043 205.93 766.359 207.942 768.633 207.942ZM768.633 206.853C767.108 206.853 766.264 205.258 766.264 202.76C766.264 200.319 767.128 198.696 768.633 198.696C770.137 198.696 770.988 200.305 770.988 202.767C770.988 205.265 770.151 206.853 768.633 206.853Z" fill="#434A50"/>
<path d="M777.013 207.942C779.28 207.942 780.589 205.924 780.589 202.76C780.589 199.618 779.274 197.6 777.013 197.6C774.753 197.6 773.423 199.632 773.423 202.767C773.423 205.93 774.739 207.942 777.013 207.942ZM777.013 206.853C775.488 206.853 774.645 205.258 774.645 202.76C774.645 200.319 775.508 198.696 777.013 198.696C778.518 198.696 779.368 200.305 779.368 202.767C779.368 205.265 778.531 206.853 777.013 206.853Z" fill="#434A50"/>
<path d="M785.394 207.942C787.661 207.942 788.97 205.924 788.97 202.76C788.97 199.618 787.654 197.6 785.394 197.6C783.133 197.6 781.804 199.632 781.804 202.767C781.804 205.93 783.12 207.942 785.394 207.942ZM785.394 206.853C783.869 206.853 783.025 205.258 783.025 202.76C783.025 200.319 783.889 198.696 785.394 198.696C786.898 198.696 787.748 200.305 787.748 202.767C787.748 205.265 786.912 206.853 785.394 206.853Z" fill="#434A50"/>
<path d="M757.47 149.956C759.534 149.956 761.004 148.761 761.004 147.08C761.004 145.837 760.168 144.809 758.907 144.503V144.476C759.986 144.121 760.64 143.281 760.64 142.239C760.64 140.711 759.311 139.6 757.47 139.6C755.643 139.6 754.294 140.718 754.294 142.232C754.294 143.288 754.962 144.135 756.034 144.476V144.503C754.78 144.802 753.943 145.83 753.943 147.08C753.943 148.754 755.413 149.956 757.47 149.956ZM757.47 148.865C756.135 148.865 755.177 148.08 755.177 146.99C755.177 145.893 756.135 145.108 757.47 145.108C758.812 145.108 759.763 145.886 759.763 146.99C759.763 148.08 758.812 148.865 757.47 148.865ZM757.47 144.01C756.31 144.01 755.501 143.323 755.501 142.35C755.501 141.371 756.31 140.676 757.47 140.676C758.63 140.676 759.439 141.364 759.439 142.35C759.439 143.323 758.623 144.01 757.47 144.01Z" fill="#434A50"/>
<path d="M768.644 149.956C770.91 149.956 772.219 147.935 772.219 144.767C772.219 141.621 770.904 139.6 768.644 139.6C766.385 139.6 765.057 141.635 765.057 144.774C765.057 147.942 766.372 149.956 768.644 149.956ZM768.644 148.865C767.12 148.865 766.277 147.268 766.277 144.767C766.277 142.322 767.141 140.697 768.644 140.697C770.148 140.697 770.998 142.308 770.998 144.774C770.998 147.275 770.162 148.865 768.644 148.865Z" fill="#434A50"/>
<path d="M777.02 149.956C779.286 149.956 780.594 147.935 780.594 144.767C780.594 141.621 779.279 139.6 777.02 139.6C774.761 139.6 773.432 141.635 773.432 144.774C773.432 147.942 774.747 149.956 777.02 149.956ZM777.02 148.865C775.496 148.865 774.653 147.268 774.653 144.767C774.653 142.322 775.516 140.697 777.02 140.697C778.524 140.697 779.374 142.308 779.374 144.774C779.374 147.275 778.537 148.865 777.02 148.865Z" fill="#434A50"/>
<path d="M785.396 149.956C787.661 149.956 788.97 147.935 788.97 144.767C788.97 141.621 787.655 139.6 785.396 139.6C783.136 139.6 781.808 141.635 781.808 144.774C781.808 147.942 783.123 149.956 785.396 149.956ZM785.396 148.865C783.872 148.865 783.029 147.268 783.029 144.767C783.029 142.322 783.892 140.697 785.396 140.697C786.899 140.697 787.749 142.308 787.749 144.774C787.749 147.275 786.913 148.865 785.396 148.865Z" fill="#434A50"/>
<path d="M750.367 91.793H751.541V81.7702H750.353L747.762 83.6873V84.9444L750.34 83.0969H750.367V91.793Z" fill="#434A50"/>
<path d="M757.418 91.9597C759.685 91.9597 760.994 89.9385 760.994 86.7712C760.994 83.6247 759.678 81.6035 757.418 81.6035C755.158 81.6035 753.828 83.6386 753.828 86.7781C753.828 89.9454 755.144 91.9597 757.418 91.9597ZM757.418 90.8692C755.893 90.8692 755.05 89.2717 755.05 86.7712C755.05 84.3263 755.913 82.701 757.418 82.701C758.923 82.701 759.773 84.3124 759.773 86.7781C759.773 89.2786 758.936 90.8692 757.418 90.8692Z" fill="#434A50"/>
<path d="M768.632 91.9597C770.9 91.9597 772.209 89.9385 772.209 86.7712C772.209 83.6247 770.893 81.6035 768.632 81.6035C766.372 81.6035 765.043 83.6386 765.043 86.7781C765.043 89.9454 766.359 91.9597 768.632 91.9597ZM768.632 90.8692C767.108 90.8692 766.264 89.2717 766.264 86.7712C766.264 84.3263 767.128 82.701 768.632 82.701C770.137 82.701 770.987 84.3124 770.987 86.7781C770.987 89.2786 770.151 90.8692 768.632 90.8692Z" fill="#434A50"/>
<path d="M777.013 91.9597C779.28 91.9597 780.589 89.9385 780.589 86.7712C780.589 83.6247 779.273 81.6035 777.013 81.6035C774.753 81.6035 773.423 83.6386 773.423 86.7781C773.423 89.9454 774.739 91.9597 777.013 91.9597ZM777.013 90.8692C775.488 90.8692 774.645 89.2717 774.645 86.7712C774.645 84.3263 775.508 82.701 777.013 82.701C778.518 82.701 779.368 84.3124 779.368 86.7781C779.368 89.2786 778.531 90.8692 777.013 90.8692Z" fill="#434A50"/>
<path d="M785.393 91.9597C787.661 91.9597 788.97 89.9385 788.97 86.7712C788.97 83.6247 787.654 81.6035 785.393 81.6035C783.133 81.6035 781.804 83.6386 781.804 86.7781C781.804 89.9454 783.12 91.9597 785.393 91.9597ZM785.393 90.8692C783.869 90.8692 783.025 89.2717 783.025 86.7712C783.025 84.3263 783.889 82.701 785.393 82.701C786.898 82.701 787.748 84.3124 787.748 86.7781C787.748 89.2786 786.912 90.8692 785.393 90.8692Z" fill="#434A50"/>
<path d="M7.05762 388.147H790V389.153H7.05762V388.147Z" fill="#EDEDED"/>
<path d="M7.05762 329.117H790V330.122H7.05762V329.117Z" fill="#EDEDED"/>
<path d="M7.05762 271.122H790V272.127H7.05762V271.122Z" fill="#EDEDED"/>
<path d="M7.05762 213.128H790V214.133H7.05762V213.128Z" fill="#EDEDED"/>
<path d="M7.05762 155.133H790V156.138H7.05762V155.133Z" fill="#EDEDED"/>
<path d="M7.05762 97.1387H790V98.1439H7.05762V97.1387Z" fill="#EDEDED"/>
<path d="M7.05762 39.1436H790V40.1488H7.05762V39.1436Z" fill="#EDEDED"/>
<path d="M28.6914 321.868H48.265V388.148H28.6914V321.868Z" fill="#F5B65A"/>
<path d="M51.3555 293.906H71.9592V388.148H51.3555V293.906Z" fill="#81AE7C"/>
<path d="M51.3555 298.049H71.9592V312.548H51.3555V298.049Z" fill="white"/>
<path fill-rule="evenodd" clip-rule="evenodd" d="M70.7472 299.257H52.5675V311.339H70.7472V299.257ZM51.3555 298.049V312.548H71.9592V298.049H51.3555Z" fill="#C9C9C9"/>
<path d="M28.6914 321.868H48.265V335.331H28.6914V321.868Z" fill="#E18565"/>
<path d="M7.94001 429.811L5.73327 426.172L8.28505 424.379L11.9017 429.579L8.66572 431.853L8.63986 431.816C8.69013 431.186 8.42706 430.61 7.94001 429.811ZM8.43579 433.136L13.3174 429.705L14.2386 431.029L15.0106 430.487L13.5659 428.409L12.7338 428.994L8.59356 423.041L4.46542 425.943L7.14583 430.341C7.70583 431.255 7.93924 431.977 7.63484 432.578L7.1402 432.926L8.58491 435.003L9.35691 434.46L8.43579 433.136Z" fill="black"/>
<path d="M13.9317 422.998C14.6898 422.465 15.5945 422.687 16.1753 423.483L13.5635 425.319C13.0552 424.479 13.1782 423.528 13.9317 422.998ZM17.162 424.941C17.3447 425.491 17.1128 426.117 16.5026 426.546C15.6381 427.154 14.6739 426.925 14.0307 426L13.9984 425.954L17.447 423.53L17.2337 423.223C16.2156 421.759 14.7565 421.373 13.4575 422.286C12.1308 423.219 11.988 424.834 13.0319 426.336C14.0888 427.855 15.5946 428.229 16.9721 427.261C18.0215 426.523 18.402 425.329 17.9525 424.385L17.162 424.941Z" fill="black"/>
<path d="M19.7471 421.394L20.3944 417.536L19.4005 418.234L18.844 421.808L18.807 421.834L17.3202 419.696L16.5159 420.261L19.8772 425.095L20.6815 424.529L19.0655 422.206L19.1025 422.18L22.7849 423.051L23.8204 422.323L19.7471 421.394Z" fill="black"/>
<path d="M25.161 421.45C25.4568 421.242 25.5264 420.847 25.3195 420.55C25.1127 420.252 24.7199 420.183 24.4241 420.391C24.1282 420.598 24.0587 420.993 24.2655 421.291C24.4724 421.588 24.8651 421.658 25.161 421.45Z" fill="black"/>
<path d="M29.7266 414.685L29.203 413.932L26.1705 416.063L26.6941 416.816L29.7266 414.685Z" fill="black"/>
<path d="M35.9169 408.861L34.4468 409.894C33.4945 410.563 32.6194 410.472 32.0344 409.631C31.4526 408.795 31.6671 407.945 32.624 407.273L34.094 406.24L35.9169 408.861ZM35.0999 410.556L36.4405 409.613L38.2342 412.193L39.0663 411.608L34.4025 404.902L31.8831 406.673C30.6304 407.553 30.3356 409.019 31.1792 410.232C31.8741 411.231 33.0185 411.541 34.1134 411.097L34.0645 415.123L35.0538 414.428L35.0999 410.556Z" fill="black"/>
<path d="M43.4857 408.502L44.2901 407.936L40.9288 403.103L40.1244 403.669L41.5109 405.662L39.158 407.316L37.7714 405.322L36.9671 405.888L40.3283 410.721L41.1327 410.155L39.6201 407.981L41.9731 406.327L43.4857 408.502Z" fill="black"/>
<path d="M47.4937 405.685C48.5153 404.967 48.7723 403.99 48.1776 403.135C47.7672 402.545 47.069 402.392 46.4053 402.734L46.3794 402.697C46.7585 402.292 46.7853 401.589 46.4395 401.091C45.8997 400.315 45.0199 400.228 44.1185 400.861L42.0614 402.307L45.4226 407.14L47.4937 405.685ZM43.3214 402.397L44.454 401.601C44.9579 401.247 45.3987 401.297 45.7025 401.734C46.029 402.203 45.8961 402.636 45.2905 403.061L44.2781 403.773L43.3214 402.397ZM44.7306 404.423L45.8077 403.666C46.5104 403.172 47.0159 403.177 47.3649 403.679C47.7043 404.167 47.5742 404.653 46.9917 405.062L45.7713 405.92L44.7306 404.423Z" fill="black"/>
<path d="M50.7342 403.476C51.03 403.268 51.0996 402.874 50.8927 402.576C50.6859 402.279 50.2931 402.209 49.9973 402.417C49.7014 402.625 49.6319 403.02 49.8387 403.317C50.0456 403.614 50.4383 403.684 50.7342 403.476Z" fill="black"/>
<path d="M106.986 321.868H126.56V388.148H106.986V321.868Z" fill="#F5B65A"/>
<path d="M130.681 295.978H150.255V388.148H130.681V295.978Z" fill="#81AE7C"/>
<path d="M130.681 295.978H150.255V300.12H130.681V295.978Z" fill="#253645"/>
<path d="M51.3555 293.906H71.9592V298.049H51.3555V293.906Z" fill="#253645"/>
<path d="M106.986 207.949H126.56V335.33H106.986V207.949Z" fill="#E18565"/>
<path d="M82.8474 431.351L81.3774 432.384C80.4251 433.053 79.5499 432.962 78.9649 432.121C78.3832 431.285 78.5976 430.435 79.5545 429.763L81.0246 428.73L82.8474 431.351ZM82.0304 433.046L83.371 432.103L85.1648 434.683L85.9969 434.098L81.3331 427.392L78.8137 429.163C77.5609 430.043 77.2662 431.51 78.1097 432.722C78.8046 433.722 79.949 434.031 81.044 433.587L80.995 437.613L81.9843 436.918L82.0304 433.046Z" fill="black"/>
<path d="M90.4163 430.992L91.2206 430.426L87.8593 425.593L87.055 426.159L88.4415 428.152L86.0885 429.806L84.702 427.812L83.8976 428.378L87.2589 433.211L88.0633 432.645L86.5507 430.471L88.9037 428.817L90.4163 430.992Z" fill="black"/>
<path d="M94.4242 428.175C95.4458 427.457 95.7029 426.48 95.1082 425.625C94.6977 425.035 93.9996 424.882 93.3358 425.224L93.3099 425.187C93.6891 424.782 93.7158 424.079 93.37 423.581C92.8303 422.805 91.9505 422.718 91.049 423.351L88.9919 424.797L92.3532 429.63L94.4242 428.175ZM90.252 424.887L91.3846 424.091C91.8885 423.737 92.3293 423.787 92.6331 424.224C92.9595 424.693 92.8266 425.126 92.2211 425.551L91.2087 426.263L90.252 424.887ZM91.6611 426.913L92.7383 426.156C93.4409 425.662 93.9464 425.667 94.2955 426.169C94.6349 426.657 94.5047 427.143 93.9223 427.552L92.7018 428.41L91.6611 426.913Z" fill="black"/>
<path d="M97.6647 425.966C97.9606 425.758 98.0301 425.364 97.8233 425.066C97.6164 424.769 97.2237 424.699 96.9278 424.907C96.632 425.115 96.5624 425.51 96.7693 425.807C96.9761 426.104 97.3689 426.174 97.6647 425.966Z" fill="black"/>
<path d="M102.23 419.201L101.707 418.448L98.6742 420.58L99.1978 421.333L102.23 419.201Z" fill="black"/>
<path d="M108.713 416.112C107.38 416.987 106.039 416.78 105.199 415.572C104.368 414.378 104.636 413.041 105.904 412.074L108.713 416.112ZM110.236 412.039C111.067 413.233 110.799 414.57 109.535 415.534L106.727 411.495C108.055 410.624 109.399 410.835 110.236 412.039ZM109.233 416.86L109.721 417.562L110.544 416.984L110.056 416.282C111.828 414.961 112.222 413.092 111.077 411.447C109.927 409.793 108.043 409.519 106.206 410.747L105.751 410.092L104.928 410.67L105.384 411.326C103.607 412.65 103.213 414.518 104.357 416.164C105.508 417.818 107.396 418.089 109.233 416.86Z" fill="black"/>
<path d="M113.386 408.572C114.144 408.039 115.049 408.262 115.63 409.057L113.018 410.893C112.51 410.053 112.633 409.102 113.386 408.572ZM116.617 410.515C116.799 411.065 116.567 411.692 115.957 412.12C115.093 412.728 114.128 412.499 113.485 411.575L113.453 411.528L116.902 409.104L116.688 408.798C115.67 407.334 114.211 406.948 112.912 407.861C111.585 408.793 111.443 410.409 112.487 411.91C113.543 413.429 115.049 413.803 116.427 412.835C117.476 412.098 117.857 410.903 117.407 409.96L116.617 410.515Z" fill="black"/>
<path d="M121.403 409.213C122.424 408.495 122.681 407.519 122.087 406.664C121.676 406.074 120.978 405.921 120.314 406.263L120.288 406.226C120.668 405.821 120.694 405.117 120.349 404.62C119.809 403.844 118.929 403.756 118.028 404.39L115.97 405.836L119.332 410.669L121.403 409.213ZM117.231 405.926L118.363 405.13C118.867 404.776 119.308 404.826 119.612 405.262C119.938 405.732 119.805 406.164 119.2 406.59L118.187 407.301L117.231 405.926ZM118.64 407.952L119.717 407.195C120.419 406.701 120.925 406.705 121.274 407.207C121.613 407.695 121.483 408.181 120.901 408.591L119.68 409.448L118.64 407.952Z" fill="black"/>
<path d="M122.893 400.846C122.195 401.337 121.884 402.088 121.966 402.839L121.948 402.852L121.379 402.034L120.616 402.571L125.099 409.016L125.904 408.451L124.236 406.053L124.254 406.04C124.909 406.368 125.7 406.318 126.389 405.833C127.6 404.982 127.742 403.415 126.689 401.9C125.635 400.385 124.118 399.985 122.893 400.846ZM125.719 405.246C124.896 405.824 123.847 405.503 123.097 404.425C122.35 403.351 122.407 402.246 123.23 401.668C124.085 401.067 125.106 401.387 125.866 402.479C126.629 403.576 126.574 404.645 125.719 405.246Z" fill="black"/>
<path d="M129.664 403.476C129.959 403.269 130.029 402.874 129.822 402.576C129.615 402.279 129.223 402.209 128.927 402.417C128.631 402.625 128.561 403.02 128.768 403.317C128.975 403.614 129.368 403.684 129.664 403.476Z" fill="black"/>
<path d="M184.25 321.868H203.824V388.148H184.25V321.868Z" fill="#F5B65A"/>
<path d="M207.944 295.978H227.518V388.148H207.944V295.978Z" fill="#81AE7C"/>
<path d="M207.944 295.978H227.518V300.12H207.944V295.978Z" fill="#253645"/>
<path d="M184.25 207.949H203.824V335.33H184.25V207.949Z" fill="#E18565"/>
<path d="M161.304 431.351L159.834 432.384C158.882 433.053 158.007 432.962 157.422 432.121C156.84 431.285 157.055 430.435 158.012 429.763L159.482 428.73L161.304 431.351ZM160.487 433.046L161.828 432.103L163.622 434.683L164.454 434.098L159.79 427.392L157.271 429.163C156.018 430.043 155.723 431.51 156.567 432.722C157.262 433.722 158.406 434.031 159.501 433.587L159.452 437.613L160.441 436.918L160.487 433.046Z" fill="black"/>
<path d="M168.873 430.992L169.678 430.426L166.316 425.593L165.512 426.159L166.899 428.152L164.546 429.806L163.159 427.812L162.355 428.378L165.716 433.211L166.52 432.645L165.008 430.471L167.361 428.817L168.873 430.992Z" fill="black"/>
<path d="M172.881 428.175C173.903 427.457 174.16 426.48 173.565 425.625C173.155 425.035 172.457 424.882 171.793 425.224L171.767 425.187C172.146 424.782 172.173 424.079 171.827 423.581C171.287 422.805 170.408 422.718 169.506 423.351L167.449 424.797L170.81 429.63L172.881 428.175ZM168.709 424.887L169.842 424.091C170.345 423.737 170.786 423.787 171.09 424.224C171.417 424.693 171.284 425.126 170.678 425.551L169.666 426.263L168.709 424.887ZM170.118 426.913L171.195 426.156C171.898 425.662 172.403 425.667 172.753 426.169C173.092 426.657 172.962 427.143 172.379 427.552L171.159 428.41L170.118 426.913Z" fill="black"/>
<path d="M176.122 425.966C176.418 425.758 176.487 425.364 176.28 425.066C176.073 424.769 175.681 424.699 175.385 424.907C175.089 425.115 175.019 425.51 175.226 425.807C175.433 426.104 175.826 426.174 176.122 425.966Z" fill="black"/>
<path d="M180.687 419.201L180.164 418.448L177.131 420.58L177.655 421.333L180.687 419.201Z" fill="black"/>
<path d="M187.17 416.112C185.837 416.987 184.496 416.78 183.656 415.572C182.825 414.378 183.093 413.041 184.361 412.074L187.17 416.112ZM188.693 412.039C189.524 413.233 189.256 414.57 187.992 415.534L185.184 411.495C186.512 410.624 187.856 410.835 188.693 412.039ZM187.69 416.86L188.178 417.562L189.001 416.984L188.513 416.282C190.285 414.961 190.679 413.092 189.534 411.447C188.384 409.793 186.5 409.519 184.663 410.747L184.208 410.092L183.385 410.67L183.841 411.326C182.064 412.65 181.67 414.518 182.814 416.164C183.965 417.818 185.853 418.089 187.69 416.86Z" fill="black"/>
<path d="M191.843 408.572C192.601 408.039 193.506 408.262 194.087 409.057L191.475 410.893C190.967 410.053 191.09 409.102 191.843 408.572ZM195.074 410.515C195.256 411.065 195.024 411.692 194.414 412.12C193.55 412.728 192.585 412.499 191.942 411.575L191.91 411.528L195.359 409.104L195.145 408.798C194.127 407.334 192.668 406.948 191.369 407.861C190.042 408.793 189.9 410.409 190.944 411.91C192 413.429 193.506 413.803 194.884 412.835C195.933 412.098 196.314 410.903 195.864 409.96L195.074 410.515Z" fill="black"/>
<path d="M199.86 409.213C200.881 408.495 201.138 407.519 200.544 406.664C200.133 406.074 199.435 405.921 198.771 406.263L198.746 406.226C199.125 405.821 199.151 405.117 198.806 404.62C198.266 403.844 197.386 403.756 196.485 404.39L194.427 405.836L197.789 410.669L199.86 409.213ZM195.688 405.926L196.82 405.13C197.324 404.776 197.765 404.826 198.069 405.262C198.395 405.732 198.262 406.164 197.657 406.59L196.644 407.301L195.688 405.926ZM197.097 407.952L198.174 407.195C198.876 406.701 199.382 406.705 199.731 407.207C200.07 407.695 199.94 408.181 199.358 408.591L198.137 409.448L197.097 407.952Z" fill="black"/>
<path d="M201.35 400.846C200.652 401.337 200.341 402.088 200.423 402.839L200.405 402.852L199.836 402.034L199.073 402.571L203.556 409.016L204.361 408.451L202.693 406.053L202.711 406.04C203.366 406.368 204.157 406.318 204.846 405.833C206.057 404.982 206.199 403.415 205.146 401.9C204.092 400.385 202.575 399.985 201.35 400.846ZM204.176 405.246C203.353 405.824 202.304 405.503 201.554 404.425C200.807 403.351 200.864 402.246 201.687 401.668C202.542 401.067 203.563 401.387 204.323 402.479C205.086 403.576 205.031 404.645 204.176 405.246Z" fill="black"/>
<path d="M208.121 403.476C208.417 403.269 208.486 402.874 208.279 402.576C208.072 402.279 207.68 402.209 207.384 402.417C207.088 402.625 207.018 403.02 207.225 403.317C207.432 403.614 207.825 403.684 208.121 403.476Z" fill="black"/>
<path d="M266.665 321.868H286.239V388.148H266.665V321.868Z" fill="#F5B65A"/>
<path d="M289.329 287.692H309.932V388.148H289.329V287.692Z" fill="#81AE7C"/>
<path d="M289.329 287.692H309.932V292.87H289.329V287.692Z" fill="#253645"/>
<path d="M266.665 306.333H286.239V335.33H266.665V306.333Z" fill="#E18565"/>
<path d="M239.529 436.958C238.196 437.832 236.855 437.626 236.015 436.418C235.184 435.224 235.452 433.887 236.72 432.919L239.529 436.958ZM241.052 432.884C241.883 434.079 241.615 435.415 240.352 436.379L237.543 432.341C238.871 431.47 240.215 431.681 241.052 432.884ZM240.049 437.706L240.537 438.408L241.36 437.829L240.872 437.128C242.644 435.806 243.038 433.938 241.894 432.293C240.743 430.639 238.859 430.364 237.023 431.593L236.567 430.938L235.744 431.516L236.2 432.171C234.423 433.496 234.03 435.364 235.174 437.009C236.324 438.664 238.213 438.935 240.049 437.706Z" fill="black"/>
<path d="M244.203 429.418C244.961 428.885 245.865 429.107 246.446 429.903L243.834 431.738C243.326 430.899 243.449 429.948 244.203 429.418ZM247.433 431.361C247.616 431.911 247.384 432.537 246.774 432.966C245.909 433.574 244.945 433.345 244.302 432.42L244.269 432.374L247.718 429.95L247.505 429.643C246.487 428.179 245.028 427.793 243.729 428.706C242.402 429.639 242.259 431.254 243.303 432.756C244.36 434.275 245.866 434.649 247.243 433.681C248.293 432.943 248.673 431.749 248.223 430.805L247.433 431.361Z" fill="black"/>
<path d="M252.219 430.059C253.241 429.341 253.498 428.365 252.903 427.51C252.493 426.919 251.795 426.767 251.131 427.109L251.105 427.071C251.484 426.667 251.511 425.963 251.165 425.466C250.625 424.689 249.745 424.602 248.844 425.236L246.787 426.681L250.148 431.515L252.219 430.059ZM248.047 426.771L249.18 425.975C249.683 425.621 250.124 425.671 250.428 426.108C250.754 426.577 250.622 427.01 250.016 427.435L249.004 428.147L248.047 426.771ZM249.456 428.798L250.533 428.041C251.236 427.547 251.741 427.551 252.09 428.053C252.43 428.541 252.3 429.027 251.717 429.436L250.497 430.294L249.456 428.798Z" fill="black"/>
<path d="M253.709 421.692C253.011 422.182 252.701 422.933 252.783 423.685L252.764 423.698L252.196 422.88L251.433 423.416L255.916 429.862L256.72 429.296L255.052 426.899L255.071 426.886C255.726 427.214 256.516 427.163 257.205 426.679C258.416 425.828 258.559 424.261 257.505 422.746C256.451 421.231 254.934 420.831 253.709 421.692ZM256.535 426.092C255.712 426.67 254.663 426.349 253.913 425.271C253.167 424.197 253.224 423.092 254.046 422.513C254.902 421.912 255.923 422.232 256.682 423.324C257.445 424.421 257.39 425.49 256.535 426.092Z" fill="black"/>
<path d="M260.48 424.322C260.776 424.114 260.845 423.719 260.639 423.422C260.432 423.125 260.039 423.055 259.743 423.263C259.447 423.47 259.378 423.865 259.585 424.163C259.791 424.46 260.184 424.53 260.48 424.322Z" fill="black"/>
<path d="M265.046 417.557L264.522 416.804L261.49 418.936L262.013 419.688L265.046 417.557Z" fill="black"/>
<path d="M276.396 413.066L271.733 406.361L270.766 407.04L272.388 414.299L272.351 414.325L266.125 410.302L265.159 410.981L269.823 417.687L270.599 417.141L267.005 411.973L267.038 411.95L272.758 415.623L273.461 415.13L271.993 408.467L272.026 408.445L275.62 413.612L276.396 413.066Z" fill="black"/>
<path d="M278.824 410.461C278.246 410.867 277.652 410.835 277.332 410.375C277.015 409.919 277.185 409.371 277.803 408.874L279.033 407.892L279.308 408.287C279.793 408.984 279.582 409.928 278.824 410.461ZM279.122 411.275C279.769 410.82 280.127 410.029 280.029 409.275L280.048 409.262L280.626 410.094L281.389 409.557L279.065 406.216C278.396 405.254 277.258 405.141 276.13 405.934C274.992 406.733 274.726 407.875 275.253 408.75L276.029 408.204C275.801 407.659 275.986 407.093 276.606 406.658C277.271 406.19 277.905 406.27 278.316 406.86L278.597 407.265L277.274 408.312C276.21 409.157 275.939 410.122 276.514 410.95C277.118 411.819 278.165 411.948 279.122 411.275Z" fill="black"/>
<path d="M281.418 402.217C280.72 402.708 280.409 403.459 280.492 404.21L280.473 404.223L279.904 403.405L279.142 403.941L283.624 410.387L284.429 409.822L282.761 407.424L282.78 407.411C283.435 407.739 284.225 407.688 284.914 407.204C286.125 406.353 286.268 404.786 285.214 403.271C284.16 401.756 282.643 401.356 281.418 402.217ZM284.244 406.617C283.421 407.195 282.372 406.874 281.622 405.796C280.875 404.722 280.932 403.617 281.755 403.038C282.611 402.437 283.632 402.758 284.391 403.85C285.154 404.946 285.099 406.016 284.244 406.617Z" fill="black"/>
<path d="M287.768 397.879L283.866 400.621L284.328 401.285L285.877 400.197L288.776 404.365L289.58 403.8L286.681 399.632L288.23 398.543L287.768 397.879Z" fill="black"/>
<path d="M343.929 321.868H363.503V388.148H343.929V321.868Z" fill="#F5B65A"/>
<path d="M367.624 250.41H387.197V388.148H367.624V250.41Z" fill="#81AE7C"/>
<path d="M367.624 287.692H387.197V292.87H367.624V287.692Z" fill="#253645"/>
<path d="M343.929 299.085H363.503V332.225H343.929V299.085Z" fill="#E18565"/>
<path d="M326.272 431.677L321.608 424.972L320.642 425.651L322.264 432.91L322.227 432.936L316.001 428.913L315.035 429.592L319.698 436.298L320.475 435.752L316.881 430.584L316.913 430.561L322.634 434.234L323.337 433.741L321.869 427.078L321.901 427.056L325.495 432.223L326.272 431.677Z" fill="black"/>
<path d="M328.7 429.072C328.122 429.478 327.528 429.446 327.208 428.986C326.891 428.53 327.061 427.982 327.679 427.485L328.909 426.503L329.184 426.898C329.668 427.595 329.458 428.539 328.7 429.072ZM328.998 429.886C329.645 429.432 330.003 428.64 329.905 427.886L329.923 427.873L330.502 428.705L331.265 428.169L328.941 424.827C328.272 423.865 327.133 423.752 326.005 424.545C324.868 425.344 324.602 426.486 325.129 427.361L325.905 426.816C325.677 426.27 325.862 425.704 326.481 425.269C327.147 424.801 327.781 424.881 328.191 425.472L328.473 425.876L327.15 426.923C326.086 427.768 325.814 428.734 326.39 429.561C326.994 430.43 328.041 430.559 328.998 429.886Z" fill="black"/>
<path d="M331.294 420.828C330.596 421.319 330.285 422.07 330.368 422.821L330.349 422.834L329.78 422.016L329.017 422.552L333.5 428.998L334.305 428.433L332.637 426.035L332.655 426.022C333.31 426.35 334.101 426.299 334.79 425.815C336.001 424.964 336.143 423.397 335.09 421.882C334.036 420.367 332.519 419.967 331.294 420.828ZM334.12 425.228C333.297 425.806 332.248 425.485 331.498 424.407C330.751 423.333 330.808 422.228 331.631 421.65C332.486 421.048 333.507 421.369 334.267 422.461C335.03 423.557 334.975 424.627 334.12 425.228Z" fill="black"/>
<path d="M337.644 416.49L333.742 419.232L334.204 419.896L335.753 418.808L338.652 422.977L339.456 422.411L336.557 418.243L338.106 417.154L337.644 416.49Z" fill="black"/>
<path d="M345.043 414.997L344.52 414.244L341.487 416.376L342.011 417.129L345.043 414.997Z" fill="black"/>
<path d="M354.157 412.079L355.03 411.465L347.907 406.488L347.084 407.066L349.289 415.5L350.163 414.886L349.498 412.496L352.152 410.631L354.157 412.079ZM348.19 407.804L348.218 407.785L351.412 410.092L349.249 411.613L348.19 407.804Z" fill="black"/>
<path d="M358.867 408.768L359.676 408.2L356.315 403.367L352.395 406.122L355.756 410.955L356.56 410.39L353.661 406.221L355.968 404.6L358.867 408.768Z" fill="black"/>
<path d="M359.724 400.846C359.026 401.337 358.715 402.088 358.798 402.84L358.779 402.853L358.21 402.035L357.448 402.571L361.93 409.016L362.735 408.451L361.067 406.053L361.085 406.04C361.741 406.368 362.531 406.318 363.22 405.834C364.431 404.982 364.573 403.416 363.52 401.901C362.466 400.386 360.949 399.985 359.724 400.846ZM362.55 405.246C361.727 405.825 360.678 405.503 359.928 404.425C359.181 403.352 359.238 402.246 360.061 401.668C360.916 401.067 361.937 401.387 362.697 402.479C363.46 403.576 363.405 404.645 362.55 405.246Z" fill="black"/>
<path d="M366.495 403.477C366.791 403.269 366.86 402.874 366.653 402.577C366.447 402.279 366.054 402.209 365.758 402.417C365.462 402.625 365.393 403.02 365.599 403.317C365.806 403.615 366.199 403.685 366.495 403.477Z" fill="black"/>
<path d="M417.073 321.868H436.647V388.148H417.073V321.868Z" fill="#F5B65A"/>
<path d="M439.737 293.906H459.311V389.183H439.737V293.906Z" fill="white"/>
<path fill-rule="evenodd" clip-rule="evenodd" d="M458.159 295.068H440.889V388.021H458.159V295.068ZM439.737 293.906V389.183H459.311V293.906H439.737Z" fill="#C9C9C9"/>
<path d="M439.737 288.728H459.311V293.906H439.737V288.728Z" fill="#253645"/>
<path d="M417.073 319.797H436.647V332.224H417.073V319.797Z" fill="#E18565"/>
<path d="M401.471 429.962L402.344 429.348L395.221 424.371L394.398 424.949L396.603 433.383L397.477 432.769L396.812 430.379L399.465 428.514L401.471 429.962ZM395.504 425.687L395.531 425.668L398.726 427.975L396.562 429.496L395.504 425.687Z" fill="black"/>
<path d="M406.181 426.651L406.99 426.083L403.629 421.25L399.709 424.005L403.07 428.838L403.874 428.272L400.975 424.104L403.282 422.483L406.181 426.651Z" fill="black"/>
<path d="M407.038 418.729C406.34 419.22 406.029 419.971 406.112 420.722L406.093 420.735L405.524 419.917L404.761 420.454L409.244 426.899L410.049 426.334L408.381 423.936L408.399 423.923C409.054 424.251 409.845 424.201 410.534 423.717C411.745 422.865 411.887 421.298 410.834 419.784C409.78 418.269 408.263 417.868 407.038 418.729ZM409.864 423.129C409.041 423.707 407.992 423.386 407.242 422.308C406.495 421.235 406.552 420.129 407.375 419.551C408.23 418.95 409.251 419.27 410.011 420.362C410.774 421.459 410.719 422.528 409.864 423.129Z" fill="black"/>
<path d="M413.809 421.36C414.105 421.152 414.174 420.757 413.967 420.459C413.76 420.162 413.368 420.092 413.072 420.3C412.776 420.508 412.706 420.903 412.913 421.2C413.12 421.498 413.513 421.567 413.809 421.36Z" fill="black"/>
<path d="M418.374 414.594L417.851 413.842L414.818 415.973L415.342 416.726L418.374 414.594Z" fill="black"/>
<path d="M429.725 410.104L425.061 403.398L424.095 404.077L425.717 411.337L425.68 411.363L419.454 407.339L418.488 408.018L423.151 414.724L423.928 414.178L420.334 409.01L420.366 408.988L426.087 412.661L426.79 412.167L425.322 405.505L425.354 405.482L428.948 410.65L429.725 410.104Z" fill="black"/>
<path d="M432.152 407.498C431.575 407.904 430.981 407.872 430.661 407.412C430.344 406.957 430.514 406.408 431.132 405.912L432.362 404.93L432.637 405.325C433.121 406.022 432.911 406.965 432.152 407.498ZM432.451 408.313C433.098 407.858 433.456 407.067 433.358 406.312L433.376 406.299L433.955 407.131L434.718 406.595L432.394 403.254C431.725 402.292 430.586 402.179 429.458 402.971C428.321 403.771 428.055 404.912 428.581 405.788L429.358 405.242C429.13 404.696 429.315 404.131 429.934 403.695C430.6 403.227 431.234 403.308 431.644 403.898L431.926 404.302L430.603 405.349C429.539 406.194 429.267 407.16 429.843 407.987C430.447 408.856 431.494 408.985 432.451 408.313Z" fill="black"/>
<path d="M436.622 405.256L436.518 399.981L436.555 399.955L439.054 403.547L439.858 402.982L436.497 398.149L435.702 398.708L435.805 403.983L435.768 404.009L433.27 400.417L432.466 400.982L435.827 405.815L436.622 405.256ZM431.552 398.511C432.147 399.366 433.16 399.526 434.043 398.905C434.926 398.285 435.124 397.273 434.529 396.418L433.938 396.834C434.313 397.373 434.26 398.04 433.71 398.426C433.16 398.813 432.519 398.634 432.144 398.095L431.552 398.511Z" fill="black"/>
<path d="M494.336 321.868H513.91V388.148H494.336V321.868Z" fill="#F5B65A"/>
<path d="M517 293.906H536.574V389.183H517V293.906Z" fill="#81AE7C"/>
<path d="M517 288.728H536.574V293.906H517V288.728Z" fill="#253645"/>
<path d="M494.336 191.38H513.91V332.224H494.336V191.38Z" fill="#E18565"/>
<path d="M476.114 431.899L471.451 425.193L470.484 425.872L472.106 433.132L472.069 433.158L465.843 429.134L464.877 429.813L469.541 436.519L470.317 435.973L466.723 430.806L466.756 430.783L472.476 434.456L473.179 433.962L471.711 427.3L471.744 427.277L475.338 432.445L476.114 431.899Z" fill="black"/>
<path d="M478.542 429.293C477.964 429.699 477.37 429.667 477.05 429.207C476.734 428.752 476.903 428.203 477.521 427.707L478.751 426.725L479.026 427.12C479.511 427.817 479.3 428.76 478.542 429.293ZM478.84 430.108C479.487 429.653 479.845 428.862 479.747 428.107L479.766 428.094L480.344 428.926L481.107 428.39L478.783 425.049C478.114 424.087 476.976 423.974 475.848 424.766C474.71 425.566 474.445 426.707 474.971 427.583L475.747 427.037C475.52 426.491 475.704 425.926 476.324 425.49C476.989 425.022 477.623 425.103 478.034 425.693L478.315 426.097L476.992 427.144C475.928 427.989 475.657 428.955 476.232 429.782C476.836 430.651 477.883 430.78 478.84 430.108Z" fill="black"/>
<path d="M483.012 427.051L482.908 421.776L482.945 421.75L485.443 425.342L486.248 424.777L482.886 419.944L482.091 420.503L482.195 425.778L482.158 425.804L479.66 422.212L478.855 422.777L482.216 427.61L483.012 427.051ZM477.942 420.306C478.536 421.161 479.549 421.321 480.432 420.7C481.315 420.08 481.513 419.068 480.919 418.213L480.327 418.629C480.702 419.168 480.649 419.835 480.099 420.221C479.549 420.608 478.908 420.429 478.533 419.89L477.942 420.306Z" fill="black"/>
<path d="M490.67 418.182L490.146 417.429L487.114 419.56L487.637 420.313L490.67 418.182Z" fill="black"/>
<path d="M499.949 415.147L500.772 414.568L496.109 407.863L495.286 408.441L495.403 416.329L495.329 416.381L491.606 411.027L490.783 411.605L495.447 418.311L496.27 417.733L496.165 409.864L496.239 409.812L499.949 415.147Z" fill="black"/>
<path d="M505.879 411.104C507.228 410.155 507.401 408.623 506.322 407.07C505.239 405.514 503.751 405.155 502.401 406.104C501.18 406.962 500.925 408.296 501.687 409.698L500.859 410.28L499.473 408.286L498.668 408.852L502.03 413.685L502.834 413.119L501.321 410.944L502.13 410.376C503.198 411.722 504.603 412.001 505.879 411.104ZM505.381 410.388C504.512 410.999 503.569 410.693 502.781 409.559C501.989 408.421 502.03 407.43 502.899 406.819C503.768 406.209 504.707 406.51 505.499 407.649C506.287 408.783 506.25 409.778 505.381 410.388Z" fill="black"/>
<path d="M512.056 406.637L512.861 406.072L509.5 401.239L508.695 401.804L510.082 403.798L507.729 405.452L506.342 403.458L505.538 404.024L508.899 408.857L509.704 408.291L508.191 406.116L510.544 404.463L512.056 406.637Z" fill="black"/>
<path d="M513.859 401.461C514.479 401.026 515.154 401.126 515.568 401.721C515.978 402.311 515.847 402.984 515.223 403.422L514.336 404.046L512.972 402.085L513.859 401.461ZM513.993 405.276L515.699 404.077C516.799 403.304 517.064 402.17 516.363 401.162C515.661 400.153 514.511 400.014 513.411 400.787L512.51 401.421L511.437 399.878L510.632 400.443L513.993 405.276Z" fill="black"/>
<path d="M576.751 321.868H596.325V388.148H576.751V321.868Z" fill="#F5B65A"/>
<path d="M599.415 288.728H618.989V389.183H599.415V288.728Z" fill="#81AE7C"/>
<path d="M599.415 284.586H618.989V288.728H599.415V284.586Z" fill="#253645"/>
<path d="M576.751 254.552H596.325V332.223H576.751V254.552Z" fill="#E18565"/>
<path d="M551.347 436.745L552.17 436.167L547.506 429.461L546.683 430.04L546.801 437.927L546.727 437.979L543.004 432.626L542.181 433.204L546.844 439.91L547.667 439.332L547.563 431.462L547.637 431.41L551.347 436.745Z" fill="black"/>
<path d="M557.276 432.703C558.626 431.754 558.799 430.221 557.719 428.669C556.637 427.112 555.148 426.754 553.799 427.702C552.578 428.56 552.323 429.895 553.084 431.297L552.257 431.879L550.87 429.885L550.066 430.45L553.427 435.283L554.232 434.718L552.719 432.543L553.528 431.975C554.595 433.321 556 433.599 557.276 432.703ZM556.778 431.987C555.909 432.598 554.967 432.292 554.178 431.158C553.386 430.019 553.427 429.029 554.296 428.418C555.165 427.807 556.105 428.109 556.896 429.247C557.685 430.381 557.647 431.376 556.778 431.987Z" fill="black"/>
<path d="M563.454 428.236L564.258 427.671L560.897 422.838L560.093 423.403L561.479 425.397L559.126 427.05L557.74 425.057L556.935 425.622L560.297 430.455L561.101 429.89L559.589 427.715L561.942 426.061L563.454 428.236Z" fill="black"/>
<path d="M565.257 423.06C565.876 422.625 566.551 422.724 566.965 423.319C567.376 423.909 567.245 424.582 566.621 425.021L565.733 425.645L564.369 423.684L565.257 423.06ZM565.391 426.875L567.097 425.676C568.197 424.903 568.462 423.769 567.76 422.76C567.059 421.752 565.909 421.612 564.809 422.386L563.907 423.019L562.834 421.476L562.03 422.042L565.391 426.875Z" fill="black"/>
<path d="M573.077 417.986L572.553 417.233L569.521 419.364L570.044 420.117L573.077 417.986Z" fill="black"/>
<path d="M582.357 414.951L583.179 414.372L578.516 407.667L577.693 408.245L577.81 416.133L577.736 416.185L574.013 410.831L573.19 411.409L577.854 418.115L578.677 417.537L578.572 409.668L578.646 409.616L582.357 414.951Z" fill="black"/>
<path d="M588.286 410.908C589.636 409.959 589.808 408.427 588.729 406.874C587.646 405.318 586.158 404.959 584.808 405.908C583.588 406.766 583.332 408.1 584.094 409.502L583.267 410.084L581.88 408.09L581.076 408.656L584.437 413.489L585.241 412.923L583.729 410.748L584.538 410.18C585.605 411.526 587.01 411.805 588.286 410.908ZM587.788 410.192C586.919 410.803 585.976 410.497 585.188 409.363C584.396 408.225 584.437 407.234 585.306 406.623C586.175 406.013 587.114 406.314 587.906 407.453C588.695 408.587 588.657 409.582 587.788 410.192Z" fill="black"/>
<path d="M590.932 405.748L589.665 403.608L591.283 402.471L594.182 406.64L594.986 406.074L591.625 401.241L588.477 403.454L590.157 406.265C590.714 407.195 590.925 407.884 590.448 408.219C590.333 408.3 590.229 408.339 590.178 408.354L590.685 409.083C590.757 409.068 590.869 409.031 591.007 408.933C592.02 408.222 591.763 407.15 590.932 405.748Z" fill="black"/>
<path d="M595.989 401.46C596.609 401.025 597.284 401.125 597.697 401.72C598.108 402.31 597.977 402.983 597.353 403.421L596.465 404.045L595.102 402.084L595.989 401.46ZM596.123 405.275L597.829 404.076C598.929 403.303 599.194 402.169 598.492 401.161C597.791 400.152 596.641 400.013 595.541 400.786L594.639 401.42L593.566 399.877L592.762 400.442L596.123 405.275Z" fill="black"/>
<path d="M652.985 316.689H672.559V388.147H652.985V316.689Z" fill="#F5B65A"/>
<path d="M676 0H695V388.036H676V0Z" fill="#81AE7C"/>
<path d="M676 383.009H695V388.035H676V383.009Z" fill="#253645"/>
<path d="M652.985 299.085H672.559V316.69H652.985V299.085Z" fill="#E18565"/>
<path d="M634.249 432.145L635.072 431.566L630.408 424.861L629.586 425.439L629.703 433.327L629.629 433.379L625.906 428.025L625.083 428.604L629.747 435.309L630.57 434.731L630.465 426.862L630.539 426.81L634.249 432.145Z" fill="black"/>
<path d="M640.178 428.102C641.528 427.153 641.701 425.621 640.622 424.068C639.539 422.512 638.051 422.153 636.701 423.102C635.48 423.96 635.225 425.294 635.987 426.696L635.159 427.278L633.773 425.284L632.968 425.85L636.33 430.683L637.134 430.117L635.621 427.943L636.43 427.374C637.498 428.72 638.903 428.999 640.178 428.102ZM639.681 427.386C638.812 427.997 637.869 427.691 637.081 426.557C636.289 425.419 636.329 424.428 637.199 423.817C638.068 423.207 639.007 423.508 639.799 424.647C640.587 425.781 640.55 426.776 639.681 427.386Z" fill="black"/>
<path d="M642.825 422.942L641.557 420.802L643.175 419.665L646.074 423.834L646.879 423.268L643.518 418.435L640.369 420.648L642.049 423.459C642.607 424.389 642.817 425.078 642.341 425.413C642.226 425.494 642.122 425.533 642.07 425.548L642.578 426.277C642.649 426.262 642.761 426.225 642.9 426.127C643.912 425.416 643.656 424.344 642.825 422.942Z" fill="black"/>
<path d="M647.882 418.654C648.501 418.219 649.176 418.319 649.59 418.914C650.001 419.504 649.87 420.177 649.246 420.615L648.358 421.239L646.994 419.278L647.882 418.654ZM648.016 422.469L649.722 421.27C650.822 420.497 651.087 419.363 650.385 418.355C649.684 417.346 648.534 417.207 647.434 417.98L646.532 418.614L645.459 417.071L644.655 417.636L648.016 422.469Z" fill="black"/>
<path d="M655.702 413.58L655.178 412.827L652.146 414.959L652.669 415.711L655.702 413.58Z" fill="black"/>
<path d="M664.815 410.662L665.689 410.048L658.566 405.071L657.743 405.649L659.947 414.083L660.821 413.469L660.157 411.079L662.81 409.214L664.815 410.662ZM658.848 406.387L658.876 406.368L662.071 408.675L659.907 410.196L658.848 406.387Z" fill="black"/>
<path d="M668.486 408.082C669.507 407.364 669.764 406.388 669.17 405.533C668.759 404.943 668.061 404.79 667.397 405.132L667.371 405.095C667.751 404.69 667.777 403.986 667.431 403.489C666.892 402.713 666.012 402.625 665.111 403.259L663.053 404.705L666.415 409.538L668.486 408.082ZM664.313 404.795L665.446 403.999C665.95 403.645 666.391 403.695 666.695 404.131C667.021 404.601 666.888 405.033 666.283 405.459L665.27 406.17L664.313 404.795ZM665.723 406.821L666.8 406.064C667.502 405.57 668.008 405.575 668.357 406.076C668.696 406.564 668.566 407.05 667.984 407.46L666.763 408.317L665.723 406.821Z" fill="black"/>
<path d="M671.249 399.934L670.787 399.269L667.695 401.443L671.056 406.276L671.86 405.711L668.961 401.542L671.249 399.934Z" fill="black"/>
<path d="M675.138 403.476C675.434 403.268 675.503 402.873 675.296 402.576C675.09 402.279 674.697 402.209 674.401 402.417C674.105 402.625 674.036 403.019 674.242 403.317C674.449 403.614 674.842 403.684 675.138 403.476Z" fill="black"/>
<path fill-rule="evenodd" clip-rule="evenodd" d="M676 0H0V442H790V0H695V386H676V0Z" fill="white" fill-opacity="0.74"/>
<g filter="url(#filter0_d)">
<rect x="324" width="352" height="113" rx="1" fill="white"/>
</g>
<path d="M367.405 36.725C366.445 37.695 365.22 38.18 363.73 38.18C362.24 38.18 361.015 37.695 360.055 36.725C359.095 35.745 358.615 34.505 358.615 33.005C358.615 31.505 359.095 30.27 360.055 29.3C361.015 28.32 362.24 27.83 363.73 27.83C365.22 27.83 366.445 28.32 367.405 29.3C368.365 30.27 368.845 31.505 368.845 33.005C368.845 34.505 368.365 35.745 367.405 36.725ZM363.73 36.62C364.72 36.62 365.52 36.28 366.13 35.6C366.74 34.91 367.045 34.045 367.045 33.005C367.045 31.955 366.74 31.09 366.13 30.41C365.52 29.73 364.72 29.39 363.73 29.39C362.73 29.39 361.925 29.73 361.315 30.41C360.715 31.09 360.415 31.955 360.415 33.005C360.415 34.055 360.715 34.92 361.315 35.6C361.925 36.28 362.73 36.62 363.73 36.62ZM373.385 38H371.81V32.135H369.74V30.755H375.47V32.135H373.385V38ZM384.874 38H383.299V32.96L381.139 38H380.509L378.334 32.96V38H376.759V30.755H378.814L380.824 35.435L382.804 30.755H384.874V38ZM390.256 38.18C389.156 38.18 388.246 37.83 387.526 37.13C386.816 36.42 386.461 35.5 386.461 34.37C386.461 33.31 386.806 32.415 387.496 31.685C388.196 30.945 389.076 30.575 390.136 30.575C391.206 30.575 392.066 30.945 392.716 31.685C393.376 32.425 393.706 33.37 393.706 34.52V34.895H388.111C388.171 35.465 388.406 35.94 388.816 36.32C389.226 36.7 389.761 36.89 390.421 36.89C390.791 36.89 391.161 36.82 391.531 36.68C391.911 36.54 392.226 36.345 392.476 36.095L393.196 37.13C392.466 37.83 391.486 38.18 390.256 38.18ZM392.176 33.785C392.156 33.285 391.971 32.84 391.621 32.45C391.281 32.06 390.786 31.865 390.136 31.865C389.516 31.865 389.031 32.06 388.681 32.45C388.331 32.83 388.136 33.275 388.096 33.785H392.176ZM398.155 38H396.58V32.135H394.51V30.755H400.24V32.135H398.155V38ZM408.31 38H406.33L404.11 35.015L403.105 36.05V38H401.53V30.755H403.105V34.25L406.3 30.755H408.25L405.235 34.04L408.31 38ZM415.425 38H413.85V37.22C413.29 37.86 412.51 38.18 411.51 38.18C410.85 38.18 410.265 37.97 409.755 37.55C409.245 37.12 408.99 36.53 408.99 35.78C408.99 35.01 409.24 34.425 409.74 34.025C410.25 33.625 410.84 33.425 411.51 33.425C412.54 33.425 413.32 33.735 413.85 34.355V33.275C413.85 32.855 413.695 32.525 413.385 32.285C413.075 32.045 412.665 31.925 412.155 31.925C411.345 31.925 410.63 32.23 410.01 32.84L409.365 31.745C410.185 30.965 411.2 30.575 412.41 30.575C413.3 30.575 414.025 30.785 414.585 31.205C415.145 31.625 415.425 32.29 415.425 33.2V38ZM412.125 37.1C412.915 37.1 413.49 36.85 413.85 36.35V35.255C413.49 34.755 412.915 34.505 412.125 34.505C411.675 34.505 411.305 34.625 411.015 34.865C410.725 35.105 410.58 35.42 410.58 35.81C410.58 36.2 410.725 36.515 411.015 36.755C411.305 36.985 411.675 37.1 412.125 37.1ZM424.604 38.18C426.809 38.18 428.189 36.47 428.189 34.37C428.189 32.27 426.809 30.575 424.604 30.575C422.399 30.575 421.019 32.27 421.019 34.37C421.019 36.47 422.399 38.18 424.604 38.18ZM424.604 37.175C423.059 37.175 422.189 35.855 422.189 34.37C422.189 32.9 423.059 31.58 424.604 31.58C426.149 31.58 427.004 32.9 427.004 34.37C427.004 35.855 426.149 37.175 424.604 37.175ZM436.398 38L433.173 34.04L436.383 30.755H434.958L431.148 34.61V30.755H430.023V38H431.148V35.93L432.348 34.745L434.958 38H436.398ZM440.85 38.18C443.055 38.18 444.435 36.47 444.435 34.37C444.435 32.27 443.055 30.575 440.85 30.575C438.645 30.575 437.265 32.27 437.265 34.37C437.265 36.47 438.645 38.18 440.85 38.18ZM440.85 37.175C439.305 37.175 438.435 35.855 438.435 34.37C438.435 32.9 439.305 31.58 440.85 31.58C442.395 31.58 443.25 32.9 443.25 34.37C443.25 35.855 442.395 37.175 440.85 37.175ZM445.414 38.18C446.809 38.18 447.589 37.16 447.919 34.46L448.249 31.745H451.174V38H452.299V30.755H447.259L446.794 34.325C446.509 36.47 446.089 37.25 445.414 37.25V38.18ZM457.71 38.18C459.915 38.18 461.295 36.47 461.295 34.37C461.295 32.27 459.915 30.575 457.71 30.575C455.505 30.575 454.125 32.27 454.125 34.37C454.125 36.47 455.505 38.18 457.71 38.18ZM457.71 37.175C456.165 37.175 455.295 35.855 455.295 34.37C455.295 32.9 456.165 31.58 457.71 31.58C459.255 31.58 460.11 32.9 460.11 34.37C460.11 35.855 459.255 37.175 457.71 37.175ZM468.121 38V34.76H471.901V38H473.026V30.755H471.901V33.77H468.121V30.755H466.996V38H468.121ZM474.867 40.835C475.077 40.895 475.452 40.94 475.692 40.94C476.652 40.925 477.387 40.52 477.822 39.47L481.452 30.755H480.222L477.822 36.695L475.407 30.755H474.192L477.222 38.075L476.742 39.17C476.487 39.77 476.157 39.935 475.662 39.935C475.482 39.935 475.212 39.89 475.047 39.815L474.867 40.835ZM481.771 38.18C483.166 38.18 483.946 37.16 484.276 34.46L484.606 31.745H487.531V38H488.656V30.755H483.616L483.151 34.325C482.866 36.47 482.446 37.25 481.771 37.25V38.18ZM491.982 38L493.752 35.195H495.732V38H496.857V30.755H493.032C491.562 30.755 490.737 31.745 490.737 32.975C490.737 34.19 491.517 35.015 492.597 35.15L490.662 38H491.982ZM493.152 34.205C492.327 34.205 491.892 33.695 491.892 32.975C491.892 32.255 492.357 31.745 493.152 31.745H495.732V34.205H493.152ZM510.293 34.865V33.875H502.298V34.865H510.293ZM522.106 38L518.881 34.04L522.091 30.755H520.666L516.856 34.61V30.755H515.731V38H516.856V35.93L518.056 34.745L520.666 38H522.106ZM522.582 38.18C523.977 38.18 524.757 37.16 525.087 34.46L525.417 31.745H528.342V38H529.467V30.755H524.427L523.962 34.325C523.677 36.47 523.257 37.25 522.582 37.25V38.18ZM532.793 38L536.618 32.36V38H537.743V30.755H536.633L532.838 36.29V30.755H531.713V38H532.793ZM543.259 38.18C544.444 38.18 545.419 37.79 546.139 37.07L545.599 36.335C545.029 36.92 544.189 37.25 543.364 37.25C541.804 37.25 540.844 36.11 540.754 34.745H546.619V34.46C546.619 32.285 545.329 30.575 543.139 30.575C541.069 30.575 539.569 32.27 539.569 34.37C539.569 36.635 541.114 38.18 543.259 38.18ZM545.509 33.92H540.754C540.814 32.81 541.579 31.505 543.124 31.505C544.774 31.505 545.494 32.84 545.509 33.92ZM549.566 38V34.76H553.346V38H554.471V30.755H553.346V33.77H549.566V30.755H548.441V38H549.566ZM559.163 38V31.745H561.278V30.755H555.938V31.745H558.038V38H559.163ZM563.374 37.64C563.374 36.92 562.924 36.5 562.429 36.5C561.979 36.5 561.634 36.875 561.634 37.31C561.634 37.76 561.934 38.075 562.354 38.075C562.429 38.075 562.534 38.06 562.564 38.045C562.504 38.54 562.069 39.125 561.589 39.44L562.144 39.905C562.834 39.41 563.374 38.555 563.374 37.64ZM573.249 38C574.584 38 575.364 37.205 575.364 36.035C575.364 35.21 574.779 34.445 574.044 34.265C574.659 34.07 575.214 33.485 575.214 32.615C575.214 31.52 574.449 30.755 573.174 30.755H569.184V38H573.249ZM573.024 37.01H570.309V34.775H573.024C573.789 34.775 574.194 35.315 574.194 35.9C574.194 36.59 573.744 37.01 573.024 37.01ZM572.979 33.785H570.309V31.745H572.979C573.669 31.745 574.059 32.15 574.059 32.78C574.059 33.35 573.684 33.785 572.979 33.785ZM580.759 38.18C581.944 38.18 582.919 37.79 583.639 37.07L583.099 36.335C582.529 36.92 581.689 37.25 580.864 37.25C579.304 37.25 578.344 36.11 578.254 34.745H584.119V34.46C584.119 32.285 582.829 30.575 580.639 30.575C578.569 30.575 577.069 32.27 577.069 34.37C577.069 36.635 578.614 38.18 580.759 38.18ZM583.009 33.92H578.254C578.314 32.81 579.079 31.505 580.624 31.505C582.274 31.505 582.994 32.84 583.009 33.92ZM589.511 38.18C591.416 38.18 592.736 36.71 592.736 34.37C592.736 32.015 591.416 30.575 589.511 30.575C588.491 30.575 587.591 31.1 587.066 31.835V30.755H585.941V40.76H587.066V36.905C587.651 37.715 588.521 38.18 589.511 38.18ZM589.226 37.175C588.341 37.175 587.456 36.635 587.066 36.005V32.735C587.456 32.105 588.341 31.58 589.226 31.58C590.681 31.58 591.551 32.765 591.551 34.37C591.551 35.975 590.681 37.175 589.226 37.175ZM597.69 38.18C599.895 38.18 601.275 36.47 601.275 34.37C601.275 32.27 599.895 30.575 597.69 30.575C595.485 30.575 594.105 32.27 594.105 34.37C594.105 36.47 595.485 38.18 597.69 38.18ZM597.69 37.175C596.145 37.175 595.275 35.855 595.275 34.37C595.275 32.9 596.145 31.58 597.69 31.58C599.235 31.58 600.09 32.9 600.09 34.37C600.09 35.855 599.235 37.175 597.69 37.175ZM604.189 38L605.959 35.195H607.939V38H609.064V30.755H605.239C603.769 30.755 602.944 31.745 602.944 32.975C602.944 34.19 603.724 35.015 604.804 35.15L602.869 38H604.189ZM605.359 34.205C604.534 34.205 604.099 33.695 604.099 32.975C604.099 32.255 604.564 31.745 605.359 31.745H607.939V34.205H605.359ZM613.758 38V31.745H615.873V30.755H610.533V31.745H612.633V38H613.758ZM618.473 38V34.76H622.253V38H623.378V30.755H622.253V33.77H618.473V30.755H617.348V38H618.473ZM628.894 38.18C630.079 38.18 631.054 37.79 631.774 37.07L631.234 36.335C630.664 36.92 629.824 37.25 628.999 37.25C627.439 37.25 626.479 36.11 626.389 34.745H632.254V34.46C632.254 32.285 630.964 30.575 628.774 30.575C626.704 30.575 625.204 32.27 625.204 34.37C625.204 36.635 626.749 38.18 628.894 38.18ZM631.144 33.92H626.389C626.449 32.81 627.214 31.505 628.759 31.505C630.409 31.505 631.129 32.84 631.144 33.92ZM637.346 38.18C638.531 38.18 639.506 37.79 640.226 37.07L639.686 36.335C639.116 36.92 638.276 37.25 637.451 37.25C635.891 37.25 634.931 36.11 634.841 34.745H640.706V34.46C640.706 32.285 639.416 30.575 637.226 30.575C635.156 30.575 633.656 32.27 633.656 34.37C633.656 36.635 635.201 38.18 637.346 38.18ZM639.596 33.92H634.841C634.901 32.81 635.666 31.505 637.211 31.505C638.861 31.505 639.581 32.84 639.596 33.92ZM363.19 62C364.525 62 365.305 61.205 365.305 60.035C365.305 59.21 364.72 58.445 363.985 58.265C364.6 58.07 365.155 57.485 365.155 56.615C365.155 55.52 364.39 54.755 363.115 54.755H359.125V62H363.19ZM362.965 61.01H360.25V58.775H362.965C363.73 58.775 364.135 59.315 364.135 59.9C364.135 60.59 363.685 61.01 362.965 61.01ZM362.92 57.785H360.25V55.745H362.92C363.61 55.745 364 56.15 364 56.78C364 57.35 363.625 57.785 362.92 57.785ZM370.626 62.18C371.946 62.18 372.726 61.64 373.281 60.92L372.531 60.23C372.051 60.875 371.436 61.175 370.686 61.175C369.141 61.175 368.181 59.975 368.181 58.37C368.181 56.765 369.141 55.58 370.686 55.58C371.436 55.58 372.051 55.865 372.531 56.525L373.281 55.835C372.726 55.115 371.946 54.575 370.626 54.575C368.466 54.575 367.011 56.225 367.011 58.37C367.011 60.53 368.466 62.18 370.626 62.18ZM378.127 62.18C379.312 62.18 380.287 61.79 381.007 61.07L380.467 60.335C379.897 60.92 379.057 61.25 378.232 61.25C376.672 61.25 375.712 60.11 375.622 58.745H381.487V58.46C381.487 56.285 380.197 54.575 378.007 54.575C375.937 54.575 374.437 56.27 374.437 58.37C374.437 60.635 375.982 62.18 378.127 62.18ZM380.377 57.92H375.622C375.682 56.81 376.447 55.505 377.992 55.505C379.642 55.505 380.362 56.84 380.377 57.92ZM388.38 54.755H383.31V62H384.435V55.745H388.38V54.755ZM393.008 62.18C395.213 62.18 396.593 60.47 396.593 58.37C396.593 56.27 395.213 54.575 393.008 54.575C390.803 54.575 389.423 56.27 389.423 58.37C389.423 60.47 390.803 62.18 393.008 62.18ZM393.008 61.175C391.463 61.175 390.593 59.855 390.593 58.37C390.593 56.9 391.463 55.58 393.008 55.58C394.553 55.58 395.408 56.9 395.408 58.37C395.408 59.855 394.553 61.175 393.008 61.175ZM399.839 61.64C399.839 60.92 399.389 60.5 398.894 60.5C398.444 60.5 398.099 60.875 398.099 61.31C398.099 61.76 398.399 62.075 398.819 62.075C398.894 62.075 398.999 62.06 399.029 62.045C398.969 62.54 398.534 63.125 398.054 63.44L398.609 63.905C399.299 63.41 399.839 62.555 399.839 61.64ZM409.713 62C411.048 62 411.828 61.205 411.828 60.035C411.828 59.21 411.243 58.445 410.508 58.265C411.123 58.07 411.678 57.485 411.678 56.615C411.678 55.52 410.913 54.755 409.638 54.755H405.648V62H409.713ZM409.488 61.01H406.773V58.775H409.488C410.253 58.775 410.658 59.315 410.658 59.9C410.658 60.59 410.208 61.01 409.488 61.01ZM409.443 57.785H406.773V55.745H409.443C410.133 55.745 410.523 56.15 410.523 56.78C410.523 57.35 410.148 57.785 409.443 57.785ZM417.119 62.18C419.324 62.18 420.704 60.47 420.704 58.37C420.704 56.27 419.324 54.575 417.119 54.575C414.914 54.575 413.534 56.27 413.534 58.37C413.534 60.47 414.914 62.18 417.119 62.18ZM417.119 61.175C415.574 61.175 414.704 59.855 414.704 58.37C414.704 56.9 415.574 55.58 417.119 55.58C418.664 55.58 419.519 56.9 419.519 58.37C419.519 59.855 418.664 61.175 417.119 61.175ZM425.733 62.18C427.053 62.18 427.833 61.64 428.388 60.92L427.638 60.23C427.158 60.875 426.543 61.175 425.793 61.175C424.248 61.175 423.288 59.975 423.288 58.37C423.288 56.765 424.248 55.58 425.793 55.58C426.543 55.58 427.158 55.865 427.638 56.525L428.388 55.835C427.833 55.115 427.053 54.575 425.733 54.575C423.573 54.575 422.118 56.225 422.118 58.37C422.118 60.53 423.573 62.18 425.733 62.18ZM435.995 62V54.755H429.965V62H431.09V55.745H434.87V62H435.995ZM441.406 62.18C443.611 62.18 444.991 60.47 444.991 58.37C444.991 56.27 443.611 54.575 441.406 54.575C439.201 54.575 437.821 56.27 437.821 58.37C437.821 60.47 439.201 62.18 441.406 62.18ZM441.406 61.175C439.861 61.175 438.991 59.855 438.991 58.37C438.991 56.9 439.861 55.58 441.406 55.58C442.951 55.58 443.806 56.9 443.806 58.37C443.806 59.855 442.951 61.175 441.406 61.175ZM445.97 62.18C447.365 62.18 448.145 61.16 448.475 58.46L448.805 55.745H451.73V62H452.855V54.755H447.815L447.35 58.325C447.065 60.47 446.645 61.25 445.97 61.25V62.18ZM455.102 54.755V62H458.942C460.427 62 461.222 60.98 461.222 59.78C461.222 58.595 460.442 57.56 458.942 57.56H456.227V54.755H455.102ZM458.822 58.55C459.647 58.55 460.067 59.075 460.067 59.78C460.067 60.5 459.632 61.01 458.822 61.01H456.227V58.55H458.822ZM465.503 62.18C467.588 62.18 468.818 61.28 468.818 60.065C468.818 58.865 467.558 58.355 466.718 58.295C467.573 58.19 468.668 57.605 468.668 56.525C468.668 55.295 467.288 54.575 465.338 54.59C464.018 54.59 463.043 55.055 462.368 55.745L462.953 56.435C463.568 55.805 464.363 55.505 465.383 55.505C466.583 55.505 467.498 55.97 467.498 56.66C467.498 57.485 466.553 57.875 465.353 57.875H463.733V58.79H465.353C466.628 58.79 467.633 59.09 467.633 59.99C467.633 60.755 466.793 61.25 465.503 61.25C464.423 61.25 463.463 60.92 462.788 60.275L462.233 60.995C462.953 61.715 464.048 62.18 465.503 62.18ZM473.809 62.18C476.014 62.18 477.394 60.47 477.394 58.37C477.394 56.27 476.014 54.575 473.809 54.575C471.604 54.575 470.224 56.27 470.224 58.37C470.224 60.47 471.604 62.18 473.809 62.18ZM473.809 61.175C472.264 61.175 471.394 59.855 471.394 58.37C471.394 56.9 472.264 55.58 473.809 55.58C475.354 55.58 476.209 56.9 476.209 58.37C476.209 59.855 475.354 61.175 473.809 61.175ZM483.293 62C484.628 62 485.408 61.205 485.408 60.035C485.408 59.21 484.823 58.445 484.088 58.265C484.703 58.07 485.258 57.485 485.258 56.615C485.258 55.52 484.493 54.755 483.218 54.755H479.228V62H483.293ZM483.068 61.01H480.353V58.775H483.068C483.833 58.775 484.238 59.315 484.238 59.9C484.238 60.59 483.788 61.01 483.068 61.01ZM483.023 57.785H480.353V55.745H483.023C483.713 55.745 484.103 56.15 484.103 56.78C484.103 57.35 483.728 57.785 483.023 57.785ZM493.188 62V57.02C493.188 55.265 491.913 54.575 490.383 54.575C489.198 54.575 488.268 54.965 487.488 55.775L488.013 56.555C488.658 55.865 489.363 55.55 490.233 55.55C491.283 55.55 492.063 56.105 492.063 57.08V58.385C491.478 57.71 490.653 57.395 489.663 57.395C488.433 57.395 487.128 58.16 487.128 59.78C487.128 61.355 488.433 62.18 489.663 62.18C490.638 62.18 491.463 61.835 492.063 61.175V62H493.188ZM490.068 61.37C489.018 61.37 488.283 60.71 488.283 59.795C488.283 58.865 489.018 58.205 490.068 58.205C490.863 58.205 491.628 58.505 492.063 59.105V60.47C491.628 61.07 490.863 61.37 490.068 61.37ZM494.588 62.18C495.983 62.18 496.763 61.16 497.093 58.46L497.423 55.745H500.348V62H501.473V54.755H496.433L495.968 58.325C495.683 60.47 495.263 61.25 494.588 61.25V62.18ZM506.915 62.18C508.235 62.18 509.015 61.64 509.57 60.92L508.82 60.23C508.34 60.875 507.725 61.175 506.975 61.175C505.43 61.175 504.47 59.975 504.47 58.37C504.47 56.765 505.43 55.58 506.975 55.58C507.725 55.58 508.34 55.865 508.82 56.525L509.57 55.835C509.015 55.115 508.235 54.575 506.915 54.575C504.755 54.575 503.3 56.225 503.3 58.37C503.3 60.53 504.755 62.18 506.915 62.18ZM512.226 62L513.996 59.195H515.976V62H517.101V54.755H513.276C511.806 54.755 510.981 55.745 510.981 56.975C510.981 58.19 511.761 59.015 512.841 59.15L510.906 62H512.226ZM513.396 58.205C512.571 58.205 512.136 57.695 512.136 56.975C512.136 56.255 512.601 55.745 513.396 55.745H515.976V58.205H513.396ZM526.382 61.175C524.837 61.175 523.967 59.855 523.967 58.355C523.967 56.9 524.837 55.58 526.382 55.58C527.927 55.58 528.782 56.9 528.782 58.355C528.782 59.855 527.927 61.175 526.382 61.175ZM526.382 62.18C528.617 62.18 529.952 60.44 529.952 58.355C529.952 56.3 528.617 54.575 526.562 54.575C525.272 54.575 524.357 55.295 523.832 56.12C524.087 54.89 524.732 53.96 526.877 53.66C528.107 53.495 529.727 53.18 529.727 51.995H528.632C528.632 52.295 528.182 52.49 526.592 52.73C524.072 53.06 522.797 54.515 522.797 58.04C522.797 60.44 524.162 62.18 526.382 62.18ZM535.144 62.18C536.329 62.18 537.304 61.79 538.024 61.07L537.484 60.335C536.914 60.92 536.074 61.25 535.249 61.25C533.689 61.25 532.729 60.11 532.639 58.745H538.504V58.46C538.504 56.285 537.214 54.575 535.024 54.575C532.954 54.575 531.454 56.27 531.454 58.37C531.454 60.635 532.999 62.18 535.144 62.18ZM537.394 57.92H532.639C532.699 56.81 533.464 55.505 535.009 55.505C536.659 55.505 537.379 56.84 537.394 57.92ZM543.521 62.18C544.841 62.18 545.621 61.64 546.176 60.92L545.426 60.23C544.946 60.875 544.331 61.175 543.581 61.175C542.036 61.175 541.076 59.975 541.076 58.37C541.076 56.765 542.036 55.58 543.581 55.58C544.331 55.58 544.946 55.865 545.426 56.525L546.176 55.835C545.621 55.115 544.841 54.575 543.521 54.575C541.361 54.575 539.906 56.225 539.906 58.37C539.906 60.53 541.361 62.18 543.521 62.18ZM553.783 62V54.755H547.753V62H548.878V55.745H552.658V62H553.783ZM559.599 62.18C561.504 62.18 562.824 60.71 562.824 58.37C562.824 56.015 561.504 54.575 559.599 54.575C558.579 54.575 557.679 55.1 557.154 55.835V54.755H556.029V64.76H557.154V60.905C557.739 61.715 558.609 62.18 559.599 62.18ZM559.314 61.175C558.429 61.175 557.544 60.635 557.154 60.005V56.735C557.544 56.105 558.429 55.58 559.314 55.58C560.769 55.58 561.639 56.765 561.639 58.37C561.639 59.975 560.769 61.175 559.314 61.175ZM567.778 62.18C569.983 62.18 571.363 60.47 571.363 58.37C571.363 56.27 569.983 54.575 567.778 54.575C565.573 54.575 564.193 56.27 564.193 58.37C564.193 60.47 565.573 62.18 567.778 62.18ZM567.778 61.175C566.233 61.175 565.363 59.855 565.363 58.37C565.363 56.9 566.233 55.58 567.778 55.58C569.323 55.58 570.178 56.9 570.178 58.37C570.178 59.855 569.323 61.175 567.778 61.175ZM578.942 63.845H580.067V61.01H579.227V54.755H578.102V61.01H574.322V54.755H573.197V62H578.942V63.845ZM584.875 62.18C586.06 62.18 587.035 61.79 587.755 61.07L587.215 60.335C586.645 60.92 585.805 61.25 584.98 61.25C583.42 61.25 582.46 60.11 582.37 58.745H588.235V58.46C588.235 56.285 586.945 54.575 584.755 54.575C582.685 54.575 581.185 56.27 581.185 58.37C581.185 60.635 582.73 62.18 584.875 62.18ZM587.125 57.92H582.37C582.43 56.81 583.195 55.505 584.74 55.505C586.39 55.505 587.11 56.84 587.125 57.92ZM591.183 62V58.76H594.963V62H596.088V54.755H594.963V57.77H591.183V54.755H590.058V62H591.183ZM600.779 62V55.745H602.894V54.755H597.554V55.745H599.654V62H600.779ZM605.494 62V58.76H609.274V62H610.399V54.755H609.274V57.77H605.494V54.755H604.369V62H605.494ZM612.646 54.755V62H616.486C617.971 62 618.766 60.98 618.766 59.78C618.766 58.595 617.986 57.56 616.486 57.56H613.771V54.755H612.646ZM616.366 58.55C617.191 58.55 617.611 59.075 617.611 59.78C617.611 60.5 617.176 61.01 616.366 61.01H613.771V58.55H616.366ZM621.076 62V54.755H619.951V62H621.076ZM630.719 62V54.755H629.219L627.029 60.125L624.809 54.755H623.324V62H624.449V56.315L626.819 62H627.239L629.594 56.315V62H630.719ZM365.155 86V78.755H359.125V86H360.25V79.745H364.03V86H365.155ZM370.671 86.18C371.856 86.18 372.831 85.79 373.551 85.07L373.011 84.335C372.441 84.92 371.601 85.25 370.776 85.25C369.216 85.25 368.256 84.11 368.166 82.745H374.031V82.46C374.031 80.285 372.741 78.575 370.551 78.575C368.481 78.575 366.981 80.27 366.981 82.37C366.981 84.635 368.526 86.18 370.671 86.18ZM372.921 81.92H368.166C368.226 80.81 368.991 79.505 370.536 79.505C372.186 79.505 372.906 80.84 372.921 81.92ZM379.424 86.18C381.329 86.18 382.649 84.71 382.649 82.37C382.649 80.015 381.329 78.575 379.424 78.575C378.404 78.575 377.504 79.1 376.979 79.835V78.755H375.854V88.76H376.979V84.905C377.564 85.715 378.434 86.18 379.424 86.18ZM379.139 85.175C378.254 85.175 377.369 84.635 376.979 84.005V80.735C377.369 80.105 378.254 79.58 379.139 79.58C380.594 79.58 381.464 80.765 381.464 82.37C381.464 83.975 380.594 85.175 379.139 85.175ZM385.517 86L389.343 80.36V86H390.468V78.755H389.358L385.563 84.29V78.755H384.438V86H385.517ZM395.879 86.18C398.084 86.18 399.464 84.47 399.464 82.37C399.464 80.27 398.084 78.575 395.879 78.575C393.674 78.575 392.294 80.27 392.294 82.37C392.294 84.47 393.674 86.18 395.879 86.18ZM395.879 85.175C394.334 85.175 393.464 83.855 393.464 82.37C393.464 80.9 394.334 79.58 395.879 79.58C397.424 79.58 398.279 80.9 398.279 82.37C398.279 83.855 397.424 85.175 395.879 85.175ZM400.443 87.845H401.568V86H407.043V87.845H408.168V85.01H407.328V78.755H402.288L401.823 82.325C401.538 84.47 401.118 84.95 400.443 85.07V87.845ZM403.278 79.745H406.203V85.01H401.898C402.423 84.59 402.768 83.825 402.948 82.46L403.278 79.745ZM412.871 86.18C415.076 86.18 416.456 84.47 416.456 82.37C416.456 80.27 415.076 78.575 412.871 78.575C410.666 78.575 409.286 80.27 409.286 82.37C409.286 84.47 410.666 86.18 412.871 86.18ZM412.871 85.175C411.326 85.175 410.456 83.855 410.456 82.37C410.456 80.9 411.326 79.58 412.871 79.58C414.416 79.58 415.271 80.9 415.271 82.37C415.271 83.855 414.416 85.175 412.871 85.175ZM425.685 86V78.755H424.185L421.995 84.125L419.775 78.755H418.29V86H419.415V80.315L421.785 86H422.205L424.56 80.315V86H425.685Z" fill="#434A50"/>
<defs>
<filter id="filter0_d" x="297" y="0" width="406" height="169" filterUnits="userSpaceOnUse" color-interpolation-filters="sRGB">
<feFlood flood-opacity="0" result="BackgroundImageFix"/>
<feColorMatrix in="SourceAlpha" type="matrix" values="0 0 0 0 0 0 0 0 0 0 0 0 0 0 0 0 0 0 127 0"/>
<feMorphology radius="21" operator="erode" in="SourceAlpha" result="effect1_dropShadow"/>
<feOffset dy="29"/>
<feGaussianBlur stdDeviation="24"/>
<feColorMatrix type="matrix" values="0 0 0 0 0 0 0 0 0 0 0 0 0 0 0 0 0 0 0.31 0"/>
<feBlend mode="normal" in2="BackgroundImageFix" result="effect1_dropShadow"/>
<feBlend mode="normal" in="SourceGraphic" in2="effect1_dropShadow" result="shape"/>
</filter>
</defs>
</svg>
