<svg width="787" height="442" viewBox="0 0 787 442" fill="none" xmlns="http://www.w3.org/2000/svg">
<path d="M782.371 381.934C784.652 381.934 785.97 379.913 785.97 376.746C785.97 373.599 784.646 371.578 782.371 371.578C780.096 371.578 778.758 373.613 778.758 376.753C778.758 379.92 780.082 381.934 782.371 381.934ZM782.371 380.844C780.836 380.844 779.987 379.246 779.987 376.746C779.987 374.301 780.857 372.675 782.371 372.675C783.885 372.675 784.741 374.287 784.741 376.753C784.741 379.253 783.899 380.844 782.371 380.844Z" fill="#434A50"/>
<path d="M750.944 316.647H752.137C752.137 315.521 753.056 314.674 754.276 314.674C755.408 314.674 756.134 315.459 756.134 316.445C756.134 317.279 755.826 317.82 754.489 319.23L751.005 322.912V323.773H757.533V322.662H752.699V322.634L755.051 320.189C756.868 318.3 757.369 317.473 757.369 316.369C757.369 314.848 756.107 313.583 754.276 313.583C752.37 313.583 750.944 314.889 750.944 316.647Z" fill="#434A50"/>
<path d="M765.302 323.94C767.607 323.94 768.937 321.918 768.937 318.751C768.937 315.605 767.6 313.583 765.302 313.583C763.005 313.583 761.654 315.619 761.654 318.758C761.654 321.925 762.992 323.94 765.302 323.94ZM765.302 322.849C763.753 322.849 762.896 321.252 762.896 318.751C762.896 316.306 763.773 314.681 765.302 314.681C766.832 314.681 767.696 316.292 767.696 318.758C767.696 321.259 766.845 322.849 765.302 322.849Z" fill="#434A50"/>
<path d="M773.819 323.94C776.123 323.94 777.453 321.918 777.453 318.751C777.453 315.605 776.116 313.583 773.819 313.583C771.522 313.583 770.171 315.619 770.171 318.758C770.171 321.925 771.508 323.94 773.819 323.94ZM773.819 322.849C772.269 322.849 771.412 321.252 771.412 318.751C771.412 316.306 772.29 314.681 773.819 314.681C775.348 314.681 776.212 316.292 776.212 318.758C776.212 321.259 775.362 322.849 773.819 322.849Z" fill="#434A50"/>
<path d="M782.336 323.94C784.64 323.94 785.97 321.918 785.97 318.751C785.97 315.605 784.633 313.583 782.336 313.583C780.039 313.583 778.688 315.619 778.688 318.758C778.688 321.925 780.025 323.94 782.336 323.94ZM782.336 322.849C780.786 322.849 779.929 321.252 779.929 318.751C779.929 316.306 780.807 314.681 782.336 314.681C783.865 314.681 784.729 316.292 784.729 318.758C784.729 321.259 783.879 322.849 782.336 322.849Z" fill="#434A50"/>
<path d="M755.812 266.813H756.981V264.73H758.35V263.632H756.981V256.79H755.194C752.904 260.187 751.77 262.014 750.944 263.597V264.73H755.812V266.813ZM752.139 263.604C752.904 262.215 753.959 260.541 755.792 257.832H755.812V263.632H752.139V263.604Z" fill="#434A50"/>
<path d="M765.73 266.98C767.987 266.98 769.289 264.959 769.289 261.791C769.289 258.645 767.98 256.624 765.73 256.624C763.481 256.624 762.158 258.659 762.158 261.798C762.158 264.966 763.467 266.98 765.73 266.98ZM765.73 265.889C764.213 265.889 763.373 264.292 763.373 261.791C763.373 259.347 764.233 257.721 765.73 257.721C767.228 257.721 768.074 259.333 768.074 261.798C768.074 264.299 767.241 265.889 765.73 265.889Z" fill="#434A50"/>
<path d="M774.071 266.98C776.327 266.98 777.63 264.959 777.63 261.791C777.63 258.645 776.32 256.624 774.071 256.624C771.821 256.624 770.498 258.659 770.498 261.798C770.498 264.966 771.808 266.98 774.071 266.98ZM774.071 265.889C772.553 265.889 771.714 264.292 771.714 261.791C771.714 259.347 772.573 257.721 774.071 257.721C775.568 257.721 776.414 259.333 776.414 261.798C776.414 264.299 775.582 265.889 774.071 265.889Z" fill="#434A50"/>
<path d="M782.411 266.98C784.667 266.98 785.97 264.959 785.97 261.791C785.97 258.645 784.661 256.624 782.411 256.624C780.161 256.624 778.838 258.659 778.838 261.798C778.838 264.966 780.148 266.98 782.411 266.98ZM782.411 265.889C780.893 265.889 780.054 264.292 780.054 261.791C780.054 259.347 780.913 257.721 782.411 257.721C783.908 257.721 784.755 259.333 784.755 261.798C784.755 264.299 783.922 265.889 782.411 265.889Z" fill="#434A50"/>
<path d="M754.641 207.95C756.639 207.95 758.089 206.507 758.089 204.53C758.089 202.63 756.713 201.222 754.857 201.222C753.535 201.222 752.536 201.943 752.138 202.845H752.118C752.158 200.181 753.083 198.697 754.709 198.697C755.707 198.697 756.436 199.217 756.719 200.119H757.954C757.651 198.586 756.375 197.594 754.722 197.594C752.34 197.594 750.944 199.571 750.944 202.942C750.944 206.667 752.846 207.95 754.641 207.95ZM754.628 206.84C753.379 206.84 752.408 205.82 752.408 204.537C752.408 203.261 753.359 202.318 754.648 202.318C755.937 202.318 756.854 203.261 756.854 204.572C756.854 205.834 755.869 206.84 754.628 206.84Z" fill="#434A50"/>
<path d="M765.633 207.943C767.9 207.943 769.209 205.924 769.209 202.761C769.209 199.619 767.893 197.601 765.633 197.601C763.373 197.601 762.043 199.633 762.043 202.768C762.043 205.931 763.359 207.943 765.633 207.943ZM765.633 206.854C764.108 206.854 763.265 205.259 763.265 202.761C763.265 200.32 764.128 198.697 765.633 198.697C767.138 198.697 767.988 200.306 767.988 202.768C767.988 205.266 767.151 206.854 765.633 206.854Z" fill="#434A50"/>
<path d="M774.013 207.943C776.281 207.943 777.59 205.924 777.59 202.761C777.59 199.619 776.274 197.601 774.013 197.601C771.753 197.601 770.424 199.633 770.424 202.768C770.424 205.931 771.739 207.943 774.013 207.943ZM774.013 206.854C772.488 206.854 771.645 205.259 771.645 202.761C771.645 200.32 772.509 198.697 774.013 198.697C775.518 198.697 776.368 200.306 776.368 202.768C776.368 205.266 775.532 206.854 774.013 206.854Z" fill="#434A50"/>
<path d="M782.394 207.943C784.661 207.943 785.97 205.924 785.97 202.761C785.97 199.619 784.654 197.601 782.394 197.601C780.133 197.601 778.804 199.633 778.804 202.768C778.804 205.931 780.12 207.943 782.394 207.943ZM782.394 206.854C780.869 206.854 780.025 205.259 780.025 202.761C780.025 200.32 780.889 198.697 782.394 198.697C783.898 198.697 784.749 200.306 784.749 202.768C784.749 205.266 783.912 206.854 782.394 206.854Z" fill="#434A50"/>
<path d="M754.471 149.955C756.534 149.955 758.004 148.76 758.004 147.08C758.004 145.836 757.168 144.808 755.907 144.503V144.475C756.986 144.121 757.64 143.28 757.64 142.238C757.64 140.71 756.312 139.599 754.471 139.599C752.643 139.599 751.294 140.717 751.294 142.231C751.294 143.287 751.962 144.134 753.034 144.475V144.503C751.78 144.801 750.944 145.829 750.944 147.08C750.944 148.753 752.414 149.955 754.471 149.955ZM754.471 148.865C753.135 148.865 752.178 148.08 752.178 146.989C752.178 145.892 753.135 145.107 754.471 145.107C755.812 145.107 756.763 145.885 756.763 146.989C756.763 148.08 755.812 148.865 754.471 148.865ZM754.471 144.009C753.311 144.009 752.501 143.322 752.501 142.349C752.501 141.37 753.311 140.675 754.471 140.675C755.63 140.675 756.44 141.363 756.44 142.349C756.44 143.322 755.624 144.009 754.471 144.009Z" fill="#434A50"/>
<path d="M765.645 149.955C767.911 149.955 769.219 147.934 769.219 144.767C769.219 141.62 767.904 139.599 765.645 139.599C763.386 139.599 762.057 141.634 762.057 144.774C762.057 147.941 763.372 149.955 765.645 149.955ZM765.645 148.865C764.121 148.865 763.278 147.267 763.278 144.767C763.278 142.322 764.141 140.696 765.645 140.696C767.149 140.696 767.998 142.308 767.998 144.774C767.998 147.274 767.162 148.865 765.645 148.865Z" fill="#434A50"/>
<path d="M774.02 149.955C776.286 149.955 777.594 147.934 777.594 144.767C777.594 141.62 776.279 139.599 774.02 139.599C771.761 139.599 770.433 141.634 770.433 144.774C770.433 147.941 771.748 149.955 774.02 149.955ZM774.02 148.865C772.496 148.865 771.653 147.267 771.653 144.767C771.653 142.322 772.516 140.696 774.02 140.696C775.524 140.696 776.374 142.308 776.374 144.774C776.374 147.274 775.538 148.865 774.02 148.865Z" fill="#434A50"/>
<path d="M782.396 149.955C784.662 149.955 785.97 147.934 785.97 144.767C785.97 141.62 784.655 139.599 782.396 139.599C780.137 139.599 778.808 141.634 778.808 144.774C778.808 147.941 780.123 149.955 782.396 149.955ZM782.396 148.865C780.872 148.865 780.029 147.267 780.029 144.767C780.029 142.322 780.892 140.696 782.396 140.696C783.9 140.696 784.749 142.308 784.749 144.774C784.749 147.274 783.913 148.865 782.396 148.865Z" fill="#434A50"/>
<path d="M747.367 91.7937H748.541V81.7709H747.353L744.762 83.688V84.9452L747.34 83.0976H747.367V91.7937Z" fill="#434A50"/>
<path d="M754.418 91.9604C756.685 91.9604 757.994 89.9392 757.994 86.7719C757.994 83.6255 756.678 81.6042 754.418 81.6042C752.158 81.6042 750.828 83.6394 750.828 86.7789C750.828 89.9462 752.144 91.9604 754.418 91.9604ZM754.418 90.87C752.893 90.87 752.05 89.2724 752.05 86.7719C752.05 84.327 752.913 82.7017 754.418 82.7017C755.923 82.7017 756.773 84.3131 756.773 86.7789C756.773 89.2794 755.936 90.87 754.418 90.87Z" fill="#434A50"/>
<path d="M765.632 91.9604C767.9 91.9604 769.209 89.9392 769.209 86.7719C769.209 83.6255 767.893 81.6042 765.632 81.6042C763.372 81.6042 762.043 83.6394 762.043 86.7789C762.043 89.9462 763.359 91.9604 765.632 91.9604ZM765.632 90.87C764.108 90.87 763.264 89.2724 763.264 86.7719C763.264 84.327 764.128 82.7017 765.632 82.7017C767.137 82.7017 767.987 84.3131 767.987 86.7789C767.987 89.2794 767.151 90.87 765.632 90.87Z" fill="#434A50"/>
<path d="M774.013 91.9604C776.28 91.9604 777.589 89.9392 777.589 86.7719C777.589 83.6255 776.273 81.6042 774.013 81.6042C771.753 81.6042 770.423 83.6394 770.423 86.7789C770.423 89.9462 771.739 91.9604 774.013 91.9604ZM774.013 90.87C772.488 90.87 771.645 89.2724 771.645 86.7719C771.645 84.327 772.508 82.7017 774.013 82.7017C775.518 82.7017 776.368 84.3131 776.368 86.7789C776.368 89.2794 775.531 90.87 774.013 90.87Z" fill="#434A50"/>
<path d="M782.393 91.9604C784.661 91.9604 785.97 89.9392 785.97 86.7719C785.97 83.6255 784.654 81.6042 782.393 81.6042C780.133 81.6042 778.804 83.6394 778.804 86.7789C778.804 89.9462 780.12 91.9604 782.393 91.9604ZM782.393 90.87C780.869 90.87 780.025 89.2724 780.025 86.7719C780.025 84.327 780.889 82.7017 782.393 82.7017C783.898 82.7017 784.748 84.3131 784.748 86.7789C784.748 89.2794 783.912 90.87 782.393 90.87Z" fill="#434A50"/>
<path d="M4.05762 388.147H787V389.153H4.05762V388.147Z" fill="#EDEDED"/>
<path d="M4.05762 329.118H787V330.123H4.05762V329.118Z" fill="#EDEDED"/>
<path d="M4.05762 271.123H787V272.128H4.05762V271.123Z" fill="#EDEDED"/>
<path d="M4.05762 213.128H787V214.133H4.05762V213.128Z" fill="#EDEDED"/>
<path d="M4.05762 155.133H787V156.138H4.05762V155.133Z" fill="#EDEDED"/>
<path d="M4.05762 97.1387H787V98.1439H4.05762V97.1387Z" fill="#EDEDED"/>
<path d="M4.05762 39.1438H787V40.1491H4.05762V39.1438Z" fill="#EDEDED"/>
<path d="M25.6917 321.868H45.2652V388.148H25.6917V321.868Z" fill="#F5B65A"/>
<path d="M48.3555 293.906H68.9592V388.148H48.3555V293.906Z" fill="#81AE7C"/>
<path d="M48.3555 298.049H68.9592V312.548H48.3555V298.049Z" fill="white"/>
<path fill-rule="evenodd" clip-rule="evenodd" d="M67.7472 299.258H49.5675V311.34H67.7472V299.258ZM48.3555 298.049V312.548H68.9592V298.049H48.3555Z" fill="#C9C9C9"/>
<path d="M25.6917 321.868H45.2652V335.331H25.6917V321.868Z" fill="#E18565"/>
<path d="M4.94001 429.81L2.73327 426.172L5.28505 424.378L8.90166 429.579L5.66572 431.853L5.63986 431.816C5.69013 431.185 5.42706 430.609 4.94001 429.81ZM5.43579 433.135L10.3174 429.704L11.2386 431.029L12.0106 430.486L10.5659 428.409L9.73376 428.994L5.59356 423.041L1.46542 425.942L4.14583 430.341C4.70583 431.255 4.93924 431.976 4.63484 432.578L4.1402 432.925L5.58491 435.002L6.35691 434.46L5.43579 433.135Z" fill="black"/>
<path d="M10.9317 422.997C11.6898 422.465 12.5945 422.687 13.1753 423.482L10.5635 425.318C10.0552 424.478 10.1782 423.527 10.9317 422.997ZM14.162 424.941C14.3447 425.49 14.1128 426.117 13.5026 426.546C12.6381 427.153 11.6739 426.925 11.0307 426L10.9984 425.953L14.447 423.529L14.2337 423.223C13.2156 421.759 11.7565 421.373 10.4575 422.286C9.13078 423.218 8.988 424.834 10.0319 426.335C11.0888 427.855 12.5946 428.229 13.9721 427.26C15.0215 426.523 15.402 425.328 14.9525 424.385L14.162 424.941Z" fill="black"/>
<path d="M16.7471 421.394L17.3944 417.535L16.4005 418.234L15.844 421.807L15.807 421.833L14.3202 419.696L13.5159 420.261L16.8772 425.094L17.6815 424.529L16.0655 422.205L16.1025 422.179L19.7849 423.05L20.8204 422.323L16.7471 421.394Z" fill="black"/>
<path d="M22.161 421.45C22.4568 421.242 22.5264 420.847 22.3195 420.549C22.1127 420.252 21.7199 420.182 21.4241 420.39C21.1282 420.598 21.0587 420.993 21.2655 421.29C21.4724 421.588 21.8651 421.658 22.161 421.45Z" fill="black"/>
<path d="M26.7266 414.684L26.203 413.932L23.1705 416.063L23.6941 416.816L26.7266 414.684Z" fill="black"/>
<path d="M32.9169 408.86L31.4468 409.893C30.4945 410.563 29.6194 410.472 29.0344 409.631C28.4526 408.794 28.6671 407.945 29.624 407.272L31.094 406.239L32.9169 408.86ZM32.0999 410.555L33.4405 409.613L35.2342 412.192L36.0663 411.607L31.4025 404.901L28.8831 406.672C27.6304 407.553 27.3356 409.019 28.1792 410.232C28.8741 411.231 30.0185 411.541 31.1134 411.096L31.0645 415.123L32.0538 414.427L32.0999 410.555Z" fill="black"/>
<path d="M40.4857 408.501L41.2901 407.936L37.9288 403.103L37.1244 403.668L38.5109 405.662L36.158 407.315L34.7714 405.322L33.9671 405.887L37.3283 410.72L38.1327 410.155L36.6201 407.98L38.9731 406.326L40.4857 408.501Z" fill="black"/>
<path d="M44.4937 405.684C45.5153 404.966 45.7723 403.99 45.1776 403.135C44.7672 402.545 44.069 402.392 43.4053 402.734L43.3794 402.697C43.7585 402.292 43.7853 401.588 43.4395 401.091C42.8997 400.315 42.0199 400.227 41.1185 400.861L39.0614 402.307L42.4226 407.14L44.4937 405.684ZM40.3214 402.397L41.454 401.601C41.9579 401.246 42.3987 401.296 42.7025 401.733C43.029 402.203 42.8961 402.635 42.2905 403.061L41.2781 403.772L40.3214 402.397ZM41.7306 404.423L42.8077 403.666C43.5104 403.172 44.0159 403.176 44.3649 403.678C44.7043 404.166 44.5742 404.652 43.9917 405.061L42.7713 405.919L41.7306 404.423Z" fill="black"/>
<path d="M47.7342 403.476C48.03 403.268 48.0996 402.873 47.8927 402.576C47.6859 402.278 47.2931 402.208 46.9973 402.416C46.7014 402.624 46.6319 403.019 46.8387 403.316C47.0456 403.614 47.4383 403.684 47.7342 403.476Z" fill="black"/>
<path d="M103.986 321.868H123.56V388.148H103.986V321.868Z" fill="#F5B65A"/>
<path d="M127.681 295.978H147.254V388.148H127.681V295.978Z" fill="#81AE7C"/>
<path d="M127.681 295.978H147.254V300.12H127.681V295.978Z" fill="#434A50"/>
<path d="M48.3555 293.906H68.9592V298.049H48.3555V293.906Z" fill="#434A50"/>
<path d="M103.986 207.95H123.56V335.331H103.986V207.95Z" fill="#E18565"/>
<path d="M79.8474 431.351L78.3774 432.384C77.4251 433.053 76.5499 432.962 75.9649 432.121C75.3832 431.285 75.5976 430.435 76.5545 429.763L78.0246 428.73L79.8474 431.351ZM79.0304 433.046L80.371 432.103L82.1648 434.683L82.9969 434.098L78.3331 427.392L75.8137 429.163C74.5609 430.043 74.2662 431.51 75.1097 432.722C75.8046 433.722 76.949 434.031 78.044 433.587L77.995 437.613L78.9843 436.918L79.0304 433.046Z" fill="black"/>
<path d="M87.4163 430.992L88.2206 430.426L84.8593 425.593L84.055 426.159L85.4415 428.152L83.0885 429.806L81.702 427.812L80.8976 428.378L84.2589 433.211L85.0633 432.645L83.5507 430.471L85.9037 428.817L87.4163 430.992Z" fill="black"/>
<path d="M91.4242 428.175C92.4458 427.457 92.7029 426.48 92.1082 425.625C91.6977 425.035 90.9996 424.882 90.3358 425.224L90.3099 425.187C90.6891 424.782 90.7158 424.079 90.37 423.581C89.8303 422.805 88.9505 422.718 88.049 423.351L85.9919 424.797L89.3532 429.63L91.4242 428.175ZM87.252 424.887L88.3846 424.091C88.8885 423.737 89.3293 423.787 89.6331 424.224C89.9595 424.693 89.8266 425.126 89.2211 425.551L88.2087 426.263L87.252 424.887ZM88.6611 426.913L89.7383 426.156C90.4409 425.662 90.9464 425.667 91.2955 426.169C91.6349 426.657 91.5047 427.143 90.9223 427.552L89.7018 428.41L88.6611 426.913Z" fill="black"/>
<path d="M94.6647 425.966C94.9606 425.758 95.0301 425.364 94.8233 425.066C94.6164 424.769 94.2237 424.699 93.9278 424.907C93.632 425.115 93.5624 425.51 93.7693 425.807C93.9761 426.104 94.3689 426.174 94.6647 425.966Z" fill="black"/>
<path d="M99.2304 419.201L98.7068 418.448L95.6742 420.58L96.1978 421.333L99.2304 419.201Z" fill="black"/>
<path d="M105.713 416.112C104.38 416.987 103.039 416.78 102.199 415.572C101.368 414.378 101.636 413.041 102.904 412.074L105.713 416.112ZM107.236 412.039C108.067 413.233 107.799 414.57 106.535 415.534L103.727 411.495C105.055 410.624 106.399 410.835 107.236 412.039ZM106.233 416.86L106.721 417.562L107.544 416.984L107.056 416.282C108.828 414.961 109.222 413.092 108.077 411.447C106.927 409.793 105.043 409.519 103.206 410.747L102.751 410.092L101.928 410.67L102.384 411.326C100.607 412.65 100.213 414.518 101.357 416.164C102.508 417.818 104.396 418.089 106.233 416.86Z" fill="black"/>
<path d="M110.386 408.572C111.144 408.039 112.049 408.262 112.63 409.057L110.018 410.893C109.51 410.053 109.633 409.102 110.386 408.572ZM113.617 410.515C113.799 411.065 113.567 411.692 112.957 412.12C112.093 412.728 111.128 412.499 110.485 411.575L110.453 411.528L113.902 409.104L113.688 408.798C112.67 407.334 111.211 406.948 109.912 407.861C108.585 408.793 108.443 410.409 109.487 411.91C110.543 413.429 112.049 413.803 113.427 412.835C114.476 412.098 114.857 410.903 114.407 409.96L113.617 410.515Z" fill="black"/>
<path d="M118.403 409.213C119.424 408.495 119.681 407.519 119.087 406.664C118.676 406.074 117.978 405.921 117.314 406.263L117.288 406.226C117.668 405.821 117.694 405.117 117.349 404.62C116.809 403.844 115.929 403.756 115.028 404.39L112.97 405.836L116.332 410.669L118.403 409.213ZM114.231 405.926L115.363 405.13C115.867 404.776 116.308 404.826 116.612 405.262C116.938 405.732 116.805 406.164 116.2 406.59L115.187 407.301L114.231 405.926ZM115.64 407.952L116.717 407.195C117.419 406.701 117.925 406.705 118.274 407.207C118.613 407.695 118.483 408.181 117.901 408.591L116.68 409.448L115.64 407.952Z" fill="black"/>
<path d="M119.893 400.846C119.195 401.337 118.884 402.088 118.966 402.839L118.948 402.852L118.379 402.034L117.616 402.571L122.099 409.016L122.904 408.451L121.236 406.053L121.254 406.04C121.909 406.368 122.7 406.318 123.389 405.833C124.6 404.982 124.742 403.415 123.689 401.9C122.635 400.385 121.118 399.985 119.893 400.846ZM122.719 405.246C121.896 405.824 120.847 405.503 120.097 404.425C119.35 403.351 119.407 402.246 120.23 401.668C121.085 401.067 122.106 401.387 122.866 402.479C123.629 403.576 123.574 404.645 122.719 405.246Z" fill="black"/>
<path d="M126.664 403.476C126.959 403.269 127.029 402.874 126.822 402.576C126.615 402.279 126.223 402.209 125.927 402.417C125.631 402.625 125.561 403.02 125.768 403.317C125.975 403.614 126.368 403.684 126.664 403.476Z" fill="black"/>
<path d="M181.25 321.868H200.824V388.148H181.25V321.868Z" fill="#F5B65A"/>
<path d="M204.944 295.978H224.518V388.148H204.944V295.978Z" fill="#81AE7C"/>
<path d="M204.944 295.978H224.518V300.12H204.944V295.978Z" fill="#434A50"/>
<path d="M181.25 207.95H200.824V335.331H181.25V207.95Z" fill="#E18565"/>
<path d="M158.304 431.351L156.834 432.384C155.882 433.053 155.007 432.962 154.422 432.121C153.84 431.285 154.055 430.435 155.012 429.763L156.482 428.73L158.304 431.351ZM157.487 433.046L158.828 432.103L160.622 434.683L161.454 434.098L156.79 427.392L154.271 429.163C153.018 430.043 152.723 431.51 153.567 432.722C154.262 433.722 155.406 434.031 156.501 433.587L156.452 437.613L157.441 436.918L157.487 433.046Z" fill="black"/>
<path d="M165.873 430.992L166.678 430.426L163.316 425.593L162.512 426.159L163.899 428.152L161.546 429.806L160.159 427.812L159.355 428.378L162.716 433.211L163.52 432.645L162.008 430.471L164.361 428.817L165.873 430.992Z" fill="black"/>
<path d="M169.881 428.175C170.903 427.457 171.16 426.48 170.565 425.625C170.155 425.035 169.457 424.882 168.793 425.224L168.767 425.187C169.146 424.782 169.173 424.079 168.827 423.581C168.287 422.805 167.408 422.718 166.506 423.351L164.449 424.797L167.81 429.63L169.881 428.175ZM165.709 424.887L166.842 424.091C167.345 423.737 167.786 423.787 168.09 424.224C168.417 424.693 168.284 425.126 167.678 425.551L166.666 426.263L165.709 424.887ZM167.118 426.913L168.195 426.156C168.898 425.662 169.403 425.667 169.753 426.169C170.092 426.657 169.962 427.143 169.379 427.552L168.159 428.41L167.118 426.913Z" fill="black"/>
<path d="M173.122 425.966C173.418 425.758 173.487 425.364 173.28 425.066C173.073 424.769 172.681 424.699 172.385 424.907C172.089 425.115 172.019 425.51 172.226 425.807C172.433 426.104 172.826 426.174 173.122 425.966Z" fill="black"/>
<path d="M177.687 419.201L177.164 418.448L174.131 420.58L174.655 421.333L177.687 419.201Z" fill="black"/>
<path d="M184.17 416.112C182.837 416.987 181.496 416.78 180.656 415.572C179.825 414.378 180.093 413.041 181.361 412.074L184.17 416.112ZM185.693 412.039C186.524 413.233 186.256 414.57 184.992 415.534L182.184 411.495C183.512 410.624 184.856 410.835 185.693 412.039ZM184.69 416.86L185.178 417.562L186.001 416.984L185.513 416.282C187.285 414.961 187.679 413.092 186.534 411.447C185.384 409.793 183.5 409.519 181.663 410.747L181.208 410.092L180.385 410.67L180.841 411.326C179.064 412.65 178.67 414.518 179.814 416.164C180.965 417.818 182.853 418.089 184.69 416.86Z" fill="black"/>
<path d="M188.843 408.572C189.601 408.039 190.506 408.262 191.087 409.057L188.475 410.893C187.967 410.053 188.09 409.102 188.843 408.572ZM192.074 410.515C192.256 411.065 192.024 411.692 191.414 412.12C190.55 412.728 189.585 412.499 188.942 411.575L188.91 411.528L192.359 409.104L192.145 408.798C191.127 407.334 189.668 406.948 188.369 407.861C187.042 408.793 186.9 410.409 187.944 411.91C189 413.429 190.506 413.803 191.884 412.835C192.933 412.098 193.314 410.903 192.864 409.96L192.074 410.515Z" fill="black"/>
<path d="M196.86 409.213C197.881 408.495 198.138 407.519 197.544 406.664C197.133 406.074 196.435 405.921 195.771 406.263L195.746 406.226C196.125 405.821 196.151 405.117 195.806 404.62C195.266 403.844 194.386 403.756 193.485 404.39L191.427 405.836L194.789 410.669L196.86 409.213ZM192.688 405.926L193.82 405.13C194.324 404.776 194.765 404.826 195.069 405.262C195.395 405.732 195.262 406.164 194.657 406.59L193.644 407.301L192.688 405.926ZM194.097 407.952L195.174 407.195C195.876 406.701 196.382 406.705 196.731 407.207C197.07 407.695 196.94 408.181 196.358 408.591L195.137 409.448L194.097 407.952Z" fill="black"/>
<path d="M198.35 400.846C197.652 401.337 197.341 402.088 197.423 402.839L197.405 402.852L196.836 402.034L196.073 402.571L200.556 409.016L201.361 408.451L199.693 406.053L199.711 406.04C200.366 406.368 201.157 406.318 201.846 405.833C203.057 404.982 203.199 403.415 202.146 401.9C201.092 400.385 199.575 399.985 198.35 400.846ZM201.176 405.246C200.353 405.824 199.304 405.503 198.554 404.425C197.807 403.351 197.864 402.246 198.687 401.668C199.542 401.067 200.563 401.387 201.323 402.479C202.086 403.576 202.031 404.645 201.176 405.246Z" fill="black"/>
<path d="M205.121 403.476C205.417 403.269 205.486 402.874 205.279 402.576C205.072 402.279 204.68 402.209 204.384 402.417C204.088 402.625 204.018 403.02 204.225 403.317C204.432 403.614 204.825 403.684 205.121 403.476Z" fill="black"/>
<path d="M263.665 321.868H283.238V388.148H263.665V321.868Z" fill="#F5B65A"/>
<path d="M286.329 287.692H306.932V388.147H286.329V287.692Z" fill="#81AE7C"/>
<path d="M286.329 287.692H306.932V292.87H286.329V287.692Z" fill="#434A50"/>
<path d="M263.665 306.334H283.238V335.331H263.665V306.334Z" fill="#E18565"/>
<path d="M236.529 436.958C235.196 437.832 233.856 437.626 233.015 436.418C232.185 435.223 232.452 433.887 233.721 432.919L236.529 436.958ZM238.053 432.884C238.883 434.078 238.615 435.415 237.352 436.379L234.543 432.341C235.872 431.47 237.216 431.68 238.053 432.884ZM237.05 437.706L237.538 438.407L238.36 437.829L237.872 437.127C239.644 435.806 240.038 433.938 238.894 432.293C237.743 430.638 235.86 430.364 234.023 431.593L233.567 430.937L232.744 431.516L233.2 432.171C231.424 433.496 231.03 435.364 232.174 437.009C233.325 438.663 235.213 438.934 237.05 437.706Z" fill="black"/>
<path d="M241.203 429.418C241.961 428.885 242.866 429.107 243.447 429.903L240.835 431.738C240.326 430.899 240.449 429.947 241.203 429.418ZM244.433 431.361C244.616 431.91 244.384 432.537 243.774 432.966C242.909 433.573 241.945 433.345 241.302 432.42L241.27 432.374L244.718 429.95L244.505 429.643C243.487 428.179 242.028 427.793 240.729 428.706C239.402 429.639 239.259 431.254 240.303 432.755C241.36 434.275 242.866 434.649 244.243 433.681C245.293 432.943 245.673 431.748 245.224 430.805L244.433 431.361Z" fill="black"/>
<path d="M249.219 430.059C250.241 429.341 250.498 428.364 249.903 427.509C249.493 426.919 248.795 426.766 248.131 427.108L248.105 427.071C248.484 426.666 248.511 425.963 248.165 425.465C247.625 424.689 246.746 424.602 245.844 425.235L243.787 426.681L247.148 431.514L249.219 430.059ZM245.047 426.771L246.18 425.975C246.684 425.621 247.124 425.671 247.428 426.108C247.755 426.577 247.622 427.01 247.016 427.435L246.004 428.147L245.047 426.771ZM246.456 428.797L247.533 428.04C248.236 427.546 248.742 427.551 249.091 428.053C249.43 428.541 249.3 429.027 248.717 429.436L247.497 430.294L246.456 428.797Z" fill="black"/>
<path d="M250.709 421.692C250.011 422.182 249.701 422.933 249.783 423.685L249.765 423.698L249.196 422.88L248.433 423.416L252.916 429.862L253.72 429.296L252.052 426.898L252.071 426.885C252.726 427.214 253.517 427.163 254.205 426.679C255.417 425.828 255.559 424.261 254.505 422.746C253.452 421.231 251.934 420.831 250.709 421.692ZM253.535 426.091C252.712 426.67 251.663 426.349 250.913 425.27C250.167 424.197 250.224 423.091 251.047 422.513C251.902 421.912 252.923 422.232 253.682 423.324C254.445 424.421 254.391 425.49 253.535 426.091Z" fill="black"/>
<path d="M257.48 424.322C257.776 424.114 257.846 423.719 257.639 423.422C257.432 423.124 257.039 423.054 256.743 423.262C256.448 423.47 256.378 423.865 256.585 424.162C256.792 424.46 257.184 424.53 257.48 424.322Z" fill="black"/>
<path d="M262.046 417.557L261.522 416.804L258.49 418.935L259.013 419.688L262.046 417.557Z" fill="black"/>
<path d="M273.397 413.066L268.733 406.36L267.767 407.039L269.388 414.299L269.351 414.325L263.125 410.301L262.159 410.98L266.823 417.686L267.6 417.14L264.006 411.973L264.038 411.95L269.758 415.623L270.461 415.129L268.994 408.467L269.026 408.444L272.62 413.612L273.397 413.066Z" fill="black"/>
<path d="M275.824 410.461C275.246 410.867 274.652 410.834 274.332 410.374C274.016 409.919 274.185 409.371 274.803 408.874L276.033 407.892L276.308 408.287C276.793 408.984 276.582 409.928 275.824 410.461ZM276.122 411.275C276.769 410.82 277.127 410.029 277.029 409.274L277.048 409.261L277.626 410.093L278.389 409.557L276.065 406.216C275.396 405.254 274.258 405.141 273.13 405.934C271.993 406.733 271.727 407.875 272.253 408.75L273.03 408.204C272.802 407.659 272.986 407.093 273.606 406.658C274.272 406.19 274.905 406.27 275.316 406.86L275.597 407.265L274.274 408.312C273.21 409.157 272.939 410.122 273.514 410.949C274.119 411.818 275.165 411.948 276.122 411.275Z" fill="black"/>
<path d="M278.418 402.217C277.72 402.707 277.41 403.458 277.492 404.21L277.474 404.223L276.905 403.405L276.142 403.941L280.625 410.387L281.429 409.821L279.761 407.423L279.78 407.41C280.435 407.739 281.226 407.688 281.914 407.204C283.126 406.353 283.268 404.786 282.214 403.271C281.161 401.756 279.643 401.356 278.418 402.217ZM281.244 406.616C280.421 407.195 279.372 406.874 278.622 405.796C277.876 404.722 277.933 403.617 278.756 403.038C279.611 402.437 280.632 402.757 281.391 403.849C282.154 404.946 282.099 406.015 281.244 406.616Z" fill="black"/>
<path d="M284.768 397.878L280.866 400.621L281.329 401.285L282.877 400.197L285.776 404.365L286.581 403.8L283.682 399.631L285.23 398.543L284.768 397.878Z" fill="black"/>
<path d="M340.929 321.868H360.503V388.148H340.929V321.868Z" fill="#F5B65A"/>
<path d="M364.623 250.41H384.197V388.148H364.623V250.41Z" fill="#81AE7C"/>
<path d="M364.623 287.692H384.197V292.87H364.623V287.692Z" fill="#434A50"/>
<path d="M340.929 299.084H360.503V332.224H340.929V299.084Z" fill="#E18565"/>
<path d="M323.272 431.677L318.609 424.971L317.642 425.65L319.264 432.909L319.227 432.935L313.001 428.912L312.035 429.591L316.699 436.297L317.475 435.751L313.881 430.583L313.914 430.56L319.634 434.234L320.337 433.74L318.869 427.077L318.902 427.055L322.496 432.222L323.272 431.677Z" fill="black"/>
<path d="M325.7 429.071C325.122 429.477 324.528 429.445 324.208 428.985C323.891 428.529 324.061 427.981 324.679 427.484L325.909 426.502L326.184 426.897C326.669 427.594 326.458 428.538 325.7 429.071ZM325.998 429.885C326.645 429.431 327.003 428.639 326.905 427.885L326.924 427.872L327.502 428.704L328.265 428.168L325.941 424.826C325.272 423.864 324.134 423.751 323.006 424.544C321.868 425.343 321.602 426.485 322.129 427.36L322.905 426.815C322.677 426.269 322.862 425.703 323.482 425.268C324.147 424.8 324.781 424.88 325.192 425.471L325.473 425.875L324.15 426.922C323.086 427.767 322.815 428.733 323.39 429.56C323.994 430.429 325.041 430.558 325.998 429.885Z" fill="black"/>
<path d="M328.294 420.827C327.596 421.318 327.285 422.069 327.368 422.82L327.349 422.833L326.78 422.015L326.018 422.551L330.5 428.997L331.305 428.432L329.637 426.034L329.656 426.021C330.311 426.349 331.101 426.299 331.79 425.814C333.001 424.963 333.144 423.396 332.09 421.881C331.036 420.366 329.519 419.966 328.294 420.827ZM331.12 425.227C330.297 425.805 329.248 425.484 328.498 424.406C327.751 423.332 327.808 422.227 328.631 421.649C329.487 421.047 330.508 421.368 331.267 422.46C332.03 423.556 331.975 424.626 331.12 425.227Z" fill="black"/>
<path d="M334.644 416.489L330.742 419.231L331.204 419.895L332.753 418.807L335.652 422.976L336.456 422.41L333.557 418.242L335.106 417.153L334.644 416.489Z" fill="black"/>
<path d="M342.044 414.996L341.52 414.243L338.488 416.375L339.011 417.128L342.044 414.996Z" fill="black"/>
<path d="M351.157 412.078L352.031 411.464L344.907 406.487L344.085 407.065L346.289 415.5L347.163 414.885L346.498 412.495L349.152 410.63L351.157 412.078ZM345.19 407.803L345.218 407.784L348.412 410.091L346.249 411.612L345.19 407.803Z" fill="black"/>
<path d="M355.868 408.767L356.676 408.199L353.315 403.366L349.395 406.121L352.756 410.954L353.561 410.389L350.662 406.22L352.968 404.599L355.868 408.767Z" fill="black"/>
<path d="M356.724 400.845C356.026 401.336 355.716 402.087 355.798 402.839L355.779 402.852L355.211 402.034L354.448 402.57L358.931 409.015L359.735 408.45L358.067 406.052L358.086 406.039C358.741 406.368 359.531 406.317 360.22 405.833C361.431 404.982 361.574 403.415 360.52 401.9C359.466 400.385 357.949 399.984 356.724 400.845ZM359.55 405.245C358.727 405.824 357.678 405.502 356.928 404.424C356.182 403.351 356.239 402.245 357.061 401.667C357.917 401.066 358.938 401.386 359.697 402.478C360.46 403.575 360.405 404.644 359.55 405.245Z" fill="black"/>
<path d="M363.495 403.476C363.791 403.268 363.86 402.873 363.654 402.576C363.447 402.278 363.054 402.208 362.758 402.416C362.462 402.624 362.393 403.019 362.6 403.316C362.806 403.614 363.199 403.684 363.495 403.476Z" fill="black"/>
<path d="M414.073 321.868H433.647V388.148H414.073V321.868Z" fill="#F5B65A"/>
<path d="M436.737 293.906H456.311V389.183H436.737V293.906Z" fill="white"/>
<path fill-rule="evenodd" clip-rule="evenodd" d="M455.159 295.068H437.889V388.021H455.159V295.068ZM436.737 293.906V389.183H456.311V293.906H436.737Z" fill="#C9C9C9"/>
<path d="M436.737 288.728H456.311V293.906H436.737V288.728Z" fill="#434A50"/>
<path d="M414.073 319.797H433.647V332.224H414.073V319.797Z" fill="#E18565"/>
<path d="M398.47 429.962L399.344 429.347L392.221 424.37L391.398 424.948L393.603 433.383L394.476 432.769L393.812 430.378L396.465 428.513L398.47 429.962ZM392.503 425.687L392.531 425.667L395.726 427.975L393.562 429.495L392.503 425.687Z" fill="black"/>
<path d="M403.181 426.651L403.99 426.082L400.629 421.249L396.709 424.004L400.07 428.837L400.874 428.272L397.975 424.104L400.282 422.482L403.181 426.651Z" fill="black"/>
<path d="M404.038 418.729C403.34 419.219 403.029 419.97 403.111 420.722L403.093 420.735L402.524 419.917L401.761 420.453L406.244 426.899L407.048 426.333L405.381 423.935L405.399 423.922C406.054 424.251 406.845 424.2 407.534 423.716C408.745 422.865 408.887 421.298 407.834 419.783C406.78 418.268 405.263 417.868 404.038 418.729ZM406.864 423.128C406.041 423.707 404.991 423.386 404.242 422.308C403.495 421.234 403.552 420.128 404.375 419.55C405.23 418.949 406.251 419.269 407.011 420.361C407.773 421.458 407.719 422.527 406.864 423.128Z" fill="black"/>
<path d="M410.808 421.359C411.104 421.151 411.174 420.756 410.967 420.459C410.76 420.161 410.367 420.092 410.072 420.299C409.776 420.507 409.706 420.902 409.913 421.2C410.12 421.497 410.513 421.567 410.808 421.359Z" fill="black"/>
<path d="M415.374 414.594L414.851 413.841L411.818 415.972L412.342 416.725L415.374 414.594Z" fill="black"/>
<path d="M426.725 410.103L422.061 403.397L421.095 404.077L422.716 411.336L422.679 411.362L416.454 407.339L415.487 408.018L420.151 414.723L420.928 414.178L417.334 409.01L417.366 408.987L423.087 412.66L423.789 412.166L422.322 405.504L422.354 405.482L425.948 410.649L426.725 410.103Z" fill="black"/>
<path d="M429.152 407.498C428.574 407.904 427.981 407.872 427.661 407.411C427.344 406.956 427.513 406.408 428.131 405.911L429.362 404.929L429.636 405.324C430.121 406.021 429.91 406.965 429.152 407.498ZM429.45 408.312C430.097 407.857 430.456 407.066 430.358 406.312L430.376 406.299L430.955 407.13L431.717 406.594L429.394 403.253C428.725 402.291 427.586 402.178 426.458 402.971C425.321 403.77 425.055 404.912 425.581 405.787L426.358 405.241C426.13 404.696 426.315 404.13 426.934 403.695C427.6 403.227 428.234 403.307 428.644 403.897L428.925 404.302L427.603 405.349C426.538 406.194 426.267 407.159 426.842 407.987C427.447 408.856 428.493 408.985 429.45 408.312Z" fill="black"/>
<path d="M433.622 405.256L433.518 399.98L433.555 399.954L436.054 403.547L436.858 402.981L433.497 398.148L432.701 398.707L432.805 403.982L432.768 404.008L430.27 400.416L429.466 400.982L432.827 405.815L433.622 405.256ZM428.552 398.51C429.147 399.365 430.16 399.525 431.042 398.905C431.925 398.284 432.124 397.273 431.529 396.418L430.937 396.834C431.312 397.373 431.26 398.039 430.71 398.426C430.159 398.813 429.519 398.633 429.144 398.094L428.552 398.51Z" fill="black"/>
<path d="M491.336 321.868H510.91V388.148H491.336V321.868Z" fill="#F5B65A"/>
<path d="M514 293.906H533.574V389.183H514V293.906Z" fill="#81AE7C"/>
<path d="M514 288.728H533.574V293.906H514V288.728Z" fill="#434A50"/>
<path d="M491.336 191.38H510.91V332.224H491.336V191.38Z" fill="#E18565"/>
<path d="M473.114 431.898L468.451 425.192L467.484 425.871L469.106 433.131L469.069 433.157L462.843 429.133L461.877 429.812L466.541 436.518L467.317 435.972L463.723 430.805L463.756 430.782L469.476 434.455L470.179 433.961L468.711 427.299L468.744 427.276L472.338 432.444L473.114 431.898Z" fill="black"/>
<path d="M475.542 429.292C474.964 429.698 474.37 429.666 474.05 429.206C473.734 428.751 473.903 428.203 474.521 427.706L475.751 426.724L476.026 427.119C476.511 427.816 476.3 428.759 475.542 429.292ZM475.84 430.107C476.487 429.652 476.845 428.861 476.747 428.106L476.766 428.093L477.344 428.925L478.107 428.389L475.783 425.048C475.114 424.086 473.976 423.973 472.848 424.765C471.71 425.565 471.445 426.706 471.971 427.582L472.747 427.036C472.52 426.49 472.704 425.925 473.324 425.489C473.989 425.021 474.623 425.102 475.034 425.692L475.315 426.096L473.992 427.143C472.928 427.988 472.657 428.954 473.232 429.781C473.836 430.65 474.883 430.779 475.84 430.107Z" fill="black"/>
<path d="M480.012 427.05L479.908 421.775L479.945 421.749L482.443 425.341L483.248 424.776L479.886 419.943L479.091 420.502L479.195 425.777L479.158 425.803L476.66 422.211L475.855 422.776L479.216 427.609L480.012 427.05ZM474.942 420.305C475.536 421.16 476.549 421.32 477.432 420.699C478.315 420.079 478.513 419.067 477.919 418.212L477.327 418.628C477.702 419.167 477.649 419.834 477.099 420.22C476.549 420.607 475.908 420.428 475.533 419.889L474.942 420.305Z" fill="black"/>
<path d="M487.67 418.181L487.146 417.428L484.114 419.559L484.637 420.312L487.67 418.181Z" fill="black"/>
<path d="M496.949 415.146L497.772 414.567L493.109 407.862L492.286 408.44L492.403 416.328L492.329 416.38L488.606 411.026L487.783 411.604L492.447 418.31L493.27 417.732L493.165 409.863L493.239 409.811L496.949 415.146Z" fill="black"/>
<path d="M502.879 411.103C504.228 410.154 504.401 408.622 503.322 407.069C502.239 405.513 500.751 405.154 499.401 406.103C498.18 406.961 497.925 408.295 498.687 409.697L497.859 410.279L496.473 408.285L495.668 408.851L499.03 413.684L499.834 413.118L498.321 410.943L499.13 410.375C500.198 411.721 501.603 412 502.879 411.103ZM502.381 410.387C501.512 410.998 500.569 410.692 499.781 409.558C498.989 408.42 499.03 407.429 499.899 406.818C500.768 406.208 501.707 406.509 502.499 407.648C503.287 408.782 503.25 409.777 502.381 410.387Z" fill="black"/>
<path d="M509.056 406.637L509.861 406.071L506.5 401.238L505.695 401.803L507.082 403.797L504.729 405.451L503.342 403.457L502.538 404.023L505.899 408.856L506.704 408.29L505.191 406.115L507.544 404.462L509.056 406.637Z" fill="black"/>
<path d="M510.859 401.46C511.479 401.025 512.154 401.125 512.568 401.72C512.978 402.31 512.847 402.983 512.223 403.421L511.336 404.045L509.972 402.084L510.859 401.46ZM510.993 405.275L512.699 404.076C513.799 403.303 514.064 402.169 513.363 401.161C512.661 400.152 511.511 400.013 510.411 400.786L509.51 401.42L508.437 399.877L507.632 400.442L510.993 405.275Z" fill="black"/>
<path d="M573.751 321.868H593.325V388.148H573.751V321.868Z" fill="#F5B65A"/>
<path d="M596.415 288.728H615.989V389.183H596.415V288.728Z" fill="#81AE7C"/>
<path d="M596.415 284.586H615.989V288.728H596.415V284.586Z" fill="#434A50"/>
<path d="M573.751 254.552H593.325V332.224H573.751V254.552Z" fill="#E18565"/>
<path d="M548.347 436.745L549.17 436.167L544.506 429.461L543.683 430.04L543.801 437.927L543.727 437.979L540.003 432.626L539.18 433.204L543.844 439.91L544.667 439.332L544.562 431.462L544.636 431.41L548.347 436.745Z" fill="black"/>
<path d="M554.276 432.703C555.626 431.754 555.799 430.221 554.719 428.669C553.636 427.112 552.148 426.754 550.798 427.702C549.578 428.56 549.322 429.895 550.084 431.297L549.257 431.879L547.87 429.885L547.066 430.45L550.427 435.283L551.231 434.718L549.719 432.543L550.528 431.975C551.595 433.321 553 433.599 554.276 432.703ZM553.778 431.987C552.909 432.598 551.967 432.292 551.178 431.158C550.386 430.019 550.427 429.029 551.296 428.418C552.165 427.807 553.104 428.109 553.896 429.247C554.685 430.381 554.647 431.376 553.778 431.987Z" fill="black"/>
<path d="M560.454 428.236L561.258 427.671L557.897 422.838L557.093 423.403L558.479 425.397L556.126 427.05L554.74 425.057L553.935 425.622L557.296 430.455L558.101 429.89L556.588 427.715L558.941 426.061L560.454 428.236Z" fill="black"/>
<path d="M562.257 423.06C562.876 422.625 563.551 422.724 563.965 423.319C564.375 423.909 564.245 424.582 563.621 425.021L562.733 425.645L561.369 423.684L562.257 423.06ZM562.391 426.875L564.097 425.676C565.197 424.903 565.461 423.769 564.76 422.76C564.059 421.752 562.909 421.612 561.808 422.386L560.907 423.019L559.834 421.476L559.03 422.042L562.391 426.875Z" fill="black"/>
<path d="M570.077 417.986L569.553 417.233L566.521 419.364L567.044 420.117L570.077 417.986Z" fill="black"/>
<path d="M579.356 414.951L580.179 414.372L575.515 407.667L574.693 408.245L574.81 416.133L574.736 416.185L571.013 410.831L570.19 411.409L574.854 418.115L575.677 417.537L575.572 409.668L575.646 409.616L579.356 414.951Z" fill="black"/>
<path d="M585.286 410.908C586.635 409.959 586.808 408.427 585.729 406.874C584.646 405.318 583.158 404.959 581.808 405.908C580.587 406.766 580.332 408.1 581.094 409.502L580.266 410.084L578.88 408.09L578.075 408.656L581.437 413.489L582.241 412.923L580.728 410.748L581.537 410.18C582.605 411.526 584.01 411.805 585.286 410.908ZM584.788 410.192C583.919 410.803 582.976 410.497 582.188 409.363C581.396 408.225 581.437 407.234 582.306 406.623C583.175 406.013 584.114 406.314 584.906 407.453C585.694 408.587 585.657 409.582 584.788 410.192Z" fill="black"/>
<path d="M587.932 405.748L586.664 403.608L588.282 402.471L591.181 406.64L591.986 406.074L588.625 401.241L585.476 403.454L587.156 406.265C587.714 407.195 587.924 407.884 587.448 408.219C587.333 408.3 587.229 408.339 587.177 408.354L587.685 409.083C587.756 409.068 587.868 409.031 588.007 408.933C589.019 408.222 588.763 407.15 587.932 405.748Z" fill="black"/>
<path d="M592.989 401.46C593.608 401.025 594.283 401.125 594.697 401.72C595.108 402.31 594.977 402.983 594.353 403.421L593.465 404.045L592.101 402.084L592.989 401.46ZM593.123 405.275L594.829 404.076C595.929 403.303 596.194 402.169 595.492 401.161C594.791 400.152 593.641 400.013 592.541 400.786L591.639 401.42L590.566 399.877L589.762 400.442L593.123 405.275Z" fill="black"/>
<path d="M649.986 316.69H669.559V388.148H649.986V316.69Z" fill="#F5B65A"/>
<path d="M673 0H692V388.036H673V0Z" fill="#81AE7C"/>
<path d="M673 383.009H692V388.035H673V383.009Z" fill="#434A50"/>
<path d="M649.986 299.084H669.559V316.69H649.986V299.084Z" fill="#E18565"/>
<path d="M631.249 432.145L632.072 431.566L627.408 424.861L626.586 425.439L626.703 433.327L626.629 433.379L622.906 428.025L622.083 428.604L626.747 435.309L627.57 434.731L627.465 426.862L627.539 426.81L631.249 432.145Z" fill="black"/>
<path d="M637.178 428.102C638.528 427.153 638.701 425.621 637.622 424.068C636.539 422.512 635.051 422.153 633.701 423.102C632.48 423.96 632.225 425.294 632.987 426.696L632.159 427.278L630.773 425.284L629.968 425.85L633.33 430.683L634.134 430.117L632.621 427.943L633.43 427.374C634.498 428.72 635.903 428.999 637.178 428.102ZM636.681 427.386C635.812 427.997 634.869 427.691 634.081 426.557C633.289 425.419 633.329 424.428 634.199 423.817C635.068 423.207 636.007 423.508 636.799 424.647C637.587 425.781 637.55 426.776 636.681 427.386Z" fill="black"/>
<path d="M639.825 422.942L638.557 420.802L640.175 419.665L643.074 423.834L643.879 423.268L640.518 418.435L637.369 420.648L639.049 423.459C639.607 424.389 639.817 425.078 639.341 425.413C639.226 425.494 639.122 425.533 639.07 425.548L639.578 426.277C639.649 426.262 639.761 426.225 639.9 426.127C640.912 425.416 640.656 424.344 639.825 422.942Z" fill="black"/>
<path d="M644.882 418.654C645.501 418.219 646.176 418.319 646.59 418.914C647.001 419.504 646.87 420.177 646.246 420.615L645.358 421.239L643.994 419.278L644.882 418.654ZM645.016 422.469L646.722 421.27C647.822 420.497 648.087 419.363 647.385 418.355C646.684 417.346 645.534 417.207 644.434 417.98L643.532 418.614L642.459 417.071L641.655 417.636L645.016 422.469Z" fill="black"/>
<path d="M652.702 413.58L652.178 412.827L649.146 414.959L649.669 415.711L652.702 413.58Z" fill="black"/>
<path d="M661.815 410.662L662.689 410.048L655.566 405.071L654.743 405.649L656.947 414.083L657.821 413.469L657.157 411.079L659.81 409.214L661.815 410.662ZM655.848 406.387L655.876 406.368L659.071 408.675L656.907 410.196L655.848 406.387Z" fill="black"/>
<path d="M665.486 408.082C666.507 407.364 666.764 406.388 666.17 405.533C665.759 404.943 665.061 404.79 664.397 405.132L664.371 405.095C664.751 404.69 664.777 403.986 664.431 403.489C663.892 402.713 663.012 402.625 662.111 403.259L660.053 404.705L663.415 409.538L665.486 408.082ZM661.313 404.795L662.446 403.999C662.95 403.645 663.391 403.695 663.695 404.131C664.021 404.601 663.888 405.033 663.283 405.459L662.27 406.17L661.313 404.795ZM662.723 406.821L663.8 406.064C664.502 405.57 665.008 405.575 665.357 406.076C665.696 406.564 665.566 407.05 664.984 407.46L663.763 408.317L662.723 406.821Z" fill="black"/>
<path d="M668.249 399.934L667.787 399.269L664.695 401.443L668.056 406.276L668.86 405.711L665.961 401.542L668.249 399.934Z" fill="black"/>
<path d="M672.138 403.476C672.434 403.268 672.503 402.873 672.296 402.576C672.09 402.279 671.697 402.209 671.401 402.417C671.105 402.625 671.036 403.019 671.242 403.317C671.449 403.614 671.842 403.684 672.138 403.476Z" fill="black"/>
</svg>
