<svg width="371" height="257" viewBox="0 0 371 257" fill="none" xmlns="http://www.w3.org/2000/svg">
<path d="M254.177 8.87144C220.286 -10.4979 190.27 5.44808 175.255 22.428C160.24 39.4078 149.053 56.5589 130.204 59.7084C111.355 62.8579 82.7559 54.8677 61.4488 69.8758C40.1418 84.8838 40.224 124.745 57.0943 147.346C73.9647 169.948 117.613 180.752 167.97 188.016C186.039 190.753 204.479 189.73 222.135 185.01L245.01 176.705C256.183 171.604 265.55 165.86 273.478 161.197C285.542 154.077 289.794 136.72 292.101 124.006C295.451 104.953 295.16 85.4382 291.245 66.4935C286.193 42.6258 274.67 20.5725 254.177 8.87144Z" fill="#407BFF"/>
<path opacity="0.8" d="M244.267 19.8714C210.376 0.502053 180.36 16.4481 165.345 33.428C150.33 50.4078 139.143 67.5589 120.294 70.7084C101.444 73.8579 72.8457 65.8677 51.5387 80.8758C30.2317 95.8838 30.3138 135.745 47.1842 158.346C64.0545 180.948 107.702 191.752 158.06 199.016C176.129 201.753 194.569 200.73 212.225 196.01L235.099 187.705C246.273 182.604 255.64 176.86 263.568 172.197C275.632 165.077 279.884 147.72 282.191 135.006C285.541 115.953 285.25 96.4382 281.335 77.4935C276.282 53.6258 264.759 31.5725 244.267 19.8714Z" fill="white"/>
<path opacity="0.8" d="M305.987 32.5953C305.22 19.9426 296.579 15.7935 291.102 21.8186C289.8 23.2883 288.929 25.0879 288.582 27.0202C288.235 28.9525 288.427 30.9429 289.137 32.7734C291.061 37.97 294.368 47.1926 296.34 54.409C299.243 65.0625 298.27 73.2923 301.66 68.9378C305.049 64.5832 306.952 48.5756 305.987 32.5953Z" fill="#407BFF"/>
<path opacity="0.8" d="M305.987 32.5953C305.22 19.9426 296.579 15.7935 291.102 21.8186C289.8 23.2883 288.929 25.0879 288.582 27.0202C288.235 28.9525 288.427 30.9429 289.137 32.7734C291.061 37.97 294.368 47.1926 296.34 54.409C299.243 65.0625 298.27 73.2923 301.66 68.9378C305.049 64.5832 306.952 48.5756 305.987 32.5953Z" fill="white"/>
<path d="M159.768 30.6577C165.088 29.6923 171.866 17.1012 180.582 11.7745C189.298 6.4477 181.554 2.57245 173.338 6.4477C173.338 6.4477 167.039 7.89921 162.199 17.5873C157.358 27.2754 154.441 31.6231 159.768 30.6577Z" fill="#407BFF"/>
<path opacity="0.8" d="M159.768 30.6577C165.088 29.6923 171.866 17.1012 180.582 11.7745C189.298 6.4477 181.554 2.57245 173.338 6.4477C173.338 6.4477 167.039 7.89921 162.199 17.5873C157.358 27.2754 154.441 31.6231 159.768 30.6577Z" fill="white"/>
<path d="M151.052 23.8795C155.372 22.1472 160.083 10.3846 155.16 10.9871C154.538 11.0773 153.95 11.3263 153.452 11.71C152.954 12.0938 152.564 12.5994 152.319 13.178C150.744 16.6767 147.163 25.4337 151.052 23.8795Z" fill="#407BFF"/>
<path opacity="0.8" d="M151.052 23.8795C155.372 22.1472 160.083 10.3846 155.16 10.9871C154.538 11.0773 153.95 11.3263 153.452 11.71C152.954 12.0938 152.564 12.5994 152.319 13.178C150.744 16.6767 147.163 25.4337 151.052 23.8795Z" fill="white"/>
<path d="M177.432 242.865C253.936 242.865 315.955 240.56 315.955 237.716C315.955 234.873 253.936 232.568 177.432 232.568C100.928 232.568 38.9092 234.873 38.9092 237.716C38.9092 240.56 100.928 242.865 177.432 242.865Z" fill="#407BFF"/>
<path opacity="0.8" d="M177.432 242.865C253.936 242.865 315.955 240.56 315.955 237.716C315.955 234.873 253.936 232.568 177.432 232.568C100.928 232.568 38.9092 234.873 38.9092 237.716C38.9092 240.56 100.928 242.865 177.432 242.865Z" fill="white"/>
<path d="M244.01 44.18C243.738 44.18 243.476 44.2882 243.284 44.4808C243.091 44.6734 242.983 44.9347 242.983 45.207V50.4722H224.216V45.207C224.216 44.9347 224.108 44.6734 223.915 44.4808C223.723 44.2882 223.461 44.18 223.189 44.18C222.917 44.18 222.656 44.2882 222.463 44.4808C222.27 44.6734 222.162 44.9347 222.162 45.207V177.828C222.162 178.1 222.27 178.362 222.463 178.554C222.656 178.747 222.917 178.855 223.189 178.855C223.461 178.855 223.723 178.747 223.915 178.554C224.108 178.362 224.216 178.1 224.216 177.828V148.161H242.983V177.828C242.983 178.1 243.091 178.362 243.284 178.554C243.476 178.747 243.738 178.855 244.01 178.855C244.282 178.855 244.544 178.747 244.736 178.554C244.929 178.362 245.037 178.1 245.037 177.828V45.1865C245.032 44.9177 244.921 44.6617 244.729 44.4735C244.537 44.2853 244.279 44.18 244.01 44.18ZM242.983 146.128H224.216V139.473H242.983V146.128ZM242.983 137.412H224.216V130.764H242.983V137.412ZM242.983 128.703H224.216V122.075H242.983V128.703ZM242.983 120.001H224.216V113.4H242.983V120.001ZM242.983 111.305H224.216V104.78H242.983V111.305ZM242.983 102.637H224.216V96.0714H242.983V102.637ZM242.983 94.0105H224.216V87.3829H242.983V94.0105ZM242.983 85.3015H224.216V78.6738H242.983V85.3015ZM242.983 76.613H224.216V69.9648H242.983V76.613ZM242.983 67.9039H224.216V61.2421H242.983V67.9039ZM242.983 59.188H224.216V52.5262H242.983V59.188Z" fill="white"/>
<path d="M66.2415 151.099C66.2415 151.099 81.6124 130.059 74.1153 125.081C66.3169 119.939 62.6539 135.515 61.0038 143.163C57.4846 159.486 58.4774 162.95 60.8395 159.363L66.2415 151.099Z" fill="#407BFF"/>
<path opacity="0.5" d="M66.2415 151.099C66.2415 151.099 81.6124 130.059 74.1153 125.081C66.3169 119.939 62.6539 135.515 61.0038 143.163C57.4846 159.486 58.4774 162.95 60.8395 159.363L66.2415 151.099Z" fill="white"/>
<path d="M72.0064 164.039C72.0064 164.039 93.375 149.127 87.8908 142.02C82.1875 134.618 73.6633 148.182 69.6169 154.864C60.9832 169.16 60.8052 172.762 64.2011 170.132L72.0064 164.039Z" fill="#407BFF"/>
<path opacity="0.5" d="M72.0064 164.039C72.0064 164.039 93.375 149.127 87.8908 142.02C82.1875 134.618 73.6633 148.182 69.6169 154.864C60.9832 169.16 60.8052 172.762 64.2011 170.132L72.0064 164.039Z" fill="white"/>
<path d="M72.4721 181.334C72.4721 181.334 90.9583 173.029 87.8019 166.798C84.5155 160.314 76.0324 169.434 71.9723 173.967C63.2975 183.648 62.6402 186.373 65.6185 184.86L72.4721 181.334Z" fill="#407BFF"/>
<path opacity="0.5" d="M72.4721 181.334C72.4721 181.334 90.9583 173.029 87.8019 166.798C84.5155 160.314 76.0324 169.434 71.9723 173.967C63.2975 183.648 62.6402 186.373 65.6185 184.86L72.4721 181.334Z" fill="white"/>
<path d="M73.5674 198.704C73.5674 198.704 92.0536 190.399 88.9041 184.168C85.6108 177.691 77.1346 186.804 73.0676 191.344C64.3997 201.025 63.7355 203.75 66.7207 202.23L73.5674 198.704Z" fill="#407BFF"/>
<path opacity="0.5" d="M73.5674 198.704C73.5674 198.704 92.0536 190.399 88.9041 184.168C85.6108 177.691 77.1346 186.804 73.0676 191.344C64.3997 201.025 63.7355 203.75 66.7207 202.23L73.5674 198.704Z" fill="white"/>
<path d="M51.884 159.89C51.884 159.89 31.5629 143.574 26.2841 150.831C20.8067 158.363 36.1844 162.765 43.7501 164.765C59.8946 169.03 63.4002 168.188 59.922 165.668L51.884 159.89Z" fill="#407BFF"/>
<path opacity="0.5" d="M51.884 159.89C51.884 159.89 31.5629 143.574 26.2841 150.831C20.8067 158.363 36.1844 162.765 43.7501 164.765C59.8946 169.03 63.4002 168.188 59.922 165.668L51.884 159.89Z" fill="white"/>
<path d="M52.4864 173.522C52.4864 173.522 29.3307 161.567 25.5993 169.735C21.7172 178.232 37.67 179.464 45.4548 179.916C62.1265 180.889 65.3993 179.369 61.4898 177.588L52.4864 173.522Z" fill="#407BFF"/>
<path opacity="0.5" d="M52.4864 173.522C52.4864 173.522 29.3307 161.567 25.5993 169.735C21.7172 178.232 37.67 179.464 45.4548 179.916C62.1265 180.889 65.3993 179.369 61.4898 177.588L52.4864 173.522Z" fill="white"/>
<path d="M55.2865 188.803C55.2865 188.803 35.431 179.218 32.4664 186.222C29.3785 193.5 42.894 194.171 49.5148 194.37C63.6327 194.808 66.3646 193.439 63.0165 192.069L55.2865 188.803Z" fill="#407BFF"/>
<path opacity="0.5" d="M55.2865 188.803C55.2865 188.803 35.431 179.218 32.4664 186.222C29.3785 193.5 42.894 194.171 49.5148 194.37C63.6327 194.808 66.3646 193.439 63.0165 192.069L55.2865 188.803Z" fill="white"/>
<path d="M56.2589 201.148C56.2589 201.148 37.5263 189.509 33.8359 196.157C29.9949 203.065 43.3665 205.167 49.9257 206.071C63.9204 208.002 66.7755 206.94 63.6191 205.181L56.2589 201.148Z" fill="#407BFF"/>
<path opacity="0.5" d="M56.2589 201.148C56.2589 201.148 37.5263 189.509 33.8359 196.157C29.9949 203.065 43.3665 205.167 49.9257 206.071C63.9204 208.002 66.7755 206.94 63.6191 205.181L56.2589 201.148Z" fill="white"/>
<path d="M54.4855 139.219C54.4855 139.219 50.9663 108.663 39.4227 111.785C27.4341 115.044 37.4714 130.504 42.5654 137.98C53.3901 153.892 57.3749 155.645 56.519 150.674L54.4855 139.219Z" fill="#407BFF"/>
<path opacity="0.5" d="M54.4855 139.219C54.4855 139.219 50.9663 108.663 39.4227 111.785C27.4341 115.044 37.4714 130.504 42.5654 137.98C53.3901 153.892 57.3749 155.645 56.519 150.674L54.4855 139.219Z" fill="white"/>
<path d="M41.7849 122.917C41.7849 122.917 59.3536 155.836 62.0786 171.118C65.2144 188.673 65.7211 208.282 63.5575 223.646" stroke="#407BFF" stroke-width="1.25197" stroke-linecap="round" stroke-linejoin="round"/>
<path d="M59.3057 160.951L67.912 134.591" stroke="#407BFF" stroke-width="1.25197" stroke-linecap="round" stroke-linejoin="round"/>
<path d="M62.0786 171.118L78.278 150.749" stroke="#407BFF" stroke-width="1.25197" stroke-linecap="round" stroke-linejoin="round"/>
<path d="M61.0448 167.414L37.5879 157.562" stroke="#407BFF" stroke-width="1.25197" stroke-linecap="round" stroke-linejoin="round"/>
<path d="M64.1121 184.914L81.7492 171.399" stroke="#407BFF" stroke-width="1.25197" stroke-linecap="round" stroke-linejoin="round"/>
<path d="M63.1741 179.115L44.7495 175.281" stroke="#407BFF" stroke-width="1.25197" stroke-linecap="round" stroke-linejoin="round"/>
<path d="M64.0574 193.226L49.7888 190.967" stroke="#407BFF" stroke-width="1.25197" stroke-linecap="round" stroke-linejoin="round"/>
<path d="M65.2625 202.36L74.8616 193.76" stroke="#407BFF" stroke-width="1.25197" stroke-linecap="round" stroke-linejoin="round"/>
<path d="M65.0705 206.228L48.6726 202.107" stroke="#407BFF" stroke-width="1.25197" stroke-linecap="round" stroke-linejoin="round"/>
<path d="M52.9246 211.247H72.3076V215.259H70.6165L67.1178 237.148H58.1144L54.6157 215.259H52.9246V211.247Z" fill="#407BFF"/>
<path opacity="0.5" d="M52.9246 211.247H72.3076V215.259H70.6165L67.1178 237.148H58.1144L54.6157 215.259H52.9246V211.247Z" fill="white"/>
<path d="M84.8437 4.55117C84.0032 3.80028 82.9771 3.28806 81.8719 3.06773C80.7666 2.8474 79.6225 2.92699 78.5584 3.29822C74.7927 4.55117 71.1845 9.99432 72.0951 14.6022C72.7318 17.7927 75.6896 22.4964 76.5865 24.2903C77.4834 26.0841 76.2236 29.1172 73.3754 35.4162C70.5272 41.7152 69.4248 47.6239 77.682 52.8274C85.9392 58.0309 95.2849 49.7738 100.078 43.8514C104.87 37.929 96.4831 24.2903 95.7642 18.5185C95.0453 12.7467 93.8129 1.68239 84.8437 4.55117Z" fill="#263238"/>
<path d="M104.254 44.2485C102.2 46.3041 99.7173 47.8816 96.9836 48.8685C94.2499 49.8555 91.3323 50.2277 88.4384 49.9587L86.4597 58.209L90.2254 77.0443L114.812 64.3025L109.246 49.9244L104.254 44.2485Z" fill="#407BFF" stroke="#263238" stroke-linecap="round" stroke-linejoin="round"/>
<path opacity="0.3" d="M104.254 44.2485C102.2 46.3041 99.7173 47.8816 96.9836 48.8685C94.2499 49.8555 91.3323 50.2277 88.4384 49.9587L86.4597 58.209L90.2254 77.0443L114.812 64.3025L109.246 49.9244L104.254 44.2485Z" fill="#263238"/>
<path d="M104.254 44.2485L100.488 19.299L89.3283 21.5858L83.7619 25.1735C83.7619 25.1735 77.1206 30.3839 77.1206 30.9179C77.1206 31.452 88.3561 50.2531 88.3561 50.2531C91.2792 50.426 94.206 49.9807 96.9454 48.946C99.6848 47.9114 102.175 46.3107 104.254 44.2485Z" fill="white"/>
<path d="M104.254 44.2485L100.488 19.299L89.3283 21.5858L83.7619 25.1735C83.7619 25.1735 77.1206 30.3839 77.1206 30.9179C77.1206 31.452 88.3561 50.2531 88.3561 50.2531C91.2792 50.426 94.206 49.9807 96.9454 48.946C99.6848 47.9114 102.175 46.3107 104.254 44.2485Z" stroke="#263238" stroke-linecap="round" stroke-linejoin="round"/>
<path opacity="0.5" d="M89.2805 43.1804C89.2805 43.1804 97.1473 37.347 96.4216 39.0723C95.6958 40.7977 90.2595 45.1043 88.8012 45.2344C87.3428 45.3645 89.2805 43.1804 89.2805 43.1804Z" fill="#407BFF"/>
<path d="M89.5203 32.1024L89.8284 32.4242L91.7454 34.4508L92.2384 42.2355L94.5868 41.8658L92.7314 34.5741L95.7029 40.7498L98.1745 38.2781L92.8615 33.458L92.7314 29.6307L90.0132 28.2682" fill="#263238"/>
<path d="M85.1997 22.8593C85.1997 22.8593 82.865 23.9342 82.865 26.0841C82.865 28.234 85.3914 33.3485 86.973 34.4234C88.5546 35.4984 91.2659 30.5756 91.2659 30.5756C91.2659 30.5756 95.374 32.5474 96.4694 30.7536C97.5649 28.9597 93.9567 23.0373 91.6288 21.4215C89.3009 19.8057 85.1997 22.8593 85.1997 22.8593Z" fill="white" stroke="#263238" stroke-linecap="round" stroke-linejoin="round"/>
<path d="M83.228 20.7026C83.87 22.3428 84.4096 24.0212 84.8439 25.7281C85.1999 27.5219 90.0474 30.5756 90.5814 30.7536C91.1155 30.9316 91.4783 25.0092 91.4783 25.0092L90.0474 18.0118L83.228 20.7026Z" fill="white"/>
<g style="mix-blend-mode:multiply" opacity="0.5">
<path d="M90.198 18.7581C89.8969 18.6737 89.5903 18.6096 89.2805 18.5664L84.3304 20.3123L83.6799 22.0103C84.0086 22.9278 84.4262 24.1602 84.6795 25.1598C85.4911 25.8141 86.4716 26.2248 87.5072 26.3443C88.993 26.447 90.3007 25.2968 91.225 23.8863L90.198 18.7581Z" fill="#407BFF"/>
</g>
<path d="M83.228 20.7026C83.87 22.3428 84.4096 24.0212 84.8439 25.7281C85.1999 27.5219 90.0474 30.5756 90.5814 30.7536C91.1155 30.9316 91.4783 25.0092 91.4783 25.0092L90.0474 18.0118L83.228 20.7026Z" stroke="#263238" stroke-linecap="round" stroke-linejoin="round"/>
<path d="M79.9963 17.649C79.9963 17.649 78.0176 16.04 78.0176 17.649C78.0176 19.2579 79.8183 20.1617 81.2492 20.1617" fill="white"/>
<path d="M79.9963 17.649C79.9963 17.649 78.0176 16.04 78.0176 17.649C78.0176 19.2579 79.8183 20.1617 81.2492 20.1617" stroke="#263238" stroke-linecap="round" stroke-linejoin="round"/>
<path d="M90.5813 12.4454C90.5813 12.4454 91.8411 10.4736 92.1971 12.6303C92.3611 14.0343 91.976 15.4474 91.1222 16.574L90.5813 12.4454Z" fill="white" stroke="#263238" stroke-linecap="round" stroke-linejoin="round"/>
<g opacity="0.5">
<path d="M79.9963 17.649C79.9963 17.649 78.0176 16.04 78.0176 17.649C78.0176 19.2579 79.8183 20.1617 81.2492 20.1617" fill="#407BFF"/>
<path d="M79.9963 17.649C79.9963 17.649 78.0176 16.04 78.0176 17.649C78.0176 19.2579 79.8183 20.1617 81.2492 20.1617" stroke="#263238" stroke-linecap="round" stroke-linejoin="round"/>
</g>
<path opacity="0.5" d="M90.5813 12.4454C90.5813 12.4454 91.8411 10.4736 92.1971 12.6303C92.3611 14.0343 91.976 15.4474 91.1222 16.574L90.5813 12.4454Z" fill="#407BFF" stroke="#263238" stroke-linecap="round" stroke-linejoin="round"/>
<path d="M77.7712 12.4591C77.7712 12.4591 79.3118 18.8745 82.6187 22.0445C85.9257 25.2146 89.4654 25.242 90.691 19.5934C91.6975 14.9376 89.1984 8.72766 89.1984 8.72766C89.1984 8.72766 81.133 2.08633 77.7712 12.4591Z" fill="white"/>
<g style="mix-blend-mode:multiply" opacity="0.5">
<path d="M83.5156 6.63941L84.7686 9.7889C84.7686 9.7889 86.7404 9.35071 87.8496 11.7334C88.9588 14.116 90.0748 17.6079 89.438 20.3123C88.8287 22.8867 87.384 23.7357 85.1588 23.7973C87.5826 24.8312 89.7804 23.7973 90.691 19.5797C91.6975 14.9239 89.1984 8.71396 89.1984 8.71396C89.1984 8.71396 86.4666 6.47508 83.5156 6.63941Z" fill="#407BFF"/>
</g>
<path d="M77.7712 12.4591C77.7712 12.4591 79.3118 18.8745 82.6187 22.0445C85.9257 25.2146 89.4654 25.242 90.691 19.5934C91.6975 14.9376 89.1984 8.72766 89.1984 8.72766C89.1984 8.72766 81.133 2.08633 77.7712 12.4591Z" stroke="#263238" stroke-linecap="round" stroke-linejoin="round"/>
<path d="M83.8919 15.8483C84.0836 16.2111 84.0494 16.6014 83.8166 16.7247C83.5838 16.8479 83.2415 16.6493 83.0566 16.2865C82.8718 15.9236 82.8992 15.5402 83.1319 15.4169C83.3647 15.2937 83.7071 15.4922 83.8919 15.8483Z" fill="#263238"/>
<path d="M87.4661 14.7391C87.603 15.1225 87.514 15.5059 87.2675 15.5881C87.0211 15.6702 86.7061 15.4375 86.5829 15.054C86.4596 14.6706 86.535 14.2872 86.7814 14.205C87.0279 14.1229 87.3292 14.3694 87.4661 14.7391Z" fill="#263238"/>
<path d="M87.7127 12.6851C87.433 12.4971 87.0994 12.4061 86.7631 12.4259C86.4267 12.4457 86.1061 12.5752 85.8504 12.7946C84.8645 13.5615 86.7268 17.4025 86.7268 17.4025C86.7268 17.4025 86.761 18.6143 85.2068 18.0529" stroke="#263238" stroke-width="0.5" stroke-linecap="round" stroke-linejoin="round"/>
<path d="M87.7126 19.299C87.6059 19.5512 87.4422 19.7751 87.2342 19.9531C87.0262 20.1311 86.7796 20.2583 86.5141 20.3247C86.2485 20.3911 85.9711 20.3948 85.7038 20.3357C85.4365 20.2765 85.1866 20.156 84.9739 19.9837" stroke="#263238" stroke-width="0.5" stroke-linecap="round" stroke-linejoin="round"/>
<path d="M83.543 13.7052C83.543 13.7052 81.7903 12.0552 81.0234 15.2389" stroke="#263238" stroke-width="0.5" stroke-linecap="round" stroke-linejoin="round"/>
<path d="M89.301 6.69418C87.3771 5.02358 85.8229 5.04412 85.1451 5.26322C84.5106 4.86731 83.7891 4.63228 83.0431 4.57854C77.6616 3.85964 76.9427 8.00191 76.9427 11.9388C76.9427 15.8756 73.5193 20.552 75.8678 21.0928C76.5105 21.247 77.1869 21.1695 77.7781 20.874C78.3693 20.5784 78.8372 20.0837 79.0994 19.477C79.0994 19.477 81.6122 15.369 81.6122 12.4728C81.6122 9.57665 84.7411 9.85052 84.7411 9.85052C84.8762 9.65109 85.0528 9.48323 85.2589 9.35846C85.4649 9.23368 85.6955 9.15493 85.9348 9.12762C86.1741 9.10031 86.4165 9.12507 86.6454 9.20021C86.8743 9.27536 87.0842 9.3991 87.2607 9.56296C88.6848 10.7817 88.8492 12.2126 89.9994 12.5824C91.1497 12.9521 93.0736 11.1035 93.0736 11.1035C91.9776 9.50285 90.7128 8.02461 89.301 6.69418Z" fill="#263238"/>
<path d="M84.8917 7.76914C84.8917 7.76914 82.7281 6.03007 80.7836 7.98138C78.8392 9.9327 79.0514 13.6231 78.401 16.0126C77.7505 18.4021 76.0115 18.8334 76.0115 18.8334" stroke="white" stroke-width="0.5" stroke-linecap="round" stroke-linejoin="round"/>
<path d="M83.3786 7.1187C83.3786 7.1187 81.0439 4.8045 78.1067 7.7349C75.8678 9.98062 76.8674 11.4527 76.4292 15.1431" stroke="white" stroke-width="0.5" stroke-linecap="round" stroke-linejoin="round"/>
<path d="M85.9802 6.68051C85.9802 6.68051 90.0883 4.72919 91.841 9.72045" stroke="white" stroke-width="0.5" stroke-linecap="round" stroke-linejoin="round"/>
<path d="M77.1206 30.9316L70.9106 55.9221L89.1229 61.0846L90.0199 57.8529L78.0586 52.3345L82.1187 37.9563C82.1187 37.9563 81.5847 35.2656 78.6954 32.2188" fill="white"/>
<g style="mix-blend-mode:multiply" opacity="0.5">
<path d="M90.0472 57.8735L78.086 52.355L82.1461 37.9769C81.8281 36.7833 81.312 35.6516 80.6193 34.6288L80.229 34.3344V38.3055C80.229 40.8457 77.0522 48.9453 75.9361 50.8487C74.8201 52.7521 73.0811 55.1348 73.0811 55.1348L76.5729 53.5463L89.8076 58.8457L90.0472 57.8735Z" fill="#407BFF"/>
</g>
<path d="M77.1206 30.9316L70.9106 55.9221L89.1229 61.0846L90.0199 57.8529L78.0586 52.3345L82.1187 37.9563C82.1187 37.9563 81.5847 35.2656 78.6954 32.2188" stroke="#263238" stroke-linecap="round" stroke-linejoin="round"/>
<path d="M128.327 38.4356L114.538 35.5394L100.454 19.2648L102.536 32.3557L111.176 40.5855L128.54 41.3797L128.327 38.4356Z" fill="white"/>
<g style="mix-blend-mode:multiply" opacity="0.5">
<path d="M100.454 19.2648L102.132 29.7129L103.2 32.9788L103.337 33.102C103.741 32.6844 106.021 30.3154 106.603 30.3154C107.185 30.3154 113.751 36.0324 112.799 36.4774L111.84 36.9499L128.197 39.6475L128.314 38.3945L114.552 35.5052L100.454 19.2648Z" fill="#407BFF"/>
</g>
<path d="M128.327 38.4356L114.538 35.5394L100.454 19.2648L102.536 32.3557L111.176 40.5855L128.54 41.3797L128.327 38.4356Z" stroke="#263238" stroke-linecap="round" stroke-linejoin="round"/>
<path d="M257.053 177.007L81.4548 151.277C80.8966 151.194 80.394 150.893 80.0577 150.439C79.7213 149.986 79.5786 149.418 79.661 148.86L94.2856 49.096C94.3258 48.8198 94.4201 48.5543 94.563 48.3147C94.706 48.075 94.8948 47.8659 95.1186 47.6993C95.3425 47.5326 95.597 47.4118 95.8676 47.3437C96.1382 47.2755 96.4196 47.2614 96.6956 47.3021L100.023 47.7882C100.445 47.8515 100.875 47.786 101.259 47.6003C101.643 47.4146 101.961 47.1174 102.173 46.7475L106.589 39.1134C106.723 38.8737 106.905 38.664 107.123 38.4972C108.157 37.7497 109.442 37.4352 110.704 37.6208L154.968 44.1115C155.961 44.2541 156.886 44.6987 157.618 45.385C157.813 45.5805 157.967 45.8134 158.07 46.0697L162.007 55.8194C162.145 56.1643 162.371 56.4667 162.663 56.6963C162.955 56.9258 163.303 57.0744 163.67 57.1272L272.294 73.0527C272.852 73.134 273.355 73.4334 273.692 73.8852C274.03 74.3371 274.175 74.9044 274.094 75.4627L259.47 175.22C259.385 175.777 259.083 176.277 258.63 176.612C258.177 176.947 257.61 177.089 257.053 177.007Z" fill="#263238" stroke="#263238" stroke-miterlimit="10"/>
<path d="M258.922 176.52H84.8713C84.366 176.52 83.8656 176.421 83.3988 176.227C82.9319 176.034 82.5078 175.751 82.1505 175.393C81.7931 175.036 81.5097 174.612 81.3163 174.145C81.123 173.678 81.0234 173.178 81.0234 172.673V75.2847C81.0234 74.2642 81.4288 73.2855 82.1505 72.5638C82.8721 71.8422 83.8508 71.4368 84.8713 71.4368H85.3437C86.1141 71.4353 86.8664 71.2038 87.5044 70.772C88.1424 70.3402 88.6369 69.7277 88.9246 69.0131L91.5742 62.3512C91.8704 61.5823 92.4119 60.9326 93.1148 60.5026C93.8698 60.0568 94.7301 59.8204 95.607 59.8179H140.343C140.945 59.8173 141.541 59.9264 142.103 60.1397C142.884 60.4544 143.535 61.0238 143.952 61.7556L148.505 69.5129C148.844 70.0923 149.329 70.5729 149.912 70.9068C150.494 71.2407 151.154 71.4163 151.825 71.4163H258.922C259.942 71.4163 260.921 71.8217 261.643 72.5433C262.364 73.2649 262.77 74.2436 262.77 75.2641V172.673C262.77 173.178 262.67 173.678 262.477 174.145C262.284 174.612 262 175.036 261.643 175.393C261.285 175.751 260.861 176.034 260.394 176.227C259.928 176.421 259.427 176.52 258.922 176.52Z" fill="#407BFF"/>
<path opacity="0.1" d="M258.922 176.52H84.8713C84.366 176.52 83.8656 176.421 83.3988 176.227C82.9319 176.034 82.5078 175.751 82.1505 175.393C81.7931 175.036 81.5097 174.612 81.3163 174.145C81.123 173.678 81.0234 173.178 81.0234 172.673V75.2847C81.0234 74.2642 81.4288 73.2855 82.1505 72.5638C82.8721 71.8422 83.8508 71.4368 84.8713 71.4368H85.3437C86.1141 71.4353 86.8664 71.2038 87.5044 70.772C88.1424 70.3402 88.6369 69.7277 88.9246 69.0131L91.5742 62.3512C91.8704 61.5823 92.4119 60.9326 93.1148 60.5026C93.8698 60.0568 94.7301 59.8204 95.607 59.8179H140.343C140.945 59.8173 141.541 59.9264 142.103 60.1397C142.884 60.4544 143.535 61.0238 143.952 61.7556L148.505 69.5129C148.844 70.0923 149.329 70.5729 149.912 70.9068C150.494 71.2407 151.154 71.4163 151.825 71.4163H258.922C259.942 71.4163 260.921 71.8217 261.643 72.5433C262.364 73.2649 262.77 74.2436 262.77 75.2641V172.673C262.77 173.178 262.67 173.678 262.477 174.145C262.284 174.612 262 175.036 261.643 175.393C261.285 175.751 260.861 176.034 260.394 176.227C259.928 176.421 259.427 176.52 258.922 176.52Z" fill="#263238"/>
<path d="M258.922 176.52H84.8713C84.366 176.52 83.8656 176.421 83.3988 176.227C82.9319 176.034 82.5078 175.751 82.1505 175.393C81.7931 175.036 81.5097 174.612 81.3163 174.145C81.123 173.678 81.0234 173.178 81.0234 172.673V75.2847C81.0234 74.2642 81.4288 73.2855 82.1505 72.5638C82.8721 71.8422 83.8508 71.4368 84.8713 71.4368H85.3437C86.1141 71.4353 86.8664 71.2038 87.5044 70.772C88.1424 70.3402 88.6369 69.7277 88.9246 69.0131L91.5742 62.3512C91.8704 61.5823 92.4119 60.9326 93.1148 60.5026C93.8698 60.0568 94.7301 59.8204 95.607 59.8179H140.343C140.945 59.8173 141.541 59.9264 142.103 60.1397C142.884 60.4544 143.535 61.0238 143.952 61.7556L148.505 69.5129C148.844 70.0923 149.329 70.5729 149.912 70.9068C150.494 71.2407 151.154 71.4163 151.825 71.4163H258.922C259.942 71.4163 260.921 71.8217 261.643 72.5433C262.364 73.2649 262.77 74.2436 262.77 75.2641V172.673C262.77 173.178 262.67 173.678 262.477 174.145C262.284 174.612 262 175.036 261.643 175.393C261.285 175.751 260.861 176.034 260.394 176.227C259.928 176.421 259.427 176.52 258.922 176.52V176.52Z" stroke="#263238" stroke-miterlimit="10"/>
<path d="M130.203 71.1082H102.351C101.686 71.1082 101.049 70.8442 100.579 70.3742C100.109 69.9043 99.845 69.2669 99.845 68.6023C99.8441 68.2726 99.9082 67.946 100.034 67.6412C100.159 67.3364 100.344 67.0593 100.577 66.8259C100.809 66.5925 101.086 66.4073 101.39 66.2809C101.695 66.1546 102.021 66.0895 102.351 66.0895H130.203C130.87 66.0895 131.509 66.3543 131.98 66.8255C132.451 67.2967 132.716 67.9359 132.716 68.6023C132.716 68.9319 132.651 69.2584 132.525 69.5628C132.398 69.8673 132.213 70.1439 131.98 70.3767C131.746 70.6094 131.469 70.7939 131.164 70.9194C130.86 71.0449 130.533 71.1091 130.203 71.1082Z" fill="white"/>
<path d="M258.922 193.514H84.8713C83.8508 193.514 82.8721 193.109 82.1505 192.387C81.4288 191.665 81.0234 190.687 81.0234 189.666V92.2783C81.0234 91.2578 81.4288 90.279 82.1505 89.5574C82.8721 88.8358 83.8508 88.4304 84.8713 88.4304H85.3437C86.1143 88.4298 86.8671 88.1987 87.5052 87.7667C88.1433 87.3348 88.6377 86.7218 88.9246 86.0067L91.5742 79.3516C91.8686 78.5817 92.4105 77.9314 93.1148 77.503C93.8686 77.0544 94.7297 76.8179 95.607 76.8184H140.343C140.945 76.8177 141.541 76.9268 142.103 77.1402C142.886 77.4552 143.538 78.0275 143.952 78.7628L148.505 86.527C148.844 87.1064 149.329 87.587 149.912 87.9209C150.494 88.2548 151.154 88.4305 151.825 88.4304H258.922C259.942 88.4304 260.921 88.8358 261.643 89.5574C262.364 90.279 262.77 91.2578 262.77 92.2783V189.666C262.77 190.687 262.364 191.665 261.643 192.387C260.921 193.109 259.942 193.514 258.922 193.514Z" fill="#263238" stroke="#263238" stroke-miterlimit="10"/>
<path d="M143.548 51.0267L115.914 47.6034C115.254 47.5196 114.654 47.1781 114.245 46.6534C113.836 46.1288 113.651 45.4636 113.73 44.8031C113.814 44.1422 114.157 43.5416 114.683 43.1333C115.209 42.725 115.876 42.5425 116.537 42.6258L144.164 46.0492C144.825 46.1313 145.426 46.4723 145.835 46.9974C146.245 47.5224 146.429 48.1886 146.348 48.8495C146.307 49.1764 146.203 49.4922 146.04 49.7786C145.877 50.0651 145.659 50.3166 145.399 50.5188C145.139 50.7211 144.842 50.87 144.524 50.9572C144.206 51.0443 143.875 51.068 143.548 51.0267Z" fill="#407BFF"/>
<path opacity="0.5" d="M143.548 51.0267L115.914 47.6034C115.254 47.5196 114.654 47.1781 114.245 46.6534C113.836 46.1288 113.651 45.4636 113.73 44.8031C113.814 44.1422 114.157 43.5416 114.683 43.1333C115.209 42.725 115.876 42.5425 116.537 42.6258L144.164 46.0492C144.825 46.1313 145.426 46.4723 145.835 46.9974C146.245 47.5224 146.429 48.1886 146.348 48.8495C146.307 49.1764 146.203 49.4922 146.04 49.7786C145.877 50.0651 145.659 50.3166 145.399 50.5188C145.139 50.7211 144.842 50.87 144.524 50.9572C144.206 51.0443 143.875 51.068 143.548 51.0267Z" fill="white"/>
<path d="M130.203 88.1086H102.351C102.021 88.1086 101.695 88.0436 101.39 87.9172C101.086 87.7908 100.809 87.6056 100.577 87.3722C100.344 87.1388 100.159 86.8617 100.034 86.5569C99.9082 86.2521 99.8441 85.9255 99.845 85.5959C99.845 84.9306 100.109 84.2925 100.579 83.8215C101.048 83.3505 101.686 83.0849 102.351 83.0831H130.203C130.87 83.0831 131.509 83.3478 131.98 83.8191C132.451 84.2903 132.716 84.9294 132.716 85.5959C132.716 86.2623 132.451 86.9014 131.98 87.3726C131.509 87.8439 130.87 88.1086 130.203 88.1086Z" fill="#407BFF"/>
<path opacity="0.5" d="M130.203 88.1086H102.351C102.021 88.1086 101.695 88.0436 101.39 87.9172C101.086 87.7908 100.809 87.6056 100.577 87.3722C100.344 87.1388 100.159 86.8617 100.034 86.5569C99.9082 86.2521 99.8441 85.9255 99.845 85.5959C99.845 84.9306 100.109 84.2925 100.579 83.8215C101.048 83.3505 101.686 83.0849 102.351 83.0831H130.203C130.87 83.0831 131.509 83.3478 131.98 83.8191C132.451 84.2903 132.716 84.9294 132.716 85.5959C132.716 86.2623 132.451 86.9014 131.98 87.3726C131.509 87.8439 130.87 88.1086 130.203 88.1086Z" fill="white"/>
<path d="M264.612 117.721H79.1749C77.1821 117.721 75.5667 119.336 75.5667 121.329V233.54C75.5667 235.533 77.1821 237.148 79.1749 237.148H264.612C266.604 237.148 268.22 235.533 268.22 233.54V121.329C268.22 119.336 266.604 117.721 264.612 117.721Z" fill="white"/>
<g style="mix-blend-mode:multiply">
<path d="M268.22 149.866C246.865 169.825 222.602 186.423 196.261 199.094C157.337 217.71 112.847 230.541 86.9253 237.148H264.605C265.079 237.149 265.549 237.056 265.988 236.875C266.426 236.695 266.825 236.429 267.161 236.094C267.496 235.759 267.763 235.361 267.944 234.922C268.126 234.484 268.22 234.014 268.22 233.54V149.866Z" fill="#407BFF"/>
</g>
<path opacity="0.2" d="M268.22 149.866C246.865 169.825 222.602 186.423 196.261 199.094C157.337 217.71 112.847 230.541 86.9253 237.148H264.605C265.079 237.149 265.549 237.056 265.988 236.875C266.426 236.695 266.825 236.429 267.161 236.094C267.496 235.759 267.763 235.361 267.944 234.922C268.126 234.484 268.22 234.014 268.22 233.54V149.866Z" fill="white"/>
<path d="M264.612 117.721H79.1749C77.1821 117.721 75.5667 119.336 75.5667 121.329V233.54C75.5667 235.533 77.1821 237.148 79.1749 237.148H264.612C266.604 237.148 268.22 235.533 268.22 233.54V121.329C268.22 119.336 266.604 117.721 264.612 117.721Z" stroke="#263238" stroke-miterlimit="10"/>
<path d="M78.353 128.21V123.417C78.3548 122.46 78.7365 121.542 79.4143 120.865C80.092 120.189 81.0105 119.809 81.9681 119.809H89.8076" stroke="#263238" stroke-miterlimit="10"/>
<path d="M78.353 200.997V134.05" stroke="#263238" stroke-miterlimit="10"/>
<path d="M265.426 223.838V231.417C265.427 231.892 265.334 232.362 265.153 232.8C264.972 233.239 264.707 233.637 264.372 233.973C264.036 234.309 263.638 234.575 263.2 234.757C262.762 234.939 262.292 235.033 261.818 235.033H255.498" stroke="#263238" stroke-miterlimit="10"/>
<path d="M265.426 126.526V218.203" stroke="#263238" stroke-miterlimit="10"/>
<path d="M200.533 161.389H143.246C142.214 161.389 141.377 162.226 141.377 163.258V192.487C141.377 193.519 142.214 194.356 143.246 194.356H200.533C201.565 194.356 202.402 193.519 202.402 192.487V163.258C202.402 162.226 201.565 161.389 200.533 161.389Z" fill="#263238" stroke="#263238" stroke-miterlimit="10"/>
<path d="M200.533 161.389H143.246C142.214 161.389 141.377 162.226 141.377 163.258V169.544C141.377 170.576 142.214 171.413 143.246 171.413H200.533C201.565 171.413 202.402 170.576 202.402 169.544V163.258C202.402 162.226 201.565 161.389 200.533 161.389Z" fill="white" stroke="#263238" stroke-miterlimit="10"/>
<path d="M89.123 61.0846L90.376 63.4193L93.0394 65.3364C93.2068 65.4594 93.4074 65.5291 93.615 65.5364C93.8226 65.5438 94.0276 65.4884 94.2033 65.3775L94.4361 65.2269C94.6054 65.124 94.7315 64.9631 94.7907 64.774C94.8499 64.585 94.8383 64.3809 94.7579 64.1998L93.2448 60.7217L94.2649 61.5159C94.4269 61.6408 94.631 61.6977 94.8342 61.6747C95.0374 61.6517 95.2236 61.5506 95.3536 61.3927C95.4664 61.2518 95.5278 61.0767 95.5278 60.8963C95.5278 60.7158 95.4664 60.5408 95.3536 60.3999L92.9778 57.3942L90.0063 57.8529L89.123 61.0846Z" fill="white" stroke="#263238" stroke-miterlimit="10"/>
<path d="M94.4635 65.2269L92.0808 62.0979" stroke="#263238" stroke-width="0.5" stroke-linecap="round" stroke-linejoin="round"/>
<path d="M93.0667 65.3364L91.1975 62.8579" stroke="#263238" stroke-width="0.5" stroke-linecap="round" stroke-linejoin="round"/>
<path d="M128.327 38.4356L132.052 38.6547L136.585 41.5509C136.585 41.5509 136.838 42.4341 136.208 42.5573C135.578 42.6806 132.175 41.4276 132.175 41.4276L128.54 41.3797L128.327 38.4356Z" fill="white" stroke="#263238" stroke-miterlimit="10"/>
<path d="M128.519 40.921L132.429 42.6874C132.429 42.6874 133.058 41.8042 132.175 41.4276L130.888 40.5444" fill="white"/>
<path d="M128.519 40.921L132.429 42.6874C132.429 42.6874 133.058 41.8042 132.175 41.4276L130.888 40.5444" stroke="#263238" stroke-linejoin="round"/>
<path d="M266.638 107.69L265.022 102.856L263.208 100.371C263.178 100.326 263.134 100.292 263.083 100.274C263.031 100.256 262.976 100.256 262.924 100.273C262.873 100.29 262.828 100.324 262.798 100.369C262.767 100.414 262.753 100.468 262.756 100.522V107.683L264.125 109.484L266.638 107.69Z" fill="white"/>
<path d="M292.971 128.826L279.414 129.305C278.914 129.323 278.419 129.198 277.987 128.944C277.556 128.691 277.205 128.32 276.977 127.874L266.638 107.69C266.638 107.69 264.31 108.95 264.132 109.484C263.954 110.018 271.787 129.661 274.19 135.693C274.392 136.2 274.746 136.631 275.204 136.928C275.661 137.224 276.199 137.372 276.744 137.35L291.896 136.707" fill="white"/>
<path d="M292.971 128.826L279.414 129.305C278.914 129.323 278.419 129.198 277.987 128.944C277.556 128.691 277.205 128.32 276.977 127.874L266.638 107.69C266.638 107.69 264.31 108.95 264.132 109.484C263.954 110.018 271.787 129.661 274.19 135.693C274.392 136.2 274.746 136.631 275.204 136.928C275.661 137.224 276.199 137.372 276.744 137.35L291.896 136.707" stroke="#263238" stroke-miterlimit="10"/>
<path d="M267.631 110.203L265.509 111.079" stroke="#263238" stroke-width="0.75" stroke-miterlimit="10"/>
<g opacity="0.5">
<g opacity="0.5">
<path d="M292.971 128.826L279.414 129.305C278.914 129.323 278.419 129.198 277.987 128.944C277.556 128.691 277.205 128.32 276.977 127.874L266.638 107.69C266.638 107.69 264.31 108.95 264.132 109.484C263.954 110.018 271.787 129.661 274.19 135.693C274.392 136.2 274.746 136.631 275.204 136.928C275.661 137.224 276.199 137.372 276.744 137.35L291.896 136.707" fill="#407BFF"/>
<path d="M292.971 128.826L279.414 129.305C278.914 129.323 278.419 129.198 277.987 128.944C277.556 128.691 277.205 128.32 276.977 127.874L266.638 107.69C266.638 107.69 264.31 108.95 264.132 109.484C263.954 110.018 271.787 129.661 274.19 135.693C274.392 136.2 274.746 136.631 275.204 136.928C275.661 137.224 276.199 137.372 276.744 137.35L291.896 136.707" stroke="#263238" stroke-miterlimit="10"/>
</g>
<path opacity="0.5" d="M267.631 110.203L265.509 111.079" stroke="#263238" stroke-width="0.75" stroke-miterlimit="10"/>
</g>
<path d="M266.638 107.69L265.022 102.856L263.208 100.371C263.178 100.326 263.134 100.292 263.083 100.274C263.031 100.256 262.976 100.256 262.924 100.273C262.873 100.29 262.828 100.324 262.798 100.369C262.767 100.414 262.753 100.468 262.756 100.522V107.683L264.125 109.484L266.638 107.69Z" fill="#407BFF"/>
<path opacity="0.5" d="M266.638 107.69L265.022 102.856L263.208 100.371C263.178 100.326 263.134 100.292 263.083 100.274C263.031 100.256 262.976 100.256 262.924 100.273C262.873 100.29 262.828 100.324 262.798 100.369C262.767 100.414 262.753 100.468 262.756 100.522V107.683L264.125 109.484L266.638 107.69Z" fill="white"/>
<path d="M266.638 107.69L265.022 102.856L263.208 100.371C263.178 100.326 263.134 100.292 263.083 100.274C263.031 100.256 262.976 100.256 262.924 100.273C262.873 100.29 262.828 100.324 262.798 100.369C262.767 100.414 262.753 100.468 262.756 100.522V107.683L264.125 109.484L266.638 107.69Z" stroke="#263238" stroke-miterlimit="10"/>
<path d="M297.168 116.071C296.517 116.896 296.05 117.851 295.799 118.871C295.6 120.186 295.915 125.245 295.915 125.245L288.863 126.039C288.863 126.039 289.397 120.898 289.424 120.042C289.65 118.98 290.1 117.979 290.743 117.106C291.387 116.232 292.209 115.506 293.156 114.975C295.579 113.784 297.64 114.366 297.168 116.071Z" fill="white"/>
<g style="mix-blend-mode:multiply" opacity="0.5">
<path d="M297.12 116.125C295.84 115.776 294.285 115.386 292.971 115.071C292.067 115.609 291.284 116.327 290.67 117.181C290.056 118.035 289.625 119.007 289.404 120.035C289.404 120.364 289.308 121.322 289.212 122.376C289.897 122.219 290.985 121.979 291.793 121.836C292.433 121.732 293.063 121.574 293.676 121.363L293.436 125.471H293.594L295.894 125.211C295.894 125.211 295.579 120.151 295.778 118.837C296.028 117.848 296.486 116.924 297.12 116.125Z" fill="#407BFF"/>
</g>
<path d="M297.168 116.071C296.517 116.896 296.05 117.851 295.799 118.871C295.6 120.186 295.915 125.245 295.915 125.245L288.863 126.039C288.863 126.039 289.397 120.898 289.424 120.042C289.65 118.98 290.1 117.979 290.743 117.106C291.387 116.232 292.209 115.506 293.156 114.975C295.579 113.784 297.64 114.366 297.168 116.071Z" stroke="#263238" stroke-width="1.00396" stroke-miterlimit="10"/>
<path d="M298.633 116.94C304.48 109.217 290.383 101.193 286.679 108.868C286.163 109.814 285.754 110.816 285.46 111.853C284.899 112.195 283.406 113.113 283.132 113.366C282.858 113.62 283.817 114.27 284.344 114.592C283.338 117.063 283.488 119.665 283.776 120.254C284.276 121.267 286.74 121.281 288.363 120.98C289.986 120.678 290.629 119.124 291.102 118.7C291.574 118.275 293.93 118.816 294.758 119.063C295.586 119.309 297.497 118.467 298.633 116.94Z" fill="white"/>
<g style="mix-blend-mode:multiply" opacity="0.5">
<path d="M292.847 116.201C292.847 116.201 292.97 116.783 291.793 117.255C290.615 117.728 290.382 117.372 290.033 118.193C289.885 118.733 289.585 119.22 289.169 119.595C288.752 119.97 288.238 120.217 287.685 120.309C286.569 120.521 285.442 120.665 284.309 120.74C285.24 121.26 287.089 121.219 288.417 120.98C290.033 120.685 290.684 119.124 291.156 118.7C291.628 118.275 293.984 118.816 294.812 119.063C295.007 119.101 295.207 119.101 295.401 119.063C295.71 118.375 295.895 117.638 295.949 116.885L292.847 116.201Z" fill="#407BFF"/>
</g>
<path d="M298.633 116.94C304.48 109.217 290.383 101.193 286.679 108.868C286.163 109.814 285.754 110.816 285.46 111.853C284.899 112.195 283.406 113.113 283.132 113.366C282.858 113.62 283.817 114.27 284.344 114.592C283.338 117.063 283.488 119.665 283.776 120.254C284.276 121.267 286.74 121.281 288.363 120.98C289.986 120.678 290.629 119.124 291.102 118.7C291.574 118.275 293.93 118.816 294.758 119.063C295.586 119.309 297.497 118.467 298.633 116.94Z" stroke="#263238" stroke-miterlimit="10"/>
<path d="M287.213 112.531C287.062 112.86 286.809 113.065 286.644 112.99C286.48 112.914 286.466 112.586 286.644 112.257C286.822 111.928 287.048 111.723 287.213 111.798C287.377 111.874 287.363 112.202 287.213 112.531Z" fill="#263238"/>
<path d="M287.076 110.422C287.076 110.422 287.76 109.854 287.897 111.162" stroke="#263238" stroke-width="0.5" stroke-linecap="round" stroke-linejoin="round"/>
<path d="M284.207 115.92C284.207 115.92 284.207 116.605 285.439 116.605" stroke="#263238" stroke-width="0.5" stroke-linecap="round" stroke-linejoin="round"/>
<path d="M282.536 160.725L281.995 167.421C281.995 167.421 278.25 194.082 278.428 197.143C278.606 200.203 279.01 231.821 279.01 231.821L283.522 232.54L288.589 197.471L295.703 161.834L282.536 160.725Z" fill="#407BFF" stroke="#263238" stroke-miterlimit="10"/>
<path opacity="0.2" d="M282.536 160.725L281.995 167.421C281.995 167.421 278.25 194.082 278.428 197.143C278.606 200.203 279.01 231.821 279.01 231.821L283.522 232.54L288.589 197.471L295.703 161.834L282.536 160.725Z" fill="#263238"/>
<path d="M288.246 185.079C288.246 185.079 286.514 195.274 285.207 200.272C283.899 205.27 283.906 210.254 283.906 215.677C283.906 221.099 281.954 231.096 281.954 231.096" stroke="#263238" stroke-width="0.75" stroke-miterlimit="10"/>
<path d="M291.69 159.082C294.662 157.521 297.852 156.487 298.763 158.561C300.57 162.711 298.407 169.016 298.407 169.016L300.057 198.101L303.076 233.191L298.564 232.465C298.564 232.465 291.636 202.853 290.554 201.045C289.472 199.238 287.767 173.884 287.767 173.884L284.344 170.769" fill="#407BFF"/>
<path d="M291.69 159.082C294.662 157.521 297.852 156.487 298.763 158.561C300.57 162.711 298.407 169.016 298.407 169.016L300.057 198.101L303.076 233.191L298.564 232.465C298.564 232.465 291.636 202.853 290.554 201.045C289.472 199.238 287.767 173.884 287.767 173.884L284.344 170.769" stroke="#263238" stroke-miterlimit="10"/>
<g opacity="0.2">
<path opacity="0.2" d="M291.69 159.082C294.662 157.521 297.852 156.487 298.763 158.561C300.57 162.711 298.407 169.016 298.407 169.016L300.057 198.101L303.076 233.191L298.564 232.465C298.564 232.465 291.636 202.853 290.554 201.045C289.472 199.238 287.767 173.884 287.767 173.884L284.344 170.769" fill="#263238"/>
</g>
<path d="M295.21 181.115C295.312 187.859 295.997 191.104 296.531 192.884C297.182 195.054 296.962 199.176 296.962 201.1C296.962 203.024 296.093 200.669 298.051 209.57C300.009 218.47 301.303 230.835 301.303 230.835" stroke="#263238" stroke-width="0.75" stroke-miterlimit="10"/>
<path d="M295.21 166.415C295.21 166.415 295.422 165.976 295.21 176.178C295.21 176.726 295.21 177.253 295.21 177.766" stroke="#263238" stroke-width="0.75" stroke-miterlimit="10"/>
<path d="M285.193 164.477L285.049 167.531L284.344 169.653L285.398 170.886" stroke="#263238" stroke-width="0.75" stroke-linecap="round" stroke-linejoin="round"/>
<path d="M283.81 166.298C283.81 166.298 285.576 168.065 290.164 167.531" stroke="#263238" stroke-width="0.75" stroke-linecap="round" stroke-linejoin="round"/>
<path d="M294.648 164.771C298.071 164.087 298.291 163.142 299.475 162.348C299.497 161.053 299.265 159.766 298.79 158.561C297.893 156.507 294.682 157.521 291.718 159.082L290.28 161.355L282.564 160.725L282.317 163.751C286.279 165.11 290.517 165.461 294.648 164.771Z" fill="#263238"/>
<path d="M283.31 162.82L283.235 164.025L285.193 164.477L285.343 162.895L283.31 162.82Z" fill="white" stroke="#263238" stroke-width="0.75" stroke-miterlimit="10"/>
<path d="M296.976 164.607L296.647 161.608L297.64 161.28L298.14 163.943" fill="#407BFF"/>
<path d="M296.976 164.607L296.647 161.608L297.64 161.28L298.14 163.943" stroke="#263238" stroke-miterlimit="10"/>
<path d="M289.321 165.607L288.657 162.108H290.321L290.985 165.107" fill="#407BFF"/>
<path d="M289.321 165.607L288.657 162.108H290.321L290.985 165.107" stroke="#263238" stroke-miterlimit="10"/>
<g opacity="0.2">
<path opacity="0.2" d="M296.976 164.607L296.647 161.608L297.64 161.28L298.14 163.943" fill="#263238"/>
<path opacity="0.2" d="M289.321 165.607L288.657 162.108H290.321L290.985 165.107" fill="#263238"/>
</g>
<path d="M281.653 134.187C281.653 134.187 281.085 137.987 279.38 144.457C277.675 150.927 275.957 158.685 275.957 158.685L276.908 162.669L279.75 158.493L281.653 134.187Z" fill="#263238" stroke="#263238" stroke-miterlimit="10"/>
<path d="M286.398 128.689C286.398 128.689 282.413 129.634 282.036 131.531C281.833 132.404 281.705 133.292 281.653 134.187L287.726 129.257L295.319 126.217L286.398 128.689Z" fill="#263238" stroke="#263238" stroke-miterlimit="10"/>
<path d="M287.486 127.224C287.486 127.224 284.248 130.887 282.961 132.393C281.673 133.9 281.667 150.065 281.667 152.44C281.667 154.816 280.379 161.266 282.529 162.56C284.679 163.854 297.832 163.423 299.126 161.266C300.42 159.109 301.276 133.256 301.063 130.887C300.902 129.824 300.483 128.817 299.844 127.953C299.204 127.089 298.363 126.394 297.394 125.93C295.894 125.238 287.486 127.224 287.486 127.224Z" fill="white"/>
<g style="mix-blend-mode:multiply" opacity="0.5">
<path d="M297.394 125.93C297.215 125.858 297.025 125.816 296.832 125.807L295.901 126.293C297.468 127.577 298.547 129.361 298.955 131.346C299.388 134.229 299.348 137.164 298.838 140.034C298.373 143.204 290.855 140.034 292.265 141.212C293.676 142.389 298.955 144.382 299.194 145.436C299.434 146.491 296.579 148.25 295.552 148.373C294.525 148.497 296.237 150.838 297.312 152.831C298.386 154.823 297.996 157.623 295.552 159.527C293.108 161.43 287.432 162.368 284.981 162.464C284.186 162.464 283.693 162.669 283.543 162.902C287.308 163.744 297.969 163.197 299.126 161.266C300.42 159.109 301.276 133.256 301.063 130.887C300.902 129.824 300.484 128.817 299.844 127.953C299.204 127.089 298.363 126.394 297.394 125.93Z" fill="#407BFF"/>
</g>
<path d="M287.486 127.224C287.486 127.224 284.248 130.887 282.961 132.393C281.673 133.9 281.667 150.065 281.667 152.44C281.667 154.816 280.379 161.266 282.529 162.56C284.679 163.854 297.832 163.423 299.126 161.266C300.42 159.109 301.276 133.256 301.063 130.887C300.902 129.824 300.483 128.817 299.844 127.953C299.204 127.089 298.363 126.394 297.394 125.93C295.894 125.238 287.486 127.224 287.486 127.224Z" stroke="#263238" stroke-miterlimit="10"/>
<path d="M294.107 143.622C290.636 142.54 287.596 139.514 287.596 139.514C288.366 143.11 290.458 146.286 293.457 148.415" fill="white"/>
<path d="M294.107 143.622C290.636 142.54 287.596 139.514 287.596 139.514C288.366 143.11 290.458 146.286 293.457 148.415" stroke="#263238" stroke-width="0.75" stroke-linecap="round" stroke-linejoin="round"/>
<path d="M296.75 123.561L286.405 125.93L285.761 128.949L297.394 125.93L296.75 123.561Z" fill="white" stroke="#263238" stroke-miterlimit="10"/>
<path d="M284.125 237.059L283.522 232.513L279.01 231.794L275.251 234.471L271.883 236.32V237.059H284.125Z" fill="#263238" stroke="#263238" stroke-miterlimit="10"/>
<path d="M303.638 237.415L303.077 233.191L298.565 232.465L294.806 235.142L291.437 236.998V237.415H303.638Z" fill="#263238" stroke="#263238" stroke-miterlimit="10"/>
<path d="M264.666 103.747L261.886 102.138C261.886 102.138 260.805 102.007 261.27 103.212L264.05 105.356" fill="white"/>
<path d="M264.666 103.747L261.886 102.138C261.886 102.138 260.805 102.007 261.27 103.212L264.05 105.356" stroke="#263238" stroke-linecap="round" stroke-linejoin="round"/>
<path d="M264.256 107.93C264.125 107.6 263.932 107.297 263.687 107.04L263.167 106.478L260.339 102.973C260.339 102.973 259.463 102.384 259.655 103.658L261.407 107.081L258.292 104.157C258.292 104.157 257.703 103.671 257.703 104.356C257.703 105.041 260.531 108.06 260.531 108.06L257.409 106.595C257.409 106.595 256.724 107.081 257.217 107.567C257.71 108.053 260.333 109.032 260.333 109.032L257.998 108.936C257.998 108.936 257.313 109.518 257.799 109.717C258.285 109.915 261.017 110.491 261.017 110.491C261.364 110.786 261.761 111.017 262.188 111.175L262.873 112.442L265.495 111.12L264.256 107.93Z" fill="white" stroke="#263238" stroke-linecap="round" stroke-linejoin="round"/>
<path d="M292.252 138.323L276.628 141.986C275.828 142.126 275.004 141.986 274.296 141.588C273.588 141.189 273.041 140.558 272.746 139.801L262.886 112.414L265.509 111.093L276.402 131.27C276.649 131.732 277.038 132.102 277.512 132.325C277.985 132.548 278.518 132.613 279.031 132.51L290.979 129.134" fill="white"/>
<path d="M292.252 138.323L276.628 141.986C275.828 142.126 275.004 141.986 274.296 141.588C273.588 141.189 273.041 140.558 272.746 139.801L262.886 112.414L265.509 111.093L276.402 131.27C276.649 131.732 277.038 132.102 277.512 132.325C277.985 132.548 278.518 132.613 279.031 132.51L290.979 129.134" stroke="#263238" stroke-miterlimit="10"/>
<path d="M266.98 113.674L263.94 115.194" stroke="#263238" stroke-width="0.75" stroke-miterlimit="10"/>
<path d="M290.307 108.95C290.307 108.95 288.644 110.614 289.472 111.86C289.963 112.58 290.337 113.372 290.581 114.208C290.581 114.208 289.897 115.872 290.444 115.872C290.992 115.872 290.718 114.626 291.69 114.907C292.663 115.187 293.628 116.844 292.8 117.399C292.18 117.745 291.523 118.021 290.841 118.221C290.755 118.247 290.677 118.298 290.619 118.368C290.561 118.438 290.525 118.523 290.515 118.614C290.505 118.704 290.521 118.795 290.562 118.876C290.603 118.957 290.667 119.024 290.746 119.07C291.646 119.678 292.684 120.054 293.765 120.165C294.649 120.184 295.533 120.092 296.394 119.891C296.394 119.891 299.133 116.153 301.105 115.181C303.076 114.208 302.214 109.778 302.214 109.224C302.214 108.669 300.276 107.423 300.276 107.423C300.276 107.423 300.831 106.177 298.339 103.411C295.846 100.645 291.136 100.084 290.999 101.056C290.951 101.313 290.977 101.579 291.076 101.822C291.174 102.064 291.34 102.274 291.553 102.425C291.553 102.425 287.397 100.624 285.46 102.562C283.522 104.5 290.307 108.95 290.307 108.95Z" fill="#263238" stroke="#263238" stroke-miterlimit="10"/>
<path d="M290.307 108.95C290.307 108.95 293.676 113.058 298.667 113.455" stroke="white" stroke-width="0.5" stroke-linecap="round" stroke-linejoin="round"/>
<path d="M289.116 110.203C289.116 110.203 290.684 114.763 297.168 116.064" stroke="white" stroke-width="0.5" stroke-linecap="round" stroke-linejoin="round"/>
</svg>
