<svg width="303" height="271" viewBox="0 0 303 271" fill="none" xmlns="http://www.w3.org/2000/svg">
<g clip-path="url(#clip0)">
<path d="M96.4318 20.5807C96.4318 20.5807 51.6953 43.3711 29.3831 78.4896C7.071 113.608 8.83637 158.787 35.9487 192.323C63.061 225.86 114.883 221.455 158.273 242.698C201.663 263.942 249.535 259.567 270.052 214.559C290.569 169.551 259.631 152.73 254.317 100.642C249.003 48.555 202.047 -27.716 96.4318 20.5807Z" fill="#407BFF"/>
<path opacity="0.7" d="M83.4318 12.3764C83.4318 12.3764 38.6953 35.1668 16.3831 70.2852C-5.929 105.404 -4.16363 150.583 22.9487 184.119C50.061 217.655 101.883 213.251 145.273 234.494C188.663 255.738 236.535 251.363 257.052 206.354C277.569 161.346 246.631 144.525 241.317 92.4379C236.003 40.3507 189.047 -35.9204 83.4318 12.3764Z" fill="white"/>
<path d="M70.6358 201.581C72.4071 200.991 75.5481 198.104 75.5481 198.098C75.5481 198.092 73.0211 196.628 72.8499 196.557C70.8601 195.718 66.5205 195.27 64.9441 197.106C64.6948 197.418 64.5134 197.779 64.4118 198.166C64.3101 198.552 64.2903 198.956 64.3537 199.351C64.417 199.745 64.5622 200.122 64.7798 200.458C64.9973 200.793 65.2826 201.079 65.6172 201.298C67.0106 202.29 69.1007 202.077 70.6358 201.581Z" fill="#9C9C9C"/>
<path d="M103.352 173.749C103.393 173.749 102.053 171.133 101.946 170.974C100.766 169.202 97.3765 166.41 95.0503 167.071C94.6667 167.192 94.3129 167.392 94.0115 167.658C93.7102 167.924 93.4682 168.251 93.3012 168.616C93.1342 168.982 93.046 169.379 93.0421 169.781C93.0383 170.183 93.119 170.581 93.279 170.95C93.9107 172.532 95.7706 173.513 97.3293 173.944C99.1596 174.451 103.346 173.755 103.352 173.749Z" fill="#9C9C9C"/>
<path d="M79.8997 209.794C81.423 208.796 83.5249 205.46 83.6903 205.195C85.5959 206.401 87.5803 207.478 89.6299 208.418C90.8108 208.973 92.0389 209.499 93.2669 210.007C92.6765 209.853 92.1392 209.729 92.0861 209.717C89.9429 209.434 85.6387 210.148 84.6054 212.333C84.4435 212.702 84.3612 213.101 84.3641 213.504C84.3669 213.907 84.4548 214.305 84.622 214.672C84.7892 215.038 85.0319 215.366 85.3343 215.632C85.6367 215.898 85.9919 216.098 86.3767 216.218C87.9826 216.808 89.9192 216.035 91.2949 215.149C92.6706 214.264 94.5127 211.435 94.991 210.686L96.408 211.276C98.6811 212.179 100.948 213.047 103.151 214.016C103.924 214.346 104.674 214.706 105.43 215.055C104.898 214.925 104.455 214.819 104.385 214.813C102.241 214.529 97.9431 215.244 96.904 217.428C96.742 217.797 96.6598 218.196 96.6628 218.598C96.6657 219.001 96.7536 219.398 96.9209 219.764C97.0881 220.131 97.3308 220.458 97.6332 220.723C97.9355 220.989 98.2906 221.188 98.6752 221.307C100.287 221.898 102.247 221.124 103.593 220.239C104.94 219.353 106.628 216.802 107.207 215.917C107.963 216.301 108.724 216.684 109.445 217.098C109.929 217.387 110.419 217.629 110.891 217.948L112.296 218.851C113.164 219.442 114.068 220.079 114.906 220.693C115.496 221.118 116.04 221.532 116.595 221.945C115.827 221.608 114.31 220.971 114.174 220.935C112.101 220.345 107.738 220.386 106.386 222.388C106.17 222.727 106.027 223.107 105.967 223.505C105.908 223.903 105.933 224.308 106.041 224.696C106.149 225.083 106.338 225.443 106.595 225.753C106.852 226.062 107.171 226.314 107.532 226.491C109.031 227.3 111.074 226.851 112.556 226.178C114.168 225.44 116.689 222.589 116.972 222.228C117.888 222.919 118.773 223.598 119.594 224.254C121.991 226.149 123.987 227.855 125.498 229.19L126.679 228.115C125.097 226.781 122.983 225.045 120.438 223.12C119.511 222.417 118.508 221.679 117.486 220.935C118.031 219.844 118.512 218.723 118.927 217.576C120.739 217.759 124.152 216.82 124.595 216.696C124.979 217.777 125.339 218.833 125.664 219.831C126.596 222.683 127.311 225.145 127.836 227.099L129.159 225.919C128.61 224.094 127.901 221.868 127.022 219.359C126.638 218.261 126.207 217.098 125.746 215.905C126.154 215.675 129.436 213.762 130.47 212.321C131.408 211.01 132.241 209.08 131.733 207.444C131.626 207.057 131.439 206.697 131.184 206.387C130.929 206.077 130.612 205.824 130.253 205.645C129.894 205.465 129.501 205.362 129.1 205.344C128.699 205.325 128.299 205.391 127.925 205.537C125.699 206.488 124.813 210.756 125.008 212.906C125.008 213.035 125.303 214.399 125.492 215.267C125.303 214.777 125.126 214.305 124.902 213.809C124.512 212.817 124.093 211.843 123.65 210.792C123.414 210.29 123.184 209.788 122.942 209.28C122.7 208.773 122.416 208.259 122.151 207.739C121.519 206.559 120.816 205.378 120.078 204.197C120.946 203.854 123.999 202.591 125.132 201.434C126.266 200.276 127.376 198.482 127.116 196.811C127.07 196.412 126.941 196.027 126.737 195.681C126.532 195.335 126.257 195.037 125.93 194.804C125.602 194.572 125.23 194.411 124.836 194.333C124.442 194.254 124.036 194.26 123.644 194.349C121.283 194.939 119.777 199.037 119.647 201.192C119.647 201.321 119.718 202.88 119.777 203.736C119.328 203.04 118.885 202.343 118.413 201.652C117.043 199.662 115.591 197.69 114.156 195.718C113.713 195.128 113.282 194.508 112.851 193.9C113.158 193.782 116.819 192.359 118.088 191.066C119.216 189.885 120.332 188.114 120.078 186.437C120.032 186.038 119.902 185.653 119.697 185.307C119.492 184.961 119.216 184.663 118.888 184.43C118.56 184.198 118.187 184.038 117.793 183.959C117.399 183.881 116.992 183.886 116.601 183.975C114.239 184.565 112.733 188.663 112.603 190.818C112.603 190.983 112.71 193.221 112.769 193.77C111.812 192.43 110.873 191.089 110 189.731C108.808 187.905 107.739 186.002 106.799 184.034C106.941 183.981 110.767 182.511 112.066 181.182C113.194 180.001 114.31 178.23 114.056 176.559C114.01 176.16 113.881 175.775 113.677 175.43C113.472 175.084 113.197 174.785 112.87 174.553C112.542 174.32 112.169 174.16 111.775 174.081C111.382 174.003 110.976 174.008 110.584 174.097C108.222 174.687 106.717 178.785 106.587 180.94C106.587 181.082 106.664 182.788 106.723 183.597L106.593 183.632C105.695 181.629 104.979 179.548 104.455 177.415C104.154 176.234 103.93 175.107 103.735 174.003C104.473 173.802 107.868 172.851 109.155 171.783C110.442 170.714 111.706 169.108 111.641 167.402C111.638 167 111.55 166.603 111.384 166.238C111.217 165.872 110.976 165.545 110.676 165.278C110.375 165.012 110.022 164.811 109.639 164.69C109.256 164.568 108.852 164.529 108.453 164.573C106.061 164.91 104.095 168.807 103.729 170.938C103.729 171.05 103.635 172.249 103.593 173.123C103.517 172.621 103.422 172.107 103.357 171.623C103.103 169.811 102.979 168.14 102.879 166.658C102.832 165.813 102.808 165.046 102.79 164.331C103.41 163.741 105.902 161.379 106.551 159.885C107.201 158.392 107.585 156.343 106.74 154.855C106.553 154.499 106.294 154.186 105.978 153.937C105.662 153.688 105.297 153.509 104.907 153.41C104.517 153.312 104.111 153.296 103.715 153.365C103.318 153.434 102.941 153.586 102.607 153.81C100.635 155.215 100.689 159.578 101.344 161.639C101.403 161.816 102.602 164.497 102.637 164.467L102.672 164.432C102.672 165.117 102.672 165.855 102.72 166.664C102.785 168.151 102.867 169.834 103.086 171.659C103.299 173.624 103.626 175.576 104.066 177.504C104.548 179.668 105.224 181.784 106.085 183.827L106.12 183.898C105.66 183.361 104.32 181.902 104.202 181.802C102.572 180.385 98.5867 178.608 96.5261 179.86C96.1878 180.076 95.899 180.362 95.6786 180.698C95.4582 181.034 95.3112 181.413 95.2471 181.81C95.1831 182.206 95.2034 182.612 95.3068 183.001C95.4101 183.389 95.5943 183.751 95.8471 184.063C96.8744 185.427 98.9232 185.882 100.541 185.888C102.359 185.888 105.949 184.264 106.239 184.116C107.163 186.175 108.224 188.169 109.415 190.086C110.1 191.202 110.826 192.312 111.57 193.41C111.157 192.961 110.785 192.56 110.726 192.506C109.096 191.095 105.111 189.312 103.05 190.564C102.712 190.781 102.423 191.067 102.203 191.403C101.982 191.739 101.835 192.117 101.771 192.514C101.707 192.911 101.728 193.317 101.831 193.705C101.934 194.093 102.118 194.455 102.371 194.768C103.393 196.138 105.447 196.586 107.065 196.592C108.683 196.598 111.789 195.27 112.603 194.909C112.893 195.329 113.194 195.754 113.471 196.173C114.865 198.175 116.264 200.176 117.604 202.172C118.071 202.88 118.502 203.589 118.933 204.297C118.567 203.896 118.254 203.565 118.201 203.518C116.571 202.101 112.586 200.324 110.525 201.575C110.187 201.793 109.899 202.079 109.679 202.415C109.459 202.751 109.313 203.13 109.249 203.527C109.186 203.924 109.207 204.329 109.311 204.717C109.414 205.105 109.599 205.467 109.852 205.779C110.873 207.143 112.928 207.598 114.54 207.604C116.152 207.609 118.968 206.423 119.936 205.986C120.362 206.724 120.787 207.462 121.159 208.2C121.407 208.708 121.678 209.18 121.891 209.705C122.103 210.231 122.345 210.733 122.564 211.235C122.959 212.227 123.367 213.242 123.745 214.216C123.999 214.889 124.229 215.539 124.459 216.188C124.01 215.48 123.089 214.116 123.001 214.01C121.714 212.605 120.087 211.556 118.277 210.963C118.143 210.799 117.993 210.649 117.829 210.514C117.526 210.25 117.172 210.052 116.788 209.934C116.405 209.815 116 209.779 115.602 209.827C115.203 209.874 114.819 210.006 114.474 210.212C114.13 210.418 113.832 210.694 113.601 211.022C112.267 213.041 113.885 217.092 115.237 218.78C115.313 218.881 116.299 219.861 116.931 220.469L115.597 219.601C114.729 219.011 113.826 218.42 112.893 217.777L111.47 216.903C110.997 216.602 110.466 216.342 109.958 216.058C108.777 215.421 107.543 214.83 106.292 214.287C106.823 213.526 108.653 210.792 108.978 209.198C109.303 207.604 109.226 205.513 108.087 204.244C107.828 203.937 107.507 203.688 107.146 203.513C106.784 203.337 106.39 203.24 105.988 203.227C105.587 203.215 105.187 203.286 104.815 203.438C104.443 203.59 104.108 203.818 103.83 204.108C102.206 205.88 103.192 210.148 104.267 212.02C104.337 212.138 105.258 213.39 105.784 214.069C105.028 213.738 104.272 213.402 103.499 213.089C101.255 212.185 98.9586 211.317 96.6737 210.485C95.9711 210.225 95.2744 209.953 94.5777 209.688C94.7725 209.422 97.0398 206.216 97.3822 204.433C97.6892 202.851 97.6361 200.749 96.4907 199.479C96.2318 199.172 95.9112 198.923 95.5497 198.748C95.1882 198.573 94.7939 198.476 94.3924 198.463C93.991 198.45 93.5913 198.522 93.2194 198.674C92.8475 198.825 92.5116 199.054 92.2337 199.344C90.61 201.115 91.596 205.384 92.6765 207.255C92.7533 207.397 94.0876 209.198 94.4478 209.617C92.9127 209.027 91.3894 208.436 89.9074 207.781C87.9069 206.914 85.966 205.916 84.0977 204.793C84.1862 204.669 86.5715 201.333 86.9199 199.509C87.221 197.927 87.1679 195.825 86.0283 194.555C85.7695 194.248 85.4489 193.999 85.0874 193.824C84.7259 193.649 84.3316 193.551 83.9301 193.539C83.5286 193.526 83.129 193.598 82.7571 193.749C82.3851 193.901 82.0493 194.129 81.7714 194.419C80.1477 196.191 81.1337 200.459 82.2083 202.331C82.2791 202.455 83.2947 203.831 83.7965 204.474L83.7021 204.575C81.85 203.396 80.1072 202.055 78.4945 200.566C77.5912 199.757 76.7764 198.936 76.0029 198.115C76.5107 197.525 78.8015 194.886 79.3034 193.274C79.8053 191.662 79.9529 189.637 78.961 188.255C78.7358 187.923 78.4433 187.641 78.1023 187.428C77.7613 187.215 77.3795 187.077 76.9815 187.021C76.5835 186.965 76.1783 186.994 75.7921 187.105C75.4059 187.216 75.0472 187.407 74.7394 187.665C72.9327 189.271 73.4464 193.605 74.3084 195.583C74.3556 195.689 74.9579 196.728 75.4066 197.478C75.0642 197.106 74.704 196.728 74.3793 196.362C73.1984 194.992 72.1416 193.664 71.2441 192.477C70.7363 191.798 70.2935 191.178 69.8802 190.593C70.0869 189.767 70.8662 186.431 70.571 184.807C70.2758 183.184 69.4728 181.265 67.9495 180.509C67.5979 180.316 67.2095 180.199 66.8096 180.165C66.4097 180.132 66.0073 180.183 65.6286 180.316C65.2498 180.448 64.9032 180.659 64.6114 180.935C64.3195 181.21 64.089 181.544 63.9347 181.914C63.0667 184.17 65.517 187.777 67.1938 189.135C67.3414 189.253 69.8212 190.824 69.833 190.782C69.8342 190.765 69.8342 190.747 69.833 190.729C70.2168 191.32 70.636 191.91 71.1024 192.571C71.9762 193.752 72.98 195.134 74.1667 196.533C75.4306 198.056 76.781 199.505 78.2111 200.873C79.8083 202.4 81.5371 203.783 83.3773 205.006L83.4482 205.047C82.7692 204.852 80.8444 204.374 80.6909 204.356C78.5477 204.073 74.2494 204.787 73.2102 206.972C73.0483 207.341 72.966 207.74 72.9689 208.143C72.9718 208.546 73.0597 208.944 73.2268 209.311C73.394 209.677 73.6367 210.005 73.9391 210.271C74.2415 210.537 74.5967 210.737 74.9815 210.857C76.5934 211.435 78.5536 210.686 79.8997 209.794Z" fill="#9C9C9C"/>
<path d="M190.362 60.0152C191.626 62.1289 196.178 65.2286 196.184 65.2286C196.19 65.2286 197.317 61.6093 197.365 61.3673C197.849 58.61 197.164 52.9891 194.413 51.5249C193.945 51.2942 193.434 51.1646 192.913 51.1444C192.392 51.1243 191.873 51.214 191.389 51.4078C190.905 51.6016 190.467 51.8952 190.104 52.2693C189.741 52.6435 189.461 53.0899 189.282 53.5796C188.426 55.6342 189.288 58.2203 190.362 60.0152Z" fill="#9C9C9C"/>
<path d="M235.004 93.3978C235.004 93.4509 237.956 91.0007 238.116 90.8236C240.046 88.7866 242.573 83.7385 241.068 80.9694C240.805 80.5189 240.45 80.1289 240.027 79.8246C239.603 79.5204 239.121 79.3087 238.61 79.2034C238.099 79.0982 237.572 79.1016 237.063 79.2136C236.553 79.3256 236.073 79.5436 235.654 79.8535C233.829 81.1111 233.127 83.7444 233.026 85.8345C232.914 88.2906 235.004 93.3919 235.004 93.3978Z" fill="#9C9C9C"/>
<path d="M182.634 74.1086C184.34 75.7441 189.17 77.4445 189.554 77.5744C188.579 80.3351 187.79 83.1577 187.192 86.0234C186.832 87.6884 186.519 89.3829 186.229 91.0833C186.229 90.2862 186.229 89.5718 186.229 89.4715C185.97 86.6847 183.826 81.4417 180.762 80.7627C180.25 80.663 179.723 80.6723 179.214 80.7901C178.706 80.9078 178.228 81.1314 177.812 81.4461C177.396 81.7608 177.051 82.1597 176.799 82.6167C176.548 83.0737 176.395 83.5787 176.352 84.0986C176.092 86.3009 177.615 88.5681 179.127 90.0028C180.638 91.4376 184.748 93.0081 185.834 93.3978C185.728 94.0472 185.615 94.7026 185.515 95.3521C185.025 98.4872 184.553 101.616 183.992 104.675C183.797 105.749 183.561 106.806 183.33 107.863C183.33 107.155 183.33 106.558 183.33 106.47C183.071 103.677 180.927 98.44 177.863 97.7551C177.351 97.6563 176.824 97.6665 176.316 97.7851C175.808 97.9036 175.331 98.1278 174.915 98.4431C174.5 98.7583 174.155 99.1576 173.904 99.6148C173.653 100.072 173.501 100.577 173.459 101.097C173.199 103.293 174.716 105.561 176.228 107.001C177.739 108.442 181.453 109.847 182.722 110.319C182.457 111.394 182.191 112.468 181.884 113.496C181.654 114.193 181.488 114.877 181.223 115.568L180.479 117.605C179.965 118.881 179.44 120.203 178.902 121.443C178.536 122.299 178.17 123.114 177.804 123.935C178.011 122.866 178.395 120.764 178.395 120.587C178.56 117.788 177.214 112.285 174.309 111.14C173.817 110.964 173.294 110.893 172.774 110.933C172.253 110.973 171.747 111.122 171.288 111.37C170.829 111.619 170.428 111.961 170.11 112.375C169.792 112.789 169.565 113.266 169.444 113.773C168.853 115.905 170.034 118.379 171.286 120.038C172.691 121.868 177.019 124.206 177.562 124.495C176.972 125.848 176.346 127.164 175.755 128.392C174.043 131.976 172.461 134.987 171.209 137.296L172.915 138.512C174.155 136.15 175.738 132.956 177.438 129.178C178.064 127.802 178.707 126.32 179.351 124.791C180.887 125.17 182.445 125.456 184.015 125.647C184.311 128.008 186.477 132.047 186.761 132.567C185.503 133.364 184.275 134.125 183.1 134.822C179.764 136.829 176.83 138.447 174.533 139.669L176.393 140.998C178.548 139.782 181.158 138.246 184.069 136.41C185.35 135.607 186.702 134.722 188.078 133.801C188.485 134.249 191.85 137.851 193.982 138.748C195.912 139.557 198.593 140.059 200.512 138.943C200.972 138.698 201.376 138.358 201.696 137.947C202.016 137.535 202.246 137.06 202.37 136.554C202.494 136.047 202.51 135.52 202.417 135.007C202.324 134.494 202.123 134.007 201.829 133.576C199.986 131.031 194.33 131.144 191.661 132.012C191.508 132.065 189.861 132.809 188.833 133.299C189.394 132.921 189.943 132.555 190.516 132.159C191.655 131.38 192.771 130.571 193.97 129.709L195.682 128.38C196.273 127.944 196.822 127.418 197.4 126.934C198.717 125.788 199.998 124.572 201.256 123.297C201.941 124.289 204.42 127.79 206.209 128.888C207.998 129.986 210.573 130.884 212.633 130.069C213.125 129.896 213.576 129.622 213.955 129.263C214.334 128.905 214.633 128.47 214.833 127.989C215.033 127.507 215.129 126.988 215.115 126.467C215.102 125.945 214.978 125.432 214.753 124.962C213.318 122.169 207.703 121.419 204.94 121.874C204.769 121.903 202.82 122.464 201.758 122.771C202.507 122.01 203.263 121.248 203.995 120.445C206.121 118.142 208.199 115.722 210.277 113.36C210.915 112.628 211.565 111.908 212.202 111.187C212.444 111.542 215.296 115.763 217.304 116.997C219.075 118.089 221.667 118.993 223.733 118.178C224.225 118.004 224.675 117.729 225.053 117.371C225.431 117.012 225.73 116.578 225.929 116.096C226.129 115.614 226.224 115.096 226.21 114.575C226.196 114.053 226.072 113.541 225.847 113.071C224.412 110.278 218.797 109.528 216.034 109.983C215.827 110.012 213.023 110.809 212.32 111.046C213.737 109.451 215.16 107.875 216.63 106.375C218.601 104.344 220.702 102.443 222.918 100.684C223.031 100.849 225.989 105.271 228.043 106.535C229.815 107.627 232.407 108.524 234.473 107.716C234.965 107.542 235.414 107.267 235.793 106.908C236.171 106.55 236.47 106.115 236.669 105.633C236.869 105.152 236.964 104.633 236.95 104.112C236.936 103.591 236.812 103.079 236.587 102.608C235.152 99.8157 229.537 99.0659 226.774 99.5264C226.591 99.5264 224.459 100.158 223.45 100.465L223.367 100.306C225.648 98.5958 228.076 97.0921 230.624 95.8126C232.017 95.0923 233.387 94.4842 234.756 93.9174C235.223 94.7971 237.402 98.7943 239.126 100.135C240.85 101.475 243.259 102.597 245.384 102.018C245.892 101.9 246.369 101.676 246.784 101.361C247.199 101.046 247.544 100.648 247.795 100.191C248.046 99.7343 248.198 99.2299 248.242 98.7105C248.285 98.1912 248.219 97.6685 248.047 97.1765C246.925 94.2244 241.434 92.8782 238.636 93.0435C238.482 93.0435 236.941 93.3092 235.825 93.504C236.416 93.262 237.065 92.9963 237.655 92.7719C239.875 91.9276 241.954 91.29 243.808 90.7409C244.859 90.4338 245.821 90.1504 246.718 89.9497C247.628 90.5756 251.318 93.0494 253.432 93.4332C255.545 93.817 258.22 93.7225 259.85 92.2228C260.246 91.8837 260.566 91.465 260.79 90.9939C261.013 90.5229 261.135 90.01 261.147 89.4886C261.16 88.9673 261.062 88.4492 260.861 87.9682C260.66 87.4871 260.359 87.0538 259.979 86.6965C257.618 84.6123 252.133 85.9348 249.718 87.3518C249.505 87.4758 246.465 89.7726 246.512 89.808L246.565 89.8434C245.697 90.0442 244.764 90.2744 243.749 90.5401C241.889 91.0538 239.781 91.6501 237.537 92.4472C235.109 93.2932 232.732 94.2789 230.417 95.3993C227.819 96.6346 225.336 98.0966 222.995 99.7685L222.918 99.8334C223.462 99.0954 224.926 96.9817 225.02 96.8045C226.343 94.3307 227.447 88.7807 225.268 86.5193C224.895 86.1554 224.449 85.8739 223.96 85.693C223.471 85.5121 222.95 85.4359 222.429 85.4693C221.909 85.5027 221.402 85.645 220.94 85.8869C220.478 86.1287 220.072 86.4649 219.748 86.8736C218.319 88.5681 218.337 91.2959 218.797 93.3387C219.317 95.6414 222.405 99.7212 222.653 100.046C220.316 101.809 218.098 103.726 216.016 105.785C214.794 106.966 213.607 108.217 212.427 109.475C212.881 108.82 213.277 108.229 213.324 108.141C214.647 105.673 215.751 100.117 213.572 97.8614C213.2 97.4959 212.755 97.2129 212.266 97.0311C211.778 96.8492 211.256 96.7725 210.736 96.8059C210.215 96.8393 209.708 96.9822 209.246 97.2251C208.785 97.468 208.38 97.8055 208.057 98.2156C206.623 99.9043 206.64 102.632 207.101 104.675C207.562 106.718 210.136 110.284 210.827 111.205L209.48 112.663C207.343 115.025 205.223 117.357 203.068 119.595C202.313 120.386 201.533 121.136 200.76 121.892C201.161 121.301 201.498 120.817 201.539 120.711C202.862 118.243 203.966 112.687 201.787 110.432C201.415 110.066 200.969 109.784 200.481 109.602C199.992 109.42 199.47 109.343 198.949 109.376C198.429 109.409 197.921 109.551 197.459 109.793C196.997 110.034 196.59 110.371 196.267 110.78C194.838 112.474 194.856 115.202 195.316 117.245C195.777 119.288 198.097 122.506 198.918 123.61C198.103 124.354 197.288 125.104 196.462 125.794C195.871 126.249 195.369 126.727 194.767 127.158L193.025 128.445C191.892 129.231 190.723 130.04 189.595 130.778C188.81 131.291 188.06 131.769 187.298 132.254C188.066 131.474 189.53 129.921 189.66 129.78C191.064 127.752 191.926 125.398 192.163 122.943C192.33 122.724 192.476 122.491 192.6 122.246C192.848 121.787 192.996 121.281 193.035 120.76C193.074 120.24 193.004 119.718 192.828 119.226C192.652 118.735 192.374 118.287 192.014 117.91C191.653 117.533 191.217 117.236 190.734 117.038C187.782 115.934 183.136 119.146 181.394 121.343C181.288 121.472 180.331 123.002 179.741 123.976C180.001 123.35 180.26 122.748 180.52 122.098C181.04 120.823 181.524 119.536 182.043 118.148C182.274 117.469 182.51 116.784 182.74 116.094C182.97 115.403 183.159 114.665 183.378 113.945C183.844 112.256 184.234 110.532 184.588 108.778C185.704 109.233 189.701 110.786 191.803 110.715C193.905 110.644 196.526 109.971 197.82 108.158C198.134 107.742 198.357 107.265 198.475 106.757C198.592 106.249 198.601 105.721 198.502 105.21C198.402 104.698 198.196 104.213 197.896 103.786C197.596 103.359 197.21 103 196.763 102.732C194.029 101.191 188.934 103.665 186.879 105.566C186.749 105.69 185.427 107.22 184.718 108.076C184.919 107.025 185.131 105.974 185.308 104.899C185.804 101.8 186.212 98.6526 186.637 95.5115C186.761 94.5491 186.903 93.5926 187.038 92.6361C187.434 92.8015 192.146 94.7498 194.501 94.6672C196.591 94.5963 199.225 93.9233 200.512 92.1107C200.826 91.695 201.05 91.2177 201.168 90.7098C201.286 90.202 201.296 89.6751 201.197 89.1632C201.097 88.6514 200.892 88.1662 200.593 87.7392C200.294 87.3121 199.908 86.9528 199.461 86.6847C196.721 85.1495 191.626 87.6175 189.571 89.5246C189.418 89.6663 187.517 91.8863 187.062 92.4767C187.363 90.3689 187.652 88.267 188.078 86.2064C188.607 83.4223 189.315 80.6751 190.197 77.9818C190.38 78.0585 195.287 80.1191 197.701 80.0365C199.792 79.9597 202.425 79.2925 203.712 77.4799C204.027 77.0637 204.25 76.586 204.368 76.0777C204.486 75.5695 204.496 75.042 204.397 74.5298C204.298 74.0175 204.092 73.5318 203.793 73.1042C203.494 72.6766 203.108 72.3168 202.661 72.048C199.921 70.5129 194.832 72.9809 192.771 74.888C192.636 75.012 191.189 76.6947 190.516 77.5095L190.362 77.4209C191.31 74.7381 192.495 72.1457 193.905 69.6745C194.673 68.3047 195.476 67.0353 196.267 65.819C197.141 66.2973 201.161 68.4287 203.352 68.5999C205.442 68.7535 208.14 68.3756 209.61 66.7165C209.968 66.3375 210.243 65.8873 210.415 65.3953C210.588 64.9032 210.655 64.3804 210.612 63.8607C210.569 63.3411 210.417 62.8363 210.166 62.3792C209.915 61.9222 209.571 61.523 209.156 61.2078C206.605 59.3775 201.274 61.2728 199.018 62.9437C198.9 63.0322 197.755 64.0891 196.934 64.8744C197.306 64.3312 197.684 63.7644 198.056 63.2507C199.437 61.3259 200.825 59.6432 202.059 58.1612C202.773 57.3287 203.434 56.5848 204.054 55.8999C205.159 55.8999 209.604 55.9471 211.576 55.1028C213.548 54.2585 215.709 52.6998 216.264 50.5507C216.408 50.0484 216.444 49.5215 216.37 49.0044C216.296 48.4873 216.114 47.9916 215.835 47.5497C215.556 47.1078 215.188 46.7297 214.753 46.44C214.318 46.1504 213.827 45.9556 213.312 45.8686C210.207 45.4199 206.345 49.5647 205.111 52.0799C205.005 52.2983 203.736 55.894 203.789 55.894H203.86C203.269 56.5435 202.59 57.2461 201.893 58.0313C200.624 59.4838 199.195 61.1429 197.76 63.044C196.196 65.082 194.751 67.2092 193.433 69.4147C191.948 71.8781 190.686 74.4684 189.66 77.1552L189.624 77.2556C189.678 76.3345 189.725 73.7662 189.707 73.5654C189.447 70.7727 187.304 65.5356 184.24 64.8567C183.728 64.7579 183.201 64.7679 182.694 64.8861C182.186 65.0043 181.709 65.228 181.294 65.5426C180.878 65.8573 180.534 66.2558 180.282 66.7124C180.031 67.1689 179.879 67.6732 179.835 68.1926C179.605 70.3948 181.122 72.6621 182.634 74.1086Z" fill="#9C9C9C"/>
<path d="M218.343 178.041V176.063C218.343 165.878 231.238 165.435 231.238 158.185C231.238 155.038 228.675 152.983 224.861 152.983C220.687 152.983 218.048 155.257 218.048 158.48V159.289C218.048 160.092 217.611 160.47 216.802 160.47L208.967 160.175C208.235 160.175 207.721 159.809 207.721 159.301V158.492C207.721 149.636 214.753 143.548 225.086 143.548C235.194 143.548 241.712 149.264 241.712 157.831C241.712 169.994 228.599 170.07 228.599 176.724V178.041C228.619 178.209 228.6 178.38 228.544 178.54C228.489 178.701 228.398 178.846 228.278 178.966C228.158 179.086 228.012 179.177 227.852 179.233C227.692 179.288 227.521 179.307 227.353 179.287H219.589C219.42 179.307 219.25 179.288 219.089 179.233C218.929 179.177 218.784 179.086 218.664 178.966C218.544 178.846 218.453 178.701 218.397 178.54C218.342 178.38 218.323 178.209 218.343 178.041ZM217.682 189.85C217.682 186.626 220.539 183.987 223.981 183.987C227.282 183.987 230.21 186.626 230.21 189.85C230.21 193.073 227.258 195.712 223.911 195.712C220.563 195.712 217.682 193.061 217.682 189.838V189.85Z" fill="#263238"/>
<path d="M63.5337 94.1417V92.4236C63.5337 83.5672 74.7518 83.1952 74.7518 76.8954C74.7518 74.1558 72.5258 72.3787 69.2195 72.3787C65.5884 72.3787 63.3152 74.3507 63.3152 77.1493V77.8519C63.3152 78.5486 62.9374 78.8674 62.2347 78.8674L55.4272 78.6136C54.7895 78.6136 54.3467 78.2947 54.3467 77.8519V77.1493C54.3467 69.4738 60.4517 64.16 69.4261 64.16C78.2057 64.16 83.8738 69.1254 83.8738 76.5589C83.8738 87.1216 72.4786 87.1865 72.4786 92.9786V94.124C72.4956 94.27 72.4794 94.418 72.4311 94.5568C72.3828 94.6957 72.3038 94.8218 72.1998 94.9257C72.0959 95.0296 71.9698 95.1087 71.8309 95.157C71.6921 95.2053 71.5441 95.2215 71.3981 95.2045H64.6142C64.4698 95.221 64.3236 95.2051 64.1862 95.1578C64.0488 95.1105 63.9237 95.033 63.8201 94.9312C63.7165 94.8293 63.637 94.7055 63.5875 94.5689C63.5379 94.4323 63.5195 94.2863 63.5337 94.1417ZM62.9433 104.386C62.9433 101.587 65.423 99.2961 68.4106 99.2961C71.2742 99.2961 73.8248 101.587 73.8248 104.386C73.8248 107.184 71.2741 109.475 68.3515 109.475C66.9632 109.51 65.6173 108.995 64.6074 108.041C63.5976 107.088 63.0057 105.774 62.961 104.386H62.9433Z" fill="#407BFF"/>
<path d="M206.038 26.3905V25.5226C206.038 21.0531 211.695 20.8582 211.695 17.6758C211.695 16.2942 210.567 15.3909 208.896 15.3909C207.066 15.3909 205.908 16.3887 205.908 17.8057V18.16C205.908 18.5142 205.714 18.6737 205.359 18.6737L201.923 18.5438C201.598 18.5438 201.374 18.3843 201.374 18.16V17.8057C201.374 13.9148 204.462 11.2461 208.996 11.2461C213.43 11.2461 216.294 13.7554 216.294 17.5164C216.294 22.8302 210.537 22.8834 210.537 25.7824V26.3728C210.546 26.4467 210.538 26.5217 210.513 26.5919C210.489 26.6622 210.448 26.7259 210.395 26.7783C210.342 26.8307 210.278 26.8703 210.208 26.8941C210.137 26.918 210.062 26.9255 209.988 26.916H206.582C206.51 26.9251 206.436 26.918 206.368 26.8951C206.299 26.8722 206.236 26.8341 206.184 26.7837C206.132 26.7332 206.091 26.6717 206.066 26.6036C206.041 26.5356 206.032 26.4627 206.038 26.3905ZM205.749 31.5685C205.711 31.0165 205.84 30.4657 206.12 29.988C206.399 29.5103 206.815 29.1277 207.315 28.8899C207.815 28.6521 208.374 28.5701 208.921 28.6547C209.468 28.7392 209.977 28.9864 210.381 29.364C210.786 29.7416 211.067 30.2322 211.189 30.772C211.311 31.3117 211.268 31.8757 211.065 32.3905C210.862 32.9054 210.509 33.3472 210.052 33.6587C209.594 33.9701 209.054 34.1368 208.5 34.1369C208.151 34.1495 207.803 34.093 207.475 33.9707C207.147 33.8483 206.847 33.6625 206.592 33.4239C206.336 33.1853 206.13 32.8986 205.985 32.5802C205.841 32.2618 205.76 31.918 205.749 31.5685Z" fill="#407BFF"/>
<path d="M40.2294 145.798V144.706C40.2294 139.073 47.3617 138.831 47.3617 134.816C47.3617 133.074 45.9447 131.941 43.8191 131.941C41.5106 131.941 40.0522 133.198 40.0522 134.981V135.424C40.0522 135.873 39.8101 136.074 39.3614 136.074L35.0277 135.914C34.6203 135.914 34.3369 135.708 34.3369 135.424V134.981C34.3369 130.081 38.2278 126.715 43.9431 126.715C49.5344 126.715 53.136 129.874 53.136 134.615C53.136 141.34 45.8856 141.382 45.8856 145.072V145.798C45.8971 145.891 45.8871 145.986 45.8564 146.075C45.8258 146.164 45.7752 146.245 45.7086 146.312C45.6421 146.378 45.5612 146.429 45.4722 146.46C45.3831 146.49 45.2883 146.5 45.1948 146.489H40.9083C40.8158 146.498 40.7223 146.487 40.6348 146.455C40.5472 146.424 40.4679 146.373 40.4027 146.307C40.3375 146.24 40.2881 146.16 40.258 146.072C40.228 145.984 40.2182 145.89 40.2294 145.798V145.798ZM39.8633 152.322C39.8171 151.627 39.9813 150.933 40.3347 150.332C40.688 149.731 41.2141 149.251 41.8445 148.953C42.4748 148.655 43.1802 148.554 43.8688 148.663C44.5574 148.771 45.1973 149.085 45.7052 149.562C46.2132 150.04 46.5656 150.659 46.7166 151.34C46.8676 152.02 46.8102 152.731 46.552 153.378C46.2937 154.026 45.8464 154.581 45.2684 154.97C44.6904 155.36 44.0085 155.567 43.3114 155.564C42.4228 155.592 41.5592 155.267 40.9104 154.659C40.2616 154.051 39.8808 153.211 39.8515 152.322H39.8633Z" stroke="#263238" stroke-miterlimit="10"/>
<path d="M94.5485 43.8789V43.129C94.5485 39.2559 99.455 39.0846 99.455 36.3274C99.455 35.1465 98.4808 34.3494 97.0283 34.3494C95.4401 34.3494 94.4363 35.2115 94.4363 36.4395V36.7466C94.4363 37.0536 94.271 37.1894 93.964 37.1894L91.0119 37.0772C90.7344 37.0772 90.5396 36.9414 90.5396 36.7466V36.4395C90.5396 33.0682 93.2142 30.7537 97.1405 30.7537C101.067 30.7537 103.405 32.9265 103.405 36.1857C103.405 40.8146 98.4158 40.8441 98.4158 43.377V43.8789C98.4234 43.9427 98.4164 44.0075 98.3954 44.0683C98.3743 44.129 98.3398 44.1842 98.2943 44.2297C98.2488 44.2752 98.1936 44.3097 98.1328 44.3308C98.0721 44.3518 98.0073 44.3588 97.9435 44.3512H94.9913C94.9298 44.3542 94.8684 44.3437 94.8114 44.3206C94.7543 44.2975 94.7029 44.2623 94.6608 44.2174C94.6187 44.1724 94.5869 44.1189 94.5675 44.0605C94.5481 44.002 94.5416 43.9401 94.5485 43.8789ZM94.3006 48.3661C94.2746 47.8943 94.3907 47.4256 94.6339 47.0205C94.8771 46.6155 95.2362 46.2926 95.6648 46.0938C96.0934 45.895 96.5718 45.8293 97.0382 45.9052C97.5045 45.9811 97.9374 46.1952 98.2808 46.5197C98.6242 46.8442 98.8624 47.2643 98.9645 47.7256C99.0667 48.1869 99.0281 48.6682 98.8538 49.1074C98.6795 49.5466 98.3775 49.9234 97.9868 50.1891C97.5961 50.4548 97.1347 50.5972 96.6623 50.5979C96.0524 50.6186 95.4593 50.3965 95.0132 49.9802C94.5671 49.564 94.3044 48.9877 94.2828 48.3779L94.3006 48.3661Z" fill="#263238"/>
<path d="M181.931 205.744V204.994C181.931 201.121 186.838 200.955 186.838 198.192C186.838 197.011 185.864 196.214 184.411 196.214C182.823 196.214 181.819 197.076 181.819 198.304V198.611C181.819 198.918 181.654 199.06 181.347 199.06L178.395 198.948C178.117 198.948 177.922 198.806 177.922 198.611V198.304C177.922 194.933 180.597 192.619 184.523 192.619C188.45 192.619 190.853 194.791 190.853 198.056C190.853 202.679 185.864 202.709 185.864 205.242V205.744C185.871 205.808 185.864 205.873 185.843 205.934C185.822 205.995 185.787 206.05 185.742 206.096C185.697 206.142 185.642 206.177 185.581 206.199C185.52 206.221 185.455 206.229 185.391 206.222H182.439C182.372 206.235 182.303 206.231 182.238 206.212C182.173 206.193 182.113 206.159 182.063 206.112C182.014 206.066 181.976 206.008 181.953 205.944C181.93 205.88 181.923 205.811 181.931 205.744V205.744ZM181.683 210.231C181.657 209.759 181.773 209.291 182.017 208.885C182.26 208.48 182.619 208.158 183.048 207.959C183.476 207.76 183.955 207.694 184.421 207.77C184.887 207.846 185.32 208.06 185.664 208.385C186.007 208.709 186.245 209.129 186.347 209.59C186.449 210.052 186.411 210.533 186.237 210.972C186.062 211.411 185.76 211.788 185.37 212.054C184.979 212.32 184.518 212.462 184.045 212.463C183.437 212.477 182.849 212.251 182.407 211.832C181.966 211.414 181.708 210.839 181.689 210.231H181.683Z" stroke="#263238" stroke-miterlimit="10"/>
<path d="M158.816 219.182C158.775 219.058 158.733 218.934 158.686 218.81C158.639 218.686 158.604 218.556 158.556 218.432C158.509 218.308 158.474 218.184 158.426 218.06C158.379 217.936 158.344 217.806 158.297 217.682C158.249 217.558 158.214 217.434 158.167 217.31C158.119 217.186 158.084 217.056 158.037 216.932L157.907 216.56C157.866 216.43 157.818 216.306 157.777 216.182L157.647 215.811C157.606 215.681 157.558 215.557 157.517 215.433L157.387 215.061C157.346 214.931 157.299 214.807 157.257 214.683L157.133 214.287C157.092 214.157 157.045 214.033 157.003 213.909L156.868 213.537C156.826 213.407 156.785 213.284 156.738 213.16C156.691 213.036 156.655 212.912 156.608 212.788C156.561 212.664 156.525 212.534 156.478 212.41C156.431 212.286 156.395 212.162 156.348 212.038C154.423 206.181 148.472 201.882 141.924 201.882C135.577 201.882 130.057 205.578 127.754 210.786C127.695 210.904 127.642 211.028 127.589 211.146L127.429 211.512C127.37 211.63 127.317 211.748 127.264 211.872C127.211 211.996 127.152 212.114 127.098 212.233L126.939 212.593C126.88 212.717 126.827 212.835 126.774 212.959C126.721 213.083 126.662 213.195 126.608 213.319C126.555 213.443 126.496 213.555 126.443 213.679L126.284 214.039C126.225 214.157 126.172 214.281 126.118 214.399C126.065 214.517 126.006 214.641 125.953 214.76L125.794 215.126C125.735 215.244 125.681 215.362 125.628 215.486C125.575 215.61 125.516 215.728 125.463 215.846L125.304 216.206C125.245 216.33 125.191 216.448 125.138 216.572C125.085 216.696 125.026 216.808 124.973 216.932L124.814 217.292C124.755 217.411 124.701 217.535 124.648 217.653C124.595 217.771 124.536 217.895 124.483 218.019C123.47 220.176 122.95 222.532 122.96 224.915C122.96 234.421 131.167 242.191 141.316 242.191C151.247 242.191 159.885 234.421 159.885 224.915C159.883 223.103 159.565 221.304 158.946 219.601C158.905 219.43 158.863 219.306 158.816 219.182Z" fill="#263238"/>
<path d="M144.77 88.4096C114.322 88.4096 93.5918 106.329 93.5918 132.461V134.823C93.5973 135.213 93.7034 135.595 93.9 135.933C94.0965 136.27 94.3768 136.551 94.7136 136.748C94.841 136.87 94.9793 136.981 95.1269 137.078C95.2548 137.203 95.3953 137.313 95.5461 137.409C95.6741 137.533 95.8145 137.644 95.9653 137.74C96.0921 137.865 96.2327 137.976 96.3845 138.07C96.5104 138.195 96.6489 138.305 96.7978 138.401C96.9256 138.527 97.0661 138.64 97.217 138.737C97.3465 138.86 97.4868 138.971 97.6362 139.068C97.7645 139.192 97.9049 139.303 98.0554 139.399C98.1816 139.523 98.3201 139.633 98.4687 139.729C98.6074 139.863 98.7598 139.982 98.9233 140.084C99.0437 140.193 99.172 140.294 99.3071 140.385C99.4366 140.507 99.5769 140.618 99.7263 140.715C99.8537 140.838 99.992 140.949 100.14 141.046C100.269 141.169 100.409 141.279 100.559 141.377C100.687 141.501 100.828 141.611 100.978 141.707C101.104 141.831 101.243 141.942 101.391 142.038C101.52 142.162 101.66 142.273 101.811 142.368C101.937 142.492 102.075 142.603 102.224 142.699C102.353 142.822 102.494 142.932 102.643 143.03C102.769 143.154 102.908 143.265 103.056 143.36C103.739 143.961 104.629 144.27 105.536 144.222L124.524 144.931C126.478 144.931 127.541 144.045 127.541 142.091V140.143C127.541 132.331 133.93 126.834 144.073 126.834C153.301 126.834 159.513 131.8 159.513 139.434C159.513 140.304 159.43 141.172 159.265 142.026C149.735 154.519 124.932 160.028 124.932 184.277V190.11C124.932 192.472 126.225 193.777 128.604 193.777H151.465C153.827 193.777 155.138 192.484 155.138 190.11V186.219C155.138 166.57 193.793 166.352 193.793 130.507C193.793 105.249 174.569 88.4096 144.77 88.4096Z" fill="#263238"/>
<path d="M124.903 190.121V184.288C124.903 154.271 162.909 152.995 162.909 131.598C162.909 122.311 155.351 116.247 144.121 116.247C131.811 116.247 124.047 122.943 124.047 132.443V134.804C124.047 137.166 122.748 138.264 120.374 138.264L97.2652 137.396C95.1101 137.396 93.5986 136.316 93.5986 134.804V132.443C93.5986 106.31 114.328 88.391 144.777 88.391C174.575 88.391 193.782 105.23 193.782 130.5C193.782 166.345 155.127 166.563 155.127 186.213V190.103C155.127 192.465 153.828 193.77 151.454 193.77H128.575C126.196 193.788 124.903 192.495 124.903 190.121ZM122.96 224.915C122.96 215.415 131.38 207.639 141.529 207.639C151.248 207.639 159.886 215.415 159.886 224.915C159.886 234.415 151.23 242.161 141.317 242.161C131.156 242.161 122.96 234.391 122.96 224.915Z" fill="#407BFF" stroke="#407BFF" stroke-miterlimit="10"/>
<path d="M140.371 261.521C158.178 261.521 172.614 258.294 172.614 254.312C172.614 250.331 158.178 247.103 140.371 247.103C122.564 247.103 108.128 250.331 108.128 254.312C108.128 258.294 122.564 261.521 140.371 261.521Z" fill="#263238"/>
<path d="M115.727 90.7999L114.493 93.4922C114.493 93.4922 107.325 94.2657 107.325 94.803C107.325 95.3403 107.402 99.0422 107.792 99.1957C108.088 99.3111 108.417 99.3111 108.713 99.1957L119.269 96.4975L120.273 91.721L115.727 90.7999Z" fill="white" stroke="#263238" stroke-linecap="round" stroke-linejoin="round"/>
<path d="M113.72 95.6119C112.409 96.6858 110.995 97.6272 109.498 98.4223C107.792 99.1898 107.727 100.353 108.27 100.353C108.813 100.353 113.631 98.3337 113.631 98.3337C113.631 98.3337 118.006 97.1883 118.638 96.8399C119.27 96.4916 119.34 94.555 119.34 94.555" fill="white"/>
<path d="M113.72 95.6119C112.409 96.6858 110.995 97.6272 109.498 98.4223C107.792 99.1898 107.727 100.353 108.27 100.353C108.813 100.353 113.631 98.3337 113.631 98.3337C113.631 98.3337 118.006 97.1883 118.638 96.8399C119.27 96.4916 119.34 94.555 119.34 94.555" stroke="#263238" stroke-linecap="round" stroke-linejoin="round"/>
<path d="M122.032 39.0669L117.628 72.8274L114.563 91.1069L121.365 92.7129L126.437 71.0915L128.84 57.4823L122.032 39.0669Z" fill="#7D7D7D" stroke="#263238" stroke-linecap="round" stroke-linejoin="round"/>
<path d="M157.576 14.6233L154.89 14.1982L149.387 12.114L149.186 18.65L157.718 19.4353L157.576 14.6233Z" fill="white" stroke="#263238" stroke-linecap="round" stroke-linejoin="round"/>
<path d="M126.172 134.344C124.17 136.678 122.299 139.122 120.569 141.665C118.295 145.137 119.098 148.868 121.903 149.807C124.707 150.746 128.303 148.201 129.242 146.199C130.181 144.198 129.909 143.135 131.373 141.134C132.838 139.132 134.042 137.131 133.511 134.462C132.979 131.793 127.612 132.478 126.172 134.344Z" fill="#7D7D7D" stroke="#263238" stroke-linecap="round" stroke-linejoin="round"/>
<path d="M128.97 146.701C128.781 146.3 128.563 145.875 128.303 145.42C126.16 141.647 122.399 141.948 120.037 142.651C118.484 145.822 119.37 148.974 121.915 149.825C124.459 150.675 127.742 148.597 128.97 146.701Z" fill="white" stroke="#263238" stroke-linecap="round" stroke-linejoin="round"/>
<path d="M128.303 145.42C127.506 146.601 126.437 149.825 122.298 148.49C121.144 148.194 120.112 147.544 119.346 146.63C119.436 147.35 119.725 148.031 120.181 148.596C120.637 149.16 121.241 149.586 121.926 149.825C124.725 150.758 128.327 148.219 129.265 146.217C130.204 144.216 129.933 143.153 131.397 141.151C132.861 139.15 134.065 137.148 133.534 134.48C133.534 137.68 132.353 138.211 130.865 139.947C129.378 141.683 129.106 144.216 128.303 145.42Z" fill="white" stroke="#263238" stroke-linecap="round" stroke-linejoin="round"/>
<path d="M165.547 134.344C167.549 136.678 169.42 139.122 171.15 141.665C173.423 145.137 172.62 148.868 169.816 149.807C167.011 150.746 163.416 148.201 162.477 146.199C161.538 144.198 161.81 143.135 160.345 141.134C158.881 139.132 157.677 137.131 158.208 134.462C158.739 131.793 164.083 132.478 165.547 134.344Z" fill="#7D7D7D" stroke="#263238" stroke-linecap="round" stroke-linejoin="round"/>
<path d="M162.754 146.701C162.937 146.3 163.156 145.875 163.416 145.42C165.559 141.647 169.32 141.948 171.682 142.651C173.234 145.822 172.349 148.974 169.804 149.825C167.259 150.675 163.977 148.597 162.754 146.701Z" fill="white" stroke="#263238" stroke-linecap="round" stroke-linejoin="round"/>
<path d="M163.416 145.42C164.213 146.601 165.281 149.825 169.42 148.49C170.574 148.194 171.607 147.544 172.372 146.63C172.283 147.35 171.994 148.031 171.538 148.596C171.082 149.16 170.477 149.586 169.792 149.825C166.994 150.758 163.392 148.219 162.453 146.217C161.515 144.216 161.786 143.153 160.322 141.151C158.858 139.15 157.653 137.148 158.185 134.48C158.185 137.68 159.365 138.211 160.853 139.947C162.341 141.683 162.613 144.216 163.416 145.42Z" fill="white" stroke="#263238" stroke-linecap="round" stroke-linejoin="round"/>
<path d="M171.805 88.3083C171.805 85.9053 167.673 83.2366 167.673 83.2366C161.444 76.9013 150.202 77.7397 146.051 78.3065C141.918 77.7161 130.665 76.9013 124.436 83.2366C124.436 83.2366 120.303 85.9053 120.303 88.3083C120.303 90.7113 125.51 134.078 125.51 134.078C125.51 134.078 125.374 136.345 129.112 136.611C132.849 136.877 134.426 134.745 134.426 134.745L135.896 98.0503C135.896 98.0503 141.9 93.7756 142.981 93.6457C143.371 93.5926 143.878 93.51 144.445 93.4391V93.5099C145.502 93.2895 146.594 93.2895 147.651 93.5099V93.4391C148.242 93.51 148.72 93.5926 149.115 93.6457C150.184 93.7756 156.201 98.0503 156.201 98.0503L157.671 134.745C157.671 134.745 159.271 136.877 162.985 136.611C166.698 136.345 166.586 134.078 166.586 134.078C166.586 134.078 171.805 90.7113 171.805 88.3083Z" fill="#263238" stroke="#263238" stroke-linecap="round" stroke-linejoin="round"/>
<path d="M156.194 98.0503C156.194 98.0503 155.391 89.2412 159.265 85.9053" stroke="#707070" stroke-linecap="round" stroke-linejoin="round"/>
<path d="M135.913 98.0503C135.913 98.0503 136.315 90.7113 135.512 88.0426C134.709 85.3739 133.375 84.3052 133.375 84.3052" stroke="#707070" stroke-linecap="round" stroke-linejoin="round"/>
<path d="M140.85 80.5678C140.85 80.5678 145.118 85.5038 145.921 89.6427" stroke="#707070" stroke-linecap="round" stroke-linejoin="round"/>
<path d="M150.19 80.8512C150.19 80.8512 147.787 83.52 147.521 85.5215" stroke="#707070" stroke-linecap="round" stroke-linejoin="round"/>
<path d="M144.185 28.9293C144.185 28.9293 140.318 28.392 138.984 29.7264C137.649 31.0608 133.109 35.979 133.109 35.979L135.512 78.4128C135.512 78.4128 140.985 80.5501 145.655 80.5501C150.326 80.5501 155.663 78.8143 156.873 77.8814C158.084 76.9485 157.009 31.4445 157.009 31.4445C157.009 31.4445 147.096 28.5278 144.185 28.9293Z" fill="#407BFF" stroke="#263238" stroke-linecap="round" stroke-linejoin="round"/>
<path d="M151.259 29.8622C153.29 29.5537 155.339 29.3743 157.393 29.3249C160.062 29.3249 162.707 29.4607 162.707 29.4607L169.379 23.0546L155.953 19.9844L157.021 13.8499C157.021 13.8499 166.893 13.1827 171.829 14.1156C176.765 15.0484 184.506 17.4515 184.907 17.4515C185.309 17.4515 185.84 18.9216 185.438 19.9844C185.037 21.0471 172.484 34.9339 168.735 38.5355C166.283 40.939 163.967 43.4779 161.798 46.1402L160.086 75.8976C160.086 75.8976 164.49 78.3006 165.293 79.0977C166.096 79.8948 167.029 83.1008 167.029 83.1008C167.029 83.1008 158.887 79.7649 156.75 79.4992C154.612 79.2335 153.284 79.0977 152.882 78.3183C152.481 77.539 149.145 41.8891 149.145 41.8891L149.281 30.5471C149.281 30.5471 149.257 29.8622 151.259 29.8622Z" fill="#7D7D7D" stroke="#263238" stroke-linecap="round" stroke-linejoin="round"/>
<path d="M159.265 48.1417L152.056 49.0746L152.723 51.7433L156.33 52.6762L159.796 51.0761L159.265 48.1417Z" stroke="#263238" stroke-linecap="round" stroke-linejoin="round"/>
<path d="M163.398 32.1294L161.798 46.1402L165.937 34.2668" stroke="#263238" stroke-linecap="round" stroke-linejoin="round"/>
<path d="M169.402 23.0546C169.402 23.0546 172.738 23.7218 177.81 21.7202" stroke="#263238" stroke-linecap="round" stroke-linejoin="round"/>
<path d="M172.874 23.9875C175.066 24.0485 177.257 23.8703 179.41 23.4561" stroke="#263238" stroke-linecap="round" stroke-linejoin="round"/>
<path d="M139.651 28.7935L140.318 38.5355C140.926 39.3355 141.714 39.9814 142.617 40.4214C143.521 40.8613 144.515 41.083 145.52 41.0684C148.856 40.9386 149.257 38.5355 149.257 38.5355V30.5294L139.651 28.7935Z" fill="white" stroke="#263238" stroke-linecap="round" stroke-linejoin="round"/>
<path d="M149.387 33.8653L149.121 41.8832L151.926 37.4787C151.926 37.4787 154.996 41.3459 155.793 41.2161C156.59 41.0862 155.262 39.4802 154.996 38.0159C154.73 36.5517 152.457 31.3383 152.191 29.874C151.926 28.4097 149.387 28.1381 149.239 28.8053C149.165 29.3816 149.165 29.9649 149.239 30.5412L149.387 33.8653Z" fill="#7D7D7D" stroke="#263238" stroke-linecap="round" stroke-linejoin="round"/>
<path d="M140.182 41.0684C140.182 41.0684 140.714 78.4305 139.379 78.8556C138.045 79.2807 132.707 79.3929 129.342 80.993C125.977 82.593 124.406 83.2602 124.406 83.2602C124.406 83.2602 126.006 79.3929 127.878 77.6571C129.122 76.539 130.512 75.5955 132.011 74.8525L128.545 56.9745C128.545 56.9745 122.139 40.0234 122.003 39.0905C121.867 38.1576 134.148 31.2202 136.681 30.0157C139.214 28.8112 139.887 29.8858 139.887 29.8858L140.182 41.0684Z" fill="#7D7D7D" stroke="#263238" stroke-linecap="round" stroke-linejoin="round"/>
<path d="M136.847 28.1263C136.847 28.1263 133.646 38.2698 133.375 39.6042C133.103 40.9386 133.375 40.9386 134.314 39.9998C135.252 39.061 137.65 36.7997 137.65 36.7997L140.182 41.0685L140.047 33.1981V28.6577C140.047 28.6577 139.917 26.792 136.847 28.1263Z" fill="#7D7D7D" stroke="#263238" stroke-linecap="round" stroke-linejoin="round"/>
<path d="M130.576 50.0134H138.446L138.316 53.2135L134.845 54.412L130.44 53.2135L130.576 50.0134Z" stroke="#263238" stroke-linecap="round" stroke-linejoin="round"/>
<path d="M152.192 14.9186C152.192 14.9186 154.057 23.0546 154.459 24.3654C154.86 25.6761 152.328 30.9073 151.507 32.1058C151.195 32.6256 150.765 33.0651 150.252 33.3891C149.74 33.7131 149.158 33.9126 148.555 33.9716C147.622 33.9716 142.55 32.2416 141.346 31.4386C140.141 30.6357 138.949 29.7028 138.949 29.7028C138.381 29.9616 137.75 30.0492 137.133 29.9548C136.517 29.8604 135.941 29.5881 135.477 29.1714C133.877 27.7013 131.739 25.9654 132.271 24.7668C132.53 24.1787 132.963 23.6843 133.512 23.3506C134.061 23.0169 134.7 22.86 135.341 22.9011C136.811 22.9011 136.28 22.7653 136.28 22.7653C136.28 22.7653 133.611 18.898 133.611 15.8278C133.611 12.7576 139.344 10.514 142.68 10.514C144.987 10.6101 147.253 11.1535 149.352 12.114L152.192 14.9186Z" fill="white" stroke="#263238" stroke-linecap="round" stroke-linejoin="round"/>
<path d="M147.521 17.9828L149.924 22.5232L147.521 24.1233L146.453 22.7889" stroke="#263238" stroke-linecap="round" stroke-linejoin="round"/>
<path d="M151.926 22.1217C151.926 22.1217 152.056 23.1904 150.456 24.9262" stroke="#263238" stroke-linecap="round" stroke-linejoin="round"/>
<path d="M144.988 19.6537C144.988 20.2796 144.717 20.7874 144.398 20.7874C144.079 20.7874 143.808 20.2796 143.808 19.6537C143.808 19.0279 144.079 18.5201 144.398 18.5201C144.717 18.5201 144.988 19.0279 144.988 19.6537Z" fill="#263238"/>
<path d="M149.186 18.65C149.519 18.65 149.788 18.1425 149.788 17.5164C149.788 16.8903 149.519 16.3828 149.186 16.3828C148.854 16.3828 148.584 16.8903 148.584 17.5164C148.584 18.1425 148.854 18.65 149.186 18.65Z" fill="#263238"/>
<path d="M137.779 7.97515C137.779 7.97515 129.383 11.0454 129.106 14.9185C128.828 18.7917 136.581 24.1233 136.982 24.7904C137.384 25.4576 138.582 23.9875 138.582 23.9875C138.315 23.629 138.129 23.217 138.036 22.7798C137.944 22.3426 137.947 21.8905 138.045 21.4545C138.446 20.1202 140.182 18.5024 140.182 17.853C140.182 17.2035 138.181 18.3843 138.181 16.3828C138.181 14.3813 143.117 13.1827 146.051 13.3126C148.986 13.4425 151.524 18.3843 153.662 15.9813C155.799 13.5783 152.723 12.917 152.723 12.917C152.723 12.917 156.856 12.3797 156.856 10.2483C156.856 8.11685 154.719 6.6408 153.786 6.6408C152.853 6.6408 150.32 8.24675 150.32 6.5109C150.32 4.77505 152.853 3.97208 150.45 1.19708C148.047 -1.57792 144.982 1.19708 144.982 2.26575C144.982 3.33442 144.179 5.33005 143.648 5.33005C143.117 5.33005 141.511 2.93293 139.645 4.26729C139.084 4.71332 138.627 5.2759 138.304 5.91611C137.982 6.55632 137.803 7.25886 137.779 7.97515Z" fill="#263238" stroke="#263238" stroke-linecap="round" stroke-linejoin="round"/>
<path d="M141.251 18.2545L145.52 16.6485" stroke="#263238" stroke-linecap="round" stroke-linejoin="round"/>
<path d="M146.187 14.7828C146.106 14.3639 146.172 13.9296 146.376 13.5547" stroke="#263238" stroke-linecap="round" stroke-linejoin="round"/>
<path d="M146.376 13.5428C146.677 12.9524 147.356 12.1908 148.856 11.5708" stroke="white" stroke-linecap="round" stroke-linejoin="round"/>
</g>
<defs>
<clipPath id="clip0">
<rect width="303" height="271" fill="white"/>
</clipPath>
</defs>
</svg>
