<svg width="99" height="99" viewBox="0 0 99 99" fill="none" xmlns="http://www.w3.org/2000/svg">
<path d="M38.374 32.1442C38.2313 31.5249 37.8829 30.9723 37.3856 30.5766C36.8883 30.1809 36.2716 29.9655 35.6361 29.9656H15.204C14.4588 29.9656 13.7443 30.2616 13.2174 30.7884C12.6905 31.3153 12.3945 32.0299 12.3945 32.775V78.1906C12.3945 78.9357 12.6905 79.6503 13.2174 80.1771C13.7443 80.704 14.4588 81 15.204 81H80.076C80.8212 81 81.5357 80.704 82.0626 80.1771C82.5895 79.6503 82.8855 78.9357 82.8855 78.1906V40.0412C82.8855 39.2961 82.5895 38.5815 82.0626 38.0546C81.5357 37.5278 80.8212 37.2318 80.076 37.2318H44.7667C43.2828 37.232 41.8426 36.729 40.6814 35.8049C39.5203 34.8808 38.7069 33.5903 38.374 32.1442Z" fill="#389695"/>
<path opacity="0.6" d="M38.374 32.1442C38.2313 31.5249 37.8829 30.9723 37.3856 30.5766C36.8883 30.1809 36.2716 29.9655 35.6361 29.9656H15.204C14.4588 29.9656 13.7443 30.2616 13.2174 30.7884C12.6905 31.3153 12.3945 32.0299 12.3945 32.775V78.1906C12.3945 78.9357 12.6905 79.6503 13.2174 80.1771C13.7443 80.704 14.4588 81 15.204 81H80.076C80.8212 81 81.5357 80.704 82.0626 80.1771C82.5895 79.6503 82.8855 78.9357 82.8855 78.1906V40.0412C82.8855 39.2961 82.5895 38.5815 82.0626 38.0546C81.5357 37.5278 80.8212 37.2318 80.076 37.2318H44.7667C43.2828 37.232 41.8426 36.729 40.6814 35.8049C39.5203 34.8808 38.7069 33.5903 38.374 32.1442Z" fill="black"/>
<path opacity="0.22" d="M31.1616 18L32.9826 23.8972C33.2151 24.6478 33.7359 25.2754 34.4308 25.6422C35.1256 26.009 35.9377 26.085 36.6885 25.8536L42.5832 24.0326L31.1616 18Z" fill="#389695"/>
<path d="M31.1615 18L10.0908 24.5102C9.71886 24.6245 9.37308 24.811 9.07326 25.059C8.77344 25.307 8.52546 25.6117 8.34352 25.9557C8.16157 26.2997 8.04923 26.6761 8.01292 27.0635C7.9766 27.451 8.01703 27.8417 8.13189 28.2135L20.1613 67.1572C20.2761 67.529 20.4631 67.8746 20.7115 68.1742C20.9599 68.4737 21.2648 68.7214 21.609 68.9031C21.9531 69.0848 22.3297 69.1969 22.7172 69.233C23.1046 69.2691 23.4954 69.2285 23.8672 69.1136L50.8351 60.7824C51.2068 60.6678 51.5523 60.4812 51.8519 60.233C52.1514 59.9849 52.3991 59.6801 52.5808 59.3362C52.7625 58.9922 52.8746 58.6159 52.9108 58.2286C52.9469 57.8413 52.9064 57.4507 52.7915 57.0791L42.5754 24.0326L31.1615 18Z" fill="#389695"/>
<path d="M31.1615 18L10.0908 24.5102C9.71886 24.6245 9.37308 24.811 9.07326 25.059C8.77344 25.307 8.52546 25.6117 8.34352 25.9557C8.16157 26.2997 8.04923 26.6761 8.01292 27.0635C7.9766 27.451 8.01703 27.8417 8.13189 28.2135L20.1613 67.1572C20.2761 67.529 20.4631 67.8746 20.7115 68.1742C20.9599 68.4737 21.2648 68.7214 21.609 68.9031C21.9531 69.0848 22.3297 69.1969 22.7172 69.233C23.1046 69.2691 23.4954 69.2285 23.8672 69.1136L50.8351 60.7824C51.2068 60.6678 51.5523 60.4812 51.8519 60.233C52.1514 59.9849 52.3991 59.6801 52.5808 59.3362C52.7625 58.9922 52.8746 58.6159 52.9108 58.2286C52.9469 57.8413 52.9064 57.4507 52.7915 57.0791L42.5754 24.0326L31.1615 18Z" fill="#F0F0F0"/>
<g opacity="0.28">
<path opacity="0.28" d="M42.4988 59.0814L24.968 64.4959C24.6401 64.5966 24.2857 64.5634 23.9823 64.4036C23.6789 64.2437 23.4511 63.9702 23.3487 63.6429C23.2489 63.315 23.2829 62.961 23.4432 62.6581C23.6035 62.3552 23.8771 62.128 24.2043 62.0262L41.7351 56.6091C42.0633 56.5085 42.418 56.5421 42.7215 56.7025C43.025 56.8628 43.2525 57.1369 43.3544 57.4647C43.4542 57.7926 43.4202 58.1466 43.2599 58.4495C43.0996 58.7524 42.826 58.9796 42.4988 59.0814Z" fill="#389695"/>
</g>
<g opacity="0.28">
<path opacity="0.28" d="M23.6322 27.3043L14.3611 30.1673C14.0333 30.2673 13.6792 30.2338 13.376 30.074C13.0727 29.9143 12.8448 29.6412 12.7419 29.3143C12.642 28.9861 12.6759 28.6317 12.8361 28.3284C12.9964 28.0251 13.2701 27.7975 13.5975 27.695L22.8686 24.832C23.1964 24.7306 23.5511 24.7635 23.8547 24.9234C24.1583 25.0834 24.386 25.3573 24.4878 25.685C24.5877 26.0132 24.5538 26.3676 24.3936 26.6709C24.2333 26.9742 23.9596 27.2019 23.6322 27.3043Z" fill="#389695"/>
</g>
<g opacity="0.28">
<path opacity="0.28" d="M31.1974 30.341L15.8733 35.0736C15.5461 35.1719 15.1934 35.1372 14.8917 34.977C14.59 34.8168 14.3636 34.5441 14.2617 34.218C14.1611 33.8905 14.1943 33.5365 14.3542 33.2335C14.5141 32.9304 14.7876 32.7031 15.1147 32.6013L30.4389 27.8687C30.7667 27.768 31.1211 27.8013 31.4245 27.9611C31.7279 28.121 31.9557 28.3944 32.0581 28.7218C32.1571 29.0506 32.1222 29.4053 31.961 29.7085C31.7998 30.0118 31.5254 30.2391 31.1974 30.341Z" fill="#389695"/>
</g>
<g opacity="0.28">
<path opacity="0.28" d="M39.7535 33.0713L17.3905 39.9671C17.063 40.0677 16.709 40.0345 16.406 39.8746C16.1029 39.7147 15.8756 39.4412 15.7738 39.1141C15.6738 38.7862 15.7074 38.4322 15.8671 38.1289C16.0269 37.8257 16.2999 37.5978 16.6269 37.4948L38.9899 30.599C39.3174 30.4991 39.6711 30.5327 39.974 30.6925C40.2768 30.8522 40.5042 31.1253 40.6066 31.452C40.7073 31.7799 40.6741 32.1343 40.5142 32.4377C40.3544 32.7411 40.0809 32.9689 39.7535 33.0713Z" fill="#389695"/>
</g>
<g opacity="0.28">
<path opacity="0.28" d="M41.2679 37.975L28.2679 41.9925C27.94 42.0923 27.586 42.0583 27.2831 41.898C26.9802 41.7377 26.753 41.4641 26.6512 41.1369C26.5513 40.8094 26.5849 40.4556 26.7447 40.1528C26.9045 39.8499 27.1775 39.6226 27.5042 39.5202L40.5042 35.5027C40.8324 35.4035 41.1864 35.4377 41.4896 35.5979C41.7927 35.7581 42.0205 36.0313 42.1234 36.3583C42.2233 36.6861 42.1893 37.0402 42.029 37.3431C41.8687 37.646 41.5951 37.8731 41.2679 37.975Z" fill="#389695"/>
</g>
<g opacity="0.28">
<path opacity="0.28" d="M22.3066 43.8339L18.9072 44.8836C18.5793 44.9843 18.2249 44.9511 17.9215 44.7912C17.6181 44.6314 17.3903 44.3579 17.2879 44.0306C17.1873 43.7024 17.2209 43.3477 17.3813 43.0442C17.5416 42.7407 17.8157 42.5131 18.1435 42.4113L21.5429 41.3616C21.8708 41.2616 22.2248 41.2951 22.5281 41.4549C22.8313 41.6147 23.0592 41.8877 23.1622 42.2146C23.2614 42.5428 23.2272 42.8969 23.067 43.2C22.9068 43.5032 22.6336 43.7309 22.3066 43.8339Z" fill="#389695"/>
</g>
<g opacity="0.28">
<path opacity="0.28" d="M42.7848 42.8813L20.4218 49.7899C20.094 49.8897 19.74 49.8558 19.4371 49.6954C19.1342 49.5351 18.907 49.2615 18.8051 48.9343C18.7045 48.6068 18.7378 48.2528 18.8977 47.9497C19.0576 47.6467 19.331 47.4194 19.6582 47.3176L42.0212 40.409C42.3487 40.3091 42.7024 40.3427 43.0053 40.5025C43.3081 40.6622 43.5355 40.9353 43.6379 41.262C43.7386 41.5899 43.7054 41.9443 43.5455 42.2477C43.3857 42.5511 43.1122 42.7789 42.7848 42.8813Z" fill="#389695"/>
</g>
<g opacity="0.28">
<path opacity="0.28" d="M35.6694 50.4513L21.9364 54.6936C21.6089 54.7935 21.2552 54.7599 20.9524 54.6001C20.6495 54.4403 20.4221 54.1673 20.3197 53.8405C20.2197 53.5127 20.2533 53.1586 20.413 52.8554C20.5728 52.5521 20.8458 52.3242 21.1728 52.2213L34.9057 47.9791C35.2339 47.8792 35.5883 47.9131 35.8916 48.0733C36.1949 48.2336 36.4226 48.5072 36.525 48.8347C36.6255 49.1625 36.5919 49.5168 36.4315 49.8199C36.2711 50.123 35.997 50.3501 35.6694 50.4513Z" fill="#389695"/>
</g>
<g opacity="0.28">
<path opacity="0.28" d="M44.2995 47.7875L40.6345 48.919C40.3063 49.0189 39.9519 48.985 39.6486 48.8247C39.3453 48.6644 39.1176 48.3908 39.0152 48.0634C38.9154 47.7355 38.9494 47.3815 39.1097 47.0786C39.27 46.7757 39.5436 46.5485 39.8708 46.4467L43.5358 45.3153C43.8634 45.2146 44.2174 45.2479 44.5204 45.4078C44.8234 45.5677 45.0507 45.8411 45.1525 46.1683C45.2532 46.4961 45.22 46.8505 45.0602 47.154C44.9003 47.4574 44.6268 47.6852 44.2995 47.7875Z" fill="#389695"/>
</g>
<g opacity="0.28">
<path opacity="0.28" d="M45.8138 52.6963L23.4559 59.5922C23.1277 59.6928 22.7731 59.6592 22.4696 59.4989C22.1661 59.3385 21.9385 59.0644 21.8367 58.7366C21.7362 58.4088 21.7698 58.0544 21.9302 57.7513C22.0906 57.4483 22.3646 57.2212 22.6923 57.1199L45.0527 50.2113C45.3809 50.1121 45.7349 50.1463 46.0381 50.3065C46.3412 50.4666 46.569 50.7399 46.6719 51.0669C46.7232 51.2302 46.7417 51.4021 46.7263 51.5726C46.7109 51.7431 46.6619 51.9088 46.5821 52.0603C46.5023 52.2117 46.3934 52.3459 46.2615 52.4551C46.1297 52.5643 45.9775 52.6463 45.8138 52.6963Z" fill="#389695"/>
</g>
<path d="M55.399 20.8298L33.3885 22.1886C32.9996 22.2117 32.6191 22.3113 32.2688 22.4816C31.9185 22.6519 31.6052 22.8897 31.3468 23.1812C31.0885 23.4728 30.8902 23.8124 30.7632 24.1807C30.6363 24.549 30.5833 24.9387 30.6071 25.3275L33.1177 66.0079C33.1411 66.397 33.2411 66.7776 33.4119 67.128C33.5827 67.4784 33.821 67.7916 34.113 68.0498C34.4051 68.3079 34.7452 68.5059 35.1139 68.6323C35.4827 68.7588 35.8727 68.8112 36.2617 68.7867L64.4326 67.0474C64.821 67.024 65.201 66.9241 65.5507 66.7536C65.9005 66.583 66.2132 66.3452 66.4708 66.0536C66.7285 65.762 66.9261 65.4224 67.0523 65.0543C67.1785 64.6862 67.2308 64.2968 67.2062 63.9085L65.0864 29.3858L55.399 20.8298Z" fill="#389695"/>
<path d="M55.399 20.8298L33.3885 22.1886C32.9996 22.2117 32.6191 22.3113 32.2688 22.4816C31.9185 22.6519 31.6052 22.8897 31.3468 23.1812C31.0885 23.4728 30.8902 23.8124 30.7632 24.1807C30.6363 24.549 30.5833 24.9387 30.6071 25.3275L33.1177 66.0079C33.1411 66.397 33.2411 66.7776 33.4119 67.128C33.5827 67.4784 33.821 67.7916 34.113 68.0498C34.4051 68.3079 34.7452 68.5059 35.1139 68.6323C35.4827 68.7588 35.8727 68.8112 36.2617 68.7867L64.4326 67.0474C64.821 67.024 65.201 66.9241 65.5507 66.7536C65.9005 66.583 66.2132 66.3452 66.4708 66.0536C66.7285 65.762 66.9261 65.4224 67.0523 65.0543C67.1785 64.6862 67.2308 64.2968 67.2062 63.9085L65.0864 29.3858L55.399 20.8298Z" fill="#F0F0F0"/>
<g opacity="0.22">
<path opacity="0.22" d="M56.7299 63.4232L38.415 64.5547C38.0729 64.5742 37.7369 64.4576 37.4804 64.2304C37.2239 64.0031 37.0678 63.6835 37.0461 63.3415C37.0265 62.9995 37.1426 62.6636 37.3693 62.4068C37.596 62.1499 37.9149 61.993 38.2567 61.97L56.5716 60.8411C56.9137 60.8208 57.25 60.9367 57.507 61.1636C57.764 61.3904 57.9207 61.7097 57.9431 62.0517C57.9633 62.3943 57.8471 62.7309 57.6197 62.988C57.3923 63.245 57.0724 63.4015 56.7299 63.4232Z" fill="#389695"/>
</g>
<g opacity="0.22">
<path opacity="0.22" d="M45.8906 28.0961L36.2032 28.6886C35.8612 28.7082 35.5253 28.592 35.2685 28.3654C35.0117 28.1387 34.8547 27.8198 34.8317 27.478C34.8121 27.1356 34.9286 26.7993 35.1559 26.5424C35.3831 26.2855 35.7026 26.1288 36.0449 26.1065L45.7323 25.5088C46.0742 25.4886 46.4102 25.6046 46.6667 25.8314C46.9233 26.0583 47.0795 26.3776 47.1012 26.7194C47.1229 27.0624 47.0076 27.4001 46.7807 27.6582C46.5537 27.9162 46.2336 28.0737 45.8906 28.0961Z" fill="#389695"/>
</g>
<g opacity="0.22">
<path opacity="0.22" d="M52.5258 32.8312L36.5198 33.817C36.1774 33.838 35.8408 33.7223 35.5837 33.4954C35.3265 33.2684 35.1699 32.9487 35.1483 32.6064C35.128 32.2639 35.2443 31.9272 35.4716 31.6702C35.699 31.4131 36.0189 31.2566 36.3614 31.2349L52.3649 30.2491C52.7072 30.2281 53.0439 30.3438 53.301 30.5707C53.5582 30.7977 53.7147 31.1174 53.7364 31.4597C53.7567 31.8018 53.6408 32.1381 53.414 32.3951C53.1871 32.6521 52.8678 32.8088 52.5258 32.8312Z" fill="#389695"/>
</g>
<g opacity="0.22">
<path opacity="0.22" d="M60.1955 37.5025L36.8364 38.943C36.4931 38.964 36.1555 38.8481 35.8975 38.6207C35.6395 38.3933 35.4821 38.073 35.4598 37.7298C35.4395 37.3879 35.5555 37.0519 35.7824 36.7953C36.0093 36.5388 36.3286 36.3825 36.6704 36.3609L60.032 34.9178C60.3742 34.8983 60.7102 35.0148 60.9666 35.2421C61.2231 35.4694 61.3793 35.789 61.401 36.131C61.4213 36.4723 61.3061 36.8079 61.0803 37.0647C60.8546 37.3215 60.5366 37.4789 60.1955 37.5025Z" fill="#389695"/>
</g>
<g opacity="0.22">
<path opacity="0.22" d="M60.5122 42.6259L46.9325 43.4636C46.5904 43.4839 46.2541 43.3679 45.9971 43.1411C45.7401 42.9143 45.5834 42.595 45.561 42.253C45.54 41.9106 45.6557 41.574 45.8827 41.3169C46.1096 41.0597 46.4293 40.9031 46.7716 40.8815L60.3513 40.0437C60.6937 40.0228 61.0303 40.1385 61.2875 40.3654C61.5446 40.5924 61.7012 40.9121 61.7229 41.2544C61.7431 41.5965 61.6272 41.9328 61.4004 42.1898C61.1736 42.4467 60.8543 42.6035 60.5122 42.6259Z" fill="#389695"/>
</g>
<g opacity="0.22">
<path opacity="0.22" d="M40.7032 43.8467L37.1505 44.0663C36.8086 44.0866 36.4726 43.9706 36.2161 43.7437C35.9595 43.5168 35.8033 43.1975 35.7816 42.8557C35.7613 42.5135 35.8772 42.1773 36.104 41.9203C36.3309 41.6633 36.6502 41.5065 36.9922 41.4842L40.5448 41.2645C40.8872 41.245 41.2235 41.3615 41.4804 41.5887C41.7373 41.8159 41.894 42.1355 41.9163 42.4777C41.9359 42.8199 41.8193 43.1559 41.592 43.4123C41.3647 43.6688 41.0452 43.825 40.7032 43.8467Z" fill="#389695"/>
</g>
<g opacity="0.22">
<path opacity="0.22" d="M60.829 47.7492L37.4674 49.1897C37.1252 49.21 36.7889 49.0941 36.532 48.8672C36.275 48.6404 36.1182 48.3211 36.0959 47.9791C36.0763 47.6367 36.1928 47.3004 36.42 47.0435C36.6473 46.7866 36.9668 46.6299 37.309 46.6076L60.6681 45.1671C61.0107 45.1468 61.3473 45.2631 61.6044 45.4905C61.8614 45.7178 62.0179 46.0378 62.0396 46.3803C62.0599 46.7222 61.9439 47.0582 61.717 47.3147C61.4901 47.5713 61.1708 47.7275 60.829 47.7492Z" fill="#389695"/>
</g>
<g opacity="0.22">
<path opacity="0.22" d="M52.1297 53.4294L37.7838 54.3156C37.4414 54.3352 37.1051 54.2187 36.8482 53.9915C36.5913 53.7642 36.4346 53.4447 36.4123 53.1024C36.3927 52.7603 36.5093 52.4243 36.7366 52.1678C36.9639 51.9113 37.2834 51.7552 37.6254 51.7335L51.9714 50.8472C52.3135 50.8277 52.6495 50.9443 52.906 51.1715C53.1625 51.3988 53.3186 51.7184 53.3403 52.0604C53.3613 52.4025 53.2455 52.7388 53.0185 52.9956C52.7915 53.2523 52.4718 53.4083 52.1297 53.4294Z" fill="#389695"/>
</g>
<g opacity="0.22">
<path opacity="0.22" d="M61.1433 52.8751L57.3123 53.1101C56.9704 53.1304 56.6344 53.0144 56.3778 52.7875C56.1213 52.5606 55.965 52.2413 55.9433 51.8995C55.9224 51.5572 56.038 51.2205 56.265 50.9634C56.492 50.7062 56.8117 50.5497 57.1539 50.528L60.985 50.293C61.3273 50.272 61.664 50.3877 61.9211 50.6147C62.1782 50.8416 62.3348 51.1613 62.3565 51.5036C62.3761 51.846 62.2596 52.1823 62.0323 52.4392C61.8051 52.6961 61.4856 52.8528 61.1433 52.8751Z" fill="#389695"/>
</g>
<g opacity="0.22">
<path opacity="0.22" d="M61.4599 57.9985L38.1008 59.439C37.7587 59.4593 37.4224 59.3434 37.1654 59.1165C36.9084 58.8897 36.7517 58.5704 36.7293 58.2284C36.709 57.8862 36.825 57.5499 37.0518 57.293C37.2786 57.036 37.5979 56.8792 37.9399 56.8569L61.3015 55.4164C61.6434 55.3961 61.9794 55.5121 62.236 55.739C62.4926 55.9659 62.6488 56.2852 62.6705 56.627C62.6915 56.9693 62.5758 57.306 62.3488 57.5631C62.1219 57.8202 61.8022 57.9768 61.4599 57.9985Z" fill="#389695"/>
</g>
<path opacity="0.22" d="M55.3989 20.8298L55.7795 26.9901C55.8032 27.3785 55.9033 27.7585 56.0739 28.1082C56.2445 28.4579 56.4823 28.7707 56.7738 29.0285C57.0653 29.2863 57.4047 29.4841 57.7727 29.6107C58.1407 29.7373 58.53 29.7902 58.9184 29.7663L65.0863 29.3858L55.3989 20.8298Z" fill="#389695"/>
<path d="M48.1918 36.1974C48.188 35.9022 48.125 35.6107 48.0066 35.3403C47.8882 35.0698 47.7168 34.8259 47.5025 34.6228C47.2882 34.4197 47.0354 34.2616 46.759 34.1579C46.4826 34.0541 46.1882 34.0068 45.8932 34.0188H25.4355C23.8852 34.0188 22.3707 35.2779 22.0795 36.8282L14.0062 78.1906C13.7049 79.7409 14.7163 81 16.2666 81H81.1386C82.6889 81 84.1907 79.7434 84.4946 78.1906L91.153 44.0944C91.4543 42.5416 90.4429 41.285 88.8927 41.285H53.5936C50.5287 41.285 48.2965 39.1754 48.1918 36.1974Z" fill="#389695"/>
</svg>
