<svg width="40" height="40" viewBox="0 0 40 40" fill="none" xmlns="http://www.w3.org/2000/svg">
<rect x="12.3229" y="8.55244" width="17.4392" height="26.4818" rx="0.968846" fill="#407BFF" stroke="#263238" stroke-width="0.645897"/>
<path fill-rule="evenodd" clip-rule="evenodd" d="M25.3363 5C25.5761 5 25.8061 5.10579 25.9757 5.2941C26.1453 5.48241 26.2405 5.73781 26.2405 6.00411V10.0206C26.2405 10.2869 26.1453 10.5423 25.9757 10.7306C25.8061 10.9189 25.5761 11.0247 25.3363 11.0247C25.0965 11.0247 24.8665 10.9189 24.697 10.7306C24.5274 10.5423 24.4321 10.2869 24.4321 10.0206V6.00411C24.4321 5.73781 24.5274 5.48241 24.697 5.2941C24.8665 5.10579 25.0965 5 25.3363 5V5Z" fill="#263238"/>
<path fill-rule="evenodd" clip-rule="evenodd" d="M16.2953 5C16.5351 5 16.7651 5.10579 16.9347 5.2941C17.1043 5.48241 17.1995 5.73781 17.1995 6.00411V10.0206C17.1995 10.2869 17.1043 10.5423 16.9347 10.7306C16.7651 10.9189 16.5351 11.0247 16.2953 11.0247C16.0555 11.0247 15.8255 10.9189 15.6559 10.7306C15.4864 10.5423 15.3911 10.2869 15.3911 10.0206V6.00411C15.3911 5.73781 15.4864 5.48241 15.6559 5.2941C15.8255 5.10579 16.0555 5 16.2953 5V5Z" fill="#263238"/>
<path fill-rule="evenodd" clip-rule="evenodd" d="M30.0851 19.3464V34.0653C30.0851 34.7788 29.5068 35.3571 28.7933 35.3571H16.0757L30.0851 19.3464Z" fill="white"/>
<path fill-rule="evenodd" clip-rule="evenodd" d="M14.4873 18.0537C14.4873 17.7874 14.5826 17.532 14.7521 17.3437C14.9217 17.1553 15.1517 17.0496 15.3915 17.0496H27.1461C27.386 17.0496 27.6159 17.1553 27.7855 17.3437C27.9551 17.532 28.0504 17.7874 28.0504 18.0537C28.0504 18.32 27.9551 18.5754 27.7855 18.7637C27.6159 18.952 27.386 19.0577 27.1461 19.0577H15.3915C15.1517 19.0577 14.9217 18.952 14.7521 18.7637C14.5826 18.5754 14.4873 18.32 14.4873 18.0537Z" fill="#263238"/>
<path fill-rule="evenodd" clip-rule="evenodd" d="M14.4873 23.074C14.4873 22.8077 14.5826 22.5522 14.7521 22.3639C14.9217 22.1756 15.1517 22.0698 15.3915 22.0698H21.7209C21.9607 22.0698 22.1907 22.1756 22.3603 22.3639C22.5299 22.5522 22.6251 22.8077 22.6251 23.074C22.6251 23.3403 22.5299 23.5957 22.3603 23.784C22.1907 23.9723 21.9607 24.0781 21.7209 24.0781H15.3915C15.1517 24.0781 14.9217 23.9723 14.7521 23.784C14.5826 23.5957 14.4873 23.3403 14.4873 23.074Z" fill="#263238"/>
<path fill-rule="evenodd" clip-rule="evenodd" d="M14.4873 28.0946C14.4873 27.8283 14.5826 27.5729 14.7521 27.3846C14.9217 27.1962 15.1517 27.0905 15.3915 27.0905H25.3377C25.5776 27.0905 25.8075 27.1962 25.9771 27.3846C26.1467 27.5729 26.2419 27.8283 26.2419 28.0946C26.2419 28.3609 26.1467 28.6163 25.9771 28.8046C25.8075 28.993 25.5776 29.0988 25.3377 29.0988H15.3915C15.1517 29.0988 14.9217 28.993 14.7521 28.8046C14.5826 28.6163 14.4873 28.3609 14.4873 28.0946Z" fill="#263238"/>
<rect x="12.3229" y="8.55244" width="17.4392" height="26.4818" rx="0.968846" stroke="#263238" stroke-width="0.645897"/>
</svg>
