<svg width="790" height="442" viewBox="0 0 790 442" fill="none" xmlns="http://www.w3.org/2000/svg">
<path d="M785.371 381.934C787.652 381.934 788.97 379.913 788.97 376.745C788.97 373.599 787.646 371.578 785.371 371.578C783.096 371.578 781.758 373.613 781.758 376.752C781.758 379.92 783.082 381.934 785.371 381.934ZM785.371 380.843C783.836 380.843 782.987 379.246 782.987 376.745C782.987 374.3 783.857 372.675 785.371 372.675C786.885 372.675 787.741 374.287 787.741 376.752C787.741 379.253 786.899 380.843 785.371 380.843Z" fill="#434A50"/>
<path d="M753.943 316.647H755.137C755.137 315.521 756.055 314.674 757.276 314.674C758.407 314.674 759.134 315.459 759.134 316.445C759.134 317.279 758.826 317.82 757.489 319.23L754.005 322.912V323.773H760.533V322.662H755.699V322.634L758.051 320.189C759.868 318.3 760.369 317.473 760.369 316.369C760.369 314.848 759.107 313.583 757.276 313.583C755.37 313.583 753.943 314.889 753.943 316.647Z" fill="#434A50"/>
<path d="M768.302 323.94C770.606 323.94 771.937 321.918 771.937 318.751C771.937 315.605 770.599 313.583 768.302 313.583C766.005 313.583 764.654 315.619 764.654 318.758C764.654 321.925 765.991 323.94 768.302 323.94ZM768.302 322.849C766.753 322.849 765.895 321.252 765.895 318.751C765.895 316.306 766.773 314.681 768.302 314.681C769.831 314.681 770.695 316.292 770.695 318.758C770.695 321.259 769.845 322.849 768.302 322.849Z" fill="#434A50"/>
<path d="M776.819 323.94C779.123 323.94 780.453 321.918 780.453 318.751C780.453 315.605 779.116 313.583 776.819 313.583C774.522 313.583 773.171 315.619 773.171 318.758C773.171 321.925 774.508 323.94 776.819 323.94ZM776.819 322.849C775.269 322.849 774.412 321.252 774.412 318.751C774.412 316.306 775.29 314.681 776.819 314.681C778.348 314.681 779.212 316.292 779.212 318.758C779.212 321.259 778.362 322.849 776.819 322.849Z" fill="#434A50"/>
<path d="M785.335 323.94C787.639 323.94 788.97 321.918 788.97 318.751C788.97 315.605 787.633 313.583 785.335 313.583C783.038 313.583 781.687 315.619 781.687 318.758C781.687 321.925 783.025 323.94 785.335 323.94ZM785.335 322.849C783.786 322.849 782.929 321.252 782.929 318.751C782.929 316.306 783.806 314.681 785.335 314.681C786.865 314.681 787.729 316.292 787.729 318.758C787.729 321.259 786.878 322.849 785.335 322.849Z" fill="#434A50"/>
<path d="M758.812 266.814H759.98V264.73H761.35V263.632H759.98V256.791H758.194C755.904 260.187 754.769 262.014 753.943 263.598V264.73H758.812V266.814ZM755.139 263.605C755.904 262.215 756.958 260.541 758.792 257.833H758.812V263.632H755.139V263.605Z" fill="#434A50"/>
<path d="M768.73 266.98C770.986 266.98 772.289 264.959 772.289 261.792C772.289 258.645 770.98 256.624 768.73 256.624C766.481 256.624 765.158 258.659 765.158 261.799C765.158 264.966 766.467 266.98 768.73 266.98ZM768.73 265.89C767.213 265.89 766.373 264.292 766.373 261.792C766.373 259.347 767.233 257.721 768.73 257.721C770.228 257.721 771.074 259.333 771.074 261.799C771.074 264.299 770.241 265.89 768.73 265.89Z" fill="#434A50"/>
<path d="M777.07 266.98C779.327 266.98 780.629 264.959 780.629 261.792C780.629 258.645 779.32 256.624 777.07 256.624C774.821 256.624 773.498 258.659 773.498 261.799C773.498 264.966 774.807 266.98 777.07 266.98ZM777.07 265.89C775.553 265.89 774.713 264.292 774.713 261.792C774.713 259.347 775.573 257.721 777.07 257.721C778.568 257.721 779.414 259.333 779.414 261.799C779.414 264.299 778.581 265.89 777.07 265.89Z" fill="#434A50"/>
<path d="M785.411 266.98C787.667 266.98 788.97 264.959 788.97 261.792C788.97 258.645 787.66 256.624 785.411 256.624C783.161 256.624 781.838 258.659 781.838 261.799C781.838 264.966 783.148 266.98 785.411 266.98ZM785.411 265.89C783.893 265.89 783.054 264.292 783.054 261.792C783.054 259.347 783.913 257.721 785.411 257.721C786.908 257.721 787.754 259.333 787.754 261.799C787.754 264.299 786.922 265.89 785.411 265.89Z" fill="#434A50"/>
<path d="M757.641 207.95C759.638 207.95 761.089 206.507 761.089 204.53C761.089 202.63 759.712 201.222 757.857 201.222C756.534 201.222 755.536 201.943 755.138 202.845H755.117C755.158 200.181 756.082 198.697 757.708 198.697C758.707 198.697 759.436 199.217 759.719 200.119H760.954C760.65 198.586 759.375 197.594 757.722 197.594C755.34 197.594 753.943 199.571 753.943 202.942C753.943 206.667 755.846 207.95 757.641 207.95ZM757.628 206.84C756.379 206.84 755.408 205.82 755.408 204.537C755.408 203.261 756.359 202.318 757.648 202.318C758.937 202.318 759.854 203.261 759.854 204.572C759.854 205.834 758.869 206.84 757.628 206.84Z" fill="#434A50"/>
<path d="M768.633 207.943C770.9 207.943 772.209 205.924 772.209 202.761C772.209 199.619 770.893 197.601 768.633 197.601C766.372 197.601 765.043 199.633 765.043 202.768C765.043 205.931 766.359 207.943 768.633 207.943ZM768.633 206.854C767.108 206.854 766.264 205.259 766.264 202.761C766.264 200.32 767.128 198.697 768.633 198.697C770.137 198.697 770.988 200.306 770.988 202.768C770.988 205.266 770.151 206.854 768.633 206.854Z" fill="#434A50"/>
<path d="M777.013 207.943C779.28 207.943 780.589 205.924 780.589 202.761C780.589 199.619 779.274 197.601 777.013 197.601C774.753 197.601 773.423 199.633 773.423 202.768C773.423 205.931 774.739 207.943 777.013 207.943ZM777.013 206.854C775.488 206.854 774.645 205.259 774.645 202.761C774.645 200.32 775.508 198.697 777.013 198.697C778.518 198.697 779.368 200.306 779.368 202.768C779.368 205.266 778.531 206.854 777.013 206.854Z" fill="#434A50"/>
<path d="M785.394 207.943C787.661 207.943 788.97 205.924 788.97 202.761C788.97 199.619 787.654 197.601 785.394 197.601C783.133 197.601 781.804 199.633 781.804 202.768C781.804 205.931 783.12 207.943 785.394 207.943ZM785.394 206.854C783.869 206.854 783.025 205.259 783.025 202.761C783.025 200.32 783.889 198.697 785.394 198.697C786.898 198.697 787.748 200.306 787.748 202.768C787.748 205.266 786.912 206.854 785.394 206.854Z" fill="#434A50"/>
<path d="M757.47 149.955C759.534 149.955 761.004 148.761 761.004 147.08C761.004 145.836 760.168 144.808 758.907 144.503V144.475C759.986 144.121 760.64 143.28 760.64 142.239C760.64 140.71 759.311 139.599 757.47 139.599C755.643 139.599 754.294 140.717 754.294 142.232C754.294 143.287 754.962 144.135 756.034 144.475V144.503C754.78 144.802 753.943 145.83 753.943 147.08C753.943 148.754 755.413 149.955 757.47 149.955ZM757.47 148.865C756.135 148.865 755.177 148.08 755.177 146.989C755.177 145.892 756.135 145.107 757.47 145.107C758.812 145.107 759.763 145.885 759.763 146.989C759.763 148.08 758.812 148.865 757.47 148.865ZM757.47 144.01C756.31 144.01 755.501 143.322 755.501 142.35C755.501 141.37 756.31 140.676 757.47 140.676C758.63 140.676 759.439 141.363 759.439 142.35C759.439 143.322 758.623 144.01 757.47 144.01Z" fill="#434A50"/>
<path d="M768.644 149.955C770.91 149.955 772.219 147.934 772.219 144.767C772.219 141.62 770.904 139.599 768.644 139.599C766.385 139.599 765.057 141.634 765.057 144.774C765.057 147.941 766.372 149.955 768.644 149.955ZM768.644 148.865C767.12 148.865 766.277 147.267 766.277 144.767C766.277 142.322 767.141 140.697 768.644 140.697C770.148 140.697 770.998 142.308 770.998 144.774C770.998 147.274 770.162 148.865 768.644 148.865Z" fill="#434A50"/>
<path d="M777.02 149.955C779.286 149.955 780.594 147.934 780.594 144.767C780.594 141.62 779.279 139.599 777.02 139.599C774.761 139.599 773.432 141.634 773.432 144.774C773.432 147.941 774.747 149.955 777.02 149.955ZM777.02 148.865C775.496 148.865 774.653 147.267 774.653 144.767C774.653 142.322 775.516 140.697 777.02 140.697C778.524 140.697 779.374 142.308 779.374 144.774C779.374 147.274 778.537 148.865 777.02 148.865Z" fill="#434A50"/>
<path d="M785.396 149.955C787.661 149.955 788.97 147.934 788.97 144.767C788.97 141.62 787.655 139.599 785.396 139.599C783.136 139.599 781.808 141.634 781.808 144.774C781.808 147.941 783.123 149.955 785.396 149.955ZM785.396 148.865C783.872 148.865 783.029 147.267 783.029 144.767C783.029 142.322 783.892 140.697 785.396 140.697C786.899 140.697 787.749 142.308 787.749 144.774C787.749 147.274 786.913 148.865 785.396 148.865Z" fill="#434A50"/>
<path d="M750.367 91.794H751.541V81.7712H750.353L747.762 83.6882V84.9454L750.34 83.0978H750.367V91.794Z" fill="#434A50"/>
<path d="M757.418 91.9607C759.685 91.9607 760.994 89.9395 760.994 86.7722C760.994 83.6257 759.678 81.6045 757.418 81.6045C755.158 81.6045 753.828 83.6396 753.828 86.7791C753.828 89.9464 755.144 91.9607 757.418 91.9607ZM757.418 90.8702C755.893 90.8702 755.05 89.2727 755.05 86.7722C755.05 84.3272 755.913 82.7019 757.418 82.7019C758.923 82.7019 759.773 84.3134 759.773 86.7791C759.773 89.2796 758.936 90.8702 757.418 90.8702Z" fill="#434A50"/>
<path d="M768.632 91.9607C770.9 91.9607 772.209 89.9395 772.209 86.7722C772.209 83.6257 770.893 81.6045 768.632 81.6045C766.372 81.6045 765.043 83.6396 765.043 86.7791C765.043 89.9464 766.359 91.9607 768.632 91.9607ZM768.632 90.8702C767.108 90.8702 766.264 89.2727 766.264 86.7722C766.264 84.3272 767.128 82.7019 768.632 82.7019C770.137 82.7019 770.987 84.3134 770.987 86.7791C770.987 89.2796 770.151 90.8702 768.632 90.8702Z" fill="#434A50"/>
<path d="M777.013 91.9607C779.28 91.9607 780.589 89.9395 780.589 86.7722C780.589 83.6257 779.273 81.6045 777.013 81.6045C774.753 81.6045 773.423 83.6396 773.423 86.7791C773.423 89.9464 774.739 91.9607 777.013 91.9607ZM777.013 90.8702C775.488 90.8702 774.645 89.2727 774.645 86.7722C774.645 84.3272 775.508 82.7019 777.013 82.7019C778.518 82.7019 779.368 84.3134 779.368 86.7791C779.368 89.2796 778.531 90.8702 777.013 90.8702Z" fill="#434A50"/>
<path d="M785.393 91.9607C787.661 91.9607 788.97 89.9395 788.97 86.7722C788.97 83.6257 787.654 81.6045 785.393 81.6045C783.133 81.6045 781.804 83.6396 781.804 86.7791C781.804 89.9464 783.12 91.9607 785.393 91.9607ZM785.393 90.8702C783.869 90.8702 783.025 89.2727 783.025 86.7722C783.025 84.3272 783.889 82.7019 785.393 82.7019C786.898 82.7019 787.748 84.3134 787.748 86.7791C787.748 89.2796 786.912 90.8702 785.393 90.8702Z" fill="#434A50"/>
<path d="M7.05762 388.147H790V389.153H7.05762V388.147Z" fill="#EDEDED"/>
<path d="M7.05762 329.118H790V330.123H7.05762V329.118Z" fill="#EDEDED"/>
<path d="M7.05762 271.123H790V272.128H7.05762V271.123Z" fill="#EDEDED"/>
<path d="M7.05762 213.128H790V214.133H7.05762V213.128Z" fill="#EDEDED"/>
<path d="M7.05762 155.133H790V156.139H7.05762V155.133Z" fill="#EDEDED"/>
<path d="M7.05762 97.1387H790V98.1439H7.05762V97.1387Z" fill="#EDEDED"/>
<path d="M7.05762 39.144H790V40.1493H7.05762V39.144Z" fill="#EDEDED"/>
<path d="M28.6914 321.868H48.265V388.148H28.6914V321.868Z" fill="#F5B65A"/>
<path d="M51.3555 293.906H71.9592V388.147H51.3555V293.906Z" fill="#81AE7C"/>
<path d="M51.3555 298.049H71.9592V312.548H51.3555V298.049Z" fill="white"/>
<path fill-rule="evenodd" clip-rule="evenodd" d="M70.7472 299.258H52.5675V311.34H70.7472V299.258ZM51.3555 298.049V312.548H71.9592V298.049H51.3555Z" fill="#C9C9C9"/>
<path d="M28.6914 321.868H48.265V335.331H28.6914V321.868Z" fill="#E18565"/>
<path d="M7.94001 429.81L5.73327 426.172L8.28505 424.378L11.9017 429.579L8.66572 431.853L8.63986 431.816C8.69013 431.185 8.42706 430.609 7.94001 429.81ZM8.43579 433.135L13.3174 429.704L14.2386 431.029L15.0106 430.486L13.5659 428.409L12.7338 428.994L8.59356 423.041L4.46542 425.942L7.14583 430.341C7.70583 431.255 7.93924 431.976 7.63484 432.578L7.1402 432.925L8.58491 435.002L9.35691 434.46L8.43579 433.135Z" fill="black"/>
<path d="M13.9317 422.997C14.6898 422.465 15.5945 422.687 16.1753 423.482L13.5635 425.318C13.0552 424.478 13.1782 423.527 13.9317 422.997ZM17.162 424.941C17.3447 425.49 17.1128 426.117 16.5026 426.546C15.6381 427.153 14.6739 426.925 14.0307 426L13.9984 425.953L17.447 423.529L17.2337 423.223C16.2156 421.759 14.7565 421.373 13.4575 422.286C12.1308 423.218 11.988 424.834 13.0319 426.335C14.0888 427.855 15.5946 428.229 16.9721 427.26C18.0215 426.523 18.402 425.328 17.9525 424.385L17.162 424.941Z" fill="black"/>
<path d="M19.7471 421.394L20.3944 417.535L19.4005 418.234L18.844 421.807L18.807 421.833L17.3202 419.696L16.5159 420.261L19.8772 425.094L20.6815 424.529L19.0655 422.205L19.1025 422.179L22.7849 423.05L23.8204 422.323L19.7471 421.394Z" fill="black"/>
<path d="M25.161 421.45C25.4568 421.242 25.5264 420.847 25.3195 420.549C25.1127 420.252 24.7199 420.182 24.4241 420.39C24.1282 420.598 24.0587 420.993 24.2655 421.29C24.4724 421.588 24.8651 421.658 25.161 421.45Z" fill="black"/>
<path d="M29.7266 414.684L29.203 413.932L26.1705 416.063L26.6941 416.816L29.7266 414.684Z" fill="black"/>
<path d="M35.9169 408.86L34.4468 409.893C33.4945 410.563 32.6194 410.472 32.0344 409.631C31.4526 408.794 31.6671 407.945 32.624 407.272L34.094 406.239L35.9169 408.86ZM35.0999 410.555L36.4405 409.613L38.2342 412.192L39.0663 411.607L34.4025 404.901L31.8831 406.672C30.6304 407.553 30.3356 409.019 31.1792 410.232C31.8741 411.231 33.0185 411.541 34.1134 411.096L34.0645 415.123L35.0538 414.427L35.0999 410.555Z" fill="black"/>
<path d="M43.4857 408.501L44.2901 407.936L40.9288 403.103L40.1244 403.668L41.5109 405.662L39.158 407.315L37.7714 405.322L36.9671 405.887L40.3283 410.72L41.1327 410.155L39.6201 407.98L41.9731 406.326L43.4857 408.501Z" fill="black"/>
<path d="M47.4937 405.684C48.5153 404.966 48.7723 403.99 48.1776 403.135C47.7672 402.545 47.069 402.392 46.4053 402.734L46.3794 402.697C46.7585 402.292 46.7853 401.588 46.4395 401.091C45.8997 400.315 45.0199 400.227 44.1185 400.861L42.0614 402.307L45.4226 407.14L47.4937 405.684ZM43.3214 402.397L44.454 401.601C44.9579 401.246 45.3987 401.296 45.7025 401.733C46.029 402.203 45.8961 402.635 45.2905 403.061L44.2781 403.772L43.3214 402.397ZM44.7306 404.423L45.8077 403.666C46.5104 403.172 47.0159 403.176 47.3649 403.678C47.7043 404.166 47.5742 404.652 46.9917 405.061L45.7713 405.919L44.7306 404.423Z" fill="black"/>
<path d="M50.7342 403.476C51.03 403.268 51.0996 402.873 50.8927 402.576C50.6859 402.278 50.2931 402.208 49.9973 402.416C49.7014 402.624 49.6319 403.019 49.8387 403.316C50.0456 403.614 50.4383 403.684 50.7342 403.476Z" fill="black"/>
<path d="M106.986 321.868H126.56V388.148H106.986V321.868Z" fill="#F5B65A"/>
<path d="M130.681 295.978H150.255V388.148H130.681V295.978Z" fill="#81AE7C"/>
<path d="M130.681 295.978H150.255V300.121H130.681V295.978Z" fill="#253645"/>
<path d="M51.3555 293.906H71.9592V298.048H51.3555V293.906Z" fill="#253645"/>
<path d="M106.986 207.95H126.56V335.331H106.986V207.95Z" fill="#E18565"/>
<path d="M82.8474 431.351L81.3774 432.384C80.4251 433.053 79.5499 432.962 78.9649 432.121C78.3832 431.285 78.5976 430.435 79.5545 429.763L81.0246 428.73L82.8474 431.351ZM82.0304 433.046L83.371 432.103L85.1648 434.683L85.9969 434.098L81.3331 427.392L78.8137 429.163C77.5609 430.043 77.2662 431.51 78.1097 432.722C78.8046 433.722 79.949 434.031 81.044 433.587L80.995 437.613L81.9843 436.918L82.0304 433.046Z" fill="black"/>
<path d="M90.4163 430.992L91.2206 430.426L87.8593 425.593L87.055 426.159L88.4415 428.152L86.0885 429.806L84.702 427.812L83.8976 428.378L87.2589 433.211L88.0633 432.645L86.5507 430.471L88.9037 428.817L90.4163 430.992Z" fill="black"/>
<path d="M94.4242 428.175C95.4458 427.457 95.7029 426.48 95.1082 425.625C94.6977 425.035 93.9996 424.882 93.3358 425.224L93.3099 425.187C93.6891 424.782 93.7158 424.079 93.37 423.581C92.8303 422.805 91.9505 422.718 91.049 423.351L88.9919 424.797L92.3532 429.63L94.4242 428.175ZM90.252 424.887L91.3846 424.091C91.8885 423.737 92.3293 423.787 92.6331 424.224C92.9595 424.693 92.8266 425.126 92.2211 425.551L91.2087 426.263L90.252 424.887ZM91.6611 426.913L92.7383 426.156C93.4409 425.662 93.9464 425.667 94.2955 426.169C94.6349 426.657 94.5047 427.143 93.9223 427.552L92.7018 428.41L91.6611 426.913Z" fill="black"/>
<path d="M97.6647 425.966C97.9606 425.758 98.0301 425.364 97.8233 425.066C97.6164 424.769 97.2237 424.699 96.9278 424.907C96.632 425.115 96.5624 425.51 96.7693 425.807C96.9761 426.104 97.3689 426.174 97.6647 425.966Z" fill="black"/>
<path d="M102.23 419.201L101.707 418.448L98.6742 420.58L99.1978 421.333L102.23 419.201Z" fill="black"/>
<path d="M108.713 416.112C107.38 416.987 106.039 416.78 105.199 415.572C104.368 414.378 104.636 413.041 105.904 412.074L108.713 416.112ZM110.236 412.039C111.067 413.233 110.799 414.57 109.535 415.534L106.727 411.495C108.055 410.624 109.399 410.835 110.236 412.039ZM109.233 416.86L109.721 417.562L110.544 416.984L110.056 416.282C111.828 414.961 112.222 413.092 111.077 411.447C109.927 409.793 108.043 409.519 106.206 410.747L105.751 410.092L104.928 410.67L105.384 411.326C103.607 412.65 103.213 414.518 104.357 416.164C105.508 417.818 107.396 418.089 109.233 416.86Z" fill="black"/>
<path d="M113.386 408.572C114.144 408.039 115.049 408.262 115.63 409.057L113.018 410.893C112.51 410.053 112.633 409.102 113.386 408.572ZM116.617 410.515C116.799 411.065 116.567 411.692 115.957 412.12C115.093 412.728 114.128 412.499 113.485 411.575L113.453 411.528L116.902 409.104L116.688 408.798C115.67 407.334 114.211 406.948 112.912 407.861C111.585 408.793 111.443 410.409 112.487 411.91C113.543 413.429 115.049 413.803 116.427 412.835C117.476 412.098 117.857 410.903 117.407 409.96L116.617 410.515Z" fill="black"/>
<path d="M121.403 409.213C122.424 408.495 122.681 407.519 122.087 406.664C121.676 406.074 120.978 405.921 120.314 406.263L120.288 406.226C120.668 405.821 120.694 405.117 120.349 404.62C119.809 403.844 118.929 403.756 118.028 404.39L115.97 405.836L119.332 410.669L121.403 409.213ZM117.231 405.926L118.363 405.13C118.867 404.776 119.308 404.826 119.612 405.262C119.938 405.732 119.805 406.164 119.2 406.59L118.187 407.301L117.231 405.926ZM118.64 407.952L119.717 407.195C120.419 406.701 120.925 406.705 121.274 407.207C121.613 407.695 121.483 408.181 120.901 408.591L119.68 409.448L118.64 407.952Z" fill="black"/>
<path d="M122.893 400.846C122.195 401.337 121.884 402.088 121.966 402.839L121.948 402.852L121.379 402.034L120.616 402.571L125.099 409.016L125.904 408.451L124.236 406.053L124.254 406.04C124.909 406.368 125.7 406.318 126.389 405.833C127.6 404.982 127.742 403.415 126.689 401.9C125.635 400.385 124.118 399.985 122.893 400.846ZM125.719 405.246C124.896 405.824 123.847 405.503 123.097 404.425C122.35 403.351 122.407 402.246 123.23 401.668C124.085 401.067 125.106 401.387 125.866 402.479C126.629 403.576 126.574 404.645 125.719 405.246Z" fill="black"/>
<path d="M129.664 403.476C129.959 403.269 130.029 402.874 129.822 402.576C129.615 402.279 129.223 402.209 128.927 402.417C128.631 402.625 128.561 403.02 128.768 403.317C128.975 403.614 129.368 403.684 129.664 403.476Z" fill="black"/>
<path d="M184.25 321.868H203.824V388.148H184.25V321.868Z" fill="#F5B65A"/>
<path d="M207.944 295.978H227.518V388.148H207.944V295.978Z" fill="#81AE7C"/>
<path d="M207.944 295.978H227.518V300.121H207.944V295.978Z" fill="#253645"/>
<path d="M184.25 207.95H203.824V335.331H184.25V207.95Z" fill="#E18565"/>
<path d="M161.304 431.351L159.834 432.384C158.882 433.053 158.007 432.962 157.422 432.121C156.84 431.285 157.055 430.435 158.012 429.763L159.482 428.73L161.304 431.351ZM160.487 433.046L161.828 432.103L163.622 434.683L164.454 434.098L159.79 427.392L157.271 429.163C156.018 430.043 155.723 431.51 156.567 432.722C157.262 433.722 158.406 434.031 159.501 433.587L159.452 437.613L160.441 436.918L160.487 433.046Z" fill="black"/>
<path d="M168.873 430.992L169.678 430.426L166.316 425.593L165.512 426.159L166.899 428.152L164.546 429.806L163.159 427.812L162.355 428.378L165.716 433.211L166.52 432.645L165.008 430.471L167.361 428.817L168.873 430.992Z" fill="black"/>
<path d="M172.881 428.175C173.903 427.457 174.16 426.48 173.565 425.625C173.155 425.035 172.457 424.882 171.793 425.224L171.767 425.187C172.146 424.782 172.173 424.079 171.827 423.581C171.287 422.805 170.408 422.718 169.506 423.351L167.449 424.797L170.81 429.63L172.881 428.175ZM168.709 424.887L169.842 424.091C170.345 423.737 170.786 423.787 171.09 424.224C171.417 424.693 171.284 425.126 170.678 425.551L169.666 426.263L168.709 424.887ZM170.118 426.913L171.195 426.156C171.898 425.662 172.403 425.667 172.753 426.169C173.092 426.657 172.962 427.143 172.379 427.552L171.159 428.41L170.118 426.913Z" fill="black"/>
<path d="M176.122 425.966C176.418 425.758 176.487 425.364 176.28 425.066C176.073 424.769 175.681 424.699 175.385 424.907C175.089 425.115 175.019 425.51 175.226 425.807C175.433 426.104 175.826 426.174 176.122 425.966Z" fill="black"/>
<path d="M180.687 419.201L180.164 418.448L177.131 420.58L177.655 421.333L180.687 419.201Z" fill="black"/>
<path d="M187.17 416.112C185.837 416.987 184.496 416.78 183.656 415.572C182.825 414.378 183.093 413.041 184.361 412.074L187.17 416.112ZM188.693 412.039C189.524 413.233 189.256 414.57 187.992 415.534L185.184 411.495C186.512 410.624 187.856 410.835 188.693 412.039ZM187.69 416.86L188.178 417.562L189.001 416.984L188.513 416.282C190.285 414.961 190.679 413.092 189.534 411.447C188.384 409.793 186.5 409.519 184.663 410.747L184.208 410.092L183.385 410.67L183.841 411.326C182.064 412.65 181.67 414.518 182.814 416.164C183.965 417.818 185.853 418.089 187.69 416.86Z" fill="black"/>
<path d="M191.843 408.572C192.601 408.039 193.506 408.262 194.087 409.057L191.475 410.893C190.967 410.053 191.09 409.102 191.843 408.572ZM195.074 410.515C195.256 411.065 195.024 411.692 194.414 412.12C193.55 412.728 192.585 412.499 191.942 411.575L191.91 411.528L195.359 409.104L195.145 408.798C194.127 407.334 192.668 406.948 191.369 407.861C190.042 408.793 189.9 410.409 190.944 411.91C192 413.429 193.506 413.803 194.884 412.835C195.933 412.098 196.314 410.903 195.864 409.96L195.074 410.515Z" fill="black"/>
<path d="M199.86 409.213C200.881 408.495 201.138 407.519 200.544 406.664C200.133 406.074 199.435 405.921 198.771 406.263L198.746 406.226C199.125 405.821 199.151 405.117 198.806 404.62C198.266 403.844 197.386 403.756 196.485 404.39L194.427 405.836L197.789 410.669L199.86 409.213ZM195.688 405.926L196.82 405.13C197.324 404.776 197.765 404.826 198.069 405.262C198.395 405.732 198.262 406.164 197.657 406.59L196.644 407.301L195.688 405.926ZM197.097 407.952L198.174 407.195C198.876 406.701 199.382 406.705 199.731 407.207C200.07 407.695 199.94 408.181 199.358 408.591L198.137 409.448L197.097 407.952Z" fill="black"/>
<path d="M201.35 400.846C200.652 401.337 200.341 402.088 200.423 402.839L200.405 402.852L199.836 402.034L199.073 402.571L203.556 409.016L204.361 408.451L202.693 406.053L202.711 406.04C203.366 406.368 204.157 406.318 204.846 405.833C206.057 404.982 206.199 403.415 205.146 401.9C204.092 400.385 202.575 399.985 201.35 400.846ZM204.176 405.246C203.353 405.824 202.304 405.503 201.554 404.425C200.807 403.351 200.864 402.246 201.687 401.668C202.542 401.067 203.563 401.387 204.323 402.479C205.086 403.576 205.031 404.645 204.176 405.246Z" fill="black"/>
<path d="M208.121 403.476C208.417 403.269 208.486 402.874 208.279 402.576C208.072 402.279 207.68 402.209 207.384 402.417C207.088 402.625 207.018 403.02 207.225 403.317C207.432 403.614 207.825 403.684 208.121 403.476Z" fill="black"/>
<path d="M266.665 321.868H286.239V388.148H266.665V321.868Z" fill="#F5B65A"/>
<path d="M289.329 287.692H309.932V388.148H289.329V287.692Z" fill="#81AE7C"/>
<path d="M289.329 287.692H309.932V292.87H289.329V287.692Z" fill="#253645"/>
<path d="M266.665 306.333H286.239V335.331H266.665V306.333Z" fill="#E18565"/>
<path d="M239.529 436.958C238.196 437.832 236.855 437.626 236.015 436.418C235.184 435.224 235.452 433.887 236.72 432.919L239.529 436.958ZM241.052 432.884C241.883 434.079 241.615 435.415 240.352 436.379L237.543 432.341C238.871 431.47 240.215 431.681 241.052 432.884ZM240.049 437.706L240.537 438.408L241.36 437.829L240.872 437.128C242.644 435.806 243.038 433.938 241.894 432.293C240.743 430.639 238.859 430.364 237.023 431.593L236.567 430.938L235.744 431.516L236.2 432.171C234.423 433.496 234.03 435.364 235.174 437.009C236.324 438.664 238.213 438.935 240.049 437.706Z" fill="black"/>
<path d="M244.203 429.418C244.961 428.885 245.865 429.107 246.446 429.903L243.834 431.738C243.326 430.899 243.449 429.948 244.203 429.418ZM247.433 431.361C247.616 431.911 247.384 432.537 246.774 432.966C245.909 433.574 244.945 433.345 244.302 432.42L244.269 432.374L247.718 429.95L247.505 429.643C246.487 428.179 245.028 427.793 243.729 428.706C242.402 429.639 242.259 431.254 243.303 432.756C244.36 434.275 245.866 434.649 247.243 433.681C248.293 432.943 248.673 431.749 248.223 430.805L247.433 431.361Z" fill="black"/>
<path d="M252.219 430.059C253.241 429.341 253.498 428.365 252.903 427.51C252.493 426.919 251.795 426.767 251.131 427.109L251.105 427.071C251.484 426.667 251.511 425.963 251.165 425.466C250.625 424.689 249.745 424.602 248.844 425.236L246.787 426.681L250.148 431.515L252.219 430.059ZM248.047 426.771L249.18 425.975C249.683 425.621 250.124 425.671 250.428 426.108C250.754 426.577 250.622 427.01 250.016 427.435L249.004 428.147L248.047 426.771ZM249.456 428.798L250.533 428.041C251.236 427.547 251.741 427.551 252.09 428.053C252.43 428.541 252.3 429.027 251.717 429.436L250.497 430.294L249.456 428.798Z" fill="black"/>
<path d="M253.709 421.692C253.011 422.182 252.701 422.933 252.783 423.685L252.764 423.698L252.196 422.88L251.433 423.416L255.916 429.862L256.72 429.296L255.052 426.899L255.071 426.886C255.726 427.214 256.516 427.163 257.205 426.679C258.416 425.828 258.559 424.261 257.505 422.746C256.451 421.231 254.934 420.831 253.709 421.692ZM256.535 426.092C255.712 426.67 254.663 426.349 253.913 425.271C253.167 424.197 253.224 423.092 254.046 422.513C254.902 421.912 255.923 422.232 256.682 423.324C257.445 424.421 257.39 425.49 256.535 426.092Z" fill="black"/>
<path d="M260.48 424.322C260.776 424.114 260.845 423.719 260.639 423.422C260.432 423.125 260.039 423.055 259.743 423.263C259.447 423.47 259.378 423.865 259.585 424.163C259.791 424.46 260.184 424.53 260.48 424.322Z" fill="black"/>
<path d="M265.046 417.557L264.522 416.804L261.49 418.936L262.013 419.688L265.046 417.557Z" fill="black"/>
<path d="M276.396 413.066L271.733 406.361L270.766 407.04L272.388 414.299L272.351 414.325L266.125 410.302L265.159 410.981L269.823 417.687L270.599 417.141L267.005 411.973L267.038 411.95L272.758 415.623L273.461 415.13L271.993 408.467L272.026 408.445L275.62 413.612L276.396 413.066Z" fill="black"/>
<path d="M278.824 410.461C278.246 410.867 277.652 410.835 277.332 410.375C277.015 409.919 277.185 409.371 277.803 408.874L279.033 407.892L279.308 408.287C279.793 408.984 279.582 409.928 278.824 410.461ZM279.122 411.275C279.769 410.82 280.127 410.029 280.029 409.275L280.048 409.262L280.626 410.094L281.389 409.557L279.065 406.216C278.396 405.254 277.258 405.141 276.13 405.934C274.992 406.733 274.726 407.875 275.253 408.75L276.029 408.204C275.801 407.659 275.986 407.093 276.606 406.658C277.271 406.19 277.905 406.27 278.316 406.86L278.597 407.265L277.274 408.312C276.21 409.157 275.939 410.122 276.514 410.95C277.118 411.819 278.165 411.948 279.122 411.275Z" fill="black"/>
<path d="M281.418 402.217C280.72 402.708 280.409 403.459 280.492 404.21L280.473 404.223L279.904 403.405L279.142 403.941L283.624 410.387L284.429 409.822L282.761 407.424L282.78 407.411C283.435 407.739 284.225 407.688 284.914 407.204C286.125 406.353 286.268 404.786 285.214 403.271C284.16 401.756 282.643 401.356 281.418 402.217ZM284.244 406.617C283.421 407.195 282.372 406.874 281.622 405.796C280.875 404.722 280.932 403.617 281.755 403.038C282.611 402.437 283.632 402.758 284.391 403.85C285.154 404.946 285.099 406.016 284.244 406.617Z" fill="black"/>
<path d="M287.768 397.879L283.866 400.621L284.328 401.285L285.877 400.197L288.776 404.365L289.58 403.8L286.681 399.632L288.23 398.543L287.768 397.879Z" fill="black"/>
<path d="M343.929 321.868H363.503V388.148H343.929V321.868Z" fill="#F5B65A"/>
<path d="M367.624 250.41H387.197V388.148H367.624V250.41Z" fill="#81AE7C"/>
<path d="M367.624 287.692H387.197V292.87H367.624V287.692Z" fill="#253645"/>
<path d="M343.929 299.084H363.503V332.224H343.929V299.084Z" fill="#E18565"/>
<path d="M326.272 431.677L321.608 424.971L320.642 425.65L322.264 432.909L322.227 432.935L316.001 428.912L315.035 429.591L319.698 436.297L320.475 435.751L316.881 430.583L316.913 430.56L322.634 434.234L323.337 433.74L321.869 427.077L321.901 427.055L325.495 432.222L326.272 431.677Z" fill="black"/>
<path d="M328.7 429.071C328.122 429.477 327.528 429.445 327.208 428.985C326.891 428.529 327.061 427.981 327.679 427.484L328.909 426.502L329.184 426.897C329.668 427.594 329.458 428.538 328.7 429.071ZM328.998 429.885C329.645 429.431 330.003 428.639 329.905 427.885L329.923 427.872L330.502 428.704L331.265 428.168L328.941 424.826C328.272 423.864 327.133 423.751 326.005 424.544C324.868 425.343 324.602 426.485 325.129 427.36L325.905 426.815C325.677 426.269 325.862 425.703 326.481 425.268C327.147 424.8 327.781 424.88 328.191 425.471L328.473 425.875L327.15 426.922C326.086 427.767 325.814 428.733 326.39 429.56C326.994 430.429 328.041 430.558 328.998 429.885Z" fill="black"/>
<path d="M331.294 420.827C330.596 421.318 330.285 422.069 330.368 422.82L330.349 422.833L329.78 422.015L329.017 422.551L333.5 428.997L334.305 428.432L332.637 426.034L332.655 426.021C333.31 426.349 334.101 426.299 334.79 425.814C336.001 424.963 336.143 423.396 335.09 421.881C334.036 420.366 332.519 419.966 331.294 420.827ZM334.12 425.227C333.297 425.805 332.248 425.484 331.498 424.406C330.751 423.332 330.808 422.227 331.631 421.649C332.486 421.047 333.507 421.368 334.267 422.46C335.03 423.556 334.975 424.626 334.12 425.227Z" fill="black"/>
<path d="M337.644 416.489L333.742 419.231L334.204 419.895L335.753 418.807L338.652 422.976L339.456 422.41L336.557 418.242L338.106 417.153L337.644 416.489Z" fill="black"/>
<path d="M345.043 414.996L344.52 414.243L341.487 416.375L342.011 417.128L345.043 414.996Z" fill="black"/>
<path d="M354.157 412.078L355.03 411.464L347.907 406.487L347.084 407.065L349.289 415.5L350.163 414.885L349.498 412.495L352.152 410.63L354.157 412.078ZM348.19 407.803L348.218 407.784L351.412 410.091L349.249 411.612L348.19 407.803Z" fill="black"/>
<path d="M358.867 408.767L359.676 408.199L356.315 403.366L352.395 406.121L355.756 410.954L356.56 410.389L353.661 406.22L355.968 404.599L358.867 408.767Z" fill="black"/>
<path d="M359.724 400.845C359.026 401.336 358.715 402.087 358.798 402.839L358.779 402.852L358.21 402.034L357.448 402.57L361.93 409.015L362.735 408.45L361.067 406.052L361.085 406.039C361.741 406.368 362.531 406.317 363.22 405.833C364.431 404.982 364.573 403.415 363.52 401.9C362.466 400.385 360.949 399.984 359.724 400.845ZM362.55 405.245C361.727 405.824 360.678 405.502 359.928 404.424C359.181 403.351 359.238 402.245 360.061 401.667C360.916 401.066 361.937 401.386 362.697 402.478C363.46 403.575 363.405 404.644 362.55 405.245Z" fill="black"/>
<path d="M366.495 403.476C366.791 403.268 366.86 402.873 366.653 402.576C366.447 402.278 366.054 402.208 365.758 402.416C365.462 402.624 365.393 403.019 365.599 403.316C365.806 403.614 366.199 403.684 366.495 403.476Z" fill="black"/>
<path d="M417.073 321.868H436.647V388.148H417.073V321.868Z" fill="#F5B65A"/>
<path d="M439.737 293.906H459.311V389.183H439.737V293.906Z" fill="white"/>
<path fill-rule="evenodd" clip-rule="evenodd" d="M458.159 295.068H440.889V388.021H458.159V295.068ZM439.737 293.906V389.183H459.311V293.906H439.737Z" fill="#C9C9C9"/>
<path d="M439.737 288.728H459.311V293.906H439.737V288.728Z" fill="#253645"/>
<path d="M417.073 319.797H436.647V332.225H417.073V319.797Z" fill="#E18565"/>
<path d="M401.471 429.962L402.344 429.348L395.221 424.371L394.398 424.949L396.603 433.383L397.477 432.769L396.812 430.379L399.465 428.514L401.471 429.962ZM395.504 425.687L395.531 425.668L398.726 427.975L396.562 429.496L395.504 425.687Z" fill="black"/>
<path d="M406.181 426.651L406.99 426.083L403.629 421.25L399.709 424.005L403.07 428.838L403.874 428.272L400.975 424.104L403.282 422.483L406.181 426.651Z" fill="black"/>
<path d="M407.038 418.729C406.34 419.22 406.029 419.971 406.112 420.722L406.093 420.735L405.524 419.917L404.761 420.454L409.244 426.899L410.049 426.334L408.381 423.936L408.399 423.923C409.054 424.251 409.845 424.201 410.534 423.717C411.745 422.865 411.887 421.298 410.834 419.784C409.78 418.269 408.263 417.868 407.038 418.729ZM409.864 423.129C409.041 423.707 407.992 423.386 407.242 422.308C406.495 421.235 406.552 420.129 407.375 419.551C408.23 418.95 409.251 419.27 410.011 420.362C410.774 421.459 410.719 422.528 409.864 423.129Z" fill="black"/>
<path d="M413.809 421.36C414.105 421.152 414.174 420.757 413.967 420.459C413.76 420.162 413.368 420.092 413.072 420.3C412.776 420.508 412.706 420.903 412.913 421.2C413.12 421.498 413.513 421.567 413.809 421.36Z" fill="black"/>
<path d="M418.374 414.594L417.851 413.842L414.818 415.973L415.342 416.726L418.374 414.594Z" fill="black"/>
<path d="M429.725 410.104L425.061 403.398L424.095 404.077L425.717 411.337L425.68 411.363L419.454 407.339L418.488 408.018L423.151 414.724L423.928 414.178L420.334 409.01L420.366 408.988L426.087 412.661L426.79 412.167L425.322 405.505L425.354 405.482L428.948 410.65L429.725 410.104Z" fill="black"/>
<path d="M432.152 407.498C431.575 407.904 430.981 407.872 430.661 407.412C430.344 406.957 430.514 406.408 431.132 405.912L432.362 404.93L432.637 405.325C433.121 406.022 432.911 406.965 432.152 407.498ZM432.451 408.313C433.098 407.858 433.456 407.067 433.358 406.312L433.376 406.299L433.955 407.131L434.718 406.595L432.394 403.254C431.725 402.292 430.586 402.179 429.458 402.971C428.321 403.771 428.055 404.912 428.581 405.788L429.358 405.242C429.13 404.696 429.315 404.131 429.934 403.695C430.6 403.227 431.234 403.308 431.644 403.898L431.926 404.302L430.603 405.349C429.539 406.194 429.267 407.16 429.843 407.987C430.447 408.856 431.494 408.985 432.451 408.313Z" fill="black"/>
<path d="M436.622 405.256L436.518 399.981L436.555 399.955L439.054 403.547L439.858 402.982L436.497 398.149L435.702 398.708L435.805 403.983L435.768 404.009L433.27 400.417L432.466 400.982L435.827 405.815L436.622 405.256ZM431.552 398.511C432.147 399.366 433.16 399.526 434.043 398.905C434.926 398.285 435.124 397.273 434.529 396.418L433.938 396.834C434.313 397.373 434.26 398.04 433.71 398.426C433.16 398.813 432.519 398.634 432.144 398.095L431.552 398.511Z" fill="black"/>
<path d="M494.336 321.868H513.91V388.148H494.336V321.868Z" fill="#F5B65A"/>
<path d="M517 293.906H536.574V389.183H517V293.906Z" fill="#81AE7C"/>
<path d="M517 288.728H536.574V293.906H517V288.728Z" fill="#253645"/>
<path d="M494.336 191.38H513.91V332.224H494.336V191.38Z" fill="#E18565"/>
<path d="M476.114 431.898L471.451 425.192L470.484 425.871L472.106 433.131L472.069 433.157L465.843 429.133L464.877 429.812L469.541 436.518L470.317 435.972L466.723 430.805L466.756 430.782L472.476 434.455L473.179 433.961L471.711 427.299L471.744 427.276L475.338 432.444L476.114 431.898Z" fill="black"/>
<path d="M478.542 429.292C477.964 429.698 477.37 429.666 477.05 429.206C476.734 428.751 476.903 428.203 477.521 427.706L478.751 426.724L479.026 427.119C479.511 427.816 479.3 428.759 478.542 429.292ZM478.84 430.107C479.487 429.652 479.845 428.861 479.747 428.106L479.766 428.093L480.344 428.925L481.107 428.389L478.783 425.048C478.114 424.086 476.976 423.973 475.848 424.765C474.71 425.565 474.445 426.706 474.971 427.582L475.747 427.036C475.52 426.49 475.704 425.925 476.324 425.489C476.989 425.021 477.623 425.102 478.034 425.692L478.315 426.096L476.992 427.143C475.928 427.988 475.657 428.954 476.232 429.781C476.836 430.65 477.883 430.779 478.84 430.107Z" fill="black"/>
<path d="M483.012 427.05L482.908 421.775L482.945 421.749L485.443 425.341L486.248 424.776L482.886 419.943L482.091 420.502L482.195 425.777L482.158 425.803L479.66 422.211L478.855 422.776L482.216 427.609L483.012 427.05ZM477.942 420.305C478.536 421.16 479.549 421.32 480.432 420.699C481.315 420.079 481.513 419.067 480.919 418.212L480.327 418.628C480.702 419.167 480.649 419.834 480.099 420.22C479.549 420.607 478.908 420.428 478.533 419.889L477.942 420.305Z" fill="black"/>
<path d="M490.67 418.181L490.146 417.428L487.114 419.559L487.637 420.312L490.67 418.181Z" fill="black"/>
<path d="M499.949 415.146L500.772 414.567L496.109 407.862L495.286 408.44L495.403 416.328L495.329 416.38L491.606 411.026L490.783 411.604L495.447 418.31L496.27 417.732L496.165 409.863L496.239 409.811L499.949 415.146Z" fill="black"/>
<path d="M505.879 411.103C507.228 410.154 507.401 408.622 506.322 407.069C505.239 405.513 503.751 405.154 502.401 406.103C501.18 406.961 500.925 408.295 501.687 409.697L500.859 410.279L499.473 408.285L498.668 408.851L502.03 413.684L502.834 413.118L501.321 410.943L502.13 410.375C503.198 411.721 504.603 412 505.879 411.103ZM505.381 410.387C504.512 410.998 503.569 410.692 502.781 409.558C501.989 408.42 502.03 407.429 502.899 406.818C503.768 406.208 504.707 406.509 505.499 407.648C506.287 408.782 506.25 409.777 505.381 410.387Z" fill="black"/>
<path d="M512.056 406.637L512.861 406.071L509.5 401.238L508.695 401.803L510.082 403.797L507.729 405.451L506.342 403.457L505.538 404.023L508.899 408.856L509.704 408.29L508.191 406.115L510.544 404.462L512.056 406.637Z" fill="black"/>
<path d="M513.859 401.46C514.479 401.025 515.154 401.125 515.568 401.72C515.978 402.31 515.847 402.983 515.223 403.421L514.336 404.045L512.972 402.084L513.859 401.46ZM513.993 405.275L515.699 404.076C516.799 403.303 517.064 402.169 516.363 401.161C515.661 400.152 514.511 400.013 513.411 400.786L512.51 401.42L511.437 399.877L510.632 400.442L513.993 405.275Z" fill="black"/>
<path d="M576.751 321.868H596.325V388.148H576.751V321.868Z" fill="#F5B65A"/>
<path d="M599.415 288.728H618.989V389.183H599.415V288.728Z" fill="#81AE7C"/>
<path d="M599.415 284.586H618.989V288.728H599.415V284.586Z" fill="#253645"/>
<path d="M576.751 254.553H596.325V332.224H576.751V254.553Z" fill="#E18565"/>
<path d="M551.347 436.745L552.17 436.167L547.506 429.461L546.683 430.04L546.801 437.927L546.727 437.979L543.004 432.626L542.181 433.204L546.844 439.91L547.667 439.332L547.563 431.462L547.637 431.41L551.347 436.745Z" fill="black"/>
<path d="M557.276 432.703C558.626 431.754 558.799 430.221 557.719 428.669C556.637 427.112 555.148 426.754 553.799 427.702C552.578 428.56 552.323 429.895 553.084 431.297L552.257 431.879L550.87 429.885L550.066 430.45L553.427 435.283L554.232 434.718L552.719 432.543L553.528 431.975C554.595 433.321 556 433.599 557.276 432.703ZM556.778 431.987C555.909 432.598 554.967 432.292 554.178 431.158C553.386 430.019 553.427 429.029 554.296 428.418C555.165 427.807 556.105 428.109 556.896 429.247C557.685 430.381 557.647 431.376 556.778 431.987Z" fill="black"/>
<path d="M563.454 428.236L564.258 427.671L560.897 422.838L560.093 423.403L561.479 425.397L559.126 427.05L557.74 425.057L556.935 425.622L560.297 430.455L561.101 429.89L559.589 427.715L561.942 426.061L563.454 428.236Z" fill="black"/>
<path d="M565.257 423.06C565.876 422.625 566.551 422.724 566.965 423.319C567.376 423.909 567.245 424.582 566.621 425.021L565.733 425.645L564.369 423.684L565.257 423.06ZM565.391 426.875L567.097 425.676C568.197 424.903 568.462 423.769 567.76 422.76C567.059 421.752 565.909 421.612 564.809 422.386L563.907 423.019L562.834 421.476L562.03 422.042L565.391 426.875Z" fill="black"/>
<path d="M573.077 417.986L572.553 417.233L569.521 419.364L570.044 420.117L573.077 417.986Z" fill="black"/>
<path d="M582.357 414.951L583.179 414.372L578.516 407.667L577.693 408.245L577.81 416.133L577.736 416.185L574.013 410.831L573.19 411.409L577.854 418.115L578.677 417.537L578.572 409.668L578.646 409.616L582.357 414.951Z" fill="black"/>
<path d="M588.286 410.908C589.636 409.959 589.808 408.427 588.729 406.874C587.646 405.318 586.158 404.959 584.808 405.908C583.588 406.766 583.332 408.1 584.094 409.502L583.267 410.084L581.88 408.09L581.076 408.656L584.437 413.489L585.241 412.923L583.729 410.748L584.538 410.18C585.605 411.526 587.01 411.805 588.286 410.908ZM587.788 410.192C586.919 410.803 585.976 410.497 585.188 409.363C584.396 408.225 584.437 407.234 585.306 406.623C586.175 406.013 587.114 406.314 587.906 407.453C588.695 408.587 588.657 409.582 587.788 410.192Z" fill="black"/>
<path d="M590.932 405.748L589.665 403.608L591.283 402.471L594.182 406.64L594.986 406.074L591.625 401.241L588.477 403.454L590.157 406.265C590.714 407.195 590.925 407.884 590.448 408.219C590.333 408.3 590.229 408.339 590.178 408.354L590.685 409.083C590.757 409.068 590.869 409.031 591.007 408.933C592.02 408.222 591.763 407.15 590.932 405.748Z" fill="black"/>
<path d="M595.989 401.46C596.609 401.025 597.284 401.125 597.697 401.72C598.108 402.31 597.977 402.983 597.353 403.421L596.465 404.045L595.102 402.084L595.989 401.46ZM596.123 405.275L597.829 404.076C598.929 403.303 599.194 402.169 598.492 401.161C597.791 400.152 596.641 400.013 595.541 400.786L594.639 401.42L593.566 399.877L592.762 400.442L596.123 405.275Z" fill="black"/>
<path d="M652.985 316.689H672.559V388.147H652.985V316.689Z" fill="#F5B65A"/>
<path d="M676 0H695V388.036H676V0Z" fill="#81AE7C"/>
<path d="M676 383.009H695V388.036H676V383.009Z" fill="#253645"/>
<path d="M652.985 299.084H672.559V316.69H652.985V299.084Z" fill="#E18565"/>
<path d="M634.249 432.145L635.072 431.566L630.408 424.861L629.586 425.439L629.703 433.327L629.629 433.379L625.906 428.025L625.083 428.604L629.747 435.309L630.57 434.731L630.465 426.862L630.539 426.81L634.249 432.145Z" fill="black"/>
<path d="M640.178 428.102C641.528 427.153 641.701 425.621 640.622 424.068C639.539 422.512 638.051 422.153 636.701 423.102C635.48 423.96 635.225 425.294 635.987 426.696L635.159 427.278L633.773 425.284L632.968 425.85L636.33 430.683L637.134 430.117L635.621 427.943L636.43 427.374C637.498 428.72 638.903 428.999 640.178 428.102ZM639.681 427.386C638.812 427.997 637.869 427.691 637.081 426.557C636.289 425.419 636.329 424.428 637.199 423.817C638.068 423.207 639.007 423.508 639.799 424.647C640.587 425.781 640.55 426.776 639.681 427.386Z" fill="black"/>
<path d="M642.825 422.942L641.557 420.802L643.175 419.665L646.074 423.834L646.879 423.268L643.518 418.435L640.369 420.648L642.049 423.459C642.607 424.389 642.817 425.078 642.341 425.413C642.226 425.494 642.122 425.533 642.07 425.548L642.578 426.277C642.649 426.262 642.761 426.225 642.9 426.127C643.912 425.416 643.656 424.344 642.825 422.942Z" fill="black"/>
<path d="M647.882 418.654C648.501 418.219 649.176 418.319 649.59 418.914C650.001 419.504 649.87 420.177 649.246 420.615L648.358 421.239L646.994 419.278L647.882 418.654ZM648.016 422.469L649.722 421.27C650.822 420.497 651.087 419.363 650.385 418.355C649.684 417.346 648.534 417.207 647.434 417.98L646.532 418.614L645.459 417.071L644.655 417.636L648.016 422.469Z" fill="black"/>
<path d="M655.702 413.58L655.178 412.827L652.146 414.959L652.669 415.711L655.702 413.58Z" fill="black"/>
<path d="M664.815 410.662L665.689 410.048L658.566 405.071L657.743 405.649L659.947 414.083L660.821 413.469L660.157 411.079L662.81 409.214L664.815 410.662ZM658.848 406.387L658.876 406.368L662.071 408.675L659.907 410.196L658.848 406.387Z" fill="black"/>
<path d="M668.486 408.082C669.507 407.364 669.764 406.388 669.17 405.533C668.759 404.943 668.061 404.79 667.397 405.132L667.371 405.095C667.751 404.69 667.777 403.986 667.431 403.489C666.892 402.713 666.012 402.625 665.111 403.259L663.053 404.705L666.415 409.538L668.486 408.082ZM664.313 404.795L665.446 403.999C665.95 403.645 666.391 403.695 666.695 404.131C667.021 404.601 666.888 405.033 666.283 405.459L665.27 406.17L664.313 404.795ZM665.723 406.821L666.8 406.064C667.502 405.57 668.008 405.575 668.357 406.076C668.696 406.564 668.566 407.05 667.984 407.46L666.763 408.317L665.723 406.821Z" fill="black"/>
<path d="M671.249 399.934L670.787 399.269L667.695 401.443L671.056 406.276L671.86 405.711L668.961 401.542L671.249 399.934Z" fill="black"/>
<path d="M675.138 403.476C675.434 403.268 675.503 402.873 675.296 402.576C675.09 402.279 674.697 402.209 674.401 402.417C674.105 402.625 674.036 403.019 674.242 403.317C674.449 403.614 674.842 403.684 675.138 403.476Z" fill="black"/>
<path fill-rule="evenodd" clip-rule="evenodd" d="M790 0H0V442H790V0ZM459 287H440V386H459V287Z" fill="white" fill-opacity="0.74"/>
<g filter="url(#filter0_d)">
<rect x="38" y="174" width="402" height="113" rx="1" fill="white"/>
</g>
<path d="M74.535 201.995V204.65C74.535 206.03 75.21 206.72 76.56 206.72C77.32 206.72 78.015 206.595 78.645 206.345V201.995H80.4V212H78.645V207.89C77.945 208.14 77.19 208.265 76.38 208.265C75.19 208.265 74.29 207.945 73.68 207.305C73.08 206.655 72.78 205.77 72.78 204.65V201.995H74.535ZM85.8279 212.18C84.7279 212.18 83.8179 211.83 83.0979 211.13C82.3879 210.42 82.0329 209.5 82.0329 208.37C82.0329 207.31 82.3779 206.415 83.0679 205.685C83.7679 204.945 84.6479 204.575 85.7079 204.575C86.7779 204.575 87.6379 204.945 88.2879 205.685C88.9479 206.425 89.2779 207.37 89.2779 208.52V208.895H83.6829C83.7429 209.465 83.9779 209.94 84.3879 210.32C84.7979 210.7 85.3329 210.89 85.9929 210.89C86.3629 210.89 86.7329 210.82 87.1029 210.68C87.4829 210.54 87.7979 210.345 88.0479 210.095L88.7679 211.13C88.0379 211.83 87.0579 212.18 85.8279 212.18ZM87.7479 207.785C87.7279 207.285 87.5429 206.84 87.1929 206.45C86.8529 206.06 86.3579 205.865 85.7079 205.865C85.0879 205.865 84.6029 206.06 84.2529 206.45C83.9029 206.83 83.7079 207.275 83.6679 207.785H87.7479ZM94.7325 212.18C93.7725 212.18 92.9975 211.785 92.4075 210.995V214.76H90.8325V204.755H92.4075V205.745C92.9875 204.965 93.7625 204.575 94.7325 204.575C95.6825 204.575 96.4525 204.915 97.0425 205.595C97.6425 206.275 97.9425 207.2 97.9425 208.37C97.9425 209.54 97.6425 210.47 97.0425 211.16C96.4525 211.84 95.6825 212.18 94.7325 212.18ZM94.2675 210.785C94.8875 210.785 95.3825 210.56 95.7525 210.11C96.1225 209.66 96.3075 209.08 96.3075 208.37C96.3075 207.66 96.1225 207.085 95.7525 206.645C95.3825 206.195 94.8875 205.97 94.2675 205.97C93.9075 205.97 93.5525 206.065 93.2025 206.255C92.8525 206.445 92.5875 206.675 92.4075 206.945V209.81C92.5875 210.08 92.8525 210.31 93.2025 210.5C93.5525 210.69 93.9075 210.785 94.2675 210.785ZM101.079 212H99.5044V204.755H101.079V207.605H104.409V204.755H105.984V212H104.409V208.985H101.079V212ZM114.03 212H112.455V211.22C111.895 211.86 111.115 212.18 110.115 212.18C109.455 212.18 108.87 211.97 108.36 211.55C107.85 211.12 107.595 210.53 107.595 209.78C107.595 209.01 107.845 208.425 108.345 208.025C108.855 207.625 109.445 207.425 110.115 207.425C111.145 207.425 111.925 207.735 112.455 208.355V207.275C112.455 206.855 112.3 206.525 111.99 206.285C111.68 206.045 111.27 205.925 110.76 205.925C109.95 205.925 109.235 206.23 108.615 206.84L107.97 205.745C108.79 204.965 109.805 204.575 111.015 204.575C111.905 204.575 112.63 204.785 113.19 205.205C113.75 205.625 114.03 206.29 114.03 207.2V212ZM110.73 211.1C111.52 211.1 112.095 210.85 112.455 210.35V209.255C112.095 208.755 111.52 208.505 110.73 208.505C110.28 208.505 109.91 208.625 109.62 208.865C109.33 209.105 109.185 209.42 109.185 209.81C109.185 210.2 109.33 210.515 109.62 210.755C109.91 210.985 110.28 211.1 110.73 211.1ZM117.617 212H115.817L117.602 209.3C117.102 209.19 116.692 208.94 116.372 208.55C116.062 208.16 115.907 207.665 115.907 207.065C115.907 206.415 116.117 205.87 116.537 205.43C116.967 204.98 117.557 204.755 118.307 204.755H122.447V212H120.872V209.375H119.207L117.617 212ZM118.502 207.995H120.872V206.135H118.502C118.202 206.135 117.962 206.225 117.782 206.405C117.602 206.575 117.512 206.795 117.512 207.065C117.512 207.345 117.597 207.57 117.767 207.74C117.947 207.91 118.192 207.995 118.502 207.995ZM131.603 212.18C130.483 212.18 129.583 211.815 128.903 211.085C128.223 210.345 127.883 209.44 127.883 208.37C127.883 207.3 128.223 206.4 128.903 205.67C129.583 204.94 130.483 204.575 131.603 204.575C132.733 204.575 133.638 204.94 134.318 205.67C134.998 206.4 135.338 207.3 135.338 208.37C135.338 209.45 134.998 210.355 134.318 211.085C133.638 211.815 132.733 212.18 131.603 212.18ZM131.603 210.785C132.253 210.785 132.763 210.555 133.133 210.095C133.513 209.625 133.703 209.05 133.703 208.37C133.703 207.7 133.513 207.135 133.133 206.675C132.763 206.205 132.253 205.97 131.603 205.97C130.963 205.97 130.453 206.205 130.073 206.675C129.703 207.135 129.517 207.7 129.517 208.37C129.517 209.05 129.703 209.625 130.073 210.095C130.453 210.555 130.963 210.785 131.603 210.785ZM139.826 212H138.251V206.135H136.181V204.755H141.911V206.135H139.826V212ZM151.316 212H149.741V206.96L147.581 212H146.951L144.776 206.96V212H143.201V204.755H145.256L147.266 209.435L149.246 204.755H151.316V212ZM156.697 212.18C155.597 212.18 154.687 211.83 153.967 211.13C153.257 210.42 152.902 209.5 152.902 208.37C152.902 207.31 153.247 206.415 153.937 205.685C154.637 204.945 155.517 204.575 156.577 204.575C157.647 204.575 158.507 204.945 159.157 205.685C159.817 206.425 160.147 207.37 160.147 208.52V208.895H154.552C154.612 209.465 154.847 209.94 155.257 210.32C155.667 210.7 156.202 210.89 156.862 210.89C157.232 210.89 157.602 210.82 157.972 210.68C158.352 210.54 158.667 210.345 158.917 210.095L159.637 211.13C158.907 211.83 157.927 212.18 156.697 212.18ZM158.617 207.785C158.597 207.285 158.412 206.84 158.062 206.45C157.722 206.06 157.227 205.865 156.577 205.865C155.957 205.865 155.472 206.06 155.122 206.45C154.772 206.83 154.577 207.275 154.537 207.785H158.617ZM164.597 212H163.022V206.135H160.952V204.755H166.682V206.135H164.597V212ZM174.751 212H172.771L170.551 209.015L169.546 210.05V212H167.971V204.755H169.546V208.25L172.741 204.755H174.691L171.676 208.04L174.751 212ZM181.867 212H180.292V211.22C179.732 211.86 178.952 212.18 177.952 212.18C177.292 212.18 176.707 211.97 176.197 211.55C175.687 211.12 175.432 210.53 175.432 209.78C175.432 209.01 175.682 208.425 176.182 208.025C176.692 207.625 177.282 207.425 177.952 207.425C178.982 207.425 179.762 207.735 180.292 208.355V207.275C180.292 206.855 180.137 206.525 179.827 206.285C179.517 206.045 179.107 205.925 178.597 205.925C177.787 205.925 177.072 206.23 176.452 206.84L175.807 205.745C176.627 204.965 177.642 204.575 178.852 204.575C179.742 204.575 180.467 204.785 181.027 205.205C181.587 205.625 181.867 206.29 181.867 207.2V212ZM178.567 211.1C179.357 211.1 179.932 210.85 180.292 210.35V209.255C179.932 208.755 179.357 208.505 178.567 208.505C178.117 208.505 177.747 208.625 177.457 208.865C177.167 209.105 177.022 209.42 177.022 209.81C177.022 210.2 177.167 210.515 177.457 210.755C177.747 210.985 178.117 211.1 178.567 211.1ZM195.201 208.865V207.875H187.206V208.865H195.201ZM204.21 212.18C206.115 212.18 207.435 210.71 207.435 208.37C207.435 206.015 206.115 204.575 204.21 204.575C203.19 204.575 202.29 205.1 201.765 205.835V204.755H200.64V214.76H201.765V210.905C202.35 211.715 203.22 212.18 204.21 212.18ZM203.925 211.175C203.04 211.175 202.155 210.635 201.765 210.005V206.735C202.155 206.105 203.04 205.58 203.925 205.58C205.38 205.58 206.25 206.765 206.25 208.37C206.25 209.975 205.38 211.175 203.925 211.175ZM214.879 212V207.02C214.879 205.265 213.604 204.575 212.074 204.575C210.889 204.575 209.959 204.965 209.179 205.775L209.704 206.555C210.349 205.865 211.054 205.55 211.924 205.55C212.974 205.55 213.754 206.105 213.754 207.08V208.385C213.169 207.71 212.344 207.395 211.354 207.395C210.124 207.395 208.819 208.16 208.819 209.78C208.819 211.355 210.124 212.18 211.354 212.18C212.329 212.18 213.154 211.835 213.754 211.175V212H214.879ZM211.759 211.37C210.709 211.37 209.974 210.71 209.974 209.795C209.974 208.865 210.709 208.205 211.759 208.205C212.554 208.205 213.319 208.505 213.754 209.105V210.47C213.319 211.07 212.554 211.37 211.759 211.37ZM219.699 212.18C221.784 212.18 223.014 211.28 223.014 210.065C223.014 208.865 221.754 208.355 220.914 208.295C221.769 208.19 222.864 207.605 222.864 206.525C222.864 205.295 221.484 204.575 219.534 204.59C218.214 204.59 217.239 205.055 216.564 205.745L217.149 206.435C217.764 205.805 218.559 205.505 219.579 205.505C220.779 205.505 221.694 205.97 221.694 206.66C221.694 207.485 220.749 207.875 219.549 207.875H217.929V208.79H219.549C220.824 208.79 221.829 209.09 221.829 209.99C221.829 210.755 220.989 211.25 219.699 211.25C218.619 211.25 217.659 210.92 216.984 210.275L216.429 210.995C217.149 211.715 218.244 212.18 219.699 212.18ZM232.234 212V204.755H230.734L228.544 210.125L226.324 204.755H224.839V212H225.964V206.315L228.334 212H228.754L231.109 206.315V212H232.234ZM237.748 212.18C238.933 212.18 239.908 211.79 240.628 211.07L240.088 210.335C239.518 210.92 238.678 211.25 237.853 211.25C236.293 211.25 235.333 210.11 235.243 208.745H241.108V208.46C241.108 206.285 239.818 204.575 237.628 204.575C235.558 204.575 234.058 206.27 234.058 208.37C234.058 210.635 235.603 212.18 237.748 212.18ZM239.998 207.92H235.243C235.303 206.81 236.068 205.505 237.613 205.505C239.263 205.505 239.983 206.84 239.998 207.92ZM246.5 212.18C248.405 212.18 249.725 210.71 249.725 208.37C249.725 206.015 248.405 204.575 246.5 204.575C245.48 204.575 244.58 205.1 244.055 205.835V204.755H242.93V214.76H244.055V210.905C244.64 211.715 245.51 212.18 246.5 212.18ZM246.215 211.175C245.33 211.175 244.445 210.635 244.055 210.005V206.735C244.445 206.105 245.33 205.58 246.215 205.58C247.67 205.58 248.54 206.765 248.54 208.37C248.54 209.975 247.67 211.175 246.215 211.175ZM265.221 212V201.995H263.436L260.316 209.525L257.211 201.995H255.426V212H256.671V203.765L260.061 212H260.571L263.976 203.765V212H265.221ZM275.895 212V201.995H267.555V212H268.8V203.105H274.65V212H275.895ZM288.086 212V204.755H282.056V212H283.181V205.745H286.961V212H288.086ZM293.497 212.18C295.702 212.18 297.082 210.47 297.082 208.37C297.082 206.27 295.702 204.575 293.497 204.575C291.292 204.575 289.912 206.27 289.912 208.37C289.912 210.47 291.292 212.18 293.497 212.18ZM293.497 211.175C291.952 211.175 291.082 209.855 291.082 208.37C291.082 206.9 291.952 205.58 293.497 205.58C295.042 205.58 295.897 206.9 295.897 208.37C295.897 209.855 295.042 211.175 293.497 211.175ZM308.813 212V204.755H302.783V212H303.908V205.745H307.688V212H308.813ZM314.63 212.18C316.535 212.18 317.855 210.71 317.855 208.37C317.855 206.015 316.535 204.575 314.63 204.575C313.61 204.575 312.71 205.1 312.185 205.835V204.755H311.06V214.76H312.185V210.905C312.77 211.715 313.64 212.18 314.63 212.18ZM314.345 211.175C313.46 211.175 312.575 210.635 312.185 210.005V206.735C312.575 206.105 313.46 205.58 314.345 205.58C315.8 205.58 316.67 206.765 316.67 208.37C316.67 209.975 315.8 211.175 314.345 211.175ZM322.914 212.18C324.099 212.18 325.074 211.79 325.794 211.07L325.254 210.335C324.684 210.92 323.844 211.25 323.019 211.25C321.459 211.25 320.499 210.11 320.409 208.745H326.274V208.46C326.274 206.285 324.984 204.575 322.794 204.575C320.724 204.575 319.224 206.27 319.224 208.37C319.224 210.635 320.769 212.18 322.914 212.18ZM325.164 207.92H320.409C320.469 206.81 321.234 205.505 322.779 205.505C324.429 205.505 325.149 206.84 325.164 207.92ZM327.241 213.845H328.366V212H333.841V213.845H334.966V211.01H334.126V204.755H329.086L328.621 208.325C328.336 210.47 327.916 210.95 327.241 211.07V213.845ZM330.076 205.745H333.001V211.01H328.696C329.221 210.59 329.566 209.825 329.746 208.46L330.076 205.745ZM336.504 204.755V212H340.344C341.829 212 342.624 210.98 342.624 209.78C342.624 208.595 341.844 207.56 340.344 207.56H337.629V204.755H336.504ZM340.224 208.55C341.049 208.55 341.469 209.075 341.469 209.78C341.469 210.5 341.034 211.01 340.224 211.01H337.629V208.55H340.224ZM344.934 212V204.755H343.809V212H344.934ZM346.328 213.845H347.453V212H352.928V213.845H354.053V211.01H353.213V204.755H348.173L347.708 208.325C347.423 210.47 347.003 210.95 346.328 211.07V213.845ZM349.163 205.745H352.088V211.01H347.783C348.308 210.59 348.653 209.825 348.833 208.46L349.163 205.745ZM355.186 214.835C355.396 214.895 355.771 214.94 356.011 214.94C356.971 214.925 357.706 214.52 358.141 213.47L361.771 204.755H360.541L358.141 210.695L355.726 204.755H354.511L357.541 212.075L357.061 213.17C356.806 213.77 356.476 213.935 355.981 213.935C355.801 213.935 355.531 213.89 355.366 213.815L355.186 214.835ZM371.314 204.755V211.01H368.254V204.755H367.129V211.01H364.069V204.755H362.944V212H372.244V213.845H373.369V211.01H372.439V204.755H371.314ZM378.182 212.18C379.367 212.18 380.342 211.79 381.062 211.07L380.522 210.335C379.952 210.92 379.112 211.25 378.287 211.25C376.727 211.25 375.767 210.11 375.677 208.745H381.542V208.46C381.542 206.285 380.252 204.575 378.062 204.575C375.992 204.575 374.492 206.27 374.492 208.37C374.492 210.635 376.037 212.18 378.182 212.18ZM380.432 207.92H375.677C375.737 206.81 376.502 205.505 378.047 205.505C379.697 205.505 380.417 206.84 380.432 207.92ZM384.444 212L388.269 206.36V212H389.394V204.755H388.284L384.489 210.29V204.755H383.364V212H384.444ZM389.004 202.61L388.449 202.13C387.984 202.805 387.249 203.21 386.379 203.21C385.494 203.21 384.774 202.79 384.294 202.13L383.739 202.61C384.354 203.42 385.314 203.93 386.379 203.93C387.459 203.93 388.404 203.42 389.004 202.61ZM77.19 236C78.525 236 79.305 235.205 79.305 234.035C79.305 233.21 78.72 232.445 77.985 232.265C78.6 232.07 79.155 231.485 79.155 230.615C79.155 229.52 78.39 228.755 77.115 228.755H73.125V236H77.19ZM76.965 235.01H74.25V232.775H76.965C77.73 232.775 78.135 233.315 78.135 233.9C78.135 234.59 77.685 235.01 76.965 235.01ZM76.92 231.785H74.25V229.745H76.92C77.61 229.745 78 230.15 78 230.78C78 231.35 77.625 231.785 76.92 231.785ZM81.4307 228.755V236H85.2707C86.7557 236 87.5507 234.98 87.5507 233.78C87.5507 232.595 86.7707 231.56 85.2707 231.56H82.5557V228.755H81.4307ZM85.1507 232.55C85.9757 232.55 86.3957 233.075 86.3957 233.78C86.3957 234.5 85.9607 235.01 85.1507 235.01H82.5557V232.55H85.1507ZM89.8607 236V228.755H88.7357V236H89.8607ZM98.1394 236V228.755H92.1094V236H93.2344V229.745H97.0144V236H98.1394ZM101.466 236L105.291 230.36V236H106.416V228.755H105.306L101.511 234.29V228.755H100.386V236H101.466ZM111.857 236.18C113.177 236.18 113.957 235.64 114.512 234.92L113.762 234.23C113.282 234.875 112.667 235.175 111.917 235.175C110.372 235.175 109.412 233.975 109.412 232.37C109.412 230.765 110.372 229.58 111.917 229.58C112.667 229.58 113.282 229.865 113.762 230.525L114.512 229.835C113.957 229.115 113.177 228.575 111.857 228.575C109.697 228.575 108.242 230.225 108.242 232.37C108.242 234.53 109.697 236.18 111.857 236.18ZM122.464 236L119.239 232.04L122.449 228.755H121.024L117.214 232.61V228.755H116.089V236H117.214V233.93L118.414 232.745L121.024 236H122.464ZM127.02 236.18C128.205 236.18 129.18 235.79 129.9 235.07L129.36 234.335C128.79 234.92 127.95 235.25 127.125 235.25C125.565 235.25 124.605 234.11 124.515 232.745H130.38V232.46C130.38 230.285 129.09 228.575 126.9 228.575C124.83 228.575 123.33 230.27 123.33 232.37C123.33 234.635 124.875 236.18 127.02 236.18ZM129.27 231.92H124.515C124.575 230.81 125.34 229.505 126.885 229.505C128.535 229.505 129.255 230.84 129.27 231.92ZM132.7 236.15C133.15 236.15 133.525 235.775 133.525 235.325C133.525 234.875 133.15 234.5 132.7 234.5C132.25 234.5 131.875 234.875 131.875 235.325C131.875 235.775 132.25 236.15 132.7 236.15ZM144.029 236.18C146.984 236.18 148.994 233.96 148.994 231.005C148.994 228.05 146.984 225.83 144.029 225.83C141.059 225.83 139.064 228.05 139.064 231.005C139.064 233.96 141.059 236.18 144.029 236.18ZM144.029 235.07C141.779 235.07 140.354 233.33 140.354 231.005C140.354 228.665 141.779 226.94 144.029 226.94C146.264 226.94 147.704 228.665 147.704 231.005C147.704 233.33 146.264 235.07 144.029 235.07ZM153.339 236V229.745H155.454V228.755H150.114V229.745H152.214V236H153.339ZM164.324 236V228.755H162.824L160.634 234.125L158.414 228.755H156.929V236H158.054V230.315L160.424 236H160.844L163.199 230.315V236H164.324ZM169.837 236.18C171.022 236.18 171.997 235.79 172.717 235.07L172.177 234.335C171.607 234.92 170.767 235.25 169.942 235.25C168.382 235.25 167.422 234.11 167.332 232.745H173.197V232.46C173.197 230.285 171.907 228.575 169.717 228.575C167.647 228.575 166.147 230.27 166.147 232.37C166.147 234.635 167.692 236.18 169.837 236.18ZM172.087 231.92H167.332C167.392 230.81 168.157 229.505 169.702 229.505C171.352 229.505 172.072 230.84 172.087 231.92ZM177.465 236V229.745H179.58V228.755H174.24V229.745H176.34V236H177.465ZM187.43 236L184.205 232.04L187.415 228.755H185.99L182.18 232.61V228.755H181.055V236H182.18V233.93L183.38 232.745L185.99 236H187.43ZM194.415 236V231.02C194.415 229.265 193.14 228.575 191.61 228.575C190.425 228.575 189.495 228.965 188.715 229.775L189.24 230.555C189.885 229.865 190.59 229.55 191.46 229.55C192.51 229.55 193.29 230.105 193.29 231.08V232.385C192.705 231.71 191.88 231.395 190.89 231.395C189.66 231.395 188.355 232.16 188.355 233.78C188.355 235.355 189.66 236.18 190.89 236.18C191.865 236.18 192.69 235.835 193.29 235.175V236H194.415ZM191.295 235.37C190.245 235.37 189.51 234.71 189.51 233.795C189.51 232.865 190.245 232.205 191.295 232.205C192.09 232.205 192.855 232.505 193.29 233.105V234.47C192.855 235.07 192.09 235.37 191.295 235.37ZM206.567 236V228.755H200.537V236H201.662V229.745H205.442V236H206.567ZM211.978 236.18C214.183 236.18 215.563 234.47 215.563 232.37C215.563 230.27 214.183 228.575 211.978 228.575C209.773 228.575 208.393 230.27 208.393 232.37C208.393 234.47 209.773 236.18 211.978 236.18ZM211.978 235.175C210.433 235.175 209.563 233.855 209.563 232.37C209.563 230.9 210.433 229.58 211.978 229.58C213.523 229.58 214.378 230.9 214.378 232.37C214.378 233.855 213.523 235.175 211.978 235.175ZM219.962 236.18C222.047 236.18 223.277 235.28 223.277 234.065C223.277 232.865 222.017 232.355 221.177 232.295C222.032 232.19 223.127 231.605 223.127 230.525C223.127 229.295 221.747 228.575 219.797 228.59C218.477 228.59 217.502 229.055 216.827 229.745L217.412 230.435C218.027 229.805 218.822 229.505 219.842 229.505C221.042 229.505 221.957 229.97 221.957 230.66C221.957 231.485 221.012 231.875 219.812 231.875H218.192V232.79H219.812C221.087 232.79 222.092 233.09 222.092 233.99C222.092 234.755 221.252 235.25 219.962 235.25C218.882 235.25 217.922 234.92 217.247 234.275L216.692 234.995C217.412 235.715 218.507 236.18 219.962 236.18ZM229.168 236C230.503 236 231.283 235.205 231.283 234.035C231.283 233.21 230.698 232.445 229.963 232.265C230.578 232.07 231.133 231.485 231.133 230.615C231.133 229.52 230.368 228.755 229.093 228.755H225.103V236H229.168ZM228.943 235.01H226.228V232.775H228.943C229.708 232.775 230.113 233.315 230.113 233.9C230.113 234.59 229.663 235.01 228.943 235.01ZM228.898 231.785H226.228V229.745H228.898C229.588 229.745 229.978 230.15 229.978 230.78C229.978 231.35 229.603 231.785 228.898 231.785ZM236.573 236.18C238.778 236.18 240.158 234.47 240.158 232.37C240.158 230.27 238.778 228.575 236.573 228.575C234.368 228.575 232.988 230.27 232.988 232.37C232.988 234.47 234.368 236.18 236.573 236.18ZM236.573 235.175C235.028 235.175 234.158 233.855 234.158 232.37C234.158 230.9 235.028 229.58 236.573 229.58C238.118 229.58 238.973 230.9 238.973 232.37C238.973 233.855 238.118 235.175 236.573 235.175ZM241.137 236.18C242.532 236.18 243.312 235.16 243.642 232.46L243.972 229.745H246.897V236H248.022V228.755H242.982L242.517 232.325C242.232 234.47 241.812 235.25 241.137 235.25V236.18ZM251.349 236L253.119 233.195H255.099V236H256.224V228.755H252.399C250.929 228.755 250.104 229.745 250.104 230.975C250.104 232.19 250.884 233.015 251.964 233.15L250.029 236H251.349ZM252.519 232.205C251.694 232.205 251.259 231.695 251.259 230.975C251.259 230.255 251.724 229.745 252.519 229.745H255.099V232.205H252.519ZM261.742 236.18C262.927 236.18 263.902 235.79 264.622 235.07L264.082 234.335C263.512 234.92 262.672 235.25 261.847 235.25C260.287 235.25 259.327 234.11 259.237 232.745H265.102V232.46C265.102 230.285 263.812 228.575 261.622 228.575C259.552 228.575 258.052 230.27 258.052 232.37C258.052 234.635 259.597 236.18 261.742 236.18ZM263.992 231.92H259.237C259.297 230.81 260.062 229.505 261.607 229.505C263.257 229.505 263.977 230.84 263.992 231.92ZM269.369 236V229.745H271.484V228.755H266.144V229.745H268.244V236H269.369ZM282.856 236V228.755H276.826V236H277.951V229.745H281.731V236H282.856ZM288.268 236.18C290.473 236.18 291.853 234.47 291.853 232.37C291.853 230.27 290.473 228.575 288.268 228.575C286.063 228.575 284.683 230.27 284.683 232.37C284.683 234.47 286.063 236.18 288.268 236.18ZM288.268 235.175C286.723 235.175 285.853 233.855 285.853 232.37C285.853 230.9 286.723 229.58 288.268 229.58C289.813 229.58 290.668 230.9 290.668 232.37C290.668 233.855 289.813 235.175 288.268 235.175ZM294.812 236V232.76H298.592V236H299.717V228.755H298.592V231.77H294.812V228.755H293.687V236H294.812ZM303.043 236L304.813 233.195H306.793V236H307.918V228.755H304.093C302.623 228.755 301.798 229.745 301.798 230.975C301.798 232.19 302.578 233.015 303.658 233.15L301.723 236H303.043ZM304.213 232.205C303.388 232.205 302.953 231.695 302.953 230.975C302.953 230.255 303.418 229.745 304.213 229.745H306.793V232.205H304.213ZM312.611 236V229.745H314.726V228.755H309.386V229.745H311.486V236H312.611ZM316.201 228.755V236H320.041C321.526 236 322.321 234.98 322.321 233.78C322.321 232.595 321.541 231.56 320.041 231.56H317.326V228.755H316.201ZM319.921 232.55C320.746 232.55 321.166 233.075 321.166 233.78C321.166 234.5 320.731 235.01 319.921 235.01H317.326V232.55H319.921ZM325.553 235.64C325.553 234.92 325.103 234.5 324.608 234.5C324.158 234.5 323.813 234.875 323.813 235.31C323.813 235.76 324.113 236.075 324.533 236.075C324.608 236.075 324.713 236.06 324.743 236.045C324.683 236.54 324.248 237.125 323.768 237.44L324.323 237.905C325.013 237.41 325.553 236.555 325.553 235.64ZM337.737 236L334.512 232.04L337.722 228.755H336.297L332.487 232.61V228.755H331.362V236H332.487V233.93L333.687 232.745L336.297 236H337.737ZM344.722 236V231.02C344.722 229.265 343.447 228.575 341.917 228.575C340.732 228.575 339.802 228.965 339.022 229.775L339.547 230.555C340.192 229.865 340.897 229.55 341.767 229.55C342.817 229.55 343.597 230.105 343.597 231.08V232.385C343.012 231.71 342.187 231.395 341.197 231.395C339.967 231.395 338.662 232.16 338.662 233.78C338.662 235.355 339.967 236.18 341.197 236.18C342.172 236.18 342.997 235.835 343.597 235.175V236H344.722ZM341.602 235.37C340.552 235.37 339.817 234.71 339.817 233.795C339.817 232.865 340.552 232.205 341.602 232.205C342.397 232.205 343.162 232.505 343.597 233.105V234.47C343.162 235.07 342.397 235.37 341.602 235.37ZM353.353 236L350.128 232.04L353.338 228.755H351.913L348.103 232.61V228.755H346.978V236H348.103V233.93L349.303 232.745L351.913 236H353.353ZM364.925 236L361.7 232.04L364.91 228.755H363.485L359.675 232.61V228.755H358.55V236H359.675V233.93L360.875 232.745L363.485 236H364.925ZM365.4 236.18C366.795 236.18 367.575 235.16 367.905 232.46L368.235 229.745H371.16V236H372.285V228.755H367.245L366.78 232.325C366.495 234.47 366.075 235.25 365.4 235.25V236.18ZM375.611 236L379.436 230.36V236H380.561V228.755H379.451L375.656 234.29V228.755H374.531V236H375.611ZM386.078 236.18C387.263 236.18 388.238 235.79 388.958 235.07L388.418 234.335C387.848 234.92 387.008 235.25 386.183 235.25C384.623 235.25 383.663 234.11 383.573 232.745H389.438V232.46C389.438 230.285 388.148 228.575 385.958 228.575C383.888 228.575 382.388 230.27 382.388 232.37C382.388 234.635 383.933 236.18 386.078 236.18ZM388.328 231.92H383.573C383.633 230.81 384.398 229.505 385.943 229.505C387.593 229.505 388.313 230.84 388.328 231.92ZM392.385 236V232.76H396.165V236H397.29V228.755H396.165V231.77H392.385V228.755H391.26V236H392.385ZM401.981 236V229.745H404.096V228.755H398.756V229.745H400.856V236H401.981ZM79.155 260V252.755H73.125V260H74.25V253.745H78.03V260H79.155ZM84.5664 260.18C86.7714 260.18 88.1514 258.47 88.1514 256.37C88.1514 254.27 86.7714 252.575 84.5664 252.575C82.3614 252.575 80.9814 254.27 80.9814 256.37C80.9814 258.47 82.3614 260.18 84.5664 260.18ZM84.5664 259.175C83.0214 259.175 82.1514 257.855 82.1514 256.37C82.1514 254.9 83.0214 253.58 84.5664 253.58C86.1114 253.58 86.9664 254.9 86.9664 256.37C86.9664 257.855 86.1114 259.175 84.5664 259.175ZM95.0554 252.755H89.9854V260H91.1104V253.745H95.0554V252.755ZM102.174 260V255.02C102.174 253.265 100.899 252.575 99.3686 252.575C98.1836 252.575 97.2536 252.965 96.4736 253.775L96.9986 254.555C97.6436 253.865 98.3486 253.55 99.2186 253.55C100.269 253.55 101.049 254.105 101.049 255.08V256.385C100.464 255.71 99.6386 255.395 98.6486 255.395C97.4186 255.395 96.1136 256.16 96.1136 257.78C96.1136 259.355 97.4186 260.18 98.6486 260.18C99.6236 260.18 100.449 259.835 101.049 259.175V260H102.174ZM99.0536 259.37C98.0036 259.37 97.2686 258.71 97.2686 257.795C97.2686 256.865 98.0036 256.205 99.0536 256.205C99.8486 256.205 100.614 256.505 101.049 257.105V258.47C100.614 259.07 99.8486 259.37 99.0536 259.37ZM112.799 252.755V259.01H109.739V252.755H108.614V259.01H105.554V252.755H104.429V260H113.924V252.755H112.799ZM121.832 260V255.02C121.832 253.265 120.557 252.575 119.027 252.575C117.842 252.575 116.912 252.965 116.132 253.775L116.657 254.555C117.302 253.865 118.007 253.55 118.877 253.55C119.927 253.55 120.707 254.105 120.707 255.08V256.385C120.122 255.71 119.297 255.395 118.307 255.395C117.077 255.395 115.772 256.16 115.772 257.78C115.772 259.355 117.077 260.18 118.307 260.18C119.282 260.18 120.107 259.835 120.707 259.175V260H121.832ZM118.712 259.37C117.662 259.37 116.927 258.71 116.927 257.795C116.927 256.865 117.662 256.205 118.712 256.205C119.507 256.205 120.272 256.505 120.707 257.105V258.47C120.272 259.07 119.507 259.37 118.712 259.37ZM127.357 260.18C128.542 260.18 129.517 259.79 130.237 259.07L129.697 258.335C129.127 258.92 128.287 259.25 127.462 259.25C125.902 259.25 124.942 258.11 124.852 256.745H130.717V256.46C130.717 254.285 129.427 252.575 127.237 252.575C125.167 252.575 123.667 254.27 123.667 256.37C123.667 258.635 125.212 260.18 127.357 260.18ZM129.607 255.92H124.852C124.912 254.81 125.677 253.505 127.222 253.505C128.872 253.505 129.592 254.84 129.607 255.92ZM134.984 260V253.745H137.099V252.755H131.759V253.745H133.859V260H134.984ZM145.006 260.18C147.091 260.18 148.321 259.28 148.321 258.065C148.321 256.865 147.061 256.355 146.221 256.295C147.076 256.19 148.171 255.605 148.171 254.525C148.171 253.295 146.791 252.575 144.841 252.59C143.521 252.59 142.546 253.055 141.871 253.745L142.456 254.435C143.071 253.805 143.866 253.505 144.886 253.505C146.086 253.505 147.001 253.97 147.001 254.66C147.001 255.485 146.056 255.875 144.856 255.875H143.236V256.79H144.856C146.131 256.79 147.136 257.09 147.136 257.99C147.136 258.755 146.296 259.25 145.006 259.25C143.926 259.25 142.966 258.92 142.291 258.275L141.736 258.995C142.456 259.715 143.551 260.18 145.006 260.18ZM155.801 260V255.02C155.801 253.265 154.526 252.575 152.996 252.575C151.811 252.575 150.881 252.965 150.101 253.775L150.626 254.555C151.271 253.865 151.976 253.55 152.846 253.55C153.896 253.55 154.676 254.105 154.676 255.08V256.385C154.091 255.71 153.266 255.395 152.276 255.395C151.046 255.395 149.741 256.16 149.741 257.78C149.741 259.355 151.046 260.18 152.276 260.18C153.251 260.18 154.076 259.835 154.676 259.175V260H155.801ZM152.681 259.37C151.631 259.37 150.896 258.71 150.896 257.795C150.896 256.865 151.631 256.205 152.681 256.205C153.476 256.205 154.241 256.505 154.676 257.105V258.47C154.241 259.07 153.476 259.37 152.681 259.37ZM157.202 261.845H158.327V260H163.802V261.845H164.927V259.01H164.087V252.755H159.047L158.582 256.325C158.297 258.47 157.877 258.95 157.202 259.07V261.845ZM160.037 253.745H162.962V259.01H158.657C159.182 258.59 159.527 257.825 159.707 256.46L160.037 253.745ZM169.63 260.18C171.835 260.18 173.215 258.47 173.215 256.37C173.215 254.27 171.835 252.575 169.63 252.575C167.425 252.575 166.045 254.27 166.045 256.37C166.045 258.47 167.425 260.18 169.63 260.18ZM169.63 259.175C168.085 259.175 167.215 257.855 167.215 256.37C167.215 254.9 168.085 253.58 169.63 253.58C171.175 253.58 172.03 254.9 172.03 256.37C172.03 257.855 171.175 259.175 169.63 259.175ZM174.194 260.18C175.589 260.18 176.369 259.16 176.699 256.46L177.029 253.745H179.954V260H181.079V252.755H176.039L175.574 256.325C175.289 258.47 174.869 259.25 174.194 259.25V260.18ZM183.85 260L186.46 256.745L186.97 257.255V260H188.095V257.255L188.605 256.745L191.215 260H192.655L189.415 256.04L192.64 252.755H191.215L188.095 255.935V252.755H186.97V255.95L183.85 252.755H182.425L185.635 256.04L182.41 260H183.85ZM197.215 260.18C198.4 260.18 199.375 259.79 200.095 259.07L199.555 258.335C198.985 258.92 198.145 259.25 197.32 259.25C195.76 259.25 194.8 258.11 194.71 256.745H200.575V256.46C200.575 254.285 199.285 252.575 197.095 252.575C195.025 252.575 193.525 254.27 193.525 256.37C193.525 258.635 195.07 260.18 197.215 260.18ZM199.465 255.92H194.71C194.77 254.81 195.535 253.505 197.08 253.505C198.73 253.505 199.45 254.84 199.465 255.92ZM203.522 260V256.76H207.302V260H208.427V252.755H207.302V255.77H203.522V252.755H202.397V260H203.522ZM211.799 260V256.76H215.579V260H216.704V252.755H215.579V255.77H211.799V252.755H210.674V260H211.799ZM222.115 260.18C224.32 260.18 225.7 258.47 225.7 256.37C225.7 254.27 224.32 252.575 222.115 252.575C219.91 252.575 218.53 254.27 218.53 256.37C218.53 258.47 219.91 260.18 222.115 260.18ZM222.115 259.175C220.57 259.175 219.7 257.855 219.7 256.37C219.7 254.9 220.57 253.58 222.115 253.58C223.66 253.58 224.515 254.9 224.515 256.37C224.515 257.855 223.66 259.175 222.115 259.175ZM230.729 260.18C232.049 260.18 232.829 259.64 233.384 258.92L232.634 258.23C232.154 258.875 231.539 259.175 230.789 259.175C229.244 259.175 228.284 257.975 228.284 256.37C228.284 254.765 229.244 253.58 230.789 253.58C231.539 253.58 232.154 253.865 232.634 254.525L233.384 253.835C232.829 253.115 232.049 252.575 230.729 252.575C228.569 252.575 227.114 254.225 227.114 256.37C227.114 258.53 228.569 260.18 230.729 260.18ZM237.406 260V253.745H239.521V252.755H234.181V253.745H236.281V260H237.406ZM240.996 252.755V260H244.836C246.321 260 247.116 258.98 247.116 257.78C247.116 256.595 246.336 255.56 244.836 255.56H242.121V252.755H240.996ZM244.716 256.55C245.541 256.55 245.961 257.075 245.961 257.78C245.961 258.5 245.526 259.01 244.716 259.01H242.121V256.55H244.716Z" fill="#434A50"/>
<defs>
<filter id="filter0_d" x="11" y="174" width="456" height="169" filterUnits="userSpaceOnUse" color-interpolation-filters="sRGB">
<feFlood flood-opacity="0" result="BackgroundImageFix"/>
<feColorMatrix in="SourceAlpha" type="matrix" values="0 0 0 0 0 0 0 0 0 0 0 0 0 0 0 0 0 0 127 0"/>
<feMorphology radius="21" operator="erode" in="SourceAlpha" result="effect1_dropShadow"/>
<feOffset dy="29"/>
<feGaussianBlur stdDeviation="24"/>
<feColorMatrix type="matrix" values="0 0 0 0 0 0 0 0 0 0 0 0 0 0 0 0 0 0 0.31 0"/>
<feBlend mode="normal" in2="BackgroundImageFix" result="effect1_dropShadow"/>
<feBlend mode="normal" in="SourceGraphic" in2="effect1_dropShadow" result="shape"/>
</filter>
</defs>
</svg>
